<?xml version="1.0" encoding="utf-8"?>
<!-- Generator: Adobe Illustrator 24.0.0, SVG Export Plug-In . SVG Version: 6.00 Build 0)  -->
<svg version="1.1" id="Capa_1" xmlns="http://www.w3.org/2000/svg" xmlns:xlink="http://www.w3.org/1999/xlink" x="0px" y="0px"
	 viewBox="0 0 265 156" style="enable-background:new 0 0 265 156;" xml:space="preserve">
<style type="text/css">
	.st0{fill:#232323;}
	.st1{fill:#FFFFFF;}
	.st2{fill:#EBFF29;}
	.st3{fill:#10FECC;}
	.st4{fill:#FF445A;}
	.st5{fill:#4EFF45;}
	.st6{fill:#FFFFFF;stroke:#232323;stroke-miterlimit:10;}
	.st7{fill-rule:evenodd;clip-rule:evenodd;fill:#202020;}
	.st8{fill-rule:evenodd;clip-rule:evenodd;fill:#FFFFFF;}
	.st9{fill-rule:evenodd;clip-rule:evenodd;fill:#232323;}
	.st10{clip-path:url(#SVGID_10_);fill:url(#SVGID_11_);}
	.st11{clip-path:url(#SVGID_13_);fill:url(#SVGID_14_);}
	.st12{clip-path:url(#SVGID_16_);fill:url(#SVGID_17_);}
	.st13{clip-path:url(#SVGID_19_);fill:url(#SVGID_20_);}
	.st14{opacity:0.75;}
	.st15{clip-path:url(#SVGID_40_);fill:url(#SVGID_41_);}
	.st16{clip-path:url(#SVGID_43_);fill:url(#SVGID_44_);}
	.st17{clip-path:url(#SVGID_46_);fill:url(#SVGID_47_);}
	.st18{clip-path:url(#SVGID_49_);fill:url(#SVGID_50_);}
	.st19{fill:none;stroke:#DDDDDD;stroke-miterlimit:10;}
	.st20{fill:none;stroke:#232323;stroke-width:11;stroke-miterlimit:10;}
	.st21{clip-path:url(#SVGID_68_);fill:url(#SVGID_69_);}
	.st22{clip-path:url(#SVGID_71_);fill:url(#SVGID_72_);}
	.st23{clip-path:url(#SVGID_74_);fill:url(#SVGID_75_);}
	.st24{clip-path:url(#SVGID_77_);fill:url(#SVGID_78_);}
	.st25{fill:none;stroke:#232323;stroke-miterlimit:10;}
	.st26{clip-path:url(#SVGID_96_);fill:url(#SVGID_97_);}
	.st27{clip-path:url(#SVGID_99_);fill:url(#SVGID_100_);}
	.st28{clip-path:url(#SVGID_102_);fill:url(#SVGID_103_);}
	.st29{clip-path:url(#SVGID_105_);fill:url(#SVGID_106_);}
	.st30{fill:none;stroke:#232323;stroke-width:5;stroke-miterlimit:10;}
	.st31{fill:none;}
	.st32{fill:#62FF5A;}
	.st33{fill:#4EFF45;stroke:#4EFF45;stroke-width:0.75;stroke-linecap:round;stroke-linejoin:round;stroke-miterlimit:10;}
	.st34{fill:none;stroke:#000000;stroke-width:4;stroke-miterlimit:10;}
	.st35{fill:#606060;}
	.st36{fill:#28E0CE;}
</style>
<g>
	<g>
		
			<image style="overflow:visible;opacity:0.2;" width="261" height="157" xlink:href="730DCCD.png"  transform="matrix(1 0 0 1 5 4)">
		</image>
		<g>
			<g>
				<g>
					<defs>
						<path id="SVGID_1_" d="M186.2,14.1l-33.2,0H99.6l-24.2,0c-4.6,0-8.7,3.2-9.3,7.8c-0.8,5.6,3.5,10.5,9,10.5h29.7l2,0
							c4.6,0,8.7,3.2,9.3,7.8c0.8,5.6-3.5,10.5-9,10.5H88.8l-2.6,0c-4.6,0-8.7,3.2-9.3,7.8c-0.8,5.6,3.5,10.5,9,10.5h2.9H89
							c4.6,0,8.7,3.2,9.3,7.8c0.8,5.6-3.5,10.5-9,10.5H79.1l-34.3,0c-4.6,0-8.7,3.2-9.3,7.8c-0.8,5.6,3.5,10.5,9,10.5h34.6l39.7,0
							c4.6,0,8.7,3.2,9.3,7.8c0.8,5.6-3.5,10.5-9,10.5h-17.4l0,0c-4.2,0-8.1,2.8-9,7c-1.4,6,3.1,11.3,8.9,11.3h10.1v-0.1h75.4
							c36.2,0,65.4-30.1,63.8-66.7C249.4,41.5,219.8,14.1,186.2,14.1z"/>
					</defs>
					<clipPath id="SVGID_2_">
						<use xlink:href="#SVGID_1_"  style="overflow:visible;"/>
					</clipPath>
				</g>
				<g>
					<defs>
						<path id="SVGID_3_" d="M75.1,141.8H55.4c-5,0-9-4-9-9v0c0-5,4-9,9-9h19.7c5,0,9,4,9,9v0C84.2,137.7,80.1,141.8,75.1,141.8z"/>
					</defs>
					<clipPath id="SVGID_4_">
						<use xlink:href="#SVGID_3_"  style="overflow:visible;"/>
					</clipPath>
				</g>
				<g>
					<defs>
						<path id="SVGID_5_" d="M34.8,68.8H23.1c-5,0-9-4-9-9v0c0-5,4-9,9-9h11.7c5,0,9,4,9,9v0C43.8,64.7,39.8,68.8,34.8,68.8z"/>
					</defs>
					<clipPath id="SVGID_6_">
						<use xlink:href="#SVGID_5_"  style="overflow:visible;"/>
					</clipPath>
				</g>
				<g>
					<defs>
						<path id="SVGID_7_" d="M60,68.8L60,68.8c-4.9,0-9-4-9-9v0c0-5,4-9,9-9H60c5,0,9,4,9,9v0C69,64.7,65,68.8,60,68.8z"/>
					</defs>
					<clipPath id="SVGID_8_">
						<use xlink:href="#SVGID_7_"  style="overflow:visible;"/>
					</clipPath>
				</g>
			</g>
			<g>
				<g>
					<defs>
						<path id="SVGID_9_" d="M186.2,14.1l-33.2,0H99.6l-24.2,0c-4.6,0-8.7,3.2-9.3,7.8c-0.8,5.6,3.5,10.5,9,10.5h29.7l2,0
							c4.6,0,8.7,3.2,9.3,7.8c0.8,5.6-3.5,10.5-9,10.5H88.8l-2.6,0c-4.6,0-8.7,3.2-9.3,7.8c-0.8,5.6,3.5,10.5,9,10.5h2.9H89
							c4.6,0,8.7,3.2,9.3,7.8c0.8,5.6-3.5,10.5-9,10.5H79.1l-34.3,0c-4.6,0-8.7,3.2-9.3,7.8c-0.8,5.6,3.5,10.5,9,10.5h34.6l39.7,0
							c4.6,0,8.7,3.2,9.3,7.8c0.8,5.6-3.5,10.5-9,10.5h-17.4l0,0c-4.2,0-8.1,2.8-9,7c-1.4,6,3.1,11.3,8.9,11.3h10.1v-0.1h75.4
							c36.2,0,65.4-30.1,63.8-66.7C249.4,41.5,219.8,14.1,186.2,14.1z"/>
					</defs>
					<clipPath id="SVGID_10_">
						<use xlink:href="#SVGID_9_"  style="overflow:visible;"/>
					</clipPath>
					<linearGradient id="SVGID_11_" gradientUnits="userSpaceOnUse" x1="10.4803" y1="79.9623" x2="257.2837" y2="79.9623">
						<stop  offset="0" style="stop-color:#10FECC"/>
						<stop  offset="0.2091" style="stop-color:#39FEAD"/>
						<stop  offset="0.6761" style="stop-color:#A0FF61"/>
						<stop  offset="1" style="stop-color:#EBFF29"/>
					</linearGradient>
					<rect x="10.5" y="8.3" class="st10" width="246.8" height="143.3"/>
				</g>
				<g>
					<defs>
						<path id="SVGID_12_" d="M75.1,141.8H55.4c-5,0-9-4-9-9v0c0-5,4-9,9-9h19.7c5,0,9,4,9,9v0C84.2,137.7,80.1,141.8,75.1,141.8z"
							/>
					</defs>
					<clipPath id="SVGID_13_">
						<use xlink:href="#SVGID_12_"  style="overflow:visible;"/>
					</clipPath>
					<linearGradient id="SVGID_14_" gradientUnits="userSpaceOnUse" x1="10.4803" y1="79.9623" x2="257.2837" y2="79.9623">
						<stop  offset="0" style="stop-color:#10FECC"/>
						<stop  offset="0.2091" style="stop-color:#39FEAD"/>
						<stop  offset="0.6761" style="stop-color:#A0FF61"/>
						<stop  offset="1" style="stop-color:#EBFF29"/>
					</linearGradient>
					<rect x="10.5" y="8.3" class="st11" width="246.8" height="143.3"/>
				</g>
				<g>
					<defs>
						<path id="SVGID_15_" d="M34.8,68.8H23.1c-5,0-9-4-9-9v0c0-5,4-9,9-9h11.7c5,0,9,4,9,9v0C43.8,64.7,39.8,68.8,34.8,68.8z"/>
					</defs>
					<clipPath id="SVGID_16_">
						<use xlink:href="#SVGID_15_"  style="overflow:visible;"/>
					</clipPath>
					<linearGradient id="SVGID_17_" gradientUnits="userSpaceOnUse" x1="9.8179" y1="80.6992" x2="256.6214" y2="80.6992">
						<stop  offset="0" style="stop-color:#10FECC"/>
						<stop  offset="0.2091" style="stop-color:#39FEAD"/>
						<stop  offset="0.6761" style="stop-color:#A0FF61"/>
						<stop  offset="1" style="stop-color:#EBFF29"/>
					</linearGradient>
					<rect x="9.8" y="9" class="st12" width="246.8" height="143.3"/>
				</g>
				<g>
					<defs>
						<path id="SVGID_18_" d="M60,68.8L60,68.8c-4.9,0-9-4-9-9v0c0-5,4-9,9-9H60c5,0,9,4,9,9v0C69,64.7,65,68.8,60,68.8z"/>
					</defs>
					<clipPath id="SVGID_19_">
						<use xlink:href="#SVGID_18_"  style="overflow:visible;"/>
					</clipPath>
					<linearGradient id="SVGID_20_" gradientUnits="userSpaceOnUse" x1="10.4803" y1="79.9623" x2="257.2837" y2="79.9623">
						<stop  offset="0" style="stop-color:#10FECC"/>
						<stop  offset="0.2091" style="stop-color:#39FEAD"/>
						<stop  offset="0.6761" style="stop-color:#A0FF61"/>
						<stop  offset="1" style="stop-color:#EBFF29"/>
					</linearGradient>
					<rect x="10.5" y="8.3" class="st13" width="246.8" height="143.3"/>
				</g>
			</g>
			<g>
				<g>
					<defs>
						<path id="SVGID_21_" d="M186.2,14.1l-33.2,0H99.6l-24.2,0c-4.6,0-8.7,3.2-9.3,7.8c-0.8,5.6,3.5,10.5,9,10.5h29.7l2,0
							c4.6,0,8.7,3.2,9.3,7.8c0.8,5.6-3.5,10.5-9,10.5H88.8l-2.6,0c-4.6,0-8.7,3.2-9.3,7.8c-0.8,5.6,3.5,10.5,9,10.5h2.9H89
							c4.6,0,8.7,3.2,9.3,7.8c0.8,5.6-3.5,10.5-9,10.5H79.1l-34.3,0c-4.6,0-8.7,3.2-9.3,7.8c-0.8,5.6,3.5,10.5,9,10.5h34.6l39.7,0
							c4.6,0,8.7,3.2,9.3,7.8c0.8,5.6-3.5,10.5-9,10.5h-17.4l0,0c-4.2,0-8.1,2.8-9,7c-1.4,6,3.1,11.3,8.9,11.3h10.1v-0.1h75.4
							c36.2,0,65.4-30.1,63.8-66.7C249.4,41.5,219.8,14.1,186.2,14.1z"/>
					</defs>
					<clipPath id="SVGID_22_">
						<use xlink:href="#SVGID_21_"  style="overflow:visible;"/>
					</clipPath>
				</g>
				<g>
					<defs>
						<path id="SVGID_23_" d="M75.1,141.8H55.4c-5,0-9-4-9-9v0c0-5,4-9,9-9h19.7c5,0,9,4,9,9v0C84.2,137.7,80.1,141.8,75.1,141.8z"
							/>
					</defs>
					<clipPath id="SVGID_24_">
						<use xlink:href="#SVGID_23_"  style="overflow:visible;"/>
					</clipPath>
				</g>
				<g>
					<defs>
						<path id="SVGID_25_" d="M34.8,68.8H23.1c-5,0-9-4-9-9v0c0-5,4-9,9-9h11.7c5,0,9,4,9,9v0C43.8,64.7,39.8,68.8,34.8,68.8z"/>
					</defs>
					<clipPath id="SVGID_26_">
						<use xlink:href="#SVGID_25_"  style="overflow:visible;"/>
					</clipPath>
				</g>
				<g>
					<defs>
						<path id="SVGID_27_" d="M60,68.8L60,68.8c-4.9,0-9-4-9-9v0c0-5,4-9,9-9H60c5,0,9,4,9,9v0C69,64.7,65,68.8,60,68.8z"/>
					</defs>
					<clipPath id="SVGID_28_">
						<use xlink:href="#SVGID_27_"  style="overflow:visible;"/>
					</clipPath>
				</g>
			</g>
		</g>
	</g>
	<g>
		
			<image style="overflow:visible;opacity:0.2;" width="127" height="104" xlink:href="730DCCF.png"  transform="matrix(1 0 0 1 114 28)">
		</image>
		<g>
			<path class="st1" d="M156.8,105.4c-5.5,0-9.8,4.9-9,10.5c0.7,4.5,4.8,7.8,9.3,7.8l27.2,0c0.9,0.1,1.8,0.1,2.8,0.1
				c25.3,0,45.8-20.5,45.8-45.8s-20.5-45.8-45.8-45.8c-0.8,0-1.5,0-2.3,0.1v-0.1l-44.9,0c-4.6,0-8.7,3.3-9.3,7.8
				c-0.8,5.7,3.6,10.5,9,10.5h10.9l3.3,0c4.6,0,8.7,3.3,9.3,7.8c0.8,5.7-3.6,10.5-9,10.5h-11.8h-14.6c-4.6,0-8.7,3.3-9.3,7.8
				c-0.8,5.7,3.6,10.5,9,10.5h14.9h25.6c4.6,0,8.7,3.3,9.3,7.8c0.8,5.7-3.6,10.5-9,10.5L156.8,105.4z"/>
		</g>
	</g>
</g>
</svg>
