<svg id="Capa_1" data-name="Capa 1" xmlns="http://www.w3.org/2000/svg" viewBox="0 0 120 120"><defs><style>.cls-1{fill:#ed434b;}.cls-2{fill:#e7ecef;}.cls-3{fill:#d2d6d8;}.cls-4{fill:#b8c1c8;}.cls-5{fill:#273340;}.cls-6{fill:#0083b8;}.cls-7{fill:#037193;}.cls-8{fill:#232323;}</style></defs><polygon class="cls-1" points="69.88 31.48 60 31.48 60 25.23 69.88 25.23 67.75 28.35 69.88 31.48"/><polyline class="cls-2" points="49.77 77.04 49.77 48.94 70.23 48.94 70.23 77.04"/><polygon class="cls-3" points="70.23 48.94 54.76 48.94 49.77 48.94 49.77 52.84 49.77 77.04 54.76 77.04 54.76 52.84 70.23 52.84 70.23 48.94"/><polygon class="cls-4" points="78.61 67.25 78.61 94.77 40.29 94.77 40.29 67.25 49.77 67.25 49.77 71.6 53.63 71.6 53.63 67.25 58.07 67.25 58.07 71.6 61.93 71.6 61.93 67.25 66.37 67.25 66.37 71.6 70.23 71.6 70.23 67.25 78.61 67.25"/><rect class="cls-2" x="28.79" y="62.78" width="15.97" height="32"/><polygon class="cls-3" points="44.76 62.78 33.47 62.78 28.79 62.78 28.79 66.39 28.79 94.77 33.47 94.77 33.47 66.39 44.76 66.39 44.76 62.78"/><rect class="cls-2" x="75.24" y="62.78" width="15.97" height="32"/><polygon class="cls-3" points="91.21 62.78 79.93 62.78 75.24 62.78 75.24 66.39 75.24 94.77 79.93 94.77 79.93 66.39 91.21 66.39 91.21 62.78"/><polygon class="cls-4" points="40.95 54.71 40.95 58.74 37.09 58.74 37.09 54.71 32.89 54.71 32.89 58.74 29.03 58.74 29.03 54.71 25.23 54.71 25.23 62.78 44.76 62.78 44.76 54.71 40.95 54.71"/><polygon class="cls-4" points="90.97 54.71 90.97 58.74 87.11 58.74 87.11 54.71 82.91 54.71 82.91 58.74 79.05 58.74 79.05 54.71 75.24 54.71 75.24 62.78 94.77 62.78 94.77 54.71 90.97 54.71"/><path class="cls-5" d="M82.86,68.1h0a3,3,0,0,0-3,3v6.39h6V71.08A3,3,0,0,0,82.86,68.1Z"/><path class="cls-5" d="M36.45,68.1h0a3,3,0,0,0-3,3v6.39h6V71.08A3,3,0,0,0,36.45,68.1Z"/><polygon class="cls-6" points="60 35.17 46.07 48.94 73.93 48.94 60 35.17"/><polygon class="cls-7" points="55.19 48.94 60 35.17 46.07 48.94 55.19 48.94"/><path class="cls-5" d="M60,52.84h0a3,3,0,0,0-3,3v6.39h6V55.82A3,3,0,0,0,60,52.84Z"/><path class="cls-5" d="M60,77h0a7.24,7.24,0,0,0-7.24,7.24V94.71H67.24V84.28A7.24,7.24,0,0,0,60,77Z"/><path class="cls-8" d="M94.77,53.65H91a1.06,1.06,0,0,0-1.07,1.06v3H88.17v-3a1.05,1.05,0,0,0-1.06-1.06h-4.2a1.06,1.06,0,0,0-1.07,1.06v3H80.11v-3a1.05,1.05,0,0,0-1.06-1.06H75.24a1.06,1.06,0,0,0-1.06,1.06V66.18H71.3V50h2.6a1.07,1.07,0,0,0,.78-1.82L61.06,34.73V32.55h8.79a1.11,1.11,0,0,0,.83-.37,1.08,1.08,0,0,0,.08-1.3L69,28.35l1.72-2.52a1.08,1.08,0,0,0-.08-1.3,1.11,1.11,0,0,0-.83-.37H60a1.06,1.06,0,0,0-1.06,1.07v9.5L45.34,48.16A1.07,1.07,0,0,0,46.07,50H48.7v6.1a1.07,1.07,0,0,0,1.07,1.07h0a1.06,1.06,0,0,0,1.06-1.07V50H69.17V67.24h0v3.29H67.44V67.25a1.07,1.07,0,0,0-1.07-1.07H61.93a1.07,1.07,0,0,0-1.07,1.07v3.29H59.13V67.25a1.06,1.06,0,0,0-1.06-1.07H53.63a1.07,1.07,0,0,0-1.07,1.07v3.29H50.83V67.25h0V61.07A1.05,1.05,0,0,0,49.77,60h0a1.06,1.06,0,0,0-1.07,1.06v5.11H45.82V54.71a1.06,1.06,0,0,0-1.06-1.06H41a1.05,1.05,0,0,0-1.06,1.06v3H38.16v-3a1.06,1.06,0,0,0-1.07-1.06h-4.2a1.05,1.05,0,0,0-1.06,1.06v3H30.1v-3A1.06,1.06,0,0,0,29,53.65h-3.8a1.06,1.06,0,0,0-1.07,1.06v8.07a1.07,1.07,0,0,0,1.07,1.06h2.5V94.77a1.06,1.06,0,0,0,1.06,1.07H91.21a1.06,1.06,0,0,0,1.06-1.07V75a1.05,1.05,0,0,0-1.06-1.06h0A1.05,1.05,0,0,0,90.15,75V93.71H76.31V67.25h0v-3.4H90.15V70a1.06,1.06,0,0,0,1.06,1.07h0A1.06,1.06,0,0,0,92.27,70V63.84h2.5a1.07,1.07,0,0,0,1.07-1.06V54.71A1.06,1.06,0,0,0,94.77,53.65ZM66.87,29l1,1.47h-6.8V26.29h6.8l-1,1.46A1.05,1.05,0,0,0,66.87,29ZM49.77,47.87H48.66L60,36.67l11.34,11.2H49.77ZM26.29,55.78H28v3A1.06,1.06,0,0,0,29,59.81h3.86A1.07,1.07,0,0,0,34,58.74v-3H36v3a1.06,1.06,0,0,0,1.06,1.07H41A1.07,1.07,0,0,0,42,58.74v-3h1.67v5.93H26.29Zm17.4,37.93H29.85V63.84H43.69Zm2.13-25.4H48.7V71.6a1.07,1.07,0,0,0,1.07,1.07h3.86a1.06,1.06,0,0,0,1.06-1.07V68.31H57V71.6a1.06,1.06,0,0,0,1.06,1.07h3.86A1.06,1.06,0,0,0,63,71.6V68.31h2.32V71.6a1.07,1.07,0,0,0,1.06,1.07h3.86A1.07,1.07,0,0,0,71.3,71.6V68.31h2.88v25.4H68.3V84.28A8.31,8.31,0,0,0,60,76h0a8.31,8.31,0,0,0-8.3,8.31v9.43H45.82V68.31ZM61.06,78.2a6.18,6.18,0,0,1,5.11,6.08v9.36H61.06ZM58.94,93.64H53.83V84.28a6.18,6.18,0,0,1,5.11-6.08ZM93.71,61.71H76.31V55.78H78v3a1.07,1.07,0,0,0,1.07,1.07h3.86A1.06,1.06,0,0,0,84,58.74v-3h2.08v3a1.06,1.06,0,0,0,1.06,1.07H91A1.06,1.06,0,0,0,92,58.74v-3h1.68v5.93Z"/><path class="cls-8" d="M33.47,78.53h6a1.07,1.07,0,0,0,1.07-1.06V71.08a4,4,0,1,0-8.09,0v6.39A1.07,1.07,0,0,0,33.47,78.53Zm1.07-7.45a1.92,1.92,0,1,1,3.83,0V76.4H34.54Z"/><path class="cls-8" d="M86.91,71.08a4,4,0,1,0-8.09,0v6.39a1.06,1.06,0,0,0,1.06,1.06h6a1.07,1.07,0,0,0,1.07-1.06V71.08ZM84.78,76.4H81V71.08a1.92,1.92,0,1,1,3.83,0Z"/><path class="cls-8" d="M56,62.21A1.05,1.05,0,0,0,57,63.27h6a1.06,1.06,0,0,0,1.07-1.06V55.82a4.05,4.05,0,0,0-4-4h0a4,4,0,0,0-4,4v6.39Zm2.12-6.39a1.92,1.92,0,0,1,3.84,0v5.32H58.08V55.82Z"/><path class="cls-8" d="M32.41,84.49h3a1.07,1.07,0,0,0,0-2.13h-3a1.07,1.07,0,1,0,0,2.13Z"/><path class="cls-8" d="M38.8,85.77h-3a1.07,1.07,0,1,0,0,2.13h3a1.07,1.07,0,0,0,0-2.13Z"/><path class="cls-8" d="M83.29,83.43a1.07,1.07,0,0,0-1.07-1.07h-3a1.07,1.07,0,0,0,0,2.13h3A1.07,1.07,0,0,0,83.29,83.43Z"/><path class="cls-8" d="M82.65,87.9h3a1.07,1.07,0,1,0,0-2.13h-3a1.07,1.07,0,0,0,0,2.13Z"/><path class="cls-8" d="M68.81,78.1h3a1.07,1.07,0,1,0,0-2.13h-3a1.07,1.07,0,0,0,0,2.13Z"/><path class="cls-8" d="M55.55,50.85h-3a1.07,1.07,0,0,0,0,2.13h3a1.07,1.07,0,0,0,0-2.13Z"/><path class="cls-8" d="M52,79.59a1.06,1.06,0,0,0-1.06-1.06H48a1.07,1.07,0,0,0,0,2.13h3A1.06,1.06,0,0,0,52,79.59Z"/></svg>