<svg id="Capa_1" data-name="Capa 1" xmlns="http://www.w3.org/2000/svg" viewBox="0 0 120 120"><defs><style>.cls-1{fill:#60a917;}.cls-2{fill:#549414;}.cls-3{fill:#a4c400;}.cls-4{fill:#90ac00;}.cls-5{fill:#008a00;}.cls-6{fill:#007900;}.cls-7{fill:sienna;}.cls-8{fill:#783e22;}.cls-9{fill:#232323;}</style></defs><g id="Page-1"><g id="_013---Grass" data-name="013---Grass"><path id="Shape" class="cls-1" d="M90.28,47.58a51.69,51.69,0,0,0-8.82,20.74,50.51,50.51,0,0,0-.75,10c-.34,0-.71.08-1.1.14,0,0-2-5.12-9-2.82A37.93,37.93,0,0,1,88.62,46.24c1-.64,2.32.41,1.66,1.34Z"/><path id="Shape-2" data-name="Shape" class="cls-2" d="M88.62,46.24c-.54.35-1.12.73-1.71,1.15a.66.66,0,0,1-.09.19A51.81,51.81,0,0,0,78,68.32a48.05,48.05,0,0,0-.75,7.56,5.93,5.93,0,0,1,2.35,2.56c.39-.06.76-.12,1.1-.14a50.51,50.51,0,0,1,.75-10,51.69,51.69,0,0,1,8.82-20.74c.66-.93-.65-2-1.66-1.34Z"/><path id="Shape-3" data-name="Shape" class="cls-3" d="M87.54,32.17c-3.54,6.76-13.16,25.54-14.25,32a39.19,39.19,0,0,0-2.73,11.43c-.41.14-.86.32-1.32.51,0,0-1.43-2.14-5.41-3h0a117.11,117.11,0,0,0-2.89-13.35A64.54,64.54,0,0,1,67.1,47.9h0c6.81-10.26,14.67-15,18.82-17,1-.46,2.07.42,1.62,1.29Z"/><path id="Shape-4" data-name="Shape" class="cls-4" d="M85.92,30.88c-.52.25-1.11.55-1.75.89a.9.9,0,0,1-.09.4c-3.54,6.76-13.16,25.54-14.24,32a39,39,0,0,0-2.58,10.24,6.61,6.61,0,0,1,2,1.7c.46-.19.91-.37,1.32-.51a39.19,39.19,0,0,1,2.73-11.43c1.09-6.48,10.71-25.26,14.25-32,.45-.87-.64-1.75-1.62-1.29Z"/><path id="Shape-5" data-name="Shape" class="cls-1" d="M63.83,73.08A18.14,18.14,0,0,0,56.75,73,51.34,51.34,0,0,0,50,56.05,194.07,194.07,0,0,0,41.87,28.3c-.41-1.1,1.3-1.82,2.05-.85C48.35,33.13,54.72,42,57.37,49.11a105.09,105.09,0,0,1,3.57,10.62A117.11,117.11,0,0,1,63.83,73.08Z"/><path id="Shape-6" data-name="Shape" class="cls-2" d="M42.56,30.2c4.15,5.55,9.1,12.86,11.35,18.91a105.16,105.16,0,0,1,3.58,10.62,119.52,119.52,0,0,1,2.82,13,16.59,16.59,0,0,1,3.52.4,117.11,117.11,0,0,0-2.89-13.35,105.09,105.09,0,0,0-3.57-10.62c-2.65-7.11-9-16-13.45-21.66-.75-1-2.46-.25-2.05.85C42.09,28.9,42.33,29.54,42.56,30.2Z"/><path id="Shape-7" data-name="Shape" class="cls-5" d="M73.78,27.9c-1.94,5.07-5.59,15-6.68,20h0a64.54,64.54,0,0,0-6.16,11.83,105.09,105.09,0,0,0-3.57-10.62A40.11,40.11,0,0,1,71.91,26.85C72.79,26.17,74.15,26.92,73.78,27.9Z"/><path id="Shape-8" data-name="Shape" class="cls-6" d="M71.91,26.85c-.53.41-1.11.88-1.73,1.41-2,5.17-5.47,14.73-6.54,19.63h0a64.31,64.31,0,0,0-4.1,7.23c.52,1.57,1,3.12,1.4,4.61A64.3,64.3,0,0,1,67.1,47.9h0c1.09-5,4.74-14.92,6.68-20C74.15,26.92,72.79,26.17,71.91,26.85Z"/><path id="Shape-9" data-name="Shape" class="cls-3" d="M56.75,73c-4.39.82-6,3.16-6,3.16A12.58,12.58,0,0,0,46.57,75a39.71,39.71,0,0,0-2-6.11,51.33,51.33,0,0,0-5.34-21.46c-.49-1,.88-1.85,1.79-1.16A37.88,37.88,0,0,1,50,56.05,51.34,51.34,0,0,1,56.75,73Z"/><path id="Shape-10" data-name="Shape" class="cls-4" d="M50,56.05A37.88,37.88,0,0,0,41,46.31c-.91-.69-2.28.2-1.79,1.16.06.11.12.24.17.35a38,38,0,0,1,7.1,8.23A51.34,51.34,0,0,1,53.29,73a10.62,10.62,0,0,0-5.13,2.31,14.51,14.51,0,0,1,2.64.85s1.56-2.34,6-3.16A51.34,51.34,0,0,0,50,56.05Z"/><path id="Shape-11" data-name="Shape" class="cls-1" d="M46.57,75a6.05,6.05,0,0,0-6.14,3.4,12.37,12.37,0,0,0-4.54-.06c0-.72,0-1.43,0-2.15-.28-9.42-4.54-18.39-7.19-23.11-.53-.93.78-1.87,1.73-1.23a37.61,37.61,0,0,1,14.12,17A39.71,39.71,0,0,1,46.57,75Z"/><path id="Shape-12" data-name="Shape" class="cls-2" d="M44.56,68.93a37.61,37.61,0,0,0-14.12-17c-.94-.63-2.23.28-1.73,1.2A37.71,37.71,0,0,1,41.1,68.93a39.75,39.75,0,0,1,2,6.11,6.11,6.11,0,0,0-6,3.19,14.54,14.54,0,0,1,3.36.21A6.05,6.05,0,0,1,46.57,75a39.71,39.71,0,0,0-2-6.11Z"/><path id="Shape-13" data-name="Shape" class="cls-7" d="M93.44,80.74a5.74,5.74,0,0,1-9.29,4.53,9.21,9.21,0,0,1-17.46,2.9,7.48,7.48,0,0,1-13.34,0,9.21,9.21,0,0,1-17.46-2.9A5.75,5.75,0,1,1,32.37,75a5.59,5.59,0,0,1,3.53,1.25c0,.72,0,1.43,0,2.15a12.37,12.37,0,0,1,4.54.06A6.05,6.05,0,0,1,46.57,75a12.58,12.58,0,0,1,4.23,1.09s1.56-2.34,6-3.16a18.14,18.14,0,0,1,7.08.11h0c4,.9,5.41,3,5.41,3,.46-.19.91-.37,1.32-.51,7-2.3,9,2.82,9,2.82.39-.06.76-.12,1.1-.14a50.51,50.51,0,0,1,.75-10A6.92,6.92,0,0,1,86.52,75s0,.09,0,.13A6.44,6.44,0,0,1,87.67,75a5.77,5.77,0,0,1,5.77,5.76Z"/><path id="Shape-14" data-name="Shape" class="cls-8" d="M80.69,85.27a9.2,9.2,0,0,1-7.37,8,9.09,9.09,0,0,0,10.6-6.77,5.74,5.74,0,0,1-3.23-1.2Z"/><path id="Shape-15" data-name="Shape" class="cls-8" d="M87.67,75a6.44,6.44,0,0,0-1.16.13s0-.09,0-.13a6.92,6.92,0,0,0-5.06-6.66c-.11.63-.2,1.28-.29,1.93A6.94,6.94,0,0,1,83.07,75s0,.09,0,.13A6.65,6.65,0,0,1,84.22,75a5.74,5.74,0,0,1,1.71,11.23,5.43,5.43,0,0,0,1.74.29,5.76,5.76,0,1,0,0-11.52Z"/><path id="Shape-16" data-name="Shape" class="cls-9" d="M87.59,73.83a8.08,8.08,0,0,0-4.79-6.25,51,51,0,0,1,8.42-19.33,2,2,0,0,0-.2-2.62,2.41,2.41,0,0,0-3-.36,42.55,42.55,0,0,0-9.76,8.54c3.49-7.94,8.35-17.36,10.31-21.1a2,2,0,0,0-.34-2.38,2.42,2.42,0,0,0-2.78-.48A46.88,46.88,0,0,0,69.89,42.23c1.53-4.75,3.6-10.33,5-13.93a2,2,0,0,0-.73-2.39,2.43,2.43,0,0,0-2.93,0A41.73,41.73,0,0,0,57.15,45.67c-3-6.45-8.22-13.67-12.31-18.93a2.4,2.4,0,0,0-3.07-.59,2.08,2.08,0,0,0-1,2.55,199.44,199.44,0,0,1,6.87,22.39,38.2,38.2,0,0,0-5.95-5.7,2.42,2.42,0,0,0-3,.08A2,2,0,0,0,38.2,48a49,49,0,0,1,4.7,15.19A38.34,38.34,0,0,0,31.08,50.93a2.38,2.38,0,0,0-3,.24,2,2,0,0,0-.41,2.51c2.39,4.27,6.13,12.13,6.9,20.53a6.59,6.59,0,0,0-2.24-.38,6.91,6.91,0,1,0,0,13.82,6.66,6.66,0,0,0,2.71-.57A10.36,10.36,0,0,0,53.4,90.32a8.63,8.63,0,0,0,13.25,0A10.35,10.35,0,0,0,85,87.08a6.69,6.69,0,0,0,2.71.57,6.91,6.91,0,1,0-.08-13.82ZM89,47.35A52.23,52.23,0,0,0,79.56,76.3,7,7,0,0,0,77,74.45a8.69,8.69,0,0,0-5.07-.36,38.08,38.08,0,0,1,2.45-9.46A37.67,37.67,0,0,1,89,47.35ZM86.34,32c-4,7.69-13,25.35-14.16,31.92a40.48,40.48,0,0,0-2.66,10.84,11.11,11.11,0,0,0-4.67-2.56,120.93,120.93,0,0,0-2.69-12.33,63.57,63.57,0,0,1,5.9-11.3.41.41,0,0,1,0-.09C74.73,38.52,82.34,33.87,86.34,32ZM72.59,27.78c-2,5.35-5.45,14.67-6.57,19.67a64.92,64.92,0,0,0-4.87,8.89c-.78-2.51-1.64-5-2.57-7.3A39.11,39.11,0,0,1,72.59,27.78ZM56.3,49.54A101.92,101.92,0,0,1,59.83,60a119.19,119.19,0,0,1,2.6,11.64,18.36,18.36,0,0,0-4.8,0A52.35,52.35,0,0,0,51,55.62a194.41,194.41,0,0,0-8-27.38c4.64,6,10.67,14.47,13.22,21.3ZM40.43,47.32A37,37,0,0,1,49,56.67a50.18,50.18,0,0,1,6.39,15.45,11.11,11.11,0,0,0-4.9,2.64,13.91,13.91,0,0,0-3-.78,41.9,41.9,0,0,0-1.79-5.27,52.61,52.61,0,0,0-5.27-21.39Zm4.66,26.62a7.85,7.85,0,0,0-2,.51,7.18,7.18,0,0,0-3.26,2.73,14.86,14.86,0,0,0-2.75-.1c0-9.73-4.34-19.1-7.13-24.15a37.09,37.09,0,0,1,15.17,21ZM87.67,85.35a4.67,4.67,0,0,1-2.82-1,1.13,1.13,0,0,0-1.15-.15,1.15,1.15,0,0,0-.7.93,8.05,8.05,0,0,1-15.27,2.53,1.14,1.14,0,0,0-1-.65,1.07,1.07,0,0,0-1,.62,6.33,6.33,0,0,1-11.29,0,1.11,1.11,0,0,0-1-.62,1.14,1.14,0,0,0-1,.65,8.05,8.05,0,0,1-15.27-2.53,1.15,1.15,0,0,0-.7-.93,1.13,1.13,0,0,0-1.15.15,4.6,4.6,0,1,1-2.83-8.23,4.48,4.48,0,0,1,2.38.71v.64a5.14,5.14,0,0,0-3.47,2.9,1.14,1.14,0,0,0,.7,1.43,1.17,1.17,0,0,0,1.47-.68c0-.1,1.08-2.51,6.8-1.56a1.15,1.15,0,0,0,1.26-.71A4.72,4.72,0,0,1,44,76.58c1.68-.7,3.84-.49,6.41.61a1.16,1.16,0,0,0,1.4-.41c.08-.12,2.14-3,8.26-3s8.18,2.83,8.26,2.94a1.15,1.15,0,0,0,1.41.42c2.55-1.09,4.7-1.31,6.37-.63a4.71,4.71,0,0,1,2.48,2.31,1.15,1.15,0,0,0,1.26.71c5.66-1,6.73,1.41,6.79,1.55a1.15,1.15,0,0,0,1.46.71,1.16,1.16,0,0,0,.72-1.46c-.06-.16-1.24-3.45-6.9-3.31A47.18,47.18,0,0,1,82.38,70a5.72,5.72,0,0,1,3,5,1.36,1.36,0,0,0,0,.21,1.19,1.19,0,0,0,.42.88,1.15,1.15,0,0,0,.94.25,5.23,5.23,0,0,1,1-.11,4.61,4.61,0,0,1,0,9.22Z"/><path id="Shape-17" data-name="Shape" class="cls-9" d="M68.09,79.59a1.15,1.15,0,0,0-1.16,1.15,1.15,1.15,0,0,1-2.3,0,1.15,1.15,0,0,0-2.3,0,3.46,3.46,0,1,0,6.91,0A1.15,1.15,0,0,0,68.09,79.59Z"/><path id="Shape-18" data-name="Shape" class="cls-9" d="M49.65,83A1.15,1.15,0,0,0,48.5,84.2a1.16,1.16,0,0,1-2.31,0,1.15,1.15,0,1,0-2.3,0,3.46,3.46,0,0,0,6.91,0A1.15,1.15,0,0,0,49.65,83Z"/><circle id="Oval" class="cls-9" cx="53.11" cy="79.59" r="1.15"/><circle id="Oval-2" data-name="Oval" class="cls-9" cx="30.06" cy="70.37" r="1.15"/><circle id="Oval-3" data-name="Oval" class="cls-9" cx="58.87" cy="85.35" r="1.15"/><circle id="Oval-4" data-name="Oval" class="cls-9" cx="78.46" cy="83.04" r="1.15"/><circle id="Oval-5" data-name="Oval" class="cls-9" cx="91.13" cy="70.37" r="1.15"/><circle id="Oval-6" data-name="Oval" class="cls-9" cx="87.67" cy="65.76" r="1.15"/><circle id="Oval-7" data-name="Oval" class="cls-9" cx="73.85" cy="87.65" r="1.15"/></g></g></svg>