<svg id="Capa_1" data-name="Capa 1" xmlns="http://www.w3.org/2000/svg" viewBox="0 0 120 120"><defs><style>.cls-1{fill:#beeafc;}.cls-2{fill:#83d4ed;}.cls-3{fill:#fcd770;}.cls-4{fill:#f0d0b4;}.cls-5{fill:#232323;}</style></defs><path class="cls-1" d="M41.68,93.21v1.15H32.51l.6-1.19A16.14,16.14,0,0,0,34.8,86a15.38,15.38,0,0,0-.16-2.25,5,5,0,0,0,.74.53,5.94,5.94,0,0,0,3.2.92,6.09,6.09,0,0,0,3.1-.85Z"/><path class="cls-1" d="M35.23,71.44h-7.3l-.53-.53a6,6,0,0,1,3.76-10.2L33,60.57l1.19,7.2A17.91,17.91,0,0,0,35.23,71.44Z"/><path class="cls-1" d="M53.35,74.57l-1.76,2.62-2-3,.59-.81a3.27,3.27,0,0,0,.62-1.9v-.29a3.24,3.24,0,0,0-5.53-2.3l-.2.2H44a2.3,2.3,0,0,0-2.29,2.29v1.15l-3,4.61-1.75-2.62a17,17,0,0,1-1.65-3.13,17.91,17.91,0,0,1-1-3.67L33,60.57l.77,0L40.53,60l.31,1.26a4.41,4.41,0,0,0,4.27,3.33,4.42,4.42,0,0,0,4.27-3.33L49.69,60l7.54.58L56,67.77a17.88,17.88,0,0,1-1,3.67,18.33,18.33,0,0,1-1.65,3.13Z"/><path class="cls-1" d="M63,62.61a6,6,0,0,1-.17,8.3l-.53.53H55a17.88,17.88,0,0,0,1-3.67l1.19-7.2,1.83.14A5.89,5.89,0,0,1,63,62.61Z"/><path class="cls-1" d="M57.11,93.17l.6,1.19H48.55v-10a6,6,0,0,0,3.09.85,6,6,0,0,0,3.21-.92,5.44,5.44,0,0,0,.73-.53A16.9,16.9,0,0,0,55.42,86a16.14,16.14,0,0,0,1.69,7.17Z"/><path class="cls-2" d="M47.48,83.55a5.44,5.44,0,0,1-.78-.87l-1.59-2.19-1.59,2.19a5,5,0,0,1-.78.87,5.78,5.78,0,0,1-1.06.8v10h6.87v-10A5.53,5.53,0,0,1,47.48,83.55Z"/><path class="cls-3" d="M88.48,84.81a8.11,8.11,0,0,1,.1,2.47,8.21,8.21,0,0,1-8.27,7.08c-13.16-.08-20.65-4.85-24.32-11a5.75,5.75,0,0,0,1.11-1.56l5.19-10.38.53-.53a6,6,0,0,0-3.76-10.2l-1.83-.14L49.69,60l-.89-5.35a9.14,9.14,0,0,0,5.47-8.38V36a3.42,3.42,0,0,1-3.43,3.43H48.1a13.66,13.66,0,0,1-7.57-2.29A6.06,6.06,0,0,0,36,43v3.3a9.17,9.17,0,0,0,2.68,6.48,9.39,9.39,0,0,0,2.79,1.9L40.53,60l-6.77.53a12.52,12.52,0,0,1-2.39-7.39V39.38a13.74,13.74,0,0,1,27.48,0v5.73c0,8,12.6,14.89,21.77,14.89h.13a13.61,13.61,0,0,1,7.73,24.81Z"/><path class="cls-4" d="M51.59,77.19l1.76-2.62A18.33,18.33,0,0,0,55,71.44h7.29L57.1,81.82A5.75,5.75,0,0,1,56,83.38a5.06,5.06,0,0,1-.41.37,5.44,5.44,0,0,1-.73.53,6,6,0,0,1-3.21.92,6,6,0,0,1-3.09-.85,5.53,5.53,0,0,1-1.07-.8,5.44,5.44,0,0,1-.78-.87l-1.59-2.19,4.52-6.25Z"/><path class="cls-4" d="M49.63,74.24l-4.52,6.25-1.59,2.19a5,5,0,0,1-.78.87,5.78,5.78,0,0,1-1.06.8,6.09,6.09,0,0,1-3.1.85,5.94,5.94,0,0,1-3.2-.92,5,5,0,0,1-.74-.53,6,6,0,0,1-1.52-1.93L27.93,71.44h7.3a17,17,0,0,0,1.65,3.13l1.75,2.62,3-4.61V71.43A2.3,2.3,0,0,1,44,69.14h1.14l.2-.2a3.24,3.24,0,0,1,5.53,2.3v.29a3.27,3.27,0,0,1-.62,1.9Z"/><path class="cls-4" d="M48.8,54.64,49.69,60l-.31,1.26a4.4,4.4,0,0,1-8.54,0L40.53,60l.89-5.35a9.12,9.12,0,0,0,7.38,0Z"/><path class="cls-4" d="M54.27,36V46.26a9.15,9.15,0,0,1-12.85,8.38,9.39,9.39,0,0,1-2.79-1.9A9.17,9.17,0,0,1,36,46.26V43a6.06,6.06,0,0,1,4.58-5.87,13.66,13.66,0,0,0,7.57,2.29h2.74A3.42,3.42,0,0,0,54.27,36Z"/><path class="cls-5" d="M47.4,48.28a2.56,2.56,0,0,1-4.58,0L42.7,48l-2.05,1,.12.24a4.85,4.85,0,0,0,8.68,0l.12-.24-2-1Z"/><path class="cls-5" d="M95.5,73.61A14.77,14.77,0,0,0,80.75,58.85h-.13c-9,0-20.62-6.66-20.62-13.74V39.38a14.89,14.89,0,0,0-29.78,0V53.13a13.7,13.7,0,0,0,1.58,6.39l-.72,0a7.16,7.16,0,0,0-6.58,7.11,7.09,7.09,0,0,0,2.09,5l.4.4,5.1,10.2a7.22,7.22,0,0,0,1.46,2A13.7,13.7,0,0,1,33.66,86a15.09,15.09,0,0,1-1.57,6.66L30.66,95.5h28.9l-1.42-2.85a14.83,14.83,0,0,1-1.56-6.44c3.67,4.61,10.61,9.22,23.72,9.29h0a9.11,9.11,0,0,0,9.36-10.2A14.73,14.73,0,0,0,95.5,73.61ZM45.11,54.27a8,8,0,0,1-8-8V43a4.9,4.9,0,0,1,3.26-4.62,14.71,14.71,0,0,0,7.74,2.19h2.75a4.49,4.49,0,0,0,2.29-.62v6.35A8,8,0,0,1,45.11,54.27Zm0,2.29a10.15,10.15,0,0,0,2.78-.39l.63,3.77-.25,1A3.26,3.26,0,0,1,42,61l-.25-1,.63-3.77a10.2,10.2,0,0,0,2.78.39Zm-5.46,4.65.08.31a5.54,5.54,0,0,0,10.76,0l.08-.32,5.33.41-1,5.95a16.11,16.11,0,0,1-2.51,6.36l-.79,1.19L51,74.26l.12-.16A4.38,4.38,0,0,0,52,71.53v-.29A4.38,4.38,0,0,0,44.64,68H44a3.44,3.44,0,0,0-3.44,3.43v.81l-1.91,2.88-.79-1.19a16.26,16.26,0,0,1-2.51-6.36l-1-5.95Zm16.43,20.1a5,5,0,0,1-8.45.69l-1.1-1.52,3.07-4.24,2.54,3.84,1.91-1.26L53,77.19l1.33-2a18.84,18.84,0,0,0,1.42-2.61h4.72ZM47.4,85.9v3.18l-.95-1.59Zm-2.95-2.55.66-.92.66.92c.09.12.19.23.28.34l-.94,1.57-.94-1.57C44.26,83.58,44.36,83.47,44.45,83.35Zm-.67,4.14-1,1.59V85.89Zm1.33,2.22,2.1,3.5H43ZM62,70.11l-.19.19H56.6A18.68,18.68,0,0,0,57.16,68l1-6.16.78.06a4.84,4.84,0,0,1,3,8.26ZM31.25,61.85l.78-.06,1,6.16a17.12,17.12,0,0,0,.57,2.35H28.4l-.19-.19a4.82,4.82,0,0,1-1.42-3.43,4.87,4.87,0,0,1,4.46-4.83ZM29.78,72.59H34.5a17.9,17.9,0,0,0,1.43,2.61l1.32,2-1.08,1.63,1.91,1.26,4.74-7.16V71.43A1.14,1.14,0,0,1,44,70.29h1.61l.54-.53a2.09,2.09,0,0,1,3.57,1.48v.29a2.1,2.1,0,0,1-.4,1.23L42.59,82a5,5,0,0,1-8.45-.69Zm6.16,13.25a7.29,7.29,0,0,0,2.64.5,7.07,7.07,0,0,0,2-.28v7.15H34.36A17.27,17.27,0,0,0,36,86s0-.1,0-.15Zm13.75,7.37V86.06a7.13,7.13,0,0,0,2,.28,7.29,7.29,0,0,0,2.64-.5s0,.1,0,.15a17.13,17.13,0,0,0,1.6,7.22Zm37.76-13a9.18,9.18,0,0,0-6.83-3.06H77.18a5.73,5.73,0,1,0,5.73,5.73H80.62a3.44,3.44,0,1,1-3.44-3.44h3.44a6.91,6.91,0,0,1,5.13,2.3,6.81,6.81,0,0,1,1.69,5.39,7.08,7.08,0,0,1-7.09,6h0c-13.52-.07-19.89-5.19-22.9-9.74a7.07,7.07,0,0,0,.72-1.14l5.1-10.2.4-.4a7.1,7.1,0,0,0,2.1-5,7.17,7.17,0,0,0-6.58-7.11l-8.47-.65-.61-3.63a10.32,10.32,0,0,0,5.35-9V36a4.58,4.58,0,1,0-9.16,0h2.29a2.29,2.29,0,1,1,2.29,2.29H48.09a12.49,12.49,0,0,1-6.93-2.1l-.42-.28-.49.12a7.18,7.18,0,0,0-5.45,7v3.3a10.34,10.34,0,0,0,5.35,9l-.6,3.63-5.21.4a11.38,11.38,0,0,1-1.83-6.19V39.38a12.6,12.6,0,0,1,25.2,0v5.73c0,8.49,12.81,16,22.91,16h.13a12.46,12.46,0,0,1,8.33,21.72,9.24,9.24,0,0,0-1.63-2.63Z"/><path class="cls-5" d="M80.75,63.44h-.13v2.29h.13a7.88,7.88,0,0,1,7.88,7.88v.11l2.29,0v-.16A10.18,10.18,0,0,0,80.75,63.44Z"/><path class="cls-5" d="M87.47,77.73l2,1.19a9.73,9.73,0,0,0,1.13-2.58l-2.21-.61a7.88,7.88,0,0,1-.87,2Z"/></svg>