<svg id="Capa_1" data-name="Capa 1" xmlns="http://www.w3.org/2000/svg" viewBox="0 0 120 120"><defs><style>.cls-1{fill:#db3131;}.cls-1,.cls-2{fill-rule:evenodd;}.cls-2{fill:#f4e9e2;}.cls-3{fill:#232323;}</style></defs><path class="cls-1" d="M66,44.24a42.49,42.49,0,0,0,8.29-.75c5.7-1.13,9.6-3.53,9.6-7,0-4.92-10.4-10.11-20.28-10.11S48.08,31.61,48.08,36.53c0,3.53,4.13,6,10.11,7.06a43.67,43.67,0,0,0,7.77.65Z"/><path class="cls-2" d="M76.37,56c-.88-6-1.91-9.84-2.12-12.55a42.49,42.49,0,0,1-8.29.75,43.67,43.67,0,0,1-7.77-.65C57.31,52,52.08,61,56.88,67.21c3.8,4.93,13.27,6,17.75,1.46-4-2.08-6.34-4.71-5.64-7.33s3.37-4.74,7.38-5.3Z"/><path class="cls-1" d="M83.47,56.61a17.93,17.93,0,0,0-7.1-.57c-4,.56-6.68,2.71-7.38,5.3s1.65,5.25,5.64,7.33l.9.45a35.89,35.89,0,0,0,6,2.17,34.6,34.6,0,0,0,6.74,1.17c4.79.32,8.39-.76,9.12-3.49C98.49,65.05,91.33,58.71,83.47,56.61Z"/><path class="cls-2" d="M81.58,71.29a35.89,35.89,0,0,1-6-2.17C73,75.63,67,81.66,69.45,87.63c2.73,6.54,15.71,9.51,17.34-.76,1.15-7.27,1-11.67,1.53-14.41A34.6,34.6,0,0,1,81.58,71.29Z"/><path class="cls-1" d="M38.42,60.54a35.88,35.88,0,0,0,6-2.18c4.52-2.14,7.29-5,6.53-7.77-1-3.92-6.62-6.84-14.47-4.74s-15,8.45-14,12.36c.74,2.73,4.34,3.81,9.12,3.5a36.13,36.13,0,0,0,6.75-1.17Z"/><path class="cls-2" d="M44.47,58.36a35.88,35.88,0,0,1-6,2.18,36.13,36.13,0,0,1-6.75,1.17c.51,2.74.39,7.13,1.54,14.4,1.63,10.27,14.6,7.31,17.34.76,2.49-6-3.59-12-6.08-18.51Z"/><path class="cls-3" d="M46.43,59.09c4.62-2.52,6.9-5.71,6-8.9-1-3.69-5.48-7.28-13-6.45a1.52,1.52,0,0,0,.33,3c5.48-.6,9,1.66,9.72,4.21S45.3,57.12,38,59.06a27.3,27.3,0,0,1-9.91,1.06c-1.64-.21-3.68-.77-4.09-2.3-.31-1.17.81-3.48,4-6a1.52,1.52,0,0,0-1.89-2.39c-4,3.14-5.82,6.5-5.09,9.22.38,1.43,1.76,3.93,6.67,4.54a19.36,19.36,0,0,0,2.35.13h.26c.08.81.15,1.76.23,2.86.18,2.48.43,5.88,1.11,10.21.72,4.53,3.55,7.42,7.76,7.92a9.36,9.36,0,0,0,1.3.08c4.69,0,9.53-2.9,11.2-6.89,2-4.8-.63-9.43-3.16-13.9-.83-1.47-1.69-3-2.37-4.47Zm2.71,17.19c-1.29,3.08-5.64,5.4-9.32,5-2-.23-4.47-1.36-5.1-5.37-.67-4.2-.9-7.39-1.08-9.94-.08-1.09-.15-2-.24-2.86,1-.11,2-.28,3-.49.09.51.2,1.11.31,1.74.42,2.3.71,3.86.89,4.48A1.52,1.52,0,1,0,40.53,68c-.15-.52-.53-2.64-.81-4.19-.13-.69-.25-1.36-.35-1.91a40,40,0,0,0,4.3-1.47c.73,1.6,1.61,3.16,2.47,4.68,2.38,4.18,4.42,7.8,3,11.21Z"/><path class="cls-3" d="M94.81,61a28,28,0,0,0-10.94-5.83,20.81,20.81,0,0,0-6.21-.74c-.37-2.32-.75-4.32-1.07-6-.28-1.45-.51-2.67-.67-3.72,5.94-1.47,9.45-4.36,9.45-8.17,0-3-2.65-6-7.28-8.27a33.61,33.61,0,0,0-14.52-3.37c-4.92,0-9.19,1.21-12.34,3.5-3,2.15-4.68,5.12-4.68,8.14,0,3.91,3.7,6.86,9.94,8.29-.33,2.08-.89,4.22-1.43,6.31-1.55,6-3.15,12.14.61,17a14,14,0,0,0,10,4.88c.42,0,.83,0,1.23,0a13.88,13.88,0,0,0,5.69-1.16c-.44.81-.89,1.61-1.34,2.41C68.66,78.79,66,83.42,68,88.21c1.67,4,6.51,6.9,11.2,6.9a11.34,11.34,0,0,0,1.3-.08c4.21-.5,7-3.39,7.76-7.92.68-4.34.93-7.73,1.11-10.21.08-1.11.14-2.05.23-2.86h.26a19.29,19.29,0,0,0,2.35-.14c4.91-.61,6.29-3.1,6.67-4.54.66-2.48-.8-5.46-4.11-8.4ZM49.61,36.53c0-4.22,5.22-8.58,14-8.58a31.05,31.05,0,0,1,13.16,3c3.45,1.72,5.59,3.84,5.59,5.54C82.32,38.64,80,40,78,40.82A33.73,33.73,0,0,1,66,42.72a33.71,33.71,0,0,1-12.07-1.9c-2-.8-4.28-2.18-4.28-4.29ZM65.85,70a11,11,0,0,1-7.77-3.7C55.24,62.59,56.59,57.4,58,51.9c.55-2.14,1.12-4.34,1.47-6.54a48,48,0,0,0,6.47.41c.62,0,1.22,0,1.82,0,0,1,.06,2.22.11,3.45l0,1a1.53,1.53,0,0,0,1.53,1.48h0A1.53,1.53,0,0,0,71,50.11l0-1c0-1.26-.09-2.56-.11-3.53.72-.07,1.42-.16,2.1-.26.16,1.08.39,2.28.66,3.71.33,1.7.69,3.59,1,5.82a14.72,14.72,0,0,0-1.51.47A8.74,8.74,0,0,0,67.52,61c-.38,1.43-.44,4.28,3.5,7.27.28.2.57.41.88.61A10.92,10.92,0,0,1,65.85,70Zm20.51,6.7c-.18,2.56-.41,5.74-1.08,9.95-.64,4-3.13,5.13-5.1,5.37-3.68.44-8-1.88-9.32-5-1.43-3.42.62-7,3-11.22.86-1.52,1.74-3.08,2.47-4.68a41.13,41.13,0,0,0,4.85,1.63,39.63,39.63,0,0,0,5.41,1.06c-.08.83-.15,1.76-.23,2.85ZM96,68.57c-.41,1.53-2.45,2.1-4.1,2.3A27.23,27.23,0,0,1,82,69.82a27.32,27.32,0,0,1-9.1-4c-1.32-1-2.81-2.51-2.4-4,.65-2.43,3.62-4.31,8-4.31a18,18,0,0,1,4.66.65,25.17,25.17,0,0,1,9.71,5.17C95.05,65.25,96.3,67.34,96,68.57Z"/><path class="cls-3" d="M33,48.61a1.53,1.53,0,0,0,0-3.06h0a1.53,1.53,0,0,0,0,3.06Z"/></svg>