<?xml version="1.0" encoding="utf-8"?>
<!-- Generator: Adobe Illustrator 24.0.0, SVG Export Plug-In . SVG Version: 6.00 Build 0)  -->
<svg version="1.1" id="Layer_1" xmlns="http://www.w3.org/2000/svg" xmlns:xlink="http://www.w3.org/1999/xlink" x="0px" y="0px"
	 viewBox="0 0 320 202.1" style="enable-background:new 0 0 320 202.1;" xml:space="preserve">
<style type="text/css">
	.st0{fill:#FFFFFF;}
	.st1{fill:url(#SVGID_1_);}
	.st2{fill:#5BB2CE;}
	.st3{fill:#67FE8B;}
	.st4{fill:#663A31;}
	.st5{fill:#9EE549;}
	.st6{fill:#6EC22F;}
	.st7{fill:#456929;}
	.st8{fill:#8F5434;}
</style>
<g>
	<polygon class="st0" points="284.3,87.7 284.3,78.8 284.3,70 275.4,70 275.4,61.1 266.6,61.1 266.6,52.2 257.7,52.2 257.7,43.3 
		248.8,43.3 239.9,43.3 231,43.3 222.2,43.3 213.3,43.3 204.4,43.3 195.5,43.3 186.6,43.3 177.8,43.3 177.8,52.2 168.9,52.2 
		160,52.2 160,61.1 168.9,61.1 177.8,61.1 186.6,61.1 186.6,70 195.5,70 204.4,70 204.4,78.8 204.4,87.7 195.5,87.7 186.6,87.7 
		177.8,87.7 168.9,87.7 168.9,96.6 160,96.6 151.1,96.6 142.2,96.6 142.2,105.5 151.1,105.5 160,105.5 160,114.4 168.9,114.4 
		177.8,114.4 186.6,114.4 195.5,114.4 204.4,114.4 204.4,123.2 213.3,123.2 213.3,132.1 204.4,132.1 195.5,132.1 195.5,141 
		186.6,141 177.8,141 177.8,149.9 186.6,149.9 186.6,158.8 195.5,158.8 204.4,158.8 213.3,158.8 222.2,158.8 231,158.8 239.9,158.8 
		248.8,158.8 257.7,158.8 257.7,149.9 266.6,149.9 266.6,141 275.4,141 275.4,132.1 284.3,132.1 284.3,123.2 284.3,114.4 
		293.2,114.4 293.2,105.5 293.2,96.6 293.2,87.7 	"/>
	<g>
		<polygon class="st3" points="71.2,78.8 80.1,78.8 80.1,70 71.2,70 62.3,70 62.3,78.8 62.3,87.7 71.2,87.7 		"/>
		<polygon class="st3" points="44.6,78.8 35.7,78.8 35.7,70 26.8,70 17.9,70 9.1,70 9.1,78.8 17.9,78.8 17.9,87.7 26.8,87.7 
			35.7,87.7 44.6,87.7 		"/>
		<polygon class="st3" points="89,167.6 80.1,167.6 71.2,167.6 62.3,167.6 53.5,167.6 53.5,176.5 62.3,176.5 71.2,176.5 71.2,185.4 
			80.1,185.4 89,185.4 97.8,185.4 97.8,176.5 89,176.5 		"/>
		<path class="st3" d="M302.1,78.8V70v-8.9h-8.9v-8.9h-8.9v-8.9h-8.9v-8.9h-8.9v-8.9h-8.9h-8.9v-8.9h-8.9H231h-8.9h-8.9h-8.9h-8.9
			h-8.9h-8.9h-8.9H160h-8.9h-8.9h-8.9h-8.9h-8.9v8.9h-8.9h-8.9H89h-8.9h-8.9v8.9h8.9H89h8.9v8.9h8.9h8.9h8.9h8.9v8.9h8.9v8.9h-8.9
			h-8.9h-8.9V70h-8.9h-8.9H89v8.9h8.9h8.9v8.9h8.9h8.9v8.9h-8.9v8.9h-8.9v8.9h-8.9H89h-8.9v8.9h-8.9h-8.9h-8.9h-8.9v8.9h8.9h8.9h8.9
			h8.9H89h8.9v8.9h8.9h8.9h8.9h8.9h8.9h8.9h8.9v8.9h-8.9v8.9h-8.9h-8.9h-8.9v8.9h-8.9h-8.9v8.9h8.9h8.9h8.9v8.9h8.9h8.9h8.9h8.9h8.9
			h8.9h8.9h8.9h8.9h8.9h8.9h8.9h8.9v-8.9h8.9h8.9v-8.9h8.9v-8.9h8.9v-8.9h8.9V141h8.9v-8.9v-8.9h8.9v-8.9v-8.9v-8.9v-8.9v-8.9H302.1
			z M293.2,96.6v8.9v8.9h-8.9v8.9v8.9h-8.9v8.9h-8.9v8.9h-8.9v8.9h-8.9h-8.9H231h-8.9h-8.9h-8.9h-8.9h-8.9v-8.9h-8.9V141h8.9h8.9
			v-8.9h8.9h8.9v-8.9h-8.9v-8.9h-8.9h-8.9h-8.9h-8.9H160v-8.9h-8.9h-8.9v-8.9h8.9h8.9h8.9v-8.9h8.9h8.9h8.9h8.9v-8.9V70h-8.9h-8.9
			v-8.9h-8.9h-8.9H160v-8.9h8.9h8.9v-8.9h8.9h8.9h8.9h8.9h8.9h8.9h8.9h8.9h8.9v8.9h8.9v8.9h8.9V70h8.9v8.9v8.9h8.9V96.6z"/>
	</g>
</g>
</svg>
