<svg id="Capa_1" data-name="Capa 1" xmlns="http://www.w3.org/2000/svg" viewBox="0 0 120 120"><defs><style>.cls-1{fill:#88df8e;}.cls-1,.cls-2{fill-rule:evenodd;}.cls-2{fill:#b8ecbb;}.cls-3{fill:#232323;}</style></defs><path class="cls-1" d="M68.53,36.59A11.18,11.18,0,0,0,80,42,11.18,11.18,0,0,0,69.58,23.9,11.18,11.18,0,0,0,68.53,36.59Z"/><path class="cls-2" d="M87.46,24.24c-10.71,40-28.06,55.67-66.89,66.07a4.33,4.33,0,0,0,2.24,8.37A138,138,0,0,0,49.17,89l0-.29a11.19,11.19,0,0,1,8.64-4.67h0a72.1,72.1,0,0,0,10.76-8.6,7.19,7.19,0,0,1-.32-.76,11.21,11.21,0,0,1,7-6.7A82.77,82.77,0,0,0,83,55.74c-.21-.24-.4-.5-.59-.76a11.24,11.24,0,0,1,4.72-8.08,166.71,166.71,0,0,0,7-21.11C95.43,21.05,88.84,19.05,87.46,24.24Z"/><path class="cls-1" d="M87.14,46.9A11.24,11.24,0,0,0,82.42,55c.19.26.38.52.59.76a11.19,11.19,0,0,0,19.63-6.18,11.18,11.18,0,0,0-12-4.29A11.4,11.4,0,0,0,87.14,46.9Z"/><path class="cls-1" d="M89.15,74.7a11.17,11.17,0,0,0-20.93,0,7.19,7.19,0,0,0,.32.76,11.18,11.18,0,0,0,20.61-.76Z"/><path class="cls-1" d="M69.36,94.15A11.22,11.22,0,0,0,57.78,84.06h0a11.19,11.19,0,0,0-8.64,4.67l0,.29a11.18,11.18,0,0,0,20.19,5.13Z"/><path class="cls-1" d="M45,81.39a11.18,11.18,0,0,0,0-20.93,11.18,11.18,0,0,0,0,20.93Z"/><path class="cls-1" d="M57.15,57.14a11.19,11.19,0,0,0,9.71,8.23,11.18,11.18,0,0,0-5.42-20.22,11.18,11.18,0,0,0-4.29,12Z"/><path class="cls-3" d="M104.05,48.55a13,13,0,0,0-13.72-5,178.93,178.93,0,0,0,5.51-17.32A5.32,5.32,0,0,0,94.57,21a5.16,5.16,0,0,0-4.95-1.33,5.58,5.58,0,0,0-3.84,4.17q-1,3.77-2.08,7.21a13.14,13.14,0,0,0-1.11-2.52,13,13,0,0,0-13.3-6.29,1.74,1.74,0,0,0-1.05.61,12.91,12.91,0,0,0,10,21.11c.23,0,.46,0,.69,0a84.89,84.89,0,0,1-5.75,11,11.7,11.7,0,0,0-.36-1.93,13,13,0,0,0-11.21-9.51,1.71,1.71,0,0,0-1.18.31A12.91,12.91,0,0,0,64,66.52l-.12.11a1.73,1.73,0,0,0,0,2.45,1.68,1.68,0,0,0,1.23.52,1.72,1.72,0,0,0,1.22-.51C76.6,58.85,83.65,45.16,89.13,24.69A2.21,2.21,0,0,1,90.52,23a1.72,1.72,0,0,1,1.6.44,1.9,1.9,0,0,1,.37,1.94,168.16,168.16,0,0,1-6.77,20.47,13,13,0,0,0-5,8.92A1.72,1.72,0,0,0,81,55.91a79.68,79.68,0,0,1-6.84,10.65A13.55,13.55,0,0,0,66.62,74a2.65,2.65,0,0,0-.11,1,70.12,70.12,0,0,1-9.32,7.37,13,13,0,0,0-9.41,5.29,1.4,1.4,0,0,0-.12.18h0A137.42,137.42,0,0,1,22.36,97a2.6,2.6,0,0,1-3.18-1.84,2.63,2.63,0,0,1,.26-2A2.6,2.6,0,0,1,21,92c13.77-3.69,24.15-7.84,32.67-13.07a1.74,1.74,0,0,0,.58-2.39,1.78,1.78,0,0,0-1.19-.8,12.75,12.75,0,0,0,.94-4.8,13,13,0,0,0-8.37-12.1,1.82,1.82,0,0,0-1.22,0,12.91,12.91,0,0,0-3,22.56,148.17,148.17,0,0,1-21.29,7.25,6.06,6.06,0,0,0,1.56,11.92,6.11,6.11,0,0,0,1.57-.21A143.35,143.35,0,0,0,48,91.54a13,13,0,0,0,9,8.57,12.44,12.44,0,0,0,3.31.44,13,13,0,0,0,10.53-5.39A1.77,1.77,0,0,0,71.09,94a13,13,0,0,0-8.75-11,70.92,70.92,0,0,0,5.8-4.79,12.91,12.91,0,0,0,22.63-2.9,1.71,1.71,0,0,0,0-1.22A13,13,0,0,0,79,65.72c1.56-2.25,3-4.63,4.44-7.16a13,13,0,0,0,8.08,2.82A12.85,12.85,0,0,0,94.85,61a13,13,0,0,0,9.52-11.22,1.77,1.77,0,0,0-.32-1.18ZM70,35.72a9.51,9.51,0,0,1,.48-10.19,9.45,9.45,0,0,1,9.58,13.11L76.31,32.1a1.73,1.73,0,0,0-3,1.73l3.78,6.55A9.52,9.52,0,0,1,70,35.72Zm-11.21,21A9.51,9.51,0,0,1,61.93,47a9.44,9.44,0,0,1,5.85,15.15l-2-7.3a1.73,1.73,0,1,0-3.34.9l2,7.3a9.52,9.52,0,0,1-5.61-6.32ZM39.53,70.93A9.51,9.51,0,0,1,45,62.33a9.45,9.45,0,0,1,1.73,16.15V70.93a1.73,1.73,0,1,0-3.46,0v7.55a9.5,9.5,0,0,1-3.78-7.55Zm28,22.73a9.44,9.44,0,0,1-16-2.5l7.3,2a1.74,1.74,0,0,0,.45.06,1.73,1.73,0,0,0,.45-3.4l-7.3-2a9.44,9.44,0,0,1,15.15,5.85Zm19.72-19a9.44,9.44,0,0,1-16.14,1.73h7.55a1.74,1.74,0,1,0,0-3.47H71.13A9.44,9.44,0,0,1,87.27,74.7ZM94,57.6a9.52,9.52,0,0,1-8.28-1.7L93,54a1.73,1.73,0,0,0-.9-3.35l-7.3,1.95a9.44,9.44,0,0,1,16-2.5A9.53,9.53,0,0,1,94,57.6Z"/><path class="cls-3" d="M60.94,73a1.73,1.73,0,0,0-1.73-1.73h0A1.74,1.74,0,1,0,60.94,73Z"/></svg>