<svg id="Capa_1" data-name="Capa 1" xmlns="http://www.w3.org/2000/svg" viewBox="0 0 120 120"><defs><style>.cls-1{fill:#e0ff29;}.cls-2{fill:#ffe2c5;}.cls-3{fill:#232323;}</style></defs><path class="cls-1" d="M84,26.94H36a6.92,6.92,0,0,0-6.93,6.92V47.35A6.92,6.92,0,0,0,36,54.27H84a6.92,6.92,0,0,0,6.93-6.92V33.86A6.92,6.92,0,0,0,84,26.94Z"/><path class="cls-1" d="M36,51a3.66,3.66,0,0,1-3.66-3.66V33.86A3.66,3.66,0,0,1,36,30.2H84a3.66,3.66,0,0,1,3.66,3.66V47.35A3.66,3.66,0,0,1,84,51Z"/><path class="cls-2" d="M47.08,66.54A3.85,3.85,0,0,1,52.32,68a11.63,11.63,0,0,1,1.45,3.47V53.4a3.38,3.38,0,0,1,6.75,0V65.35A3.37,3.37,0,0,1,63.89,62h0a3.37,3.37,0,0,1,3.38,3.37v.86h0a3.37,3.37,0,0,1,3.37-3.37h0A3.37,3.37,0,0,1,74,66.21v3.38a3.37,3.37,0,0,1,3.37-3.38h0a3.38,3.38,0,0,1,3.38,3.38v7.78c0,7.26-4.66,15.69-12.9,15.69H57.82c-11.17,0-11.24-15.46-11.24-15.46s0-4-1-5.82A3.86,3.86,0,0,1,47.08,66.54Z"/><path class="cls-3" d="M77.39,65.19a4.47,4.47,0,0,0-2.37.69A4.39,4.39,0,0,0,67.62,63a4.4,4.4,0,0,0-6.08-1.38V53.4A4.4,4.4,0,0,0,54,50.3a4.35,4.35,0,0,0-1.28,3.1V66.85a4.87,4.87,0,0,0-8.06,5.42c.71,1.28.87,4.28.87,5.34a26.34,26.34,0,0,0,1.49,8.07c2,5.5,5.73,8.4,10.77,8.4H67.87a12.7,12.7,0,0,0,10.57-5.84,1,1,0,0,0-.25-1.42,1,1,0,0,0-1.42.26,10.7,10.7,0,0,1-8.9,5H57.82c-4.15,0-7.12-2.36-8.84-7A25.08,25.08,0,0,1,47.6,77.6c0-.44,0-4.35-1.12-6.32a2.78,2.78,0,0,1-.25-2.15,2.82,2.82,0,0,1,3.5-1.94,2.76,2.76,0,0,1,1.7,1.35,12.25,12.25,0,0,1,1.32,3.06v6a1,1,0,1,0,2,0V53.4a2.31,2.31,0,0,1,.69-1.66,2.34,2.34,0,0,1,1.66-.69A2.36,2.36,0,0,1,59.5,53.4V71a1,1,0,1,0,2,0V65.35a2.36,2.36,0,0,1,4.71,0v4.59a1,1,0,0,0,2,0V66.21a2.36,2.36,0,0,1,4.71,0v5.14a1,1,0,0,0,2,0V69.59a2.36,2.36,0,1,1,4.71,0v7.78a17.59,17.59,0,0,1-1.48,7,1,1,0,0,0,.53,1.34,1,1,0,0,0,1.34-.52,19.71,19.71,0,0,0,1.65-7.82V69.59A4.41,4.41,0,0,0,77.39,65.19Z"/><path class="cls-3" d="M51.39,54.27a1,1,0,0,0-1-1H36a5.91,5.91,0,0,1-5.91-5.9V33.86A5.91,5.91,0,0,1,36,28h5.47a1,1,0,1,0,0-2H36a8,8,0,0,0-7.95,7.94V47.35a8,8,0,0,0,8,7.94H50.37A1,1,0,0,0,51.39,54.27Z"/><path class="cls-3" d="M84,25.92H44.87a1,1,0,1,0,0,2H84a5.91,5.91,0,0,1,5.91,5.9V47.35A5.91,5.91,0,0,1,84,53.25H64.45a1,1,0,0,0,0,2H84a8,8,0,0,0,8-7.94V33.86A8,8,0,0,0,84,25.92Z"/><path class="cls-3" d="M37,42.39v.86H35V35.5H37v3a2,2,0,0,1,1.75-1c1.31,0,2.36,1,2.36,2.91v.08c0,1.93-1.05,2.89-2.37,2.89A1.82,1.82,0,0,1,37,42.39Zm2.16-1.9v-.08c0-1-.42-1.46-1.1-1.46s-1.11.5-1.11,1.45v.08c0,1,.41,1.43,1.11,1.43S39.11,41.41,39.11,40.49Z"/><path class="cls-3" d="M41.44,40.52v-.08a2.87,2.87,0,0,1,3-2.94,2.66,2.66,0,0,1,2.85,2.9v.49H43.37a1.13,1.13,0,0,0,1.16,1.18c.64,0,.91-.29,1-.67h1.8c-.17,1.26-1.14,2-2.84,2A2.76,2.76,0,0,1,41.44,40.52Zm4-.71c0-.67-.36-1.05-1-1.05a1.08,1.08,0,0,0-1.07,1.05Z"/><path class="cls-3" d="M47.94,35.5h1.91v3a2,2,0,0,1,1.84-1c1.08,0,1.83.68,1.83,2.12v3.63H51.61V40c0-.63-.25-1-.8-1s-1,.35-1,1.06v3.14H47.94Z"/><path class="cls-3" d="M54.1,41.71c0-1.32,1.11-1.83,3-1.83h.54v-.14c0-.53-.13-.88-.75-.88a.69.69,0,0,0-.76.66H54.3c.1-1.35,1.16-2,2.69-2s2.52.64,2.52,2.13v3.62H57.65V42.6a1.83,1.83,0,0,1-1.66.78C55,43.38,54.1,42.89,54.1,41.71Zm3.51-.41V41H57.1c-.77,0-1.11.14-1.11.6s.22.53.66.53S57.61,41.78,57.61,41.3Z"/><path class="cls-3" d="M59.74,37.65h2L63,41.26l1.14-3.61h1.84l-2.05,5.6H61.79Z"/><path class="cls-3" d="M66.33,36.32a1,1,0,0,1,1-1,1,1,0,1,1,0,1.95A1,1,0,0,1,66.33,36.32Zm.07,1.33h1.92v5.6H66.4Z"/><path class="cls-3" d="M69,40.52v-.08a2.89,2.89,0,0,1,3.07-2.94,2.84,2.84,0,0,1,3.06,2.89v.08a2.85,2.85,0,0,1-3.07,2.91A2.82,2.82,0,0,1,69,40.52Zm4.17,0v-.08c0-.95-.37-1.47-1.1-1.47S71,39.44,71,40.39v.08c0,1,.37,1.48,1.11,1.48S73.17,41.42,73.17,40.49Z"/><path class="cls-3" d="M75.72,41.31V37.65h1.92V41c0,.62.25.93.79.93s1-.34,1-1.06V37.65H81.3v5.6H79.39v-.86a1.88,1.88,0,0,1-1.78,1A1.82,1.82,0,0,1,75.72,41.31Z"/><path class="cls-3" d="M82.22,37.65h1.91v1.11a1.77,1.77,0,0,1,1.81-1.18v1.79c-1.16,0-1.81.33-1.81,1.23v2.65H82.22Z"/></svg>