<svg id="Capa_1" data-name="Capa 1" xmlns="http://www.w3.org/2000/svg" viewBox="0 0 120 120"><defs><style>.cls-1{fill:#c5a085;}.cls-2{fill:#4eaf6b;}.cls-3{fill:#b8ecbb;}.cls-4{fill:#88df8e;}.cls-5{fill:#232323;}</style></defs><path class="cls-1" d="M68.52,100.7A5.82,5.82,0,0,1,65,95.37v-20l8.16-6.24,1.49-8.57-8.2-2L52.17,69.87,55,72.39v23a5.82,5.82,0,0,1-3.49,5.33Z"/><path class="cls-2" d="M81.54,35.7a8.92,8.92,0,0,0-8.82-7.53h-.09a13.64,13.64,0,0,0-22.89-4.39,8.16,8.16,0,0,0-1.86-.22A7.9,7.9,0,0,0,40,30.86,12.92,12.92,0,1,0,50.75,54.22a11.11,11.11,0,0,0,17.94-.85A11.11,11.11,0,1,0,81.54,35.7Z"/><path class="cls-3" d="M84.46,41.29a7.79,7.79,0,0,0-11-3.86,10.37,10.37,0,0,0-6.34-1.89,10.48,10.48,0,0,0-2.6,20.54,9.32,9.32,0,0,0,16.65,0,7.79,7.79,0,1,0,3.25-14.74Z"/><path class="cls-4" d="M63.63,55.49a5,5,0,0,0-8.14-5.58,11.36,11.36,0,0,0-14.64,1.45,9,9,0,1,0-.07,15.76,11.37,11.37,0,0,0,16.41.08,6.7,6.7,0,1,0,6.44-11.71Z"/><path class="cls-5" d="M94.14,48.77a9.46,9.46,0,0,0-5.8-8.41A12.81,12.81,0,0,0,83,34.6a10.61,10.61,0,0,0-9.26-8A15.3,15.3,0,0,0,49.17,22a11.17,11.17,0,0,0-1.29-.08,9.6,9.6,0,0,0-9.38,7.76,14.58,14.58,0,0,0-7.15,20.24,10.64,10.64,0,0,0,9.1,19.19A12.93,12.93,0,0,0,49,72.31,13.68,13.68,0,0,0,52,72l1.29,1.16v4.71a1.65,1.65,0,1,0,3.3,0V72.39a1.67,1.67,0,0,0-.54-1.23l-.61-.55a12.83,12.83,0,0,0,2-1.39,8.35,8.35,0,0,0,11.74-7,11.16,11.16,0,0,0,3.34.63c-.3,1.61-.71,3.91-.9,5.42L64,74.06a1.65,1.65,0,0,0-.65,1.32v20a7.47,7.47,0,0,0,1,3.67H55.66a7.47,7.47,0,0,0,1-3.67V92.73a1.65,1.65,0,1,0-3.3,0v2.64a4.17,4.17,0,0,1-2.5,3.81,1.65,1.65,0,0,0,.66,3.17h17a1.65,1.65,0,0,0,.66-3.17,4.17,4.17,0,0,1-2.5-3.81V76.19l7.52-5.74a1.68,1.68,0,0,0,.64-1.17C75,67.77,75.67,64,76,62.39a11,11,0,0,0,5.94-4.3,9.56,9.56,0,0,0,3.1.42,9.45,9.45,0,0,0,9.13-9.74ZM33,43.07a11.28,11.28,0,0,1,7.59-10.65A1.67,1.67,0,0,0,41.66,31a6.26,6.26,0,0,1,6.22-5.76,6.09,6.09,0,0,1,1.47.17,1.67,1.67,0,0,0,1.62-.5,12,12,0,0,1,20.11,3.86,1.64,1.64,0,0,0,1.55,1.07h.1a7.24,7.24,0,0,1,7,5.32A9.48,9.48,0,0,0,77,34.81a9.31,9.31,0,0,0-3.34.73A12.13,12.13,0,0,0,55.36,46.4a11.34,11.34,0,0,0,.13,1.43l-.11.07a13,13,0,0,0-14.84,1.48,10.6,10.6,0,0,0-4-.8,10.72,10.72,0,0,0-2,.19A11.14,11.14,0,0,1,33,43.07Zm27.9,23.57a5,5,0,0,1-2.76-.83A1.67,1.67,0,0,0,56,66,9.69,9.69,0,0,1,42,66a1.68,1.68,0,0,0-1.2-.51,1.72,1.72,0,0,0-.79.2,7.34,7.34,0,1,1,0-12.86,1.65,1.65,0,0,0,2-.3,9.74,9.74,0,0,1,12.52-1.24,1.66,1.66,0,0,0,2.1-.17,3.34,3.34,0,0,1,2.35-1,3.38,3.38,0,0,1,3.37,3.38,3.49,3.49,0,0,1-.26,1.32A1.64,1.64,0,0,0,62.94,57a5,5,0,0,1-2.08,9.65ZM89.18,53.27A6.13,6.13,0,0,1,82,54.55a1.66,1.66,0,0,0-2.23.74,7.66,7.66,0,0,1-6.61,4.23,7.51,7.51,0,0,1-4.66-1.39,8.33,8.33,0,0,0-2.88-3.43A6.72,6.72,0,0,0,59,46.83h-.3c0-.18,0-.36,0-.54a8.83,8.83,0,0,1,13.89-7.52,1.65,1.65,0,0,0,1.75.1,6.13,6.13,0,0,1,8.63,3,1.66,1.66,0,0,0,1.59,1,6.13,6.13,0,0,1,4.66,10.32Z"/><circle class="cls-5" cx="54.97" cy="85.29" r="1.65"/></svg>