<svg id="Capa_1" data-name="Capa 1" xmlns="http://www.w3.org/2000/svg" viewBox="0 0 120 120"><defs><style>.cls-1{fill:#9fdef7;}.cls-2{fill:#beeafc;}.cls-3{fill:#e4f2f9;}.cls-4{fill:#d7edf9;}.cls-5{fill:#aee4ff;}.cls-6{fill:#83d4ed;}.cls-7{fill:#232323;stroke:#232323;stroke-miterlimit:10;stroke-width:0.75px;}</style></defs><path class="cls-1" d="M46.48,50.57H51.6a15,15,0,0,1,9.09-7.27A5.27,5.27,0,0,0,55.82,40a5.49,5.49,0,0,0-1.58.24,1.93,1.93,0,0,0,0-.24,7.08,7.08,0,0,0-14-1.56,4,4,0,0,0-1.34-.22,4.25,4.25,0,0,0-3.5,1.83,5.27,5.27,0,0,0-1.33-.17,5.32,5.32,0,1,0,0,10.64h8.51"/><path class="cls-2" d="M75.71,47.49a15,15,0,0,0-25.57,6.92A9,9,0,0,0,39.9,57.82a11.57,11.57,0,0,0-2.84-.36,11.28,11.28,0,0,0,0,22.55H49.49a7,7,0,0,1,7-6.93,6.87,6.87,0,0,1,2.09.32c0-.11,0-.21,0-.32A9.39,9.39,0,0,1,77.09,71a5.82,5.82,0,0,1,1.78-.29,5.65,5.65,0,0,1,4.63,2.43,7.42,7.42,0,0,1,1.78-.22,7.06,7.06,0,0,1,6,3.42,11.15,11.15,0,0,0-11.6-18.11c0-.17,0-.33,0-.5a15,15,0,0,0-1.71-7"/><path class="cls-3" d="M77.36,87H56.47a7,7,0,1,1,0-14,6.87,6.87,0,0,1,2.09.32c0-.11,0-.21,0-.32A9.39,9.39,0,0,1,77.09,71a5.82,5.82,0,0,1,1.78-.29,5.65,5.65,0,0,1,4.63,2.43,7.42,7.42,0,0,1,1.78-.22,7.06,7.06,0,0,1,0,14.11h-4"/><path class="cls-4" d="M63.91,71.15a17.4,17.4,0,0,1,1.49-7.08,9.39,9.39,0,0,0-6.85,9c0,.1,0,.21,0,.32a6.87,6.87,0,0,0-2.09-.32,7,7,0,1,0,0,14H74.2A17.44,17.44,0,0,1,63.91,71.15Z"/><path class="cls-5" d="M37.74,57.81l-.68,0a11.28,11.28,0,0,0,0,22.55H49.49A6.87,6.87,0,0,1,50.36,77,35,35,0,0,1,37.74,57.81Z"/><path class="cls-6" d="M36.7,49.3a35,35,0,0,1,1.6-10.5,4.3,4.3,0,0,0-2.72,1.76A5.33,5.33,0,1,0,34.24,51h2.5C36.71,50.46,36.7,49.88,36.7,49.3Z"/><path class="cls-7" d="M95.4,68.87A12.35,12.35,0,0,0,83.07,56.53a12.94,12.94,0,0,0-2.16.19,16.28,16.28,0,0,0-1.83-6.52A1.19,1.19,0,0,0,77,51.31a13.86,13.86,0,0,1,1.58,6.42c0,.12,0,.24,0,.36v.11a1.18,1.18,0,0,0,.47,1,1.17,1.17,0,0,0,1.08.19,9.95,9.95,0,0,1,11.25,15l-.12-.13-.15-.15L91,74l-.23-.21,0,0a8.22,8.22,0,0,0-5.43-2,8.05,8.05,0,0,0-1.3.11,6.81,6.81,0,0,0-5.11-2.31,6,6,0,0,0-1,.07,10.58,10.58,0,0,0-20.5,2.35c-.32,0-.63,0-1,0h-.55l-.24,0-.19,0-.19,0-.22,0-.16,0-.24,0-.11,0-.27.07-.08,0-.3.1h0a8.2,8.2,0,0,0-5.51,6.52H37.06a10.08,10.08,0,0,1,0-20.16A10.34,10.34,0,0,1,39.6,59a1.21,1.21,0,0,0,1.28-.48,7.82,7.82,0,0,1,8.89-3,1.2,1.2,0,0,0,1-.09,1.24,1.24,0,0,0,.58-.78,13.87,13.87,0,0,1,1.24-3.39.55.55,0,0,0,.09-.14A13.88,13.88,0,0,1,61,44.45l.12,0a14.06,14.06,0,0,1,3.63-.48,13.64,13.64,0,0,1,10.07,4.38,1.2,1.2,0,0,0,1.75-1.63,16.25,16.25,0,0,0-11.82-5.13,15.76,15.76,0,0,0-3.44.37,6.46,6.46,0,0,0-5.5-3.07h-.46a8.28,8.28,0,0,0-15.92-1.77,4.36,4.36,0,0,0-.51,0,5.47,5.47,0,0,0-4,1.72,6.29,6.29,0,0,0-.86-.05,6.52,6.52,0,1,0,0,13h8.51a1.2,1.2,0,0,0,0-2.39H34.1a4.13,4.13,0,0,1,0-8.26,4.56,4.56,0,0,1,1,.13,1.19,1.19,0,0,0,1.28-.47,3,3,0,0,1,2.51-1.32,2.85,2.85,0,0,1,1,.16,1.26,1.26,0,0,0,1-.09,1.24,1.24,0,0,0,.58-.78,5.83,5.83,0,0,1,5.73-4.58A5.89,5.89,0,0,1,53.06,40c0,.05,0,.1,0,.15v.05a1.19,1.19,0,0,0,.47,1,1.17,1.17,0,0,0,1.08.19,4.15,4.15,0,0,1,1.22-.19,4.06,4.06,0,0,1,3.08,1.41l-.12,0-.23.1-.35.15-.41.19-.15.07a16,16,0,0,0-6.34,5.56l-.12.17-.21.34-.06.1H46.48a1.2,1.2,0,0,0,0,2.39h3.24c-.16.39-.3.79-.42,1.19a10.38,10.38,0,0,0-2-.2,10.21,10.21,0,0,0-7.88,3.74,13.17,13.17,0,0,0-2.35-.22,12.47,12.47,0,0,0,0,24.93H48.38a8.18,8.18,0,0,0,8.09,7H77.36a1.2,1.2,0,0,0,0-2.39H56.47a5.78,5.78,0,0,1-5.78-5.78V80a2,2,0,0,1,0-.25v0a2.45,2.45,0,0,1,0-.27h0a5.8,5.8,0,0,1,5.75-5.16,5.63,5.63,0,0,1,1.73.27,1.23,1.23,0,0,0,1.08-.19,1.19,1.19,0,0,0,.47-1v-.07c0-.07,0-.14,0-.21a8.19,8.19,0,0,1,16.18-1.81,1.21,1.21,0,0,0,1.54.87,4.25,4.25,0,0,1,1.41-.23,4.44,4.44,0,0,1,3.65,1.91,1.2,1.2,0,0,0,1.28.48,5.67,5.67,0,0,1,1.48-.19h.47l.21,0,.16,0,.14,0A5.91,5.91,0,0,1,90,76.46v0a5.86,5.86,0,0,1-4.7,9.36h-4a1.2,1.2,0,1,0,0,2.39h4A8.25,8.25,0,0,0,92.76,76.5,12.31,12.31,0,0,0,95.4,68.87Z"/></svg>