<svg id="Capa_1" data-name="Capa 1" xmlns="http://www.w3.org/2000/svg" viewBox="0 0 120 120"><defs><style>.cls-1{fill:#6d91ac;}.cls-1,.cls-2,.cls-3,.cls-4{fill-rule:evenodd;}.cls-2{fill:#ffdcd5;}.cls-3{fill:#ff5d7d;}.cls-4{fill:#ff7d97;}.cls-5{fill:#232323;}</style></defs><path class="cls-1" d="M60,47q3.84,0,7.55-.27l1.5-8.37,3.11,7.92c2.42-.29,4.79-.67,7.1-1.12l1.51,5.86h1.6a3.15,3.15,0,0,1,1.84.59c1-19-3.88-30.95-24.21-30.95s-25.16,12-24.21,31a3.15,3.15,0,0,1,1.84-.59h1.6l1.51-5.86A99.91,99.91,0,0,0,60,47Z"/><path class="cls-2" d="M67.55,46.76Q63.85,47,60,47a99.91,99.91,0,0,1-19.26-1.84l-1.51,5.86h-1.6a3.15,3.15,0,0,0-1.84.59,3.19,3.19,0,0,0,1.84,5.8h2.61a20.92,20.92,0,0,0,15,13.82,20.77,20.77,0,0,0,9.58,0,20.92,20.92,0,0,0,15-13.82h2.61a3.19,3.19,0,0,0,1.84-5.8,3.15,3.15,0,0,0-1.84-.59h-1.6l-1.51-5.86c-2.31.45-4.68.83-7.1,1.12l-3.11-7.92Z"/><path class="cls-1" d="M55.21,71.26a20.92,20.92,0,0,1-15-13.82H37.63c0,12.5-6.66,19.84,3.93,22.63a9.58,9.58,0,0,1,5.66-1.85h3.11C54.15,78.22,55.21,75.33,55.21,71.26Z"/><path class="cls-1" d="M79.76,57.44a20.92,20.92,0,0,1-15,13.82c0,4.07,1.06,7,4.88,7h3.11a9.58,9.58,0,0,1,5.66,1.85C89,77.28,82.37,69.94,82.37,57.44Z"/><path class="cls-2" d="M69.67,78.22c-3.82,0-4.88-2.89-4.88-7a20.77,20.77,0,0,1-9.58,0c0,4.07-1.06,7-4.88,7H47.22a9.61,9.61,0,0,0-9.59,9.58V99.31H82.37V87.8a9.61,9.61,0,0,0-9.59-9.58Z"/><path class="cls-3" d="M66.39,90H47.22v9.28H72.78V90Z"/><path class="cls-4" d="M53.61,90,51.46,78.12a6.6,6.6,0,0,1-1.13.1H47.22a9.56,9.56,0,0,0-2.09.23L47.22,90Z"/><path class="cls-4" d="M66.39,90l2.15-11.91a6.6,6.6,0,0,0,1.13.1h3.11a9.56,9.56,0,0,1,2.09.23L72.78,90Z"/><path class="cls-5" d="M84,58.76A4.79,4.79,0,0,0,85.84,51c.51-12.1-1.53-20.12-6.38-25.21C75.2,21.27,68.83,19.09,60,19.09a38.58,38.58,0,0,0-9.44,1.06,1.6,1.6,0,0,0,.79,3.1,35.2,35.2,0,0,1,8.65-1c7.91,0,13.52,1.85,17.15,5.66,4,4.24,5.82,11.1,5.55,21.52l-.33,0H82l-1.2-4.66A1.61,1.61,0,0,0,79,43.62c-1.88.37-3.82.69-5.76,1l-2.66-6.76a1.59,1.59,0,0,0-1.64-1,1.61,1.61,0,0,0-1.42,1.31L66.2,45.25c-2,.12-4.13.19-6.2.19a97.36,97.36,0,0,1-19-1.82,1.61,1.61,0,0,0-1.86,1.17L38,49.45h-.36l-.33,0c-.22-8.53.9-14.54,3.5-18.83A1.6,1.6,0,1,0,38.07,29C35,34.05,33.74,41.05,34.16,51A4.79,4.79,0,0,0,36,58.76a55.7,55.7,0,0,1-1.21,8.79c-.64,3.27-1.19,6.1-.54,8.49a7.06,7.06,0,0,0,4.31,4.68A11.1,11.1,0,0,0,36,87.8V99.31a1.6,1.6,0,0,0,1.6,1.6H82.37a1.6,1.6,0,0,0,1.6-1.6V87.8a11.1,11.1,0,0,0-2.54-7.08A7.08,7.08,0,0,0,85.74,76c.65-2.39.1-5.22-.54-8.49A55.7,55.7,0,0,1,84,58.76ZM37.63,52.65h1.6a1.58,1.58,0,0,0,1.54-1.2L41.91,47A101.52,101.52,0,0,0,60,48.63c2.56,0,5.14-.09,7.67-.28A1.57,1.57,0,0,0,69.12,47l.5-2.8,1,2.66a1.58,1.58,0,0,0,1.68,1c1.93-.23,3.85-.52,5.74-.86l1.13,4.41a1.6,1.6,0,0,0,1.55,1.2h1.6a1.6,1.6,0,0,1,0,3.2H79.76A1.59,1.59,0,0,0,78.24,57a19.17,19.17,0,0,1-36.48,0,1.59,1.59,0,0,0-1.52-1.1H37.63a1.6,1.6,0,1,1,0-3.2ZM64.48,77.17a5.33,5.33,0,0,0,2.24,2l-1.66,9.24H54.94l-1.66-9.24a5.33,5.33,0,0,0,2.25-2,9,9,0,0,0,1.19-4,22.53,22.53,0,0,0,6.56,0,9,9,0,0,0,1.2,4ZM50.14,79.81l1.56,8.62H48.55L47,79.82h3.14ZM48.82,91.63H71.18v6.08H48.82Zm22.63-3.2H68.3l1.56-8.62H73ZM37.34,75.2c-.45-1.67,0-4.16.6-7a59.83,59.83,0,0,0,1.24-8.95A22.72,22.72,0,0,0,46.74,69a22.41,22.41,0,0,0,6.83,3.44c-.25,3.79-1.73,4.14-3.24,4.14H47.22a11.15,11.15,0,0,0-5.94,1.71c-3-.92-3.67-2.14-3.94-3.13Zm1.89,12.6a8,8,0,0,1,3.18-6.38.58.58,0,0,0,.15-.11,8.68,8.68,0,0,1,1.32-.76l1.74,9.62v7.54H39.23Zm41.54,9.91H74.38V90.17l1.74-9.62a7.58,7.58,0,0,1,1.32.77s.09.07.15.1a8,8,0,0,1,3.18,6.38ZM82.66,75.2c-.27,1-1,2.21-3.94,3.13a11.15,11.15,0,0,0-5.94-1.71H69.67c-1.51,0-3-.34-3.24-4.14A22.41,22.41,0,0,0,73.26,69a22.72,22.72,0,0,0,7.56-9.83,59.83,59.83,0,0,0,1.24,8.95c.56,2.88,1,5.37.6,7Z"/><path class="cls-5" d="M52.89,55.27a.92.92,0,0,1,1.44,0,1.6,1.6,0,0,0,1.08.42,1.6,1.6,0,0,0,1.09-2.77,4.1,4.1,0,0,0-5.78,0,1.6,1.6,0,1,0,2.17,2.35Z"/><path class="cls-5" d="M65.67,55.27a.92.92,0,0,1,1.44,0,1.58,1.58,0,0,0,1.08.43,1.6,1.6,0,0,0,1.09-2.78,4.09,4.09,0,0,0-5.77,0,1.6,1.6,0,1,0,2.16,2.35Z"/><path class="cls-5" d="M60.27,61.16a1.33,1.33,0,0,1-1.8,0,2.33,2.33,0,0,0-1.36-.42,2.25,2.25,0,0,0-1.47.51,1.39,1.39,0,0,0,.11,2.26,6.06,6.06,0,0,0,7.24,0,1.39,1.39,0,0,0,.11-2.26A2.37,2.37,0,0,0,60.27,61.16Z"/><path class="cls-5" d="M44.37,26.17a1.6,1.6,0,0,0,0-3.19h0a1.6,1.6,0,0,0,0,3.19Z"/></svg>