<?xml version="1.0" encoding="utf-8"?>
<!-- Generator: Adobe Illustrator 24.0.0, SVG Export Plug-In . SVG Version: 6.00 Build 0)  -->
<svg version="1.1" id="Layer_1" xmlns="http://www.w3.org/2000/svg" xmlns:xlink="http://www.w3.org/1999/xlink" x="0px" y="0px"
	 viewBox="0 0 1920 1080" style="enable-background:new 0 0 1920 1080;" xml:space="preserve">
<style type="text/css">
	.st0{fill-rule:evenodd;clip-rule:evenodd;fill:#2D2D2D;}
</style>
<g id="Flyers">
</g>
<g id="Logo">
</g>
<g id="Colores">
</g>
<g id="Tipografía_1_">
</g>
<g id="Texturas">
</g>
<g id="Elementos">
</g>
<g id="Presentación">
	<g>
		<g>
			<path class="st0" d="M47.9,1224.5c-3.1,1.5-2.3,1.4-2.5,3.1c-0.3,2.7-2.9,3.2-5.4,3.3c-5.5,0.4-4.6,3.2-14.9,4.6
				c-1.7,0.2-4.3,5.4-2.7,4.8c1.6-0.5,2.6-1.4,3.6,0c0.5,0.7,0.4,1-4.4,3c-2,0.8-2.2-2.4-7,0.2c-2.7,1.5-1.7-2.6-4-1.1
				c-3.6,2.4-1.3,2.3-6.1,4.9c-0.8,0.4-2.3,2.4-4.1,1.1c-2.7-2-2.1,2.1-4.1,3.4c-4.5,3-4.3,4.2-7.4,4.4c-3,0.2-4.1,0.8-4.6-1.1
				c0-0.1-0.2-0.2-0.3-0.2c-1.5,0.4-3.2,0.1-4.4,1.5c-1.5,1.7-3.3,1.3-4.8,2.5c-1.5,1.1-1-3.6-2.4-3.6c-3.2,0-3.5,1-6.2-0.2
				c-1.8-0.8-4.5,1-4.6,2.5c-0.1,2.4,10.3-2.4-0.6,7.5c-0.9,0.8-1.2-1.5-1.5-1.9s-1.6-0.2-1.5,0.7c0.1,0.5,0.3,1,0.2,1.5
				c-0.1,0.5-0.5,1.2-0.8,1.4c-4.1,2.1-2.6,0.7-6,0.2c-0.8-0.1-1.5,0.5-1.4,1.3c0.3,1.6-0.4,2.9-1.5,4.1c-1.3-1.2-3.8-2.9-1.7-3.8
				c0.6-0.2,2.1-0.6,1.8-1.6c-0.8-2.8-3.4-3.2-5.4-2.1s-0.4-2-2.6-3.2c-1-0.6-0.8-1.7,0.3-2.6c0.4-0.3,1-0.5,1.4-0.8
				c-0.2-0.2-0.1,1.6,0,1.9c0.6,1.8,3.3-0.3,0.9-2.6v0.2c3.1-2.9,2.4-1.6,4.1-2.9c4-3,1-5.5,6.3-7.8c1.5-0.6,2.9-1.1,4.4-0.7
				c-3.7,9.7,5.1,4.3,3.7,0.6c-0.6-1.6-0.4-6.6,2.1-6.4c3,0.3,2.2-0.9,5.9-1.7c7.5-1.6,2.6-6.8,8.5-3.2c4.4-1.5,5-2.7,7.4-2.6
				c0.7,0,1.7-0.5,2.4-1c1.8-1.2,3.6-1.7,5.4-1.9c3-0.4-1.4-4,2.1-3.9c3.4,0,5.2-1.7,8-4.2c2.5-2.4-2.3-6-9.9-2.2
				c-2.3,1.1-4.7,1.4-6.8,3.3c-0.8,0.7-2.9,0.8-3.4,1.1c-4.3,2.9-6.1,0.7-8.7,2.5c-6.3,4.6-11.7,5.6-12.1,8.4
				c-0.2,1.8-3.4,0.8-4.4-1.4c-5.9,1.1-6.3,3.4-7.9,4.5c-0.6,0.4-3.5,1.2-2.7,1.9c1.1,0.8,5.6,1.6,0.6,5c-1.3,0.9-1.8,0.4-4.3-1
				c-0.4-0.2-0.2-0.9,0.2-1.3c0.3-0.2,0.7-0.4,0.9-0.6c2.4-2.2-3.1-3-4.8-2.8c-2.4,0.2-2.4-1.6-6.2,1c-2.1,1.5-2.7,1.8-2.9,3.2
				c-0.2,1,0.1,1.7,0.8,2.2c0.4-1-1,2-2.6,0.8c-2-1.5,0.1-2.5-1.9-3.7c-1.4-0.8-2,0.5-4.6,3.3c-0.3,0.4-1.1,0.1-1.1-0.4
				s0.1-1.1,0-1.6c-0.1-1-1.3-1.6-2.3-1c-0.9,0.6-1.8,1.5-2.7,0.8c-2.1,0.8-4.3,2.1-3.5-0.5c1-3.2,1.8-2.4,3.9-2.4
				c1.7,0,1.2-2.1-0.4-1.8c-1.7,0.3-3.2-1.5-5.1,0.7c-1.3,1.5-3.2,1.7-4.3,3.7c-0.8,1.3-2.1,2.3-3.1,3.3c-2.6-0.4-0.5-3.5-2.5-5
				c-0.4-0.3-0.2-1.1,0.2-1.4c2.7-2.4,2.3-1.4,1.7-5c-0.3-1.5-0.6-3,0.1-4.8c0.1-0.2-0.2-0.6-0.5-0.7c-1.1-0.4-3.2,2.4-3.6,3.9
				c-0.4,1.4-1,2.5-2.3,3.3c-1.3-0.4-2.7-0.7-4-1.1c-2.2-6.9-2.5-5.5,3.1-11c-0.3-3.4-4.7,0.2-4.6-1.9c0-1.2,1-4.2-1.7-6
				c-1.7-1.1,0.2-5.1,2.3-5.8c1.8-0.6,1.4-1.7,1.6-4.3c0.1-1.9-1.3-1.7-2.1-2.3c0.9-1.7,2.6-4.3,0.7-4.6c-6.1-0.8-0.4-4.2-2.1-9.4
				c-1-3,0-2.3-2-2.8c-2.5-0.7-0.9-2.8,0.5-4.7c1.2-1.8,0.3-2.5,0.1-3.5c-0.1-0.8,0.7-2,0-2.6c-0.4-0.4-1.1-0.4-1.7-0.7
				c-2.3-1.2-1.5-2.4-6.1,1.5c-2.6-0.8-4.1-2.8-4.7-5.6c-1.2-6.1,0.7-4.2,3.4-8.8c0.3-0.6,0.1-1.8-0.4-1.8c-1.9,0-3.3-0.9-4.2-2.5
				c-1.8-2.9-3.9-1.6-4.3-4.7c-0.7-5.6-0.2-6.3-0.4-9.1c-0.2-2.3,0.3-4.3,2.4-6c0.4-0.3,0.1-1.2-0.3-1.3c-1.6-0.1-0.7-0.2-4.1,0.3
				c0.4-2.3,0.9-3.3-0.2-3.9c-2.4-1.3-1.2-6.2-0.7-7.3c0.6-1.1,0.2-2.2,0.2-3.2c0.2-2.9,4.5-0.9,5.8-2.8c1.7-2.6,4.3-3.8,6.5-5.7
				c2.1-0.1,4.2-0.2,6.3-0.1c0.5,0,1,1.5,0.3,2.1c-4.5,3.9-6.7,4.7-5.6,7.6c1.8,4.7,1.8,4.3,5.2,4.5c3.1,0.2,3.1,1.5,6.1,0.6
				c2.8-0.8,2.8-3.9,2.1-5.3c-0.4-0.8,0.5-2.3,1.5-2.6c1.2-0.3,3.7-0.3,4.9-0.5c0.8-0.1,1.6-1.5,1.2-2.1c-1.3-2,0.5-3.5-2.6-3.1
				c-1.5,0.2-1.2-0.4-0.7-0.7c1.5-1,1.9-2.3,1.9-3.9c0.6-0.4,1.3-0.7,1.9-1.1s0.8-1.4,0.2-1.8c-0.8-0.5-1-1.1-0.5-2.1
				c0.9-2-0.4-2.9-1.2-2.4c-1.8,1.3-2.8,3-5.7,2.4c-0.1-2.3,3.1-4.8,4.1-6c0.3-0.4,0.3-1,0.4-1.5c-3,0.5-7.8,6.9-11.8,4.8
				c-1.9-1,0.4-2.8,0.3-3.7c-0.5-3.6,2.5-3.4,4.3-5.1c2.7-2.6,3.2-0.9,6.8-3c0.8-0.5,1.5-1.1,2.4-1.1c0.2,1.1-2.1,2-1,3.4
				c0.8,0.9,1.9,1.7,3.4,0.8c6.6-4.1,0.8-4.7,0.3-6.6c-0.6-2.1,1.9-2,2.5-4.8c0.9-4.5,5.1-5.1,9.3-8.6c0.4-0.3-0.1-1-0.4-1.1
				c-0.6-0.2-1.4,0.4-6.7,3.2c-1.6-1.5,0.6-3.6-7.4,0.6c-1.4-1.1-3.1-3.3-5.5-1.2c-4.7,4.2-4.7,6.6-8.4,7.6
				c-0.9,0.2-1.6,0.9-2.1,1.8c-1.5,2.7-3.7,4.8-5.5,7.5c0-0.7,0.2-3-1.9-2.1s-2.8,3.4-4.3,2.8c-1.3-0.6,2.1-4.6,2.6-7.3
				c0.7-3.7,3.3-2.3,3.4-5c0-1.7-1.2-3.2,1.5-5.5c1.5-1.3,4-3.3,4-3.3c3.1-3.1,1.7-3.3,1.1-4.6c-0.8-1.9,0.8-4.6,2.5-5.9
				c3.9-2.9,2.6-0.9,3.8-4.5c0.1-0.4,0.3-0.8,0.5-1c2.2-1.5,3.1-4,4.4-6.1c3.4-5.2,2.1,0.6,4.9-0.8c11.1-5.6,8.3-7.7,12-10
				c17-10.1,17.1-9.9,17.9-9.8c2.7,0.1,5.3-1.5,8-2.2c3.3-0.9,1.8-3.6,5.7-5.4c11.3-5.3,14.1-6.2,17.1-8.5c1.5-1.2,3.2-1.9,4.9-2.3
				c4.9-0.9,3.7-3.4,9.4-5.5c9.7-3.5,24-11.7,24.5-12.1c2.6-1.7,3.3-0.6,9.9-4.1c28.8-14.8,15.9-7.4,21.6-10.2
				c1.1-0.6,2.1-1.7,3.2-2.3c3-1.8,6.2-3.2,9.1-5.4c1.9-1.4,3,0,7.7-3.9c0.1-0.1,11.1-5.7,11.2-5.8c0.9-0.5,1.7-0.3,1.3,1.1
				c0.6,1.3,2.3,1.7,3.8,0.8c2.2-1.2,1.7-2.7,1.8-4.3c0-0.5,0.8-0.9,1.2-0.7c0.5,0.3,0.9,0.7,1.4,1.1c0.2-1.1,0.3-2.8,1.4-3.7
				c4.5-4.2,4.4-0.9,8.5-3.2c0.4-0.2,1,0,1.3,0.2c1.8,1.2-1.2,3.5,9.4-2.8c0.4-0.3,1-0.8,1.2-1.2c0.9-2.3,2.9-3,4.6-4.4
				c-0.8-1.7-0.5-1.3-0.5-1.3c1.1-1.5,0-0.5,2.6-1.7c1.7-0.8,2.1-0.1,4.2,1.5c4.1-2.7,2.1-1.6,5.8-2.4c4-0.9,2.9-3.6,5.4-3.3
				c2.2,0.2,1.2-3,3.4-2.9c1.6,0,3-0.6,4.2-2.1c1.1-1.3,3-1.5,3.9-3.3c5.4-1.6,1,0.7,7.3-1.6c12.4-4.5,25.2-12.6,26.3-13.2
				c2.2-1.1,2.8,0.8,5.1-2.2c0.7-0.9,2.2-0.7,2.2-0.2c0.1,1.7-1.4,1.5-3.8,4.6c-1.1,1.5-1.5,4.3,0,4c2.1-0.6,2.2-1.1,6.9-2.6
				c6.1-2,12.7-6.7,12-7.8c-0.6-0.9-2.1,1.4-3.2,0.5c-2-1.5-3.3-0.1-7.2,0.9c-1.4,0.3,0.1-3.4,2.1-4.2c8.3-3.3,14.3-9.4,20.6-8.9
				c1.2-1.1,2.3-2.1,3.5-3.1c4.9-4.4,3.9-2,6.4-4.1c2-1.7,2.5,0.7,6.2-2.2c1.2-0.9,2.3-0.9,3.4-1.1c1.3-0.3,1.6,0.6,2,1.4
				c1.2,1.9-2.3,1.2-5.4,4.5c-1,0.3-1.8,1.4-2.9,1.3c-3.5-0.3-7.8,9.2-7.4,1.4c-3.2,1.6-4.2,1.9-3.6,2.6c0.1,0.1,0.3,0.1,0.5,0.1
				c0.4-0.1,0.7,0.2,0.5,0.4c-5,5.4-2.1,0.5-4.1,8c16.8-3.7,13.3-8.2,25.1-10.2c2.5-0.4,3.8-1.8,7.8-3.9c3.8-2,4.5-0.9,7.7-3.9
				c2.8-2.6,6.9-3.6,9.8-3.7c3.2-0.1,3.5-2.6,9.9-2.1c1.6-1.1,3.3-2.5,5.2-2.5c0.9,0,8.4-4.5,10.4-6.4c3.2-3,6.7-5,10.4-6.6
				c1.5-0.7,29.4-15.8,29.5-15.9c0.6-0.5,1.3-0.5,1.9-0.1c1.5,0.8,3.1-1.6,6.3-2.4c1.6-0.4,2.3-1.8,2.9-3.3c-0.5-2.5,1.4-3.1,3-5.7
				c3.6-3.2,4.9-1,8.7-3.2c2.1-1.2,4.1-0.8,5.5-3.3c0.2-0.4-0.4-1.1-0.6-1.1c-1.9,0.7-2.9,1.8-4.2,2.8c-0.8,0.6-3.2-0.8-1.1-2.2
				c1.1-0.8,6.3-4.2,6.6-4.4c1.7-1.3,0.9-2.8,2-3.3c2-1,3-0.3,3.9-0.3c2.4,0.1,0.5-1.1,5.4-3.5c1.8,0.4,3.2-1.1,4.7-2.1
				c2.1-1.3,4.2-2.4,6.3-3.6c1.4-0.9,2.8-2.7,3.5-2.8c2-0.3,3.2-0.7,11.9-5.1c34-17.3,33.1-15.5,30.1-19.2c-0.7-0.9,1.1-1.9,5.7-4.7
				c1.3-0.8,1.8,0.3,1.3,1.5s-1.4,3.7-0.2,3.3c3-1,4.2,1.8,4.4-3.9c0.9-0.4,0.6,0.9,1.1,1c1.5,0.4,2.4,1.7,1,2.9
				c-1.3,1.2-11.1,8.2-8,7.9c5.4-0.4,7.9-1.2,12-6.1c-0.1-1.6,0-3,1.4-4.3c2.5-2.5,2.2-3.9,3.9-5c1.4-0.9,2.4-3,4-2.8
				c1.3,0.2,2.7-0.7,4-0.5c1.8,0.3,4.6-2.7,3.6-4.4c-1.4-2.3-2.8,1.1-5.5,0.3c-0.4-0.1-1.1,0.2-1.4,0.6c-1.4,1.7-3.2,1.6-4.7,3.1
				c-0.3-1.7,0.1,0.2,3.3-4.5c1.8-2.7,10.4-11.2,12.2-9.9c0.5,0.4-0.3,0.9-1,2.4c-0.2,0.5,0.3,1.1,0.8,0.9c0.7-0.3,1.3-0.7,2-0.8
				c0.5-0.2,0.9,1,0.2,1.5c-3.1,2.5-4,2.3-3.9,4.5c0.1,2.8,4.8,0.6,6.8-1.7c0.1-0.1,0.6,0,0.8,0.2c1,0.6-1.9,2.1-3.1,4.6
				c0.8-0.3,5.1-2,3.4-0.4c-4.4,4.1,2.5-1.2-23.9,13.8c-0.6,0.3-0.3,1,0.1,1.2c1.7,0.8,30.8-16.6,28.7-12.4
				c-1.9,3.7-11.1,8.4,1.6,1.7c2.4-1.3-0.9-3.1,1.3-4.5c8.7-5.7,47.9-26.5,47.9-26.5c3.9-2.7,8.1-4.4,12.1-6.7c7.1-4,8.6-5.4,12-6.9
				c2.4-1,25.5-11.4,26.2-11.9c6.3-4.4,33.2-15.8,29.7-12.8c-0.5,0.4-73.2,39.1-81,41.5c-5.8,1.8-9.5,6.2-14.1,7.3
				c-0.5,0.1-1,0.5-1.4,0.8c-2.3,1.8-4.8,2.8-7.4,3.5c-5.5,1.5-4.1,3-13.8,8.3c-5.2,2.8-6.4,2.6-6.6,4.2c-0.2,1.7,3.1-1.4,4.5-1.5
				c1.1-0.1,2.3-0.9,3.5-1.2c2-0.7,3.4,0,4.9-1.6c1.2-1.4,4.9-2.5,9-5.4c0.6-0.4,1.3-0.4,2-0.4c8.2-0.5-70.3,38.6-92.1,51
				c-5.2,2.9-5.8,3.6-7.3,3.5c-3.9-0.4-21.7,11.5-29,13.4c-3.3,0.9-6.2,2.9-9.3,4.7c-7,4.1-9.1,4.2-9.1,6.7c0,1.4-4.3,2.6-3.9,4.5
				c0.5,2.3,10.4-3.4,12.3-5.1c31.9-17.3,26.1-12.1,38.9-20.4c0.8-0.5,1.5-1.5,2.2-1.7c2.6-0.7,4.9-2.8,7.4-3.5
				c7.8-2.4,10.9-5.4,13.2-6.3c3.5-1.3,6.1-2.5,14.8-8.5c7.2-5,6.7-3.1,35.5-18.9c4.6-2.5,3.8-2.6,7.3-3.5c1.8-0.5,3.7-0.6,5.4-1.8
				c0.3-0.2,0.7-0.4,1-0.4c2.8,0.3,5.3-2.1,6.4-2c-0.2,0.3-0.4,0.6-0.6,0.7c-2.6,0.9-4.6,3.4-7.1,4.3c-3.2,1.1-4.8,2.9-10.5,6.2
				c-15.9,9.1-17.1,10.7-18.2,14.4c1.8,4.7,29-15.4,35.4-17.4c0.5-0.2,1-0.4,1.5-0.7c2.6-1.9,5.5-3.1,8.3-4.4
				c2.3-1.1,0.5-2.4,2.9-4.1c4.6-3.2,20.6-9.9,27.4-15.7c4.9-4.2,8.6-4.9,14.1-9.2c2-1.6,4.5-1.9,7.4-3.1c6.7-2.8,5.7-4.2,9-3.3
				c1.3-1.3,1.8-2.3,3-2.3c2.5,0,2.9-0.8,2.9-0.8c0.1,0.6,0,2.1,0.9,1.6c0.8-0.4,0.3-1.7,0.2-2.2c0,0,2-2,4.6-2.9
				c1.6-0.6,2.7-1.8,3.7-3.4c1.6-2.8,1.7-2.8,5.1-4.3c4.1,1.4,3.4,1.1,3.5,1.8c-3.8,3.2-13.6,6.7-9.4,7.6
				c1.3,0.3,51.7-25.1,53.1-24.3c2.1,1.3-11.8,9.3-14.5,10.3c-6.4,2.6-5.5,4.8-2.9,3.7s3.2-1.9,4.9-1.6c1.7,0.3,4.2-2.1,6.2-1.8
				c-1.1,1.8-2.3,1.9-1.9,2.5c0.5,0.8,0,1,4.5-1.3c4.2-2.1,2.7-2.1,4.1-3.7c1.8,0.9,3.9-0.5,6-0.7c0.5,0.6,1,1.2,1.6,1.9
				c-11.3,7.2-12.1,7.4-13.1,9.7c-0.4,0.9-6.6,3.9,2.2,2.4c1.7-0.3,3.3-1.8,5-1.4c1.4,0.4,3-0.3,4.4-0.2c3.6,0.3,6.1-2,9.4-3.1
				c2.2-0.7,3.2,1.1,0.7,2.6c-15.3,9.1-13.2,7.6-14.7,9.1c-0.3,0.3-0.2,1.2,0.4,1.1c1.3-0.1,6.6-2.4,8.4-3.5
				c2.3-1.4,10.4-3.8,8.3-0.7c-1.4,2.1-2.7,1.8-3.9,3.2c-0.4,0.4-0.1,1.8,0.7,1.2c1.1-0.7,1.3-2.1,4.2-1.7c0.7,0.9,0,2-0.1,3.1
				c-0.3,3-3.1,0.7-3.9,2.8c-0.5,1.3-1,2.6-5.1,5.2c-1.7,1.1-1.2,4.5,0.6,3.5c9.1-4.9,9.8-5.6,10.6-4.8c1.8,1.7,2.1-2,5.5-1.8
				c0.8,0,2.7-2.2,2.5-0.6c-0.1,0.6-2.5,2.1-3,2.4c-3.5,2-11,7.3-12.8,11.1c-1,2.1-2.9,2.8-9.4,7.1c-0.9,0.6-0.2,2.6,3.4,0.1
				c3.2-2.3,6.7-4.1,9.8-6.5c2.6-2,5.4-3.4,8.2-4.7c3.7-1.7,12-9,4.6,0.6c-0.8,1.1-3,2.6-3.1,3.4c-0.3,2.1-2.2,3.7-2.6,5.8
				c-0.5,2.7-3.6,0.6-5.1,3.6c-1,0.2-1.8,0.6-2.4,1.9c-1.4,3.1-3.6-1.7-4.4,2.3c-0.6,2.9-2.1,1.8-1.3,6.2c0.2,1.1,3.1-0.8,4.1-1.5
				c1.2-0.8,0.8-2.6,2.6-3.6c3.3-2,4.2-3.7,7.9-1.6c0.5,0.3,1.5,2.8,0.1,3.8c-1.1,0.8-5,3.5-5.1,3.6c-2.4,1.8-0.8,3.4,0.8,2
				c2.6-2.3,5.5-2.5,8.3-3.4c1.8,0.8,2.4-0.4,8.3-2.4c0.6-0.2,1.1-0.9,1.6-0.2c1,1.5-0.2,2.5-0.4,3.6c-0.6,3.4-3.4,2.8-3.9,3.2
				c-0.3,0.2-0.8,0.5-0.8,0.7c-0.1,1.4-1,2.5-1.6,3.7c-0.4,0.7,0,2.2,3.3,0.7c0.6-0.3,1.3-0.4,2-0.6c0.1,0,0.2,0.2,0.2,0.4
				c0.7,1.7-7.2,6.3-3.5,5.5c3-0.6,3.1,1.3,1.3,3.3c-1.3,1.4-6.7,6.1-4.6,6.3c1.4,0.1,2.5-1.5,3.9-1.8c0.4-0.1,0.5,0.3,0.4,0.6
				c-0.5,1.5-3.5,3.3-2.7,4.1c0.7,0.8,1.4,1.8,2.8,0.9h-0.1c5.7,1.1,1.1,1.9,2,5.3c0.2,0.6-0.4,1.5-1,2c-4.4,2.9-9.8,10.4-14.6,14
				c-1.2,1-5.9,7.2-5.5,8.5c0.9,2.5-1.9,4.3-2.7,5.1c-0.2,0.2-0.4,0.7-0.3,0.9c0.1,0.3,0.5,0.3,0.7,0.5l-0.1-0.1
				c3,2.3,12.8-5.2-1.9,7.4c-2,1.7-0.5,2.6,0.4,1.8c5.8-5.8,7.9-3,9.5-6.3c1-2,1.4-2.2,5.4-3c0.1,0,0.3,0.5,0.3,0.8
				c0.3,1.5,0.3,1.5,1.5,0.8c5-2.9-0.9,4.7-4.5,6.8c-1.8,1-7.4,8-12.1,12.6c-0.1,0.1-0.1,0.6,0,0.9c0.2,1.3,9.1-3.1,12.2-6.5
				c0.4-0.4,0.9-0.6,1.4-0.8c0,0.3,0.1,0.8-0.1,1c-8.1,10.2-12.7,13-13.5,13.6c-2.4,1.9-1,3.2-3,4.8c-2.2,1.8-4.6,3.9-10.3,9.2
				c-2.9,2.7-2.7,4.9-4.7,4.6c-2-0.3-2.6,1.2-4.2,3.2c-2.1,2.5-1.9,1.4-4.2,0.6c-0.5-0.2-1.4,0.6-1.5,1.3s-0.1,1.4-0.2,2.2
				c-7,5.8-14.3,10.8-21.8,15.1c-3.1,1.8-5.7,4.4-8.8,6c-7.3,3.9-16.5,12.4-2.9,4.6c3.6-2.1,3.3-2.1,6.1-1.2c0.4,0.1,0.4,1,0,1.4
				c-3.8,3.1-3.2,2-0.5,3.6c0.7,0.4-0.2,3.1-1.4,3.9c-4.3,2.7-3.3,3.3-9.9,6.1c-3.1,1.3-5.7,4.9-9.7,6.6c-3.2,1.4-6.8,5.6-10.5,7.6
				c-1.4,0.7-2.4,1.9-3.5,3c-0.3,0.3-0.4,1-0.6,1.5c-0.5,1.5-0.9-1.2-2.6,0.1c-2.4,1.7,2.3,0.9,0.8,3.3c-0.5,0.7-1,1.1-1.9,1.3
				c-0.5-0.5-0.9-1.2-1.5-1.7c-1.4-1.1-4.9,3.5-5.6,4.7c-1.6,2.8,1.9,1.8,2.4,1.8c2.1-0.1,1.3,0.2,0.2,1.6c-1.3,1.6,0.2,3.2,1.3,2.5
				c2.7-1.7,2.4-0.6,8.3-4c18.3-10.6,12.6-8.8,21.8-13.7c0.3-0.2,0.6-0.5,0.8-0.8c-0.2,0.7,0.7,0.9-0.3,2.8
				c-61.3,38.4-107.3,63.1-107.3,63.1c-4.6,3.1-1.6,2.1-7,4.3c-3.3,1.3-6.5,3.4-9.9,4.2c-0.6,0.2-1.3,0.6-1.9,1.1
				c-18.4,12.6,0.3-0.4-29.4,16.6c-8.9,5.1-7.7,4.3-11.3,7.2c-1.2,0.9-37.9,18.9-43.1,23.2c-3.9,3.3-6.4,1-10.4,5.7
				c-1.8,2.2-5.4,1.2-6.8,2.8c-0.2,0.2-39.9,18.7-42.5,20.9c-5.7,4.9-15.2,7.7-19.2,11c-0.6,0.5-1.3,0.7-2,0.9
				c-7.5,2.1-20.1,8.6-25,8.6c-1,0-2,0.3-3,1c-2.7,1.9-5.6,2-8.6,3.2c1.4-3.1,3-0.5,5.6-3.8c1.1-1.4,3.1-0.5,1.9-7.2
				c-1-5.5-6.1,0-10.8-1.7c-2.7-1-1.6,2.2-9,5.8c-17.2,8.5-5.4,3.8-13.3,10c-0.8,0.6-2,2.5,0.6,2.7c2.9,0.2,3.9-2.4,6.2-0.6
				c1.5,1.2-1.4,1.6-1.9,4c-0.7,3.3-4.6,4-6.9,6.5c-0.2,0.2-4.6,1.9-4.9,2c-9.9,4.6-5.9,1.4-10.9,4.1c-4.3,2.4-8.1,5-11.7,6.1
				c-2.4,0.8-5.3,2.8-8.9,3.8c-6.3,3.7-13.6,5.1-18.5,10.6c-0.6-1-0.7-1.7-1.6-1.4c-13.9,5.6-4.2-0.2-27.6,12.2
				c-1.8,6.1-2.3,0.9-4.9,2c-4,1.8-9.8,3.9-13.6,7.2c-2.4,2.2-8.2,5-8.6,5c-1.8-0.4-3.7,1.1-5.5,1.4c-1.9,0.3-3.7,1.3-5.5,2.1
				c-2.1,0.9-2.2,0.2-4.4,0.2c-2.8,0-4.3,2.6-6,3.6c-4.2,2.4-0.8,5.2-3.6,5.8c-6.9,1.4-4.8,2.6-7.8,1.3c-2-0.8-2.3,0.4-3.4,2.3
				c-0.3,0.5-1.1,0.8-1.2,0.4c-0.6-1.5-2.3-1.6-3.3-2.5c-1.1-0.1-4,0.9-5.2,2.4c-1.3,1.6,0.4,0.8-5.3,5.1c-0.3,0.2-0.7,0.1-1,0.2
				C48.9,1224.8,48.3,1224.3,47.9,1224.5z M332.7,1080.3c-0.8,0.4-3.5,2.7-2.4,3.8c0.5,0.5,2.4-0.6,3.1-4.6c3.1-3.5,3-1.9,4.8-3.6
				c1-1-0.3-3.2-5.1,2.2C333.5,1079.2,333.9,1079.8,332.7,1080.3z M130.4,1177.2c-1.2-1.4-0.5-2.7-7,1c-3.2,1.8-3.1,4.8-2.4,4.6
				c0.8-0.3,1.7-0.9,2.4-0.9C126.4,1181.8,128.5,1179.9,130.4,1177.2c0.1,0.4,0.2,0.8,0.4,1.2c0.5,1,1.1,0.5,1,0.1
				C131.7,1177.7,130.3,1178.3,130.4,1177.2z M454.3,809.2c-0.6-0.1,1.6,1.5,2.9-0.3c1.3-1.7,1.9-1.2,3.7-1.7
				c1.8-0.5,2.3-2.4,1.5-2.6c-1.1-0.3-1.6-1.5-3.1-1.3c-7.8,4.5-8,4.5-8.1,5.2c-0.7,4.8-7.3,3.1-5.6,5.1c0.6,0.7,1.1,1.6,2.4,0.8
				C450.7,812.8,452.7,813,454.3,809.2z M374.8,1062.3c4.5-5.2,2-4,12.2-4.7c3.7-0.2,0.9-4.8,2.6-4.2c1.4,0.4,3.2,0.4,3.8,2.3
				c0.6,1.9,13.8-7,18-7.6c1.5-0.2,1.5-2.5,3.4-2.7c2.6-0.2,4.8-2.5,7.2-3.8c0.2-0.1,0.4-0.7,0.4-1c-0.1-1.2-1.7-0.4-2.2-1.4
				c-0.1-0.3,0.1-0.9,0.3-0.9c4.1-0.9,4.1,1.6,6.6,0.2c5.4-3.1,9.7-3,13.3-7.6c-5.5-1.8-2.6-3.3-1.4-4.6c1.2-1.2-1-1.6-1.3-2.5
				c-0.9-2.3-4.7-1.7-4.4,0.1c0.2,1.2,0.7,2.3-0.1,2.9c-1.1,0.8-1.6-1.7-3.5,0.6c-2.8,3.5-3.3-1.1-5.4-0.3c-2.4,1-2.7-0.2-4.9,1
				c-1.2,0.6-7.2,4.8-9.1,4.7c-4.7,3-4.8,5.1-10.8,5.4c-1.7,0.1-2,2.6-5.3,4.9c-6.8-0.6-10.3,6.2-7.7,5.3c0.7-0.2,2.1-1.7,2.7-0.9
				c0.7,0.9-2.2,2.7-2.8,4.8c-0.2,0.8-1.8,1.4-6.7,3.5c-2,0.9-0.8-4.5-3.7-1.8c-4,3.6-3.6,1.4-7.6,4.2c-2.2,1.6-4.6,1.9-6.9,3
				c-1.3,0.6-4.9-2.8-3.1,2c-23.6,13.1-15.6,8.4-13.5,12.3c0.2,0.5,2.1-0.5,2.8-1.2c0.6-0.6-0.3-2.5,2-3.8c2.8-1.6,3.7,0,5.7-0.1
				c1.1-0.1,2.3-0.5,3.5-0.8c1,1.8,1.4,2,2.9,1c9.3-6,12-2.2,12.9-7.5C375,1061.7,374.8,1062.3,374.8,1062.3z M473.9,1002.9
				c1.9-3.1-7.7,1.5-8.2,3.5c-0.5,1.9,2.5-0.2,3.4,0.9c-5.7,9.2-5.2,3.6-8.7,5.5c-5.9,3.1,1.2-0.9,0.8-4.5c-0.1-1.2-3.3,1.2-4.2,1.7
				c-9.3,6.6-10.3,4.9-11.4,8.6c2.1,1.3,2.4,1.1,0.3,2c-3.1,1.4-2.5,3.9-2,3.4c1.6-1.4,3.2-1.5,4.8-1.4c0.6,0,1.7-1,3.6,0.7
				c1.1,1,3.7-1.2,4-1.8c1.5-2.7,3-1.2,4-1.9c5.9-4.1,5.8-5,7.8-4.9c0.7,0.1,1.3-0.4,1.9-1c8.1-7,7.7-1.4,13.3-11
				c1.6-0.3,4.4-0.3,5.6-2.6c0.4-0.8,0-1.7-0.5-1.6c-3.4,0.4-5.4,3.3-8.9,3.5C476.3,1002.3,470.8,1008,473.9,1002.9z M157.8,924.6
				c-0.5,0-1.1-0.2-1.4,0.1c-3.9,3.1-3.2,0-6.3,2.2c-1.3,0.9-5.6,4.7-10.7,7.1c-2.9,1.3-6.3,3.8-7.2,3.7c-2.9-0.3-4.9,2.9-7.4,4.5
				c-6.3,3.8-12.5,5.6-16.2,9.4c-1.7,1.7-4,1-5.8,2.6c-3,2.5-3.4,1.9-5,3.5c-1.1,1.1,0.1,1.9,0.6,1.5c2.5-1.6,1.4-1.9,5.7-2.7
				c2.6-0.5,6.4-4.9,10.1-4.9c0.7,0,1.4-0.4,1.9-0.9c2.3-2.3,4.8-3.5,7.6-4.4c11.7-3.9,8.2-5.6,23.2-10c2.3-0.7,4.7-1.3,6.7-3.3
				c0.8-0.8,1.9-1.1,2.8-1.7C158.4,929.7,158,929.1,157.8,924.6z M107.8,1188.5c0.6,0.4,0.9,0.9,1.3,1c2.6,0.3,6.9-1.5,6.7-3
				c-1.6-8.8-10.7,0.8-17.9,4c-1.1,0.5-2.3,1.4-2.4,2.8c-0.2,1.6,1.7,0.6,4.2,1.1c1.8,0.4,3.5-0.9,4.9-1.6
				C106.1,1192,107,1190.7,107.8,1188.5z M335.9,878.9c1.2-2.9,2.9-0.9,4.2-1.5c3.4-1.5,2.3,1.1,4.8,0.4c1.4-0.4,0.7-1.7,0.6-2.1
				c-1.7-4.3-4.1,0.5-6.2-0.2c0-1.7,0.2-2.7-1-3c-2.2-0.5-3.3,1.8-5.3,2.1c-0.3,0-0.7,0.5-0.8,0.8c-0.8,1.9-2.4,3-3.7,4.3
				c-1.2,1.1,0.7,2.9,2,2.8C335.9,882.1,334.3,882.7,335.9,878.9z M321.6,1083.3c-3.5,1.3-19.3,7.8-16.7,9.5
				c0.7,0.5,1.7,0.8,2.2,1.5c0.8,1.1,1.8,1,3,0.4c0.5-1.1,0.4-2.7,2.2-2.9c1.8-0.3,3.6-1.7,5.4-1.7c0.4,0,1-0.5,1.4-0.8
				C323,1085.4,322.5,1085.2,321.6,1083.3z M188.3,1151.3c1.8-0.6,5.5-5.1,3.5-5c-1.4,0.1-2.9,1.3-5.9,2.6c-1.5,0.6-2.3,2.9-4.1,2.6
				c-1.7-0.2-3.3,1.1-5,1.3c-0.3,0-0.6,0.4-0.9,0.6c-0.9,0.9-1.9,1-2.9,1.2c-1.3,0.3-0.7,2.9,0.4,2.6c4.6-1.4,6.7-0.3,8.2-2.7
				C183.5,1151.5,185.9,1153.2,188.3,1151.3z M426.3,825.1c0.9-0.1,1.6-0.1,2.2-0.4c9.1-4.4,9.4-4.7,9.2-5.4c-0.6-2.6-2-2.8-2.9-2.1
				C426.3,823.8,427.5,822.9,426.3,825.1z M-87.2,1100.3c0.7-1-0.6-3.5-2.5-1.6c-4.2,4.2,0.3,3.1-2.5,5.9c-1,1-1.2,1.3,0.2,2.3
				c0.5,0.3-0.3,3.1,1.5,2C-83.7,1104.6-92.2,1107.8-87.2,1100.3z M347.7,838.2c0.8-0.7,1.1-2.6-0.4-2c-3.9,1.6-11.3,4-10.2,7
				C337.8,845.4,345.5,840,347.7,838.2z M574.3,935.9c0-0.6-3.1,0.7-5.4,3.2c-2.2,2.5-2.7,1.8-4.3,3.3c-0.2,0.2-0.4,1.4-0.1,1.5
				c0.3,0.1,0.7,0.3,0.9,0.1c1.2-0.9,2.4-1.8,3.5-2.8C571.4,938.8,574.5,939.1,574.3,935.9z M80,1197.1c-0.3-1-1.2-1.1-1.7-1
				c-6.1,1.7-6.1,1.8-6.4,2.9C70.9,1202.8,80.4,1198.4,80,1197.1z M496.4,993.9c-0.1-0.6-0.3-1.2-0.5-1.8c-0.7-2.1-5.1,2.3-5.3,5.1
				C490.4,999.9,494.6,997.8,496.4,993.9z M9.8,1233.7c1.2,2.8,10.5-2.1,7.8-3.6C16.6,1229.7,9.3,1232.7,9.8,1233.7z M188.8,911.4
				c2.3-0.1,3.1-0.9,4.7-0.2c0.2,0.1,0.6,0.1,0.9-0.1c1.9-0.9-0.4-4-1.4-3.9C188.6,907.8,188.7,908.9,188.8,911.4z M354.3,866.4
				c-0.2,0-0.5,0.5-0.7,0.8s0.2,1,0.7,1.1c1,0.2,0.8,0.7,4.8-1.1c0.9-0.4,1.2-1.6,0.7-2.3C357.3,861.4,358.4,865.6,354.3,866.4z
				 M483.1,792.1c0.2-0.2,0.4-1.3-0.1-1.2c-3.6,1.1-8.6,4.4-7.3,4.8C477.8,796.4,481,793.9,483.1,792.1z M374.5,1043.7
				c5.2-1.3,5.7-1.2,5.9-2.6c0.1-0.7-0.5-1.5-1-1.4C372.1,1041.2,373.4,1044,374.5,1043.7z M133.6,1173.3c-1,0.6,0.7,1.8,1.3,1.8
				C142.4,1175,140.3,1168.9,133.6,1173.3z M504.7,989c1.8-1.9-4.8-2.3-6.2,1.7C498.2,991.8,501,992.9,504.7,989z M407.1,1025.1
				c-0.5,0.2-4,2-3.5,2.8C407.1,1033.6,410.2,1023.7,407.1,1025.1z M254.7,1118.8c0.7-0.9,0.4-1.4-0.3-1.5c-3.7-0.1-3.7,0.1-4.3,0.7
				C248.3,1119.7,251.8,1122.6,254.7,1118.8z M362.9,863.7c-0.4,0.4-0.5,1.7,0.3,1.6C369.1,864.1,369.9,857.9,362.9,863.7z
				 M-16.1,1250.9c-0.8,1.4,3,1.6,5.2-0.5C-9.2,1248.9-14.4,1248.1-16.1,1250.9z M352,861.3c-1.2-2.3-6.7,1.7-5.3,2.8
				C347.7,864.9,348.1,864.3,352,861.3z M49.8,1219.7c-1.6,0.1-4,1.5-3.5,2.5C47.5,1224.5,53,1219.6,49.8,1219.7z M430.1,1014.1
				c-1.4,0.2-3.1,2.7-2.9,3C428.9,1019.9,433,1013.6,430.1,1014.1z M422.8,814.6c-2-1.6-4.2,2.8-2.3,2.6
				C422.4,817,423.5,815.2,422.8,814.6z M401.4,834.1c-1.6,0.6-3.3,2.3-3.1,2.8c0.2,0.5,2.4,0.7,3.9-1.5
				C402.5,834.8,401.9,833.9,401.4,834.1z M347.4,831.8c-0.3,0.3-0.4,0.7-0.2,1c0.2,0.2,0.4,0.6,0.6,0.6
				C353.9,831.7,350.1,829,347.4,831.8z M357.9,827.8c2.9,0.2,5.4-4,0.8-2.3C357.8,825.8,356.9,827.7,357.9,827.8z M623.1,754.7
				c0.8-0.6,0.4-1.4-0.1-1.3c-2.9,0.4-3,1.3-3,2.7c0,0.1,0.6,0,0.9,0C620.9,756.1,623,754.8,623.1,754.7z M472.9,797.3
				c-4.4-1.4-5.9,7.6-0.3,1.4C472.8,798.4,472.8,797.8,472.9,797.3z M212.2,1141.4c0.4-1.5-1.2-2.5-2.5-1.3
				C207.8,1142.1,211.6,1143.8,212.2,1141.4z M378.1,1044.7c-1.4-1.2-3.2,1.6-2.3,2.5C377.1,1048.3,379,1045.5,378.1,1044.7z
				 M79.2,1204c1.5-1.3-0.2-3.1-1.3-1.7C75.8,1204.9,76.7,1206.1,79.2,1204z M415.3,831.1c-1.5,0.6-2.6,0.3-3.6,1.4
				C410.6,833.6,413.5,833.6,415.3,831.1z M341.4,866.8c0.2-0.7-1.2-1.2-2.7,0.5c-0.3,0.4-0.3,1.2,0.1,1.2
				C340.4,868.5,340.9,868.4,341.4,866.8z M336.4,852.7c-1.7-0.8-3.1,0.8-2.8,1.7C334.2,855.7,337.8,853.4,336.4,852.7z
				 M337.8,898.6c-0.3-1.7-3.1-0.4-2.6,1.4C335.5,901.4,338,899.9,337.8,898.6z M198.3,1146.4c1.3-0.9,0.6-4-2.3-0.3
				C195.6,1146.6,196.2,1147.9,198.3,1146.4z M95.6,958.6c-0.4-1-2-0.3-1.7,0.9C94.2,960.6,96.2,960.2,95.6,958.6z M389.4,845.3
				c0.7-1.8-2.1-0.8-2.5,0.4C386.6,846.7,388.8,846.7,389.4,845.3z M356.4,1073.2c-1.2-1.5-3.3,0.4-2.7,1.1
				C354.8,1075.6,357,1074,356.4,1073.2z M523.7,984c-0.1,1.8,2.6-0.2,2.1-1.6C525.6,981.9,523.8,982.5,523.7,984z M86.3,1194.2
				c0.2-1.1-1.7-0.4-2.4,0.4C82.6,1196.1,86,1195.9,86.3,1194.2z M-84,1229c2-0.8,0.8-2.4-0.7-1.7C-85.8,1227.9-85.1,1229.5-84,1229
				z M382,1053.3c0.9,0.1,1.8-2.2,1.1-2.3C381.4,1050.8,380.5,1053.2,382,1053.3z M531.4,978.4c-0.5,0.1-1.4,1.2-0.9,1.7
				C532,981.4,533.9,977.8,531.4,978.4z M638.3,859.4c0.1-0.3,0.3-0.8,0.4-1.3c0.1-0.4-0.6-0.8-1.6,0.1
				C636.7,858.6,636.2,860.7,638.3,859.4z M446.5,788.8c1,0.6,1.7-0.1,1.8-0.8C448.7,786.4,445.5,788.2,446.5,788.8z M6.1,1235.4
				c0.9,0.5,1.7-1,1.2-1.3C6.4,1233.6,5.5,1235,6.1,1235.4z M644.4,821.7c1.2-0.5,1.5-2.1,0.6-1.8
				C643.7,820.4,643.7,822,644.4,821.7z M364.7,867.5c-0.4,0.2-0.5,0.5-0.2,0.8s0.6-0.2,0.9-0.7
				C365.1,867.6,364.9,867.6,364.7,867.5z M141.5,1170.9c-0.7,1.2,0.5,1.8,1,1.1C143.3,1171.1,142,1170.2,141.5,1170.9z
				 M-60.1,1207.5c-0.9-1.1-2.2,0.6-1.6,1.1C-60.7,1209.5-59.7,1208-60.1,1207.5z M631,847.7c0.2-0.3,0.6-0.6,0.5-0.8
				C631.5,845.5,629.2,846.9,631,847.7z M-68.6,1216.4c-0.8,1.2,0.4,1.5,0.9,1C-67.1,1216.6-68.1,1215.6-68.6,1216.4z M1.2,1237
				c-0.3,0.4-0.2,0.8,0,0.8C4.6,1237.7,3.1,1234.5,1.2,1237z M365.6,823.2c-0.8-0.5-1.7,0.5-1.5,1.3
				C364.4,825.6,366.5,823.8,365.6,823.2z M634.4,776.2c0.2-0.4-0.7-0.7-1.1-0.2C632.5,776.7,633.8,777.6,634.4,776.2z M626.3,859.6
				c0.6,0.4,1.8-0.4,2-1.3c0-0.2-0.4-0.6-0.5-0.5C626.1,858.6,626.4,859,626.3,859.6z M573.2,745.9c0.8,0.4,1.9-1.1,0.9-1.3
				C573.2,744.4,572.7,745.6,573.2,745.9z M397.5,1031c0-0.8-0.9-0.3-0.9,0.1C396.7,1031.8,397.5,1031.5,397.5,1031z M339.8,881.4
				c0,0.1,0.3,0.2,0.3,0.1C341.2,879.9,340,880.1,339.8,881.4z M393.2,839.6c0,0-0.1,0.3,0,0.3C394.6,840,394.6,838.8,393.2,839.6z
				 M174.3,921.9c-0.8-0.1-0.8,1-0.2,1.3C174.7,923.6,175.4,922.1,174.3,921.9z M-7.3,1250.4c0-0.3,0.1-0.6,0.1-0.9
				c0-0.5-1.2,0.1-0.8,0.6C-7.9,1250.2-7.6,1250.3-7.3,1250.4z M248.4,1121.4c-0.4,0-0.8,0.8-0.1,0.6
				C248.5,1121.9,248.6,1121.4,248.4,1121.4z M372.6,821c-0.6-0.2-0.2-0.4-1.2,0.6C371.9,821.8,371.6,822,372.6,821z M162.1,1161.2
				c-1.1-0.1-0.7-0.3-1.4,0.7C161.7,1162,161.4,1162.2,162.1,1161.2z M577,743.2c-0.8,0.7,0.3,0.8,0.5,0.4
				C577.7,743.2,577.2,743.1,577,743.2z M643,828c-0.8,0.1-0.9,0.6-0.5,0.8C642.9,829.2,642.9,828.6,643,828z M637.1,773.9
				c0.4-0.5-0.4-0.9-0.6-0.1C636.4,774,636.8,774.2,637.1,773.9z M563.6,940.7c-0.4,0.4,0,1.1,0.6,0.6
				C564.6,940.9,564.2,940.1,563.6,940.7z M334.6,870.3l-0.3,0.1C334.6,870.7,334.5,870.7,334.6,870.3z M415.5,1022.4
				c-0.5-0.2-0.3-0.3-0.6,0.5C415.3,1022.9,415.2,1023,415.5,1022.4z M641.3,772.6c0.3-0.6,0.3-0.4-0.2-0.6
				C640.9,772.7,640.9,772.6,641.3,772.6z M434.9,973.7l0.3-0.1C435,973.3,435,973.3,434.9,973.7z M162.9,923.1l-0.3,0.2
				C162.9,923.6,162.8,923.6,162.9,923.1z"/>
			<path class="st0" d="M-115.6,1047.9c-2.8,1.7-5.6,1.4-6.9,1.7c-5.4,1-7,3.8-9.9,1.3c-0.7-0.6-1.5,0.4-2.9,0.8
				c-0.7,0.2-1.4-0.8-0.3-1.8c0.6-0.5,2.2-0.5,2.6-1.8c0.7-1.9,3.4-4.1,6.5-6.4c1.5-1.1,2.1,0.8,4.2-0.4c3.3-1.8,3.9,0.4,3.6,1.6
				c-0.1,0.5-0.3,1.1-0.5,1.6c-0.1,0.5,0.6,0.9,1,0.6c1.1-0.7,3.7-3.3,7.5-1.4C-109.8,1044.2-114.9,1047.5-115.6,1047.9z"/>
			<path class="st0" d="M308.1,855.2c-3.3,2.8-10.7,6.6-12.5,6.8c-1.9,0.2-0.9-2.5-0.9-3.4c0-0.6-0.7-1.6-1.6-0.6
				c-2.2,2.5-2.7,3.7-3.5,3c-1.6-1.2,5-7.5,9.6-8.7c4.8-1.2,3.2-4.4,8-3.8c0.3,0,0.5,0.3,0.7,0.6c0.7,0.7-1.6,1.3-2.1,3.1
				c-0.4,1.4-1.5,2.2-2.3,3.3c0.1-1.8,0.1-1.6-0.5-2c0,0-0.3,0.2-0.3,0.3c0,0.2,0,0.3,0.1,0.5C304.5,857,307.9,853.7,308.1,855.2z
				 M300.2,855c0-0.3-1.4-0.1-2.1,1C297.5,857,300.2,857.4,300.2,855z"/>
			<path class="st0" d="M-137.1,1079.2c-1.6,2.5-1.1-0.6-3.6-0.9c-1-0.1-2.8-1.6-1.9-3.3c1.3-2.4,2.1-5,1.9-7.5
				c0-0.1,0.5-0.4,0.7-0.5c1-0.5-1.1,3.4,1.2,3.8c4.9,0.9,3.4,4.3,7.5,2.9c4-1.3,4.4-4.9,6.8-4
				C-122.1,1070.7-135.3,1078.4-137.1,1079.2z"/>
			<path class="st0" d="M231.2,887.1c0.9-4.5,6.2-5.7,7.6-6.9c2.3-2,4.8-2.7,7.3-3.5c0.4-0.2,0.7,0,0.6,0.5
				c-0.3,2.1-8.1,5.5-7.5,6.3c3.1,3.9,6.8-4.8,10.3-1.5c0.6,0.6-1.4,3-4,4.4c-1.4,0.8-3.6,0.6-5,0.8c-3,0.5-2.7,1.7-2.4-0.9
				c0.3-2.8-2-2.4-4,0.1C232.9,887.9,232.9,887.9,231.2,887.1z"/>
			<path class="st0" d="M337.2,827.7c-2,1.9-2.8,1-5,3.2c-1.9,1.8-6.4,4.1-7,3.1c-0.4-0.7,3.1-4.2,6.7-5.3c1.7-0.5,3.3-1.1,5-1.6
				C337.1,826.9,337.3,827.5,337.2,827.7z"/>
			<path class="st0" d="M327.5,843.2c-1.3-0.2-1.4-2.1-2.9-2.1c-2.4,0.1-3.9,0.9-3.6-0.4c0.3-1.4,9.4-6.3,9-3.4
				C329.6,839.9,327.6,838.9,327.5,843.2L327.5,843.2z"/>
			<path class="st0" d="M346.5,821.6c4.3-1.6,3.2-3.6,5.5-3c0.5,0.1,0.9,0.4,0.8,1c-0.4,2.1-1.6,0.7-4.1,3.3
				c-0.3,0.3-0.6,0.6-0.9,0.7c-3.9,0.8-3.8,2.7-6.7,2.4c-0.5,0-0.7-0.8,0-1.7C342,823.4,345.2,822.2,346.5,821.6z"/>
			<path class="st0" d="M-90.1,1035.2c-1.1-2.6,7.2-2.8,5.7-0.8C-88.5,1040-88.5,1039.1-90.1,1035.2z"/>
			<path class="st0" d="M153.4,917.1c-0.2,1.2-1.3,1.3-1.9,2c-2.4,3.1-1.4,3.8-5.1,1.8c-0.3-0.2-0.2-1.2,0.2-1.4
				C151.7,916.8,152.4,916.2,153.4,917.1z"/>
			<path class="st0" d="M227.5,885.8c0.6-0.1,1.1,2.4-0.2,3.1c-3.7,1.9-3.7,1.9-4.3,0.8C221.7,887.4,224.9,886.3,227.5,885.8z"/>
			<path class="st0" d="M-21.4,993.9c-1.6,0.5-1.4-1.5-1-2c1.2-1.5,3.8-4.1,4-2.4C-18,992.2-17.7,992.8-21.4,993.9z"/>
			<path class="st0" d="M-113.8,1057c0.1,1.1,0.2,1.8,0.2,2.4C-113.6,1063.9-122,1062.8-113.8,1057z"/>
			<path class="st0" d="M-8.2,985.3c-0.1,0.5-1,0.7-1.2,0.3c-1.2-2.3,2.6-5.2,4.5-3.5C-6.2,983.6-7.5,982.8-8.2,985.3z"/>
			<path class="st0" d="M-135.2,1064.6c-1.9,1.7-3.5-1-2.2-1.7c0.9-0.5,1.9-1.1,2.9-1.5C-133.8,1061.1-132.2,1061.9-135.2,1064.6z"
				/>
			<path class="st0" d="M-117.6,1071.1c-1.7,0.6-2.4-1.1-1.7-1.7C-114.8,1065.7-116.1,1070.5-117.6,1071.1z"/>
			<path class="st0" d="M157.2,914.7c0.7-1,2.2-1.2,2.3-1C159.9,916.5,155.8,916.6,157.2,914.7z"/>
			<path class="st0" d="M194.8,896.9c-0.3,0.8-1.7,1.5-2.9,0.8C190.7,897.1,195.3,895.6,194.8,896.9z"/>
			<path class="st0" d="M169.8,908.2c-0.4-0.6,1.3-1,1.3-0.4C171.2,908.6,170.1,908.7,169.8,908.2z"/>
			<path class="st0" d="M209.9,902.5c0.3-1,0.8-1,1.4-1C212.2,901.5,209.7,903.4,209.9,902.5z"/>
			<path class="st0" d="M-141.1,1060c0.4,0.6-0.5,1.2-0.7,0.8C-142.2,1060.2-141.4,1059.7-141.1,1060z"/>
			<path class="st0" d="M315.5,850.5c-0.1-1.7,2.4-1.5,2-0.7C316.7,851.1,315.6,851.1,315.5,850.5z"/>
			<path class="st0" d="M-29.3,995.9c0.3,0,1.4,0,1.3,0.3C-29.3,998.9-30.9,996.1-29.3,995.9z"/>
			<path class="st0" d="M2.7,980.9c-0.1,0.2-0.6,0.3-0.9,0.3c0,0-0.1-0.3-0.1-0.5C2.8,978,3.2,979.6,2.7,980.9z"/>
			<path class="st0" d="M313.9,852.6c-0.8-0.5-0.6-0.4-0.4-0.8C314.3,852.3,314.1,852.2,313.9,852.6z"/>
			<path class="st0" d="M315.9,845.1c-0.1-0.7,0.6-0.6,0.5,0C316.3,845.4,315.9,845.3,315.9,845.1z"/>
			<path class="st0" d="M29.5,965.3c0,0.3-0.1,0.7-0.1,1c-0.2,0-0.5,0-0.7-0.2c-0.3-0.2-0.3-0.6,0.1-0.9
				C28.9,965.1,29.2,965.3,29.5,965.3z"/>
			<path class="st0" d="M21.6,971l-0.2-0.3C21.7,970.5,21.7,970.5,21.6,971z"/>
			<path class="st0" d="M100.5,945.3c0,0,0.1,0.4,0,0.4C100.4,945.8,100.5,945.5,100.5,945.3z"/>
			<path class="st0" d="M-109.9,1053.6c0.1-0.5-1,0.1-0.4,0.6C-110.2,1054.1-109.9,1053.8-109.9,1053.6z"/>
			<path class="st0" d="M-110.4,1054.2c0-0.1,0.1-0.3,0.1-0.4C-111.1,1054.2-109.9,1053.8-110.4,1054.2z"/>
			<path class="st0" d="M374.9,1062.2c-2.1,1.6-8.6,6.2-8.7,3.6c0-1.3,0.1-3.3,1.2-3.3C367.6,1062.5,374.7,1062.4,374.9,1062.2z"/>
		</g>
		<g>
			<path class="st0" d="M41.5,469.8c1,1.1,1.9,0.8,2.9,0.7c2,1.8,3.4,5.8,6.5,9.4c0.3,0.3,1.5,0.8,1.6,0.4c0.3-1.6,0-0.9-1.1-4.3
				c-0.3-0.8,0.1-1.7,0.8-1.4c2.2,1,2,1.8,3.3,3.6c1.2,1.6,2.9,0.3,2.4-1.1c-3.1-9.1,1.8,0.3,5.8,5c1.2,1.5,6.1,8,6.5,9.3
				c1.3,3.6,3.1,1.6,4.3,4.9c0.8,2.1,3.4,5,3.4,5c-0.5,0.7-1.7,2.3-1,2.9c1.5,1.2,1.4,0.2,3.1-0.5s1.5,1.8,3.4-0.6
				c0.3-0.4,0.7,0.3,1.1,0.7c1.7,2,1.9-1.2,1.5-2.3c-3-7.5-6.4-11.2-7.4-16.7c-0.1-0.5,0.3-0.8,0.5-0.6c1.1,0.8,0.6,0.7,2,3.8
				c1.7,3.7,3,2.5,4.6,7.9c0.6,2,2.6,4.1,3.4,5.9c1.3,2.7,1.6,6.9,4.6,9.3c1.9,2.6,3.1,2.1,5,7.4c1.3,3.4,9.1,21.2,9.7,22.5
				c3.8,7.7,2.9,13.3,5.5,15.7c2,1.9,3.3,5.3,5.1,7.4c3,3.4,4.4,9.6,5.3,8.4c0.6-0.8-1.3-4.9-1.7-5.5c-1.7-3-2.4-6.8-3.8-10
				c-0.5-1.1-1-2.5-0.9-3.9c1.4,0.5,8.5,17.1,12.9,30.5c2.8,2.3,3.6,2.5,3.5,4.8c0,0.8-0.4,3.1,0.2,5.4c3.1,11.9,4.2,15,6.9,18.9
				c2.8,4,1.2,3.4,3.1,6.3c3.1,4.9,1.7,2.4,3.5,2.4c0.3,0,0.7,0.8,1,1.3c0.1,0.3,0,0.9-0.1,1.2c-0.4,1.1-1.8,0.6-1.4,3.3
				c1.1,7,3.5,8.1,4,9.5c0-0.8,1.1,9-0.8,8.9c-1.5-0.1-3.2-2.1-4.6-1.6c-0.9,0.3-2.8-4-3.1,0.4c-0.2,3.2-0.9,0.8-1.5,0.9
				c-0.4,0.1-1.6-0.1-1,1.9c0.6,1.8,2.9,6.5-0.5,7.3c-0.9,0.2-2-0.9-2.8-1.9c-1.6-1.9-0.7-2.1-1.5-8.4c0.7-3.7,5.4-3.6-1-17.9
				c-1.9-4.2-0.4-2.9-2-7c-0.6-1.5-2.7-0.8-1.8,1.6c1.3,3.6,1.4-1,1.8,8.2c-6.7-4.7-5.5-5.4-6.1-13.3l0.1,0.4
				c-0.1-0.9-2.5-2.4-1.9-3.8c0.4-1,1.9-1.9,1.2-4.2c-1.1-3.5-1.9-2.9-2.9-8.1c-0.2-1.3-1.7-6-2.8-4.6c-0.9,1.1,0.3,1.6-3.6,1.3
				c0,3.5,1.6,3.6,1.7,6.4c0,1.5,0.6,3.2,0.7,4.8c0.2,2.8,1.3,3.1,3.1,4.7c0.5,2.5,1.6,4.8,1.8,7.4c0.1,1,0.6,1.6,1,2.4
				c5.3,10.8-3.1,4.7,2.2,13.1c1.2,1.9,0.3,2.6,0.7,5.2c0.2,1.6,1.4,3,1,4.6c-0.4,1.5-0.1,3.1,0.1,4.9c-5.8-0.8-4.2,2.4-3.5,2.6
				c2.5,0.7,1.7,5.4,2,6c0.3,0.7,1,0.9,1.6,1.3c0.2,0.2,0.5,0.6,0.7,1c1.3,2.6,0.4,0.2,4.7,4c0.8,0.7,1.1-1.6,2.1,2.5
				c0.9,3.7,2.9,2.7,3.2,7.7c0.5,8.6-0.3,6.1,1.7,8.5c0.8,1-0.7,3.1-2.1,1.4c-0.7-0.8-1.1-2.5-2.1-2.8c-0.1,0.9-0.6,2.1,0.7,5.9
				c1.6,4.4,1.6,5.9,4.9,3.9c1-0.6,1.7,0.3,1.8,1.1c0.4,5.2,6.1,8.9,5.6,3.7c-0.2-1.9-0.9-3.6-1.3-5.3c-0.1-0.3,0.3-0.7,0.5-0.3
				c0.2,0.3,0.4,0.8,0.6,1.1c1.7,2.2,2.7-4.5,1.7-7.9c-3.4-11.7-3.7-11.6,1.5-6.7c1.2,7.4,2,1.2,5.5,2.1c0.3,0.1,0.7-0.7,0.7-1.2
				c0-2.1,0.9-5.1,2.9-2.3c0.8,1.2,2,0.9,2.7,2.6c0.6,1.4,0.4,2.7,0.6,4.1c0.3,1.8,1.3,3.3,1.3,5.3c0,1.6,0.7,3.1,1.2,4.6
				c1,3.8,1,7,3,12.8c6.5,18.8,7,17.3,8.5,26.4c0.1,0.6,0.3,1.4,0.5,1.9c2.4,3.8,3,8.7,3.7,12.3c0.7,3.8,2.8,3.9,3.3,4.2
				c0.6,0.3,1,1.6,0.3,2.8c-0.8,1.4-0.9,0,2,8.5c0.5,1.5-0.3,3.8-2.1,3c-0.5-0.3-1.2-1.2-3.3-4c1.3-0.1,1.8,0,1.6-0.7
				c-0.2-0.7-0.3-0.2-1.6,0.7c-0.1-0.5-0.3-1-0.2-1.3c0.6-2.9-0.8-4.7-1.8-7.7c-1.2-3.3-0.8-5-2.1-9.4c-0.5-1.6-0.2-5.6-0.5-7.5
				c-0.3-2.4-1.4-0.7-3-3.9c-0.3-0.6-0.8,0.3-0.7,0.7c1.3,5.3,1.3,3.8,1.3,6.6c0,0.3-0.4,0.6-0.6,0.3c-1.7-3.6-0.3-5.5-3.3-10.2
				c-1-1.6-2.1,0.7-2,1.6c0.2,1.4-0.4-0.6,4.1,13.8c0.9,2.9,2.5,3.6,2.5,8.1c0,1,8.3,31.2,9.6,24.4c0.4-2-0.9-2.9-0.5-5
				c0.8,0.9,0.6,2.8,1.7,4.3c0.6,0.8,1,0.6,1.1-0.4s-0.2-3.2,0.7-2.4c0.3,0.2,0.6,0.5,0.7,0.8c2.4,14.6-0.6,5,2.7,16
				c0.2,0.8,0.8,0,0.7-0.5c-0.7-6.4-0.7-7.9,0.3-7.8c2.5,0.4,3.8-0.4,5.5,3.3c1.5,3.2,3,4.8,2.4,5.8c-0.3,0.5-1.1,0.1-1.5,0.3
				c-0.9,0.3-0.7,2.8-0.4,3.4c1.1,2.9,1,5.1,2.1,7.9c0.4,1,1.5,1.4,1.8,0.6c1.7-3.9,0.9-4.3,6.5,3.1c-0.6,2.4-0.6,5.2-1.6,7.3
				c0.4,2.1,0.8,4.1,1.1,6.2c0.2,1.6,1.9,5.7,2.9,4.2c0.5-0.7,0-0.7,0.9-1.3c2.3,4.4,4.1,9.1,5.2,14.4c1,4.9-2.4,3.2,0.1,9.4
				c0.5,5,2.2,9.4,4,13.7c0.3,0.6,0.5,2.2,2.1,1.4c2-1,1.7,2,2.1,3c1,2.7,1.2,5.4,1,8.2c-0.5,0.7-1.1,1.5-1.7,2.3
				c-0.8,1-1.9-1.4-2.2-2.7c-1.6-7.3,0.5-4.2-2.8-12.6c-0.9-2.3-4-4.4-3.6-0.5c1.2,11.1-0.5,6.4,1.7,11.3c1.1,2.3-1.8,4.4-2.5,4.5
				c-0.4,0.1-0.7,1.9,1.2,3.8c1.4,1.4,1.8,2.7,3.6,10c1.6,6.7,5.5,16.1,6.2,13c0.1-0.5,0.2-1.5,0-1.9c-2.4-4-2.8-9.1-4.2-13.6
				c-0.2-0.6,0.2-1.5,0.5-1.4s0.7,0.3,0.8,0.6c0.5,1.5,1.2,3.1,1.3,4.6c0.3,2.9,0.9,3.2,5.4,16.1c1.9,5.4,2.4,8.8,4.9,10.3
				c2.4,1.4,0.2-5.3-0.8-8.3c-1.2-3.7,0.1-2.8-1.1-7.5c-0.4-1.6-0.7-3.1-0.6-4.8c0.1-1.6-0.9-3.1-1-4.7c-0.1-1.3,0.6-1.3,1-0.7
				c3.8,5.6,1.8,5.2,4.5,9.3c1.3,1.9,0.9,1,3.6,11.8c0.9,3.6-1.9,2.1-1.9,5.3c0,3,0.5,5-0.7,6.1c-1.4,1.3-0.5,6,0.5,8.1
				c3,6.4,2.5,7,4.2,7.1c0.9,0.1,3.4,3.3,1.3,3.9c-1.6,0.5,0.6,4.2,1.9,6.2c0.8,5.2,1.3,10.7,4,15.6c0.3,0.6,1,2.7,0.5,4.5
				c-1,3.2,1,6.5,2,6.8c3,1,4.6,6,6.8,9.4c0.2,0.3,0.4,0.9,0.4,1.3c0.2,6.2,3.6,7.4,4.1,12.6c0.3,2.3,1.5,4.3,1.5,6.7
				c0,0.3,0.2,1,0.4,1.1c1.2,0.9,1.8,2.6,2.5,4.3c1.7,4.1,2.7,4.6,2.6,7.4c-0.1,1,0.2,2.2,0.4,3.3c0.5,3,2.9-6.6,4.3-1.3
				c2.1,8,5.5,8.1,5.3,12.3c-0.1,2.3,0.5,3.5-0.9,4.5c-2.2,1.6,0.6,9.2,2,12.9c1.6,4.1,3.5-5.5,4,7.1c-0.6,0.1-1.1,0.2-1.7,0.3
				c-0.3,1.8-0.1,3.5,0.7,5.2c1.5,3,2,4.8,2.9,3.7c0.3-0.4,0.5-1,0.9-1.2c0.3-0.2,1-0.1,1.2,0.2c4.2,7,2.6,8.6,4.2,12.6
				c8.6,20.7,2.8,11.3,13.2,37.8c2.4,3.3,3.1,7.7,4.1,11.9c0.6,2.7,1.6,5.3,2.1,8c0.7,3.8,0.4,9.8,2.2,14.3c2.4,5.9-0.9,8.2,2.3,9.3
				c3,1.1,1.9,5.2,1.8,7.9c-0.2,5.7,1.1,5,2,9.1c0.6,2.8,1.4,1.7,3.2,5.2c1.6,3.2-1.3,4.2,0,5.5c1.6,1.6,2.1,1.7,2.7,2.6
				c1.8,2.6,3.7,0.1,4.5,3.7c1.1,4.7,6.2,12.9,5.5,19.9c6.1,14.2,6.6,14.2,5.8,16.6c-0.9,3.1,2.6,2.3,3.2,10.5s1.2,1.8,5.7,14.2
				c-1,1.2-1,0.9-0.9,2.3c0,0.2,0.1,0.5,0.2,0.6c1.5,1.9,2.4,4.5,3.1,7.2c-0.5,0.9-1.1,1.6-0.8,3.3c0.3,2,0.4,4.2,1.7,5.8
				c0.5,5.3-0.2,5.6,1.2,8.6c0.8,1.7,0.5,3.6,3.3,4.4c1.6,5.9,0.9,1.6,4,6.3c0.4,0.6,1.2,0.5,1.5,1.1c0.4,0.6,0.4,1.7,0.7,2.6
				c0.2,0.6,0.8,1.3,0.7,1.8c-0.1,1-0.2,8.2-1.5,6.3c-1.2-1.8-1-4.7-2.5-6.8c-1.5-2.1-2-4.8-2.6-7.5c-0.2-1-1.2-1.3-1.3-0.7
				c-0.1,1.9-0.7,3.1-1.5,4.3c-0.5,0.7-0.1,2.4,0.7,2.9c1.1,0.7,1.8,1.5,2.1,3.4c1.4,7.9,3.8,8,2.4,11.5c-0.8,2.3,1.7,3,1.7,4.1
				c0.1,2.5,1.2,3.1,2.3,3.9c1.2,0.9,1.5,0.8,1.5-2.8c0-1.8,1.3-2,1.4-3.7c0.1-1.4-0.3-3.2,0.5-4.2c0.9,0.8,1.4,2,1.7,3.4
				c2.7,10.7,2.8,9.6,2.2,12c-0.5,2.1,0.9,5.9,2,5.1c0.6-0.4,0.9-1.8,0.7-2.7c-1.2-5.5-3.7-20.5-7.4-32.2c-0.8-2.5-3.4-7.7-4.1-12.2
				c-0.9-5.8-4.2-11.3-6.5-16c-1.4-2.8,0.9-2.7-1.3-9.3c-14.7-45.9-12.7-37.2-18-57.5c-1.4-5.4-4.2-12-5-15.6c-1.8-8.2-3-9.6-6.3-21
				c-0.9-3.1,1.1-2.1-2.6-10.4c-5.6-12.6-1.8-3.7-8-23c-0.2-0.7-7.2-20.7-7.6-23.2c-0.3-1.9-0.6-3.6-1.7-4.8c-3.6-10.4-4-8.9-4.3-12
				c-0.4-5.1-1.7-3.8-2.2-6.9c-0.8-4.4-2.8-3.9-3.3-6.8c-0.8-4,0.1-7.8-1.8-11.5c-2.3-4.4-3.6-9.7-5.9-14.1
				c-0.3-0.5-0.5-1.3-0.7-1.9c-0.9-5-3.2-8.7-2.2-9c4-1.2,74.9,219.5,77.6,228.4c2,6.6,5.9,9.2,6.7,14.9c0.1-0.3-1.4-0.2-1.6-0.2
				c-1.9,0.1,1.7,6.9,2,9.1c0.1,0.8,17.2,55.5,16.1,65.3c-0.9,7.7-3.3,0.5-8.8,7.4c-0.3,0.4-0.3,1.1-0.5,1.7v-0.2
				c-5.4,2.6-2.2,32.3-7,27.7c-3.2-3.1-1.3-6-1.7-15.4c-0.7-13.5-0.5-8.8-0.2-18.3c0.1-3.6-1.8-3.3-1.3-6.5c0.6-4,1-4.9,1.2-7.5
				c0.1-2.3-1.7-2.5-1.8-3.7c-0.5-7.3-0.4-8.4,1-8.7c1.9-0.4-0.9-4.7-0.6-8.1c0.2-2.1-3.2,0.3-3,4.2c0.1,2,1.8,5.8,0.1,12.7
				c-0.5,0-1.9-0.2-2.3,0.7c-3.7,8.8-0.9,11.3-2.3,21c-0.3,2,0.1,4.5,0.1,6.9c0.4,0.6,0.8,1.3,1.3,2c-0.9,7.9-0.6,8.9-1.9,9.1
				c-0.4,2-1.4,3.6-0.7,6.2c0.3,0.9,0.2,1.7,0,2.6c-0.5,1.8-0.4,4.2,1,4c0.3-0.1,0.5-0.3,0.8-0.3s0.8,1.2,0.7,1.6
				c-1,3.1-3.3,0.8-1.2,6.5c1.5,4.3-1,5-3.9,4.6c-0.8-0.1-1.3,0.3-1.7,1.3c-0.1,0.3-0.4,0.7-0.6,0.6c-1.2-0.5-2.1,0.3-3.2,0.7
				c-1.4,0.5-3,0.6-4.5,0.9c-2.6-2.9-2.4-2.2-1.7-4.2c0.2-0.5,0.6-1.1,0.6-1.6c-0.2-2.6,0.5-4.7,0.7-7.1c0.1-0.9-1.4-1.5-1.7-1
				c-1.6,2.3-2.8,0.7-5.2,0.4c-0.7-0.1-0.9,1.9-0.6,2.6c0.8,1.6,2.8,3.5,3.3,6c0.1,0.4,0.1,1.1,0,1.3c-1.2,1.1-1.5-0.2-2.5-1.5
				c-1.8-2.2,0,5-2,5.6c-2.5,0.7-2.1,4.1-2.5,4.3c-2.3,1.5-1.7-5-2.4-8.7c-0.1-0.6-1-0.5-1-0.2c-0.5,2.1-0.7,4.6-1.7,6.3
				c-1.4,2.3,3.7,9.5,9.6,5.1c1.1-0.8,0.6-3.7,3.2-4.2c3.1-0.6,3-0.9,5.8,2.9c2.6,3.4-0.4,9.1-1.8,5.7c-0.4-1-0.7-2.1-1.1-3.2
				c-0.5-1.5-2.4-1.3-2.4,0.1c-0.1,4.1-2.6,1.6-5,5c-1.7,2.3-3.7,2.9-6.1,2.4c-1.4-0.3-2.2-0.4-2.7-3.8c-0.3-1.9-1.1-4.2-2.2-3.9
				c-3.2,0.8-1.2,3.1-3,4.3c-2.5-1.4-3.6-2.5-4.6-0.3c-0.9,2.1-1.8-1.6-2.5-2.5c-1.6-2.1-0.8,3.1-0.7,4.1c0.2,2.2-1.5,4.5-2.9,3.9
				c-1.2-0.5-1.6-1.7-3.2-4.1c-0.3-0.5-1.1-0.7-1.1-0.3c-0.2,1.5,1.1,3.8-0.5,4.5c-1.7,0.8-3.2-1.4-4.1,0.2c0.3,1.2,1.2,4.3,0.5,5.1
				c-3.4,4-4.4,4.8-5.6,3c-0.9-1.3-2.3-4.2-3.3-2.9c-2.3,3-3.2,4.8-5,4.6c-0.9-0.1-1.5,0.7-1.9,2c-0.3,1.1-1,1.3-1.6,1.8
				c-1.7,1.2-2.8-1.5-4.1-3.3c-0.4-0.5-1.3-0.2-1.4,0.5c-0.1,0.6,0,1.4-0.1,2c-0.4,2.3-1.2,1.7-2.4,2.9c-2.1,2.1-2.3-0.8-6.1,0.7
				c-1.7,0.7-2.5-1.7-2.9,1.5c-0.1,0.9-0.4,1.6-1,1.6c-6.2,0.4-7.5,1-9.4-8.7c-2.3-2.9-2.9-3.9-3.9-3.7c-0.4,0.1-3.2-0.1-4.4-2.8
				c-0.6-1.3-1.5-1.6-2.3-2c-0.6-3.6,2.1-4.9,1.2-6.4c-1.3-2.2-2-5-3.1-7.3c-0.3-0.6-1.7-2.2-2.2,0.4c-0.4,2.3-0.6,0.4-2.5-1.4
				c-0.4-0.4-1,1-0.9,2.3c0.2,2.1,1.6,4.4,0,6.9c-0.5,0.7-1.1,0.6-1.4-0.3c-4.4-17-0.5-6.8-4.5-16.2c-1,2.7-0.7,3.2-1.9,2.4
				c-0.6-0.4-2.1-2-1.9,0.2c0.3,3.1,0.3,5.1,0.8,6c2.1,3.7,1.2,4.9,2.5,7.7c2.2,5,1.8,0.9,5.2,8c1.2,2.5,4.7,7.5,3.5,8
				c-1.1,0.4-1.1,2.1-1.7,3.3c-3.3-4.2-3.4-3.9-4.2-6.4c-2.1-6-0.5-4.4-5.8-5.7c1,3.3,2.8,5.2,1.8,7.5c-0.4,0.9-1.4,0.8-1.8-0.2
				c-2.5-6.5-4.4-8-4.9-8.5c1.6-3.1,3.1,1.3,3.1-4.7c-7.7-14.4-7.8-11.8-9.6-17.1c-0.1-0.4-0.4-1-0.6-1.1c-1.9-1.2-3.1-3.9-4.5-6.2
				c-0.3-0.5-1,0.5-0.7,1.6c3.1,11.8,2.2,1.9,6.1,13c0.2,0.7-0.4,0.9-0.8,0.7c-0.3-0.1-0.5-0.6-0.8-0.8c-2.8-2.2-3.4,3.9-1.9,6.8
				c0.2,0.4-0.2,1.3-0.6,1.2l-3.3-0.8c-0.3-0.6-1-3.3-3.2-5c-3.2-2.5-1.5-6.8-5.2-6.5c-2-4.3,0.1-2.9-6.6-15.7
				c-2.2-4.3-3.5-10.4,1-1.7c0.3,0.6,1.4,2.4,1.7,1.9c0.6-0.8,0.6-0.4-0.4-4.1c2.1,2.3,0.9,0.8,2.9,4.2c0.3,0.6,0.6-0.5,0.5-0.9
				c-1.3-4.5-1.6-4.2-2.4-3.5c-1.6,1.6-1.8-2.3-2.3-5.1c-0.8-4.5-2.4-2.6-3.1-4.8c-1.5-4.6-0.6-5.4-6.7-19c-1.1-2.4-1.6,1.4-3.3-0.3
				c-2.1-2.1-2.3-3.4-4.2-10.2c-0.5-1.7,2.3,0.1,1.5-2.2c-2-5.8-3.1-1.9-4.6-6.4c-0.4-1.1-2.5-6.6-3.2-7.1c-3.3-2.2-0.8-5.7-4.7-15
				c-2.3-5.3-0.6-5.3-1.9-7.1c-1.1-1.5-1.4-3.8-2.4-5.4c-0.9-1.5-0.6-3.7-1.5-5.2c-0.5-0.9,0.1-2.2-0.2-4.6c-0.3-3.1-2,1-2.8-4.4
				h-0.1c1.5-0.8,1.6-1.1,1.4-3.1c-0.5-4.7-0.7-1.9,0.7-1.9c0.4,0,0.8-1.3,0.6-2.1c-0.7-4-1.6-5.6,0.2-6c1.5-0.3,1.1-1.7,0.7-4.2
				c-0.5-3.2,2.4-2.5,0.6-7.2c-5.1-13.6-11.3-35.3-13.8-39.7c-0.3-0.5-0.5-1.2-0.7-1.9c-1.1-4,0-2.1-4.4-12.7
				c-2.2-5.4-2.8-6-3.6-6.5c-0.6-0.4-1-1.2-1.3-2.1c-0.6-2.2-1.7-3.5-2.8-4.9c-0.6-0.9-1.1,0.1-0.9,0.8c0.9,2.8,2.1,4.2,0.8,6.1
				c-0.8,1.2-2.1-2.2-4.2-3.3c-0.8-0.4-2.3-4.9-2.6-5.9c-1.3-3.9,1.5-2.3,2-2.2c2.3,0.5,0.5-4,0-5.9c-0.1-0.4,0.2-1.3,0.6-0.6
				c0.2,0.4,0.8,1.6,1.1,2.3c1.1,1.9,2-3.3,0.7-7.5c-2.1-6.7-4.1-8-4.9-13.1c-0.4-2.5-1.1-5-2.6-6.6c-0.2-0.2-0.5-0.9-0.4-1.1
				c0.7-3-1.1-3.8-2.6-12c-0.5-2.9-1.4-5.8-2.1-8.9c0.4,0.5,0.8,1,1.1,1.3c0.6,0.5,1.3-0.2,1.1-0.9c-1.5-7.9-0.5-12.4-4.4-18.4
				c-3.1-4.8-2.6-12.3-7.1-21.2c-1.8-3.4-0.4-6-4.7-11.4c-1.1-1.4-0.8-1.2-5.1-14.5c-0.7-2.2-0.2-3.9,0.1-5.8c1.3-0.7,0.5-2-0.7-5.6
				c-0.9-0.7-1.8,0.3-2.6-0.9c-0.9-1.3-1.9-2.5-2.4-4.4c-1-4-3.1-7.5-3.5-11.8c0-0.2-0.1-0.5-0.2-0.7c-3.1-4.7-3.2-17-6.6-20.2
				c-1.5-1.4-2.5-3.8-3.3-6.2c-3.6-10.8-7.7-21.3-11-32.3c-2.4-8-3.1-6.6-5-10.3c-0.5-0.9-1.5,0.4-2.6-2.5c-5.5-14.5-6.2-18-9-22.3
				c-1.3-1.9-23.1-64.8-11.9-40.3c1.4-1.8,0.3,1.1,1.6-6.2c0.4-2.1,0.2-4.7-0.9-6.5c-1.1-1.9-1.2-4.4-2.4-6.2
				c-1-1.4,0.3-6.5-2.8-9.3c-1.8-1.6-1.5-3.1-3.7-9.9c-2.1-6.7-1.6-8.4-3-13.5c-0.8-3.1-4.5-15-7-19.8c-0.9-1.7-0.2-3.1-0.7-5.3
				c-0.6-2.3-1.7-6.4-2.8-8.4c-3.1-5.4-3.2-12.2-2.7-12.2c0.8,0,1.5,1.1,1.7,1.8c0.9,2.8,2.3,5.1,2.4,8.4c0.1,3,1.5,5.8,2.6,8.4
				c4,9.7,0.7,3.9,3.8,11.5c1.4,3.5,3,5.9,3,8.1c0.1,6.2,12.3,38.4,13,43.1c0.5,3.3,2,6,3.9,8c0.1,0.1,0.4-0.2,0.7-0.4
				c-3.5-13.5-4.4-12.3-4.1-15.1c3.5-1.2,3.7,8.1,4.7,4.2c0.2-0.8,0-2.2-0.1-4c-0.2-4.1,2.6-3.1,0.9-6.9c-1.8-4-1.3-11.1-4.5-14.6
				c-0.5-0.5-0.3-2.9,0.6-1.9c0.6,0.7,1.6,4.4,4,2.8c0.9-0.6,1.3-0.1,1.5,0.5c0.7,2.6,1.5,5.5,1.4,7.4c-0.5,0.1-2.7,0.1-2.2,2.5
				c1.4,7.8,0.4,17.8,4.4,14.9c1.5-1.1-0.1,3.1,3.1,3.9c3.7,0.9,4.7-3.1,1.3-3.9c-1.7-0.4-2.1-2.5-2.9-5.1c2.2-4.7,1.3-3.4,2.9-3.6
				c1-0.2,0.7-4.1-1.6-4.6c-0.5-0.1-1.2,0.3-1.4-1c-0.2-2.2-1.6-4.2-1.2-5.2c1-2,0.6-4.6,0.6-7c0-1.8-0.6-3.1-1.5-4.3
				c-1.3-1.7-1.6,0.9-1.9,1.8c-1.4-0.6-4.2-3.3-4.9-6.3c-3.4-14.6-6.4-8.1-3.6,1.3c-0.3,0-0.7,0.1-0.8-0.1c-4.9-7.5-2.1-5.9-2.2-7.7
				c-0.1-2.5-0.3-4.9-0.6-7.4c-0.2-2-1.9-2-2.2-4.5c0-0.2-0.1-0.6,0-0.6c0.2-0.1,0.6-0.2,0.6,0c1.6,3.9,6.3,5.3,6.4,1.1
				c0-1.2-0.7-1.4-1.2-1.7c-1.4-0.8-1.1-0.9-1.2-6.4c-1.1-1-2.3-1.5-3.1-3.3c-0.7-1.7-1.2-3.5-0.7-5.2c2.6-8.5-4-10.1-4.3-15.7
				c-0.1-3.1-1.4-2.1-1.6-6.9c-0.2-4.2-1.2-2.1-2.5-6.7c-0.2-0.6-0.7-1.3-1-1.4c-2.1-0.1-3.5-2.4-5.1-4.8c0-1,0-2.1,0-3.2
				c0.1-2.4,3.3,1.1,3.1,4.4c-0.1,2.5,4.5,3.1,0-7.5c-0.1-0.2-1.4-1.4-1.3-1.6c0.8-2.3-0.1-2.1-4.6-19.1c-0.2-0.7-3.5-11.7-4.5-14.3
				c-1-2.3,0-4.2-1.8-5.3c-2.2-1.4-0.1-4.6-2.2-8.8c-0.2-0.4-0.3-0.9-0.3-1.3c0-3.1-1-5.9-2.1-8.6c-1.3-3-0.7-4.6-2.5-8.5
				c-0.4-0.8-0.6-1.7-0.8-2.6c-0.7-5.5-7.9-22.1-9.7-29.8c-1.3-5.7-4.6,2.8-1.3,5.3c0.3,0.2,0.6,0.1,0.8,0.3c2.9,1.9-1.2,10-4.3-5.6
				c-0.5-2.5,1.8-3.2,0.2-7.6c-0.8-2.1-1.2-4.5-2.2-5.5c-3.1-3.2-3.8-7.6-5.2-12.7c-1.2-4.2-2.9-2.2-3.6-6.3c-0.6-4-1.7-9.8-3.7-7.9
				c-4.1,3.9-3.7-5.5-6.6-5.8c-1.1-0.1-1-2.6-2.6-2.3c-0.3,0.1,0.1,1.6,0.8,6.7c0,0.3-0.3,0.8-0.5,0.4c-3-7.6-1.2-3.3-4-8.3
				c1.6,12.7-2.3-1.5,20.8,76.2c0.3,0.9,2.2,5.6,2.2,5.6c0.5,4,2,7.6,3,11.3c0.1,0.4,0.2,1,0.1,1.4c-1.4,8.6-6.8-13.2-7.8-16.5
				c-2.3-7.6-13.1-47-13.3-47.7c-1.6-2.8-1.5-6.3-2.7-8.3c-0.2-0.3-0.9-0.6-1.1,0c-0.6,2.5,0.7,4.2-0.4,4.8
				c-0.7,0.4-1.7-2.9-2.1-2.2c-0.6,1,0,4.5,0.4,5.7c0.1,0.4,0.5,2.6,0.3,2.6c-1.6,0.1-0.4,1.8-10.3-32.3c-3.5-12-1.4,7.2-7.5-21.2
				c-3-14.2-7.4-30.7-4.5-25.1c0.5,1,1.1,0,1-0.8c-0.1-2.4-1.6-4.5-2-1.4c-4.3-7.1-2.5-4-4.1-10.2c-1.2-4.8-1.8-3.2-2.3-9.3
				c-0.1-0.7,0.7-1.7,1.1-0.5c3.8,10.6,2.6,9.4,3.9,10.4c0.3,0.2,0.7-0.7,0.6-1.3c-0.7-4-1.2-2.6-0.8-7.4c-2.4-4.7-4-9.9-4.7-15.5
				c-0.2-1.4-1.1-2.7-0.7-4c1.3-4.6-6.6-24.9-6.3-32.1c2.5,4.8,0.8,6.2,4.4,12.8c4,0.8,3.5,2.1,1.3-10c0.9-3.4,2.1,10.4,5.9,10.8
				c2.7,2.9,2.6,3.1,3,2.8c0.4-0.4-0.7-5.3-1.4-7.1c-2-4.8-1.1-8.9-3.9-18.2c-1.1-3.6-4.8-17.8-4.8-18.7c0-1.3,0.6-1.6,1-1.1
				c1.7,2.2,1.4,2.6,3.2,7.1c0.8,2.1,2.1,1.5,2.7,3.6c0.7,2.5,2,4.3,3.3,6.1c1,1.3,1.3,3.4,2.4,4.5c0.2,0.2,0.7-0.1,0.7-0.3
				c0.5-5.3-4.9-17.5-3.3-17.8c0.6-0.1,0.8-0.2,1.8,2.5c0.9,2.6,0.8,2.1,2.8,1.5c3.2,4.9,2.6,7.5,4.3,8.4c2.5,1.3,2.5,5.9,4.3,8.2
				c0.3,0.4,1,0.5,1-0.2c-0.2-2.4-0.5-3.8-0.2-3.9c0.8-0.2,0.3-0.8,4,7.1c1.2,1.1,3.3-1.8,4.5,2.4c0.7,2.6,3.1,1.2,2.9-1
				c-0.2-2.1-2.6-4.1-2.2-7.6c0-0.3-0.2-0.9-0.4-1.2c-0.4-0.7-0.9-1.4-1-2.4c-0.5-4.4-1.9-4.5-1.1-6.3c0-0.1,0.3,0,0.3,0.1
				c3.8,5.1,3.4-1.3,1.3-3c-0.5-0.4-1.1-0.6-1.7-1c0.5-3.5,0-6.8-1.2-9.7c-0.9-2.2-0.6-4-0.3-6c2.6,1.5,2.6,6.1,4.5,6.5
				c2,0.5,1,2.3,5.5,2.7c0.3,0.6,1,1.3,1.1,2.1c0.7,3.5,2.8,4.3,4.2,6.4c0.2,0.3,0.8-0.2,1.2-0.2c-0.1,1.3-0.4,2.6,0.1,4
				c9.9,26.5,5.9,2.3,1.7,0c-1-0.5-1.6-2.2-1.8-3.9c-0.8-1.4-1-3.1-1-4.6c0.1-2.8-0.8-5.3-3.8-12.2c-5.3-12.3-4.7-17.1-3.2-12.9
				c0.4,1.1,0.4,2.4,1.2,3.8c9.2,15.8,5.3,20.7,11.6,27.6c0.3,0.4,0.9,0.7,1.2,0.5c1.4-0.5,2.8,0.1,4.2,0.2c0.6,0.1,2.1-0.6,2-1.5
				c-0.2-3.4,1-6.7,0.2-8.5c-1.5-3.4-2.5-7.3-4-10.7c-0.7-1.7-0.5,0-2.2-4.6l-0.1,0.1c0.8-1,1.3-1.1,0.9-2.2
				c-0.4-1.3-1.1-0.9-1.8-0.6c0.2,0-1.3-2.5-1.4-2.7c-0.2-0.3-0.2-0.9-0.3-1.4c3.4,1.9,2.2,1.8,3-1.1c0.3-1.2,1.6-1.4,2.1-0.2
				C2,479.2,1,478.8,2.9,480.3c0.2-2.5-1.2-3.9-1.5-7.2c0-0.4-0.8-1-0.6-1.6c1.2-4-1.8-6.3-0.2-9c0.6-1,1.5,0.2,1.8,0.8
				c0.7,1.6-0.1,3.9,1.7,6.4c2.8,3.8,1.3,5.1,3.9,5.7c0.4,0.1,1-0.5,0.8-1c-1-3.9-0.5-6.5-2.2-10c-1-2.2-1.5-4.7-2.5-6.8
				c0.8-1.6,3.2,4,3.9,6.1c1.4,3.8,2.3,0.6,4.9,7.4c2.4,6.5,3.7,3.8,3.2,2.6c-1.1-2.7-1.5-5.7-2.4-8.5c-0.2-0.7,0.5-0.9,0.8-0.6
				c3,2.9,2.9,8.2,4.3,6.8c0.9-0.9,1.6-2.9,2.7-0.9c1.6,2.9,9.5,18.3,9.5,18.3c1.6,3.3,4.2,2.6,3.4,0.6c-2.4-7-2.4-6.2-2.4-7.6
				c0-1.6,5.6,6.2,6.7,8.3c0.3,0.5,1.1,1.4,1.5,1.1c1.3-1.1-4-9.1-6.7-18c3.5,1.9,2.2-0.2,1-2.5c-1.4-2.6-1.3-6.7,0.3-5.5
				C39.5,466.8,38.6,469.1,41.5,469.8L41.5,469.8z M203.4,808c-0.2,0.4-0.3,0.3-0.3-0.2c0,0,0.2,0,0.3,0c-0.2,0.3-0.3,0.3-0.2-0.1
				C203.3,807.7,203.3,807.8,203.4,808z M113.5,579.7c-0.4-0.3-1-0.6-1.1-1c-1.9-7.9-3-5.1-4.2-9.3c-0.6-2.3-1.7-4.7-2.6-6.9
				c-1-2.2-1.3,0.4-1.1,1.2c3,9.7,1.3,2.7,5.3,15.3c4.5,13.7,4.7,14.1,6.4,13.8c1.9-0.3-0.3-3.6-0.5-5.7c-0.2-3-1.2-5.3-2.4-7.6
				c2.9,3.4,1.7,3.7,3,3.6c0.3,0-2.4-7.7-3.5-11.5c-0.6-2.2-3.2-2.2,0.1,3.6C113.9,576.8,113.9,578.2,113.5,579.7z M9.3,661.9
				c-4.2-4.9-1.7,6.8,0.8,11c2.6,4.3,2.4,6.9,5.3,11.2c3.4,5-0.1,5.8,2.5,14.4c1.3,4.3,4.8,17.6,7,22.1c1.3,2.8,2.2,1.6,2.5,3.9
				c0.8,5.4,1.9,6.2,1,8.5c-0.3,1,0.9,3.9,2.1,7.8c1.3,4.2,2.2,2.5,3.3,5.9c1.1,3.4,3.6,12.6,5.9,17.3c1.6,3.4-0.7,4.4,1.6,8.4
				c2.1,3.6,2.6,8.4,4.9,13.3c0.9,1.9,3.9,9.6,4.8,14.1c0.2,0.7,3.2,7.9-0.1-6.2c-1.3-5.7,1.4-0.7-1-10.9c1.2-2.9,1.6-6,0.6-9.6
				c-0.7-2.7-0.2-4,0.3-4.1c0.7-0.1,0.8,1.2,2.1,7.5c0.7,3.2,0.2,2.2,3.9,13.2c0.2,0.7,0.9,1,1.2,0c0.8-2.3-2.1-14.6-4-18.3
				c-1.2-2.4-0.1-1.2-2.4-6.9c-1.7-1.6-0.6-3.7-2.4-6.7c-0.2-0.4-1-0.2-1.1,0.2c-0.1,0.8-0.2,1.7-0.3,2.6c0,1,0.8,2.2,0.2,3.3
				c-2.3,1.3-2.8,1.9-3.3,0.9c-0.7-1.3-1.5-2.9-1.4-4.5c0.1-2.3-0.8-4.5-0.8-6.8c0-2.6-0.4-3.7-3.2-14.1c-2.9-10.7-4.7-3.2-7.4-11.9
				c-1.4-4.5-3.6-8.4-0.7-8.7c2-0.3,0.5-3.4-1.4-10c-1-3.7-1.8-8-3.7-10.5c-1.8-1.7-4.1,0.4-4-2.8c0.2-6.2-4.5-9.9-3-14.7
				c0.2-0.6-0.1-1.8-0.2-2.7c-0.1-2-0.5-4-0.3-6.1c0.2-2.3-0.7-4.5-1.8-6.3c-4.7-3.3-3.5-14.9-6.9-17.2c-2.6-1.7-1.5-3.5-5.1-11.8
				c-2-4.6-2.3-7.9-3-6.4c-1.1,2.4,2.8,11.2,4,14c1,2.2,1.2,5,2.8,6.7c0.3,0.4,1.1,4.7,1.1,5.3c0.6,4.8,3.2,4.2,2.3,6.4
				C10.7,665.8,11.1,664.1,9.3,661.9z M60.7,834.8c1.7,4.4,1.2,8.8,4.3,14.3c1.4,2.4,2.5,4.5,2.7,7.5c0.4,6.4,3.3,5,3.4,12.2
				c0.1,4.5,1.8,8.9,2.5,13.5c0.4,2.7,1.9,1.9,4,4.1c0.9,0.9,0.6,2.6,1,3.9c0.8,2.4,1.6,4.7,2.4,7.1c0.1,0.3,0.9,0.7,1.1,0.1
				c1.9-7.3-3.3-6.2-3.4-14c0-1.4-1.5-3.5-1.7-4.2c-0.6-1.3,0.2-1.5,0.5-1.9c1.6-2-1.2-1.3-2.6-6.1c-3.3-11.7-4.2-12.9-4-16
				c0.2-2.5-1.4-4.8-1.6-6.6c-0.4-5.2-4.1-11.8-4.3-12.7c-0.5-3,0.3-6.2,3,1.8c2.5,7.1,0.6-0.2,4.6,11.8c1.9,5.6,2.7,6.5,2.4,9.1
				c-0.3,2.7,0.6,7.8,2.6,9c2.9,1.9,0.5,3.7,1.3,7.4c0.2,1,1,1.7,1.3,1.1c0.6-1,1.2-1.5,2.1-0.1c0.2,0.3,0.8-0.6,0.7-1.1
				c-3-12.1-1.4-10.4-3.2-12.3c-2.4-2.7,0.3-6.7-3.5-11.9c-1.2-1.7,1.3-3.2,0.1-9.1c-0.5-2.6-1.4-4.7-2.8-6.7c-2-3-3.7,2-2.9-5.7
				c0.3-2.7-1.6-2-2.3-4.9c-0.7-3.1-1.8-3-1.2-5.7c0.6-2.7-0.6-4.9-1-4.7c-5.8,2.5,0.3,5.3-2,8.3c-1,1.3,0.1,2.8,0.3,3.5
				c0.4,1.2-0.1,4.1-1.7,2.6c-0.9-0.9-1.8-1.9-2.7-2.7C58,823.4,59.4,831.5,60.7,834.8z M212.6,845c1.3,0.3,0.3-2.3,0-3.9
				c-0.4-1.7,0.6-2,0.9-2.3c1.2-1.3,0.3-2-1.4-7.3c-1.1-3.4-3.1-2.4-3-5c0.1-1.5-0.3-2.5-1.1-3.6c-0.5-0.7-0.6-2.1-1-3.2
				c-0.3-0.9-1.1-1.2-1.3-0.4c-0.3,0.7-0.4,1.6-1.1,1.5c-0.4-0.9-2-5.4-4.3-3.5c-0.7,0.5-0.9,1.4-0.6,2.8c0.3,1.7-0.1,3.7,1.1,5.2
				c0.4,3,2.2,5.3,2.2,8.5c0,2.4,3.6,0.7,3.3,3.3c-0.1,0.9-1.2,5,0.6,7.6c0.9,1.5-0.4,3.5,0.9,5.1c0.8,0.9,1.3,1.9,1.6,3.4
				c0.1,0.8,0.8,1.1,1,0.6c0.3-0.6,0.5-1.6,1-1.9C214.3,849.6,208.7,844.1,212.6,845z M133.6,709.6c-1.8,3.2,1.4,5.7,2.4,6.7
				c0.5,0.5,0.2,2.6-0.6,2.3c-0.6-0.2-1.1-0.6-1.7-0.9c-0.5-0.2-1,1-0.7,1.7c0.7,1.6,0.9,3.7,1.9,4.9c4.4,5.1,4.3,14.8,8.5,14
				c1.3-0.3-0.9-7.3-0.7-8.9c0.3-2.7-0.5-5.5-0.3-8.1c0.2-3.1-2.1-3.2-3.3-8.5c-0.2-1-0.7-1.6-1.2-2.1
				C135.3,708.1,135.1,707,133.6,709.6z M116,641.5c4.6,7.6,0.3,2.7,2.6,13.2c0.1,0.7-0.4,1-0.9,0.6c-0.4-0.3-0.8-0.9-1.2-1.1
				c-1.2-0.8-1.8,2.6-1.2,4.4c2.2,6.8,2.8,8.6,4,8c1-0.5,0.5-1.8,0.4-7.6c-0.1-2.8,2.7-0.5,1.5-4.9c-0.3-1.2-0.1-1.8,0.2-2.3
				c0.5-0.8,0.9,1,2.5,4.6c0.1,0.3,1,0.2,1-0.3c-0.5-4-1.2-4.8-3.9-11.5c-3.7-9.1,1.3-2.9-4.8-13.8c-0.7,1.9-0.7,0.3,0.1,4.8
				C116.6,637.8,116.7,639.8,116,641.5z M157.5,682.4c-0.4-0.6-1.1-0.3-1.2,0.6c-0.1,2.7,1.4,4,2.9,8.7c0.6,1.9,1.9,7.9,2,8
				c2.4,6.6,1.3,4.5,4.5,7.8c0.8,0.8,1.3,1.6,0.4,2.3c-1.4,1.2-1.1,1.8,1.8,11.1c0.5,1.7,2.8,0.6,2.5-1.8c-1.4-13.5-1-13.6-2.1-14.3
				c-1-0.6-2.8,0.3-3.7-3C160.8,688.5,159.4,685.9,157.5,682.4z M89.1,891.1c1.2,1.4,2.6,3.2,2.8,2.1c0.8-3.6,0.4-4.8-1-6.7
				c-2-2.7-1.7,2.4-3.4,0.9c-3.6-3.3-1.9,2.2,0.1,7.8c2.5,6.6-0.7,4.3,0.5,7.9c0.6,1.8,1.2-2.1,2.3,0.8c0.4,1.1,1.3,3.5,2.2,2.8
				c1-0.8-1.7-9.1-3-11.1C88.7,894.1,88.8,892.7,89.1,891.1z M136.1,622.8C136.1,622.8,136.2,622.8,136.1,622.8c1.1,3.1,1,3,2.2,5.5
				c0,0.1,0.6-0.2,0.6-0.4c0.4-2.5-2.1-6.7-0.3-8.1c0.8-0.6,0.1-2.7-0.3-3.6c-1.3-2.9,0.5-3.8-0.1-5.7c-2.4-7.8-2.8-8.3-3.4-7.8
				c-0.4,0.3-1.3,3.4,0.3,5.4c0.5,0.6,0.6,0.2,1.9,7.1c0,0.2-0.3,0.7-0.5,0.7C134.6,615.6,133.5,612.6,136.1,622.8z M60.7,930.6
				c-1.2-3.2-2.2-5.9-3.2-8.7c-1.6-4.4-3.6-5.1-3.5-4.1c0.1,1.3,0.4,2.7,0.4,4c0,1.4-0.2,2.7,0.6,3.9c0.7,1.2,0.2,2.7,0.8,4
				C59,937.1,58.1,935.8,60.7,930.6z M41,702.5c1.5,0.7-1.6-7.7-3.7-13.8c-0.3-0.7-2.3-3.3-2.7-3.7c-0.9-1-1.1,0.8-0.9,1.5
				C37.6,701,38,701,41,702.5z M101.1,584.3c-0.2-7.5-7.1-16.1-4.6-7.7c0.6,2.1,0.9,4,0,5.7c-0.1,0.2-0.2,0.8-0.1,1.2
				c0.8,3.5,1.2,4.4,1.9,3.2c1.3-2.2,1.7,1,2.8,2.4c1.2,1.5,2.9-1.5,2.1-2.6C102.6,585.8,101.9,585.2,101.1,584.3z M32,706
				c-1.4,4.8,1.2,4.2,0.9,7.6c-0.2,2.8,1.2,7.7,3.4,9.5c0.6,0.5,1.6-1.3,1.1-4c-1.6-7.7-6.4-11.6-2.5-11.6c0.5,0,0.3-1.2,0-1.5
				C33.9,705.1,32.5,704.4,32,706z M211.7,1392.3c1.4,2.7,1.5-0.8,2.5-1.8c1.9-1.9-1.2-7.4-3.9-8.7
				C207.6,1380.6,209.7,1388.5,211.7,1392.3z M152.1,701.7c-0.3-0.7-1.6-1.1-1.7,1.2c-0.1,1.3,0.5,2.1,0.9,3.2c0.8,2.6,0.3,2-0.4,3
				c-0.7,0.9-0.3,3.2,1.5,3.5c2,0.3,1.7,3.8,3.5,4c1,0.1,1-5.3-0.8-7.7C153.2,706.6,153.5,705.2,152.1,701.7z M249.5,1396.8
				c-0.5-1.5-2.3,0.3-1.7,2.5c2.7,9.9,1.5,7.2,3.2,10.1c0.8,1.4,2.1-1.4,1.7-3C251.7,1402.6,251.5,1402.1,249.5,1396.8z
				 M126.6,662.3c-2.1,1.2-3.6,3.3,1.2,10c0.5,0.7,2.2,0.7,1.7-1.7C128.5,665.7,128.2,663,126.6,662.3z M191,796.2
				c1.3,3.9,4.5,0,3.6-2.3C192.1,786.9,188.4,788,191,796.2z M350.2,1379.2c-0.3,0-1.1,1.1-1,1.6c0.8,8.4,0.8,9.4,1.6,9.3
				c1.4-0.1,2.6-3.8,1.7-5.2C351.1,1382.9,351.5,1379.2,350.2,1379.2z M41.1,732.8c0.3-1.7-0.3-5.9-3.8-7.1
				c-1.5-0.5-0.8,6.4,1.5,7.1C40.1,733.2,40.9,733.6,41.1,732.8z M292,1070.4c0-0.1-0.2-0.1-0.4-0.1c-1.5-0.5,0.5,7.9,2.6,11.7
				C294.5,1082.6,297.6,1084.5,292,1070.4z M231.8,908.2c-0.5-1.3-0.8-2.5-1.3-3.4c-0.6-1.2-2.2-2.1-2.1-1c0.4,4.5,2.4,9.7,3.2,8.3
				C232.5,910.7,232.2,910.4,231.8,908.2z M45.9,745.6c-0.7-2.5-2.8-0.1-1.9,2c0.6,1.2,2.8,6.4,3.6,6.3
				C48.3,753.7,48.1,753.8,45.9,745.6z M108.4,583.3c-0.5-1.4-2.9-1,0.3,7.3c0.6,1.6,2.2,1.2,1.9-0.9
				C110.2,587.5,109.3,585.5,108.4,583.3z M120.7,618.3c-0.6-1.7-1.5-2.1-1.7-1.6c-0.9,2.2,1.1,7.7,2.3,9.3
				C122.3,627.2,123.1,624.8,120.7,618.3z M250.4,1392.6c0.3,4.6,3.9,6.2,4,4.1C254.5,1392.4,250.2,1389.5,250.4,1392.6z
				 M360.6,1382.7c-0.4-0.7-1.3-0.4-1.4,0.3c-0.3,1.9,0.1,4,0.2,5.9c0,0.8,1.3,1.9,1.5,0.5C361.6,1384.8,361.7,1384.4,360.6,1382.7z
				 M-17.5,612.1c0.5,1.6,1.5,0.3,1.4-0.4C-17.3,602.4-21.7,599.6-17.5,612.1z M202,800.7c-0.6-1.4-1.3-3-2-4.6
				c-0.3-0.7-0.8-0.1-0.8,0.5c0.1,2.6,1.5,7.1,3,6.8C202.4,803.4,202.1,801.7,202,800.7z M297,1096c0,0.8,0.2,1.7,0.4,2.6
				c0.1,0.3,0.4,0.6,0.7,0.8c0.4,0.3,1.2-2.3,1.3-2.8C300,1094,297.5,1087.9,297,1096z M55.8,812.2c-2.2,5.6,3.9,12.1,3,8.4
				C58.1,817.8,57.2,815.1,55.8,812.2z M84,900.3c-0.6-0.7-1.6,0.4-1.3,2.1C84.3,912.2,86.9,903.8,84,900.3z M195.2,803.2
				c-0.4-0.8-1.5,0-1,2.3c0.3,1.6,2.2,6.1,2.8,5C197.9,809,196.2,805.5,195.2,803.2z M-26.8,624.5c-0.4-0.9-1.2-0.4-1.1,0.4
				c0.2,3.5,1.8,7.1,2.6,6.4C-24.6,630.7-25.9,626.4-26.8,624.5z M106.2,606.4c-0.2-0.7-1.5-1.6-1.7-0.5c-0.3,1.3-0.4,1.4,2.3,7.8
				c0.2,0.4,1,0.5,0.8-0.2C107.6,613.5,106.2,606.4,106.2,606.4z M29.4,693.7c-0.3-0.8-0.5-1.2-0.6-1.6c-0.4-1-1.5-0.9-1.3,0.6
				C27.7,694.4,30.1,701.8,29.4,693.7z M126.3,672.8c-1.3-2.4-0.8-2.6-1.8-2.5c-0.3,0,0.2,4,2.2,7.6
				C127.8,679.9,127.8,675.5,126.3,672.8z M237.3,1400c-0.7-0.4-1.1,0.6-0.8,1.2c0.3,0.5,2,4.3,2.3,3.9
				C240.1,1403.3,238.2,1400.5,237.3,1400z M188,782.4c-0.7,0.2-1,2.8,0.9,5c0.4,0.5,1.2-0.3,1.1-1.1
				C189.8,783.5,188.7,782.2,188,782.4z M217.6,1396.4c-1-3.7-2.4-2.6-2.2-1.5C216.7,1401.1,218.2,1398.5,217.6,1396.4z
				 M231.5,1398.3c-0.8-1.3-1.8,2.3,0.5,4.4c0.4,0.4,0.8,0.1,1-1.1C233.1,1400.9,231.9,1399,231.5,1398.3z M-6.7,649.2
				c0.6-2.1-0.1-5.4-2-5C-9.4,644.4-7.2,651.1-6.7,649.2z M237.1,1390.5c-0.8-1.2-3.7,0.1-0.4,3
				C237.5,1394.2,238.2,1392.2,237.1,1390.5z M105,590.8c-1.2-0.9-0.7,4.2,1.4,4.2C107,595,106.6,592,105,590.8z M176.5,780.4
				c0.2,1.7,1.5,4.1,1.8,2.9C179.3,780,176.1,777.5,176.5,780.4z M75.5,918.7c-0.1,0.5-0.3,1-0.3,1.6c0,1.2,0.8,2,1.1,1.6
				c0.5-0.5,0.6-2,0.1-2.9C76.3,918.8,75.9,918.8,75.5,918.7z M42.2,708.5c-0.6-2.4-2.1-2.1-1.9-0.7C41,713.3,42.8,710.9,42.2,708.5
				z M86.4,877.2c0.1,1.3,1.3,2.1,1.6,1.6c0.5-0.7,0.3-2.8-0.3-3.5C87,874.6,86.2,875.4,86.4,877.2z M239.7,907
				c-0.5-0.5-0.9,2.9,0.5,3.7C240.8,911,241.3,908.5,239.7,907z M77.4,957.2c0.2-2.1-1.5-3.6-1.7-2.3
				C75.2,958.1,77.2,959.1,77.4,957.2z M301.3,1104.4c0.3,0.6,1,0.6,1.1-0.5C302.5,1101.4,299.4,1100.4,301.3,1104.4z M135.4,697.2
				c-2.2-2-2.8,4.3,0.1,1.8C135.6,698.8,135.5,697.3,135.4,697.2z M103.4,571.7c-0.3-0.2-0.9,0.2-0.7,0.8c0.2,0.5,0.8,2.4,1,2.2
				C104.8,573.7,104.1,572.1,103.4,571.7z M232.3,915c-0.8,0.4-0.3,2.8,0.6,2.7C233.7,917.6,233.1,914.6,232.3,915z M86.5,913.5
				c0.5-1.9-1.1-4.1-1.3-3C84.6,912.8,86.3,914.3,86.5,913.5z M21.2,472c-0.5-0.4-0.9,2.1,0.1,2.9C22.2,475.7,22.3,473,21.2,472z
				 M72.1,824.2c-0.4-1.2-1.1-0.2-1,0.6C71.6,828,74.2,829.8,72.1,824.2z M105,602c0.3-1.5,0.6-2.1-0.3-2.7c-0.4-0.2-0.7,0.4-0.6,1
				C104.3,600.8,104.6,601.2,105,602z M153.6,717.2c-1-1.3-1.6,1.4-0.4,2.3C153.8,719.9,154.3,718,153.6,717.2z M107.4,598.3
				c-0.6-0.3-0.9,1.7,0.2,2.3C108.1,600.9,108.5,598.9,107.4,598.3z M112.8,598.2c-0.2-0.3-0.4-0.7-0.7-0.8
				C111.1,597,112.1,601.1,112.8,598.2z M139.9,650.2c-0.7-0.2-0.3,2.6,0.7,2.5C141.1,652.7,141.1,650.4,139.9,650.2z M104.5,580
				c-0.3,1.5,0.8,3.4,1.2,1.3C105.8,580.6,104.7,579.4,104.5,580z M181.5,782.2c-2.4-2.2-1,2.6-0.4,1.5
				C181.3,783.3,181.3,782.7,181.5,782.2z M374.2,1332.3c-0.9,0.7-0.1,2.1,0.5,2.1C375.7,1334.3,375.2,1331.4,374.2,1332.3z
				 M4.6,676.8c0.8,0.5,0.4-1.4-0.2-1.7C3.9,674.8,3.8,676.3,4.6,676.8z M254,977.9c-0.6,0.2-0.7,0.1-0.4,2.2c0.1,0.5,0.7,0.9,0.8,0
				C254.4,979.4,254.4,977.8,254,977.9z M123.4,675.7c-1,0.2-0.2,1.9,0.2,1.7C124,677.1,124.1,675.6,123.4,675.7z M297,1087.7
				c-0.4,0-0.4,1.3,0.2,1C297.4,1088.5,297.2,1087.7,297,1087.7z M-12.2,637.3c-0.2-0.3-0.6-0.4-0.6,0c-0.3,2.7,1.6,4.7,1.5,3.7
				C-11.4,639.2-11.4,638.7-12.2,637.3z M122.5,662.8c-0.4,0-0.7,1.1-0.3,2.1c0.3,0.6,1,0.6,1,0.1
				C123.4,664,122.8,662.8,122.5,662.8z M-40.7,519c0,1.1,0.3,1.5,0.4,1.2C-40.2,519.8-40.5,519.3-40.7,519z M-47.4,542.8
				c-0.3-0.4-0.8,0.3-0.2,0.7C-47.4,543.6-47.2,543.1-47.4,542.8z M50.5,502.2c0.4,1.2,0.9,1.2,1.1,0.3
				C51.8,501.4,50.1,500.8,50.5,502.2z M-20.5,597.5c-0.1,0.3-0.4,0.5-0.4,0.8C-20.8,599.4-19.2,599.8-20.5,597.5z M197.8,791.4
				c0.3-1.5-0.7-2.1-1-1.6C196.5,790.4,197.6,792.4,197.8,791.4z M63.1,913.6c0,1.8,0.8,2.5,1,1.9C64.4,914.1,63,912.2,63.1,913.6z
				 M66.3,913.4c-0.2-0.4-0.5-0.6-0.7-0.1c-0.1,0.3,0,0.8,0,1.2C66.6,914.6,66.4,914.8,66.3,913.4z M65.1,932.4
				c0.4,0.5,0.9,0.4,0.6-0.6C65.4,930.6,64.5,931.6,65.1,932.4z M143,628.2c0.1,0.2,0.5,0.2,0.7,0.3
				C143.4,625.3,142.5,627.3,143,628.2z M142.3,621.8c-0.3,0-0.5-0.1-0.8-0.1c0.1,0.4,0.1,0.9,0.2,1.3c0.2,0.6,0.5,0.7,0.7,0.1
				C142.4,622.8,142.3,622.3,142.3,621.8z M53,781.2c-0.3,0-0.3,1.4,0.3,1.4C53.7,782.5,53.6,781.2,53,781.2z M60.7,796.4
				c-0.2-0.3-0.4-0.6-0.6-0.9C59.7,796.7,60.3,797.3,60.7,796.4z M158.3,786c-0.1,0-0.2,0.4-0.2,0.4C159,788,158.9,785.8,158.3,786z
				 M24.8,681.9c-0.1,0.1-0.2,0.2-0.2,0.3c0.1,0.5,0.3,0.6,0.4,0.1C25,682.3,24.9,682.1,24.8,681.9z M115.7,638.4
				c-0.2,0.2-0.3,0.5-0.4,0.8C116.5,640.3,116.1,637.9,115.7,638.4z M164.1,696.3c0.3,0.7,1.2,0,0.8-0.9
				C164.5,694.5,163.7,695.6,164.1,696.3z M99.7,1023.1c-0.1-0.1-0.3-0.4-0.3-0.4c-0.7,0.8-0.4,0.8,0.1,1.3
				C99.6,1023.7,99.7,1023.4,99.7,1023.1z M129.5,685.6c0.1-0.1,0.2-0.3,0.2-0.4C129.6,684,128.6,684.4,129.5,685.6z M88.6,515
				c-0.1,1.5-0.3,1,0.6,2C89.3,515.6,89.4,516,88.6,515z M-49.7,548c-0.3,0.3-0.1,0.8,0.2,0.8C-49.1,548.8-49.3,547.6-49.7,548z
				 M54.1,807.7c-0.4,0,0,1.4,0.3,1C54.6,808.5,54.4,807.7,54.1,807.7z M128.2,583.9c-0.1-0.3-0.5-0.2-0.3,0.4
				C128,585.2,128.5,584.6,128.2,583.9z M218.8,1419.9l-0.1-0.4C218.4,1419.8,218.3,1419.7,218.8,1419.9z M340,1396.5
				c-0.3,0.1-0.1,1.3,0.3,0.8C340.5,1397.1,340.2,1396.4,340,1396.5z M84.1,511.4l-0.3,0.1C84.1,512,84.1,512.1,84.1,511.4z
				 M170.8,1284.4c-0.3-0.5-0.5-0.4-0.5,0.2c0,0.1,0.2,0.2,0.3,0.3C170.7,1284.8,170.8,1284.6,170.8,1284.4z M42.8,473.5l-0.1-0.4
				C42.5,473.5,42.5,473.4,42.8,473.5z M366.8,1321.4l0.2-0.1C366.8,1320.9,366.9,1320.9,366.8,1321.4z M221.9,1411.3l0.1,0.4
				C222.2,1411.4,222.2,1411.5,221.9,1411.3z M-30.1,631.9l-0.2,0.1C-30.1,632.3-30.1,632.4-30.1,631.9z"/>
			<path class="st0" d="M14.6,773.3c1.6,2.5,2.5,5.6,3.5,8.6c3,9.5,4.3,8,3.7,10.4c-0.4,1.8-1.6,2.5-1,4.6
				c2.1,6.3,6.7,18.7,3.9,16.8c-1.8-1.2-2.5-6-2.6-8c-0.1-4-1.3-5.5-3.8-10.5c-1.4-2.8-2.9,0.4-2.6,1.4c0.9,3,1,6.5,2.9,8.9
				c0.2,0.2,0.4,1.1,0.3,1.2c-1.4,2,0.9,4.5-0.7,6.7c-3.4-10-3.7-10.8-4.4-12.1c-2.6-4.6-1.7-7-3.9-13.7
				c-7.7-23.3-12.3-43.8-1.8-13.2c1.5,4.3,0.9-0.4,4.9,13.2c0.3,1.1,0.8,2.1,1.2,3.1c0.1,0.1,0.3,0.1,0.4,0.2
				c2.9,1.7-2.2-20.7-3.8-26.1c-0.4-1.2-0.3-2.3,0.2-3.1C11.2,761.5,14.2,772.6,14.6,773.3z"/>
			<path class="st0" d="M-22,679.6c2.3,7.6,5.1,4.4,5.6,9.9c0.4,4.9,1.2,5.6,2.3,10.7c0.9,4,1.8,2.8,3.4,7.7
				c2.1,6.5,2.9,7.5,3.3,10.4c1.1,9,3.4,10,1.8,12.1c-0.8,1,2.1,12.3-3.3-4.7c-2.9-9.1-3.6-7.2-3.8-10.6c-0.1-2.1-1.7-2.7-1.9-5.6
				c-0.3-4.6-1.4-7.5-8.5-31.8C-24,675-23.3,675.5-22,679.6z"/>
			<path class="st0" d="M283.1,1020.6c-1.3-4.8-1.5-1.9-3.8-9.2c-5.9-18.2-16.7-42.9-18.3-50.6c-0.8-3.9,8.7,16.8,15,37.5
				c1.7,5.4,4.1,9.3,5.5,14.5c1.2,4.6,1.9,2.1,4.5,11.9c0.6,2.4,1.4,4.7,2.2,7.2c-1,0.1-1.7,0.3-2.3,0.1c-0.5-0.1-2-1.4-1.3-3.4
				c0.5-1.2,0.5-1.2-0.5-2.5C284.3,1025.9,283.3,1021.3,283.1,1020.6z"/>
			<path class="st0" d="M151.9,631.4c-0.8-2.8-0.3-5.4-0.1-8c0,0,0.5,0,0.7,0.2c2.4,1.9,1.2,7.6,1.1,8.8c2.1,0.4,2.9,1,3.6-1.4
				c0.6-1.9,1.9,2.5,1.9,3.4c0.1,1.9,1,2.2,1.8,2.9c0.2,1.8,0.1,3.5,0.1,5.3c0.1,6.1,0.4,5.2,0,5.8c-0.7,1-0.9-1-1.9-3.3
				c-2-4.6-1.4,3.4-4.3-2.8c-3.1-6.6-2-5.1-3.2-6C151.7,637.1,152.6,633.8,151.9,631.4z"/>
			<path class="st0" d="M131.3,567.7c0.6-1.2,1.4,2,2,1.8c0.1,0,0.1-0.6,0.1-1c-0.2-2.6,0.1-3.1,1.5-3.4c0.6-0.1,1.2,0.6,1.2,1.6
				c0.2,4.1,1.2,2.7,1.5,3.8c0.1,0.2,0.1,0.6,0,0.7c-1.2,1.6-0.9,4.4-1.1,6.7c-0.5,4.4,3.1,3.7,2.5,6.7c-0.6,2.6,0.5,2.8,1.1,5.7
				c0.2,1.1-1.1,1.7-1.5,1c-2.3-4.8-2.7-4.7-3-6.4c-0.3-1.9-0.7-3.6-1.6-5.1c-0.2-0.3-0.4-0.9-0.4-1.3c-0.1-1.9-0.9-3.6-1.1-5.3
				C132.2,570.3,131,570.1,131.3,567.7z"/>
			<path class="st0" d="M-0.7,784.7c-1.7-6.9-2.7-8.6-4.6-15.7c0-0.2,0.5-0.6,0.6-0.4c2.1,3.8,0.7,3.9,3.5,10.7
				c0.3,0.7,0.5,3.3,1.3,4.5c1.5,2.3,2.5,5,3.4,7.8c0.4,1.5,1.3,1.9,2,2.8c1.1,1.4-0.8,4.6-1.9,0.6c-1.3-4.4-2.8-1.9-3.4-1.9
				c-1,0-2.3-4.1-1.7-7.2C-2.1,785.6-0.3,786.2-0.7,784.7z"/>
			<path class="st0" d="M43.4,915.9c0.1,0,0.4,0,0.4,0.1c4.2,10.5,4.3,10.7,3.6,10.9c-0.6,0.2-0.5-0.7-2.3-3.2
				c-0.9-1.3-1.3,2.1-2.3,0.7c-1.1-1.6-0.1,0.2-5.4-9.4c-0.1-1.6,1.3-0.8,1.6-1.9c1.5,1.5,2.3,5.5,3.5,4.8
				C43.1,917.7,43.2,916.6,43.4,915.9z"/>
			<path class="st0" d="M11.5,724.5c0.9,0.8,2.2,3,1.4,3.7c-2.2,1.8-1.6-2.8-5.3-2.6c-1.1-2.2-2-4.8-3.7-6.3
				c-0.5-0.5-1.3-2.2-1.2-4.3c0-0.5,0.8-0.9,1-0.5c0.6,1.1,1.1,2.5,1.8,3.3c2,2.1,1.6,5.3,3.1,3.2C9.7,719.3,9.2,722.6,11.5,724.5z"
				/>
			<path class="st0" d="M38,816c-0.3-1.1-0.5-3.2-0.5-4c0-0.7,0.9-1.1,1.2-0.3c1.9,5.5,1.9,7.6,3.9,8.3c1.2,0.4,1.4,2,1,2.3
				C40.1,825.5,41.1,826.7,38,816z"/>
			<path class="st0" d="M182,715.6c-0.2,1.3-2-0.9-2.3-2.3c-0.5-2.2-0.9-4.3-2.2-6c-0.9-1.2-0.8-3.7-0.1-4.9
				c0.3-0.5,1.4-0.7,1.7,0.5c1.1,3.5,0.4,4.5,1.2,5.9C182.4,712.2,182.7,710.2,182,715.6z"/>
			<path class="st0" d="M9,703.5c-0.4-1.4-1.3-3.1-1-4.5c0.3-1.2,0.9,0,2.8,2.6c1.1,1.5,1.1,2,1.8,7.1c0.3,2-1.7,0.7-3.3,0.1
				C9.6,708.9,9.9,706.4,9,703.5z"/>
			<path class="st0" d="M15.5,721.2c2.7,2.5,3.6,8.4,4.2,12.4c0.3,1.6-1.5,1.2-1.9,0.1C15,726.7,16.5,729.1,15.5,721.2z"/>
			<path class="st0" d="M69.4,995.5c-3.6-4.3-1.9-6.3-5.7-12c-1.2-1.9,1.2-2.6,2-3.6c0.6,2.5,2,9.9,4.6,15.8
				C70.1,995.3,69.7,995.8,69.4,995.5z"/>
			<path class="st0" d="M45.9,896.3c-1.7-3.8-2.8-1.1-3.5-4.2c-0.7-2.9-1-4.5,0-4.7c0.5-0.1,1,0.2,1.1,0.8c0.7,3,2.2,5.3,3.1,8.2
				c1.1,3.4,2.1,3.1,1.1,4.4C47.3,901.4,46.7,898,45.9,896.3z"/>
			<path class="st0" d="M44.7,864.5c1.6,0.9,1.5,3.6,3.4,2.9c2.2-0.8,1.5-1.7,2.6-0.3c0.1,0.1,0.1,0.5,0.1,0.6
				c-1.1,0.7-0.5,3.3-1.5,4.2c-0.8,0.8-0.6,1.1-5-6.1C44.1,865.5,44.3,864.3,44.7,864.5z"/>
			<path class="st0" d="M21.7,823.6c1.1,0.4,1.1,2.1,1.7,3.1c1.1,1.8,1.9,3.7,2,6.2c0.1,1.9,1.2,3.3,1.9,4.8
				c1.1,2.2-0.3,4.3-1.3,1.3C21.4,824.2,21.5,824.6,21.7,823.6z"/>
			<path class="st0" d="M-45.1,623c2.9,8.6,0.3,9.1-0.1,6.4c-1.3-7.3-0.9-9-2.5-12.8c-0.4-1-0.1-1.7,0.4-2.3
				C-47.4,614.4-47.1,617-45.1,623z"/>
			<path class="st0" d="M184.2,724.3c0.2,0,0.4,0,0.4,0c2,4,3.6,6.5,2.7,8.2c-1.3,2.5-3.5-1-3.1-1.9
				C185,728.7,184.7,726.5,184.2,724.3z"/>
			<path class="st0" d="M-25.3,711.6c-0.2-0.7,0.4-1.1,0.7-0.9c5.9,4.7,4.3,6.1,2.3,7.3C-23.2,718.5-23.6,717.7-25.3,711.6z"/>
			<path class="st0" d="M145.2,602c0.8,0.7,1.6,1.1,2.3,0.1c0.5-0.8,1.1,0.8,0.9,1.6c-0.3,1.7-0.8,1.1-1.2,3.8
				c-0.5,3.2-2.9,0.6-2.7-1.1C144.7,604.9,144.9,603.5,145.2,602z"/>
			<path class="st0" d="M27.4,791.1c1.4-0.7,2-0.4,0.8-5.7c-0.2-1,0.5-1,0.8-0.5s0.8,1.2,0.8,1.6c0,4.1,2.3,3.5,1.3,7.2
				c-1-0.5-2.1-1-3.2-1.7C27.6,791.8,27.5,790.5,27.4,791.1z"/>
			<path class="st0" d="M156.9,660.6c0.1,1,0.3,2.4,0.5,3.7c0.1,0.9-2,0.4-2.6-2.2C152.5,653.2,155.7,657.8,156.9,660.6z"/>
			<path class="st0" d="M167.6,680.3c0-0.7,0.7-0.3,0.9,0c0.8,2.1,2.5,4.3,1.7,6.7c-0.1,0.2-0.6,0-0.7-0.2
				C167.2,684.8,167.5,685.9,167.6,680.3z"/>
			<path class="st0" d="M23.3,783.3c-0.5,2.4-4.4-0.6-3.7-3.2c0.2-0.7,1.7-1.2,2.2-0.6C23.3,781.5,23.5,782.1,23.3,783.3z"/>
			<path class="st0" d="M44.9,835c-0.7,1.9-2.3,0.5-3.1,1.8c-1.6-3.7-0.1-6.1,0.3-5.5C43.1,832.5,44,833.7,44.9,835z"/>
			<path class="st0" d="M-1.7,771.5c0-0.8,0.7-1.9,1.3-0.6c1.8,3.9,1.6,3.9,1.2,5.3C0.3,777.9-1.8,774.8-1.7,771.5z"/>
			<path class="st0" d="M-5.2,697.5c4.4,10,6.2,21.9,0.3,2.6C-5.1,699.5-5,698.8-5.2,697.5z"/>
			<path class="st0" d="M77.1,1001.7c-0.4,1-1.9-1.4-2.3-4.2C74.5,995,79.3,995.7,77.1,1001.7z"/>
			<path class="st0" d="M-32.2,689.3c-1-2.2-1.7-4.5-2.9-6.5c-0.1-0.2-0.1-1.2-0.1-1.2c1.2-0.1,1.4,0.3,1.8,1.2
				C-30.6,689.1-31.8,690.3-32.2,689.3z"/>
			<path class="st0" d="M-19.8,729.1c-0.2-0.3-0.6-0.7-0.6-1c-0.3-2.3-1.5-4.2-1.5-6.5c0-0.2,0.5-0.5,0.6-0.4c0.2,0.3,0.5,0.6,0.6,1
				C-19.1,728.8-18.7,730.3-19.8,729.1z"/>
			<path class="st0" d="M28.8,763.2c1.2,1.6,1.1,3.8,0.6,3.9C27.1,767.9,27.4,761.1,28.8,763.2z"/>
			<path class="st0" d="M3,780.6c0.8,1.4,0.5,3.5,0.2,3.3c-0.6-0.3-1.1-2.5-0.9-3.3C2.4,780.4,2.8,780.3,3,780.6z"/>
			<path class="st0" d="M-2.9,762.5c0.4-0.3,0.9,1.3,1,1.9C-1.7,767.6-6.1,765.6-2.9,762.5z"/>
			<path class="st0" d="M24.1,760.6c-0.5-0.5-0.7-2.1,0.4-2.2C26,758.1,26.8,763.8,24.1,760.6z"/>
			<path class="st0" d="M27.9,799c0.3,0.6,0.3,1.4-0.1,1.7C24.4,803.7,26.5,796,27.9,799z"/>
			<path class="st0" d="M0.3,685.9c-0.8,0.2-0.8-1.6-0.8-2.4C-0.6,682.2,2.7,685.1,0.3,685.9z"/>
			<path class="st0" d="M194,778.2c-1.3-1.7,0.2-4.2,0.9-2.3C195.4,777.2,194.6,778.9,194,778.2z"/>
			<path class="st0" d="M128.8,653.4c2.8,3.1,2.2,2.2,2.4,3.6C130.3,657,130.9,657.9,128.8,653.4z"/>
			<path class="st0" d="M8.9,793.3c0.1,0.3,0.5,1.2,0.9,2.5C8.9,794.9,9.1,793.5,8.9,793.3z"/>
			<path class="st0" d="M246.8,923.7c-0.7-0.9-0.9-2.1-1-3.4C246.3,921.4,246.8,922.4,246.8,923.7z"/>
			<path class="st0" d="M-55.2,562.3c-1.2,0.1-1.4-3-0.8-2.5C-55.1,560.5-55.3,560.4-55.2,562.3z"/>
			<path class="st0" d="M-26.9,698.6c-0.7-2.1,0.7-2.8,1.1-0.9C-25,701.5-26.4,699.9-26.9,698.6z"/>
			<path class="st0" d="M41.6,469.9c-0.4-1.2-0.9-2.4-1.3-3.7c-0.1-0.4,0.2-1.4,0.6-1.1C42.4,466.7,40.6,467.2,41.6,469.9z"/>
			<path class="st0" d="M-28.5,699.6c-1-0.8-1.5-2-1.6-3.6C-30.2,694.9-28.7,695.3-28.5,699.6z"/>
			<path class="st0" d="M150.3,614.6c0.3,0.9-0.6,1.9-1.2,0.4C148.6,613.9,149.6,612.6,150.3,614.6z"/>
			<path class="st0" d="M125,554.5c0.2-0.2,0.3-0.7,0.5-0.7C126,553.9,126.6,556.8,125,554.5z"/>
			<path class="st0" d="M19.3,775.4c0.1,0.6-0.4,1.4-0.7,1.1C18.1,776,17.6,773.6,19.3,775.4z"/>
			<path class="st0" d="M9.8,825.7c-0.8,1.4-1.2-1.2-1.5-2.3C8.5,823.6,10,825.8,9.8,825.7z"/>
			<path class="st0" d="M161.9,661c0.3,0.8-0.3,1-0.6,0.4C160.8,660.4,161.6,660.1,161.9,661z"/>
			<path class="st0" d="M30.6,775c-0.1,0.6,0,1.1-0.2,1.4c-0.2,0.5-0.8,0.2-1-0.6C29,774.1,30,774.8,30.6,775z"/>
			<path class="st0" d="M3.9,708.9c0.3,1.2-0.6,2-1.2,0.4C2.4,708.5,3.5,707.3,3.9,708.9z"/>
			<path class="st0" d="M49.1,931.7c-0.3-0.6,0.1-1.3,0.5-0.4C49.9,931.9,51.3,936.3,49.1,931.7z"/>
			<path class="st0" d="M-48.5,608.6c0-0.4-0.2-0.9-0.3-1.3c0.8-0.1-0.2,1.3,0,2.3C-48.6,609.9-48.4,608.9-48.5,608.6z"/>
			<path class="st0" d="M107.1,523.5c-0.1,0.5-0.1,1-0.3,1.1c-0.3,0.2-1-0.5-1.2-1.5c-0.1-0.4-0.1-0.8-0.1-1.3
				C106.4,522,106,521.4,107.1,523.5z"/>
			<path class="st0" d="M81.2,496.8c-0.2-0.3-0.4-0.6-0.5-1c-0.1-0.6,0.1-0.9,0.4-0.6c0.2,0.2,0.4,0.5,0.6,0.8
				C81.5,496.3,81.3,496.6,81.2,496.8z"/>
			<path class="st0" d="M101.3,513c0.3-0.4,0.2-0.5,0.6,0.2C101.6,513.6,101.7,513.6,101.3,513z"/>
			<path class="st0" d="M180.7,723.8c-0.5,0.9-1.6-2.2-0.5-1.6C180.5,722.3,180.9,723.4,180.7,723.8z"/>
			<path class="st0" d="M44.1,861.3c-0.4-0.1-0.3-0.9-0.4-1.5C44.4,860.2,44.5,861.4,44.1,861.3z"/>
			<path class="st0" d="M37.3,909c0.1-0.6,0-0.5,0.3-0.5C37.6,909.2,37.7,909,37.3,909z"/>
			<path class="st0" d="M26.1,754.9c0.8,1,0.7,0.5,0.5,1.9C25.8,755.9,25.9,756.3,26.1,754.9z"/>
			<path class="st0" d="M250.6,933.4c-0.2-0.1-0.4-0.8-0.3-1C250.5,931.6,251.2,933.7,250.6,933.4z"/>
			<path class="st0" d="M258.1,953.9c-0.4-0.4-0.5-0.7-0.5-0.9C257.7,952.5,258.1,952.6,258.1,953.9z"/>
			<path class="st0" d="M140.5,663.9c-0.2,0.4-0.9-0.4-0.3-0.7C140.3,663.1,140.7,663.6,140.5,663.9z"/>
			<path class="st0" d="M-26.3,706.7c-0.4-0.2-0.2,0.1-0.5-1.2C-26.3,705.7-26.3,706.1-26.3,706.7z"/>
			<path class="st0" d="M129.6,565.1c-0.2-0.2-0.4-0.5-0.7-0.8c0.2-0.2,0.4-0.6,0.6-0.7C130.2,563.4,130.4,565.7,129.6,565.1z"/>
			<path class="st0" d="M35.1,864c-0.1,0.1-0.2,0.4-0.3,0.3C34.3,864,34.7,863.4,35.1,864z"/>
			<path class="st0" d="M0.4,751.6c0.2,1-0.5,0.6-0.5-0.2C-0.1,751.1,0.3,751.2,0.4,751.6z"/>
			<path class="st0" d="M-48.6,609.8c-0.1-0.2,1.1,4.2,1.2,4.5C-47.4,614.4-48.6,609.9-48.6,609.8z"/>
			<path class="st0" d="M9.3,708.7c0,0.4,0,0.8,0,1.2C8.4,709.4,9.9,709.2,9.3,708.7z"/>
			<path class="st0" d="M230.7,879.1c0.3,0.7-0.3,1.1-0.5,0.3C230.1,879,230.5,878.8,230.7,879.1z"/>
			<path class="st0" d="M168.5,676.8c-0.3-0.5-0.3-0.3-0.2-0.9C168.7,676.3,168.6,676.1,168.5,676.8z"/>
			<path class="st0" d="M8.3,741c-0.4-0.7-0.3-0.5-0.1-0.8C8.5,740.9,8.5,740.7,8.3,741z"/>
			<path class="st0" d="M26.9,791.8c-0.3,0.4-1-0.8-0.4-0.9c0.2-0.1,0.5,0.2,0.8,0.3C27.5,790.6,27.3,791.4,26.9,791.8z"/>
			<path class="st0" d="M-50.5,626.4c-0.1,0.1-0.1,0.2-0.2,0.3c-0.1-0.2-0.3-0.4-0.3-0.5C-50.8,625.8-50.7,625.8-50.5,626.4z"/>
			<path class="st0" d="M4.3,788.2c0-0.5,0.3-0.6,0.5-0.3C5.4,788.9,4.3,789.5,4.3,788.2z"/>
			<path class="st0" d="M6.4,791.1v0.5C6.2,791.1,6.2,791.2,6.4,791.1z"/>
			<path class="st0" d="M31.2,818.9v0.6C30.9,818.9,30.9,819.1,31.2,818.9z"/>
			<path class="st0" d="M42.4,840.3c0,0.2,0,0.4,0,0.5C41.7,840.3,42.1,839.4,42.4,840.3z"/>
			<path class="st0" d="M56,964.2l0.2-0.1C56.2,964.8,56.3,964.8,56,964.2z"/>
			<path class="st0" d="M-5.7,489.2c-0.1-0.2-0.3-0.3-0.3-0.5C-6,487.6-5.5,488.3-5.7,489.2z"/>
			<path class="st0" d="M-5,475.4c-1-0.9-1.1-1-0.8-2.7C-6,472.7-5.1,475.6-5,475.4z"/>
			<path class="st0" d="M11.2,761.6C11.2,760.2,10.2,760.9,11.2,761.6C11.2,761.4,11.2,761.6,11.2,761.6z"/>
			<path class="st0" d="M59.9,975.7c-0.3,0.7-0.8-0.7-0.4-0.9C59.8,974.7,60,975.5,59.9,975.7z"/>
			<path class="st0" d="M159.9,671.3v0.4C159.7,671.3,159.7,671.4,159.9,671.3z"/>
			<path class="st0" d="M10,825.8v0.4C9.9,825.8,9.8,825.7,10,825.8z"/>
			<path class="st0" d="M284.1,1026.2l-0.3-0.1C284.2,1026.1,284.2,1026.1,284.1,1026.2z"/>
			<path class="st0" d="M52.5,953.9h-0.2C52.4,953.9,52.4,953.9,52.5,953.9z"/>
			<path class="st0" d="M148.5,618.4l-0.1-0.4C148.7,618.2,148.7,618.1,148.5,618.4z"/>
			<path class="st0" d="M52.2,953.8l0.2,0.2C52.2,953.8,52.3,954.1,52.2,953.8z"/>
			<path class="st0" d="M94.2,510.3c0,0,0.1,0.3,0,0.4s-0.2,0.2-0.3,0.3C94.4,511.4,93.6,510.3,94.2,510.3z"/>
			<path class="st0" d="M78,501.4c0,0.2,0,0.3,0.1,0.5C78,501.6,78,501.3,78,501.4z"/>
			<path class="st0" d="M70.3,995.6l-0.1,0.3C70.2,995.4,70.2,995.5,70.3,995.6z"/>
			<path class="st0" d="M-1.7,786.2c0.2,0.3,0.2,0.2,0.1-0.3C-1.7,785.9-1.4,785.9-1.7,786.2z"/>
			<path class="st0" d="M45.2,773.6c-0.5-0.2-0.5-0.8-1-3C43.6,768.2,46,773.9,45.2,773.6z"/>
			<path class="st0" d="M29.6,716.7c-0.2-0.4-0.2-0.3,0-0.7C29.8,716.4,29.8,716.3,29.6,716.7z"/>
			<path class="st0" d="M209.2,834.7c-0.4-0.1-0.9,0-1.2-0.3c-0.2-0.3-1.9-2.8-1.8-3.2c0.4-1.8,0.1-3.9,0-5.9c0-0.3,0.6-0.5,0.6-0.3
				C209.4,830.2,209,829.1,209.2,834.7z"/>
			<path class="st0" d="M209.1,838.4c-0.1-0.5,0.4-1.2,0.6-0.6C211.1,841.5,209.4,840.5,209.1,838.4z"/>
		</g>
	</g>
</g>
</svg>
