<?xml version="1.0" encoding="utf-8"?>
<!-- Generator: Adobe Illustrator 24.0.0, SVG Export Plug-In . SVG Version: 6.00 Build 0)  -->
<svg version="1.1" xmlns="http://www.w3.org/2000/svg" xmlns:xlink="http://www.w3.org/1999/xlink" x="0px" y="0px"
	 viewBox="0 0 1920 1080" style="enable-background:new 0 0 1920 1080;" xml:space="preserve">
<style type="text/css">
	.st0{fill:#FFFFFF;}
	.st1{clip-path:url(#SVGID_2_);}
	.st2{clip-path:url(#SVGID_7_);}
	.st3{clip-path:url(#SVGID_13_);}
	.st4{fill-rule:evenodd;clip-rule:evenodd;fill:#EBFF29;}
	.st5{fill:none;stroke:#232323;stroke-width:2;stroke-miterlimit:10;}
	.st6{fill:none;stroke:#BCBCBC;stroke-width:2;stroke-miterlimit:10;}
	.st7{clip-path:url(#SVGID_47_);fill:#232323;}
	.st8{clip-path:url(#SVGID_49_);fill:#232323;}
	.st9{clip-path:url(#SVGID_51_);fill:#232323;}
	.st10{clip-path:url(#SVGID_53_);fill:#232323;}
	.st11{fill:#10FECC;}
	.st12{fill:#FF445A;}
	.st13{fill:#EBFF29;}
	.st14{fill:#4EFF45;}
	.st15{fill:#232323;}
	.st16{fill:#FFFFFF;stroke:#232323;stroke-miterlimit:10;}
	.st17{fill-rule:evenodd;clip-rule:evenodd;fill:#202020;}
	.st18{fill-rule:evenodd;clip-rule:evenodd;fill:#FFFFFF;}
	.st19{fill-rule:evenodd;clip-rule:evenodd;fill:#232323;}
	.st20{fill:none;}
	.st21{clip-path:url(#SVGID_119_);fill:#232323;}
	.st22{clip-path:url(#SVGID_121_);fill:#232323;}
	.st23{clip-path:url(#SVGID_123_);fill:#232323;}
	.st24{clip-path:url(#SVGID_125_);fill:#232323;}
	.st25{clip-path:url(#SVGID_191_);fill:#232323;}
	.st26{clip-path:url(#SVGID_193_);fill:#232323;}
	.st27{clip-path:url(#SVGID_195_);fill:#232323;}
	.st28{clip-path:url(#SVGID_197_);fill:#232323;}
	.st29{clip-path:url(#SVGID_263_);fill:#232323;}
	.st30{clip-path:url(#SVGID_265_);fill:#232323;}
	.st31{clip-path:url(#SVGID_267_);fill:#232323;}
	.st32{clip-path:url(#SVGID_269_);fill:#232323;}
	.st33{clip-path:url(#SVGID_335_);fill:#232323;}
	.st34{clip-path:url(#SVGID_337_);fill:#232323;}
	.st35{clip-path:url(#SVGID_339_);fill:#232323;}
	.st36{clip-path:url(#SVGID_341_);fill:#232323;}
	.st37{clip-path:url(#SVGID_407_);fill:#232323;}
	.st38{clip-path:url(#SVGID_409_);fill:#232323;}
	.st39{clip-path:url(#SVGID_411_);fill:#232323;}
	.st40{clip-path:url(#SVGID_413_);fill:#232323;}
	.st41{clip-path:url(#SVGID_455_);fill:url(#SVGID_456_);}
	.st42{clip-path:url(#SVGID_458_);fill:url(#SVGID_459_);}
	.st43{clip-path:url(#SVGID_461_);fill:url(#SVGID_462_);}
	.st44{clip-path:url(#SVGID_464_);fill:url(#SVGID_465_);}
	.st45{clip-path:url(#SVGID_483_);fill:url(#SVGID_484_);}
	.st46{clip-path:url(#SVGID_486_);fill:url(#SVGID_487_);}
	.st47{clip-path:url(#SVGID_489_);fill:url(#SVGID_490_);}
	.st48{clip-path:url(#SVGID_492_);fill:url(#SVGID_493_);}
	.st49{clip-path:url(#SVGID_511_);fill:url(#SVGID_512_);}
	.st50{clip-path:url(#SVGID_514_);fill:url(#SVGID_515_);}
	.st51{clip-path:url(#SVGID_517_);fill:url(#SVGID_518_);}
	.st52{clip-path:url(#SVGID_520_);fill:url(#SVGID_521_);}
	.st53{opacity:0.57;clip-path:url(#SVGID_531_);}
	.st54{clip-path:url(#SVGID_541_);fill:#232323;}
	.st55{clip-path:url(#SVGID_543_);fill:#232323;}
	.st56{clip-path:url(#SVGID_545_);fill:#232323;}
	.st57{clip-path:url(#SVGID_547_);fill:#232323;}
	.st58{fill:none;stroke:#FF445A;stroke-width:4;stroke-miterlimit:10;}
	.st59{clip-path:url(#SVGID_589_);fill:#232323;}
	.st60{clip-path:url(#SVGID_591_);fill:#232323;}
	.st61{clip-path:url(#SVGID_593_);fill:#232323;}
	.st62{clip-path:url(#SVGID_595_);fill:#232323;}
	.st63{clip-path:url(#SVGID_661_);fill:#232323;}
	.st64{clip-path:url(#SVGID_663_);fill:#232323;}
	.st65{clip-path:url(#SVGID_665_);fill:#232323;}
	.st66{clip-path:url(#SVGID_667_);fill:#232323;}
	.st67{clip-path:url(#SVGID_701_);}
	.st68{opacity:0.45;}
	.st69{fill:#202020;}
	.st70{clip-path:url(#SVGID_702_);}
	.st71{clip-path:url(#SVGID_703_);}
	.st72{clip-path:url(#SVGID_705_);}
	.st73{clip-path:url(#SVGID_707_);}
	.st74{clip-path:url(#SVGID_709_);}
	.st75{clip-path:url(#SVGID_710_);}
	.st76{clip-path:url(#SVGID_712_);}
	.st77{fill:#3C3C3C;}
	.st78{clip-path:url(#SVGID_714_);}
	.st79{fill-rule:evenodd;clip-rule:evenodd;fill:#4EFF45;}
	.st80{fill-rule:evenodd;clip-rule:evenodd;fill:#FF445A;}
	.st81{clip-path:url(#SVGID_715_);}
	.st82{clip-path:url(#SVGID_717_);}
	.st83{clip-path:url(#SVGID_718_);}
	.st84{clip-path:url(#SVGID_753_);fill:#232323;}
	.st85{clip-path:url(#SVGID_755_);fill:#232323;}
	.st86{clip-path:url(#SVGID_757_);fill:#232323;}
	.st87{clip-path:url(#SVGID_759_);fill:#232323;}
	.st88{clip-path:url(#SVGID_792_);}
	.st89{clip-path:url(#SVGID_826_);fill:#232323;}
	.st90{clip-path:url(#SVGID_828_);fill:#232323;}
	.st91{clip-path:url(#SVGID_830_);fill:#232323;}
	.st92{clip-path:url(#SVGID_832_);fill:#232323;}
	.st93{opacity:0.5;fill:#232323;}
	.st94{clip-path:url(#SVGID_866_);}
	.st95{clip-path:url(#SVGID_878_);fill:url(#SVGID_879_);}
	.st96{clip-path:url(#SVGID_881_);fill:url(#SVGID_882_);}
	.st97{clip-path:url(#SVGID_884_);fill:url(#SVGID_885_);}
	.st98{clip-path:url(#SVGID_887_);fill:url(#SVGID_888_);}
	.st99{opacity:0.6;}
	.st100{fill:#2D2D2D;}
</style>
<g id="Flyers">
</g>
<g id="Logo">
</g>
<g id="Colores">
</g>
<g id="Tipografía_1_">
</g>
<g id="Texturas">
</g>
<g id="Elementos">
</g>
<g id="Presentación">
	<g>
		<g>
			<path class="st100" d="M1099.9,435.1l-0.2-0.5c14.6,7.6,28.4,16.4,41.7,25c10.2,6.7,20.6,13.6,31.4,20.4
				c5.9,3.8,12,7.5,18.3,11.1c2.6,1.5,4.6,2,4.5,1c-0.1-1-2.3-3-4.8-4.5c-16-9.3-30.7-19.3-46.5-29.6c-13.5-8.8-27.6-17.7-43-25.8
				l0.5-0.1c-12.8-8.2-29.2-17.1-42.2-24.9c-13-7.8-22.6-14.6-21.6-19.1c-22.1-12.7-34.5-16.7-44.3-18.6c-9.8-1.9-17-1.8-29.4-5.5
				c22.9,12.5,48.8,25.8,73,38.3C1061.2,414.8,1083.6,426.5,1099.9,435.1z"/>
			<path class="st100" d="M1569.8,837.2c-2.4-1.5,15.6,22,15.5,16.6C1579.8,847.2,1570.1,831.1,1569.8,837.2z"/>
			<path class="st100" d="M70.1,334.4c0.7,1.9-0.3,3.7-3.4,5.3c14.6-2.1,20.3,0,38.6-3.5C106,329.9,88.4,331.7,70.1,334.4z"/>
			<path class="st100" d="M773.3,371.6c-12.7-4-23-6.3-29.5-6.2c4.9,1.6,2.2,1.9-0.6,2.2C751,371.5,775.8,377.8,773.3,371.6z"/>
			<path class="st100" d="M280.2,320c15.3-1.9,19.4-6.2,25.4-10.1c-15.8,0.5-23,3.1-29.9,5.7C282.3,316.3,274.7,317.4,280.2,320z"/>
			<path class="st100" d="M1229.6,620.7c0.4-2.2,6.9-2-4.1-8.8C1223,613.2,1223.8,615.9,1229.6,620.7z"/>
			<polygon class="st100" points="284.7,323.2 293.2,322.9 293.1,320.6 284.6,320.9 			"/>
			<path class="st100" d="M322.7,551.4c-0.2,2,2.8,2.9,7.2,3.3C330.1,552.8,327.1,551.8,322.7,551.4z"/>
			<path class="st100" d="M205.3,568.4c6.2-1.4,21-0.9,21.2-3.4C214,567.3,207.9,564.1,205.3,568.4z"/>
			<path class="st100" d="M700.8,621.6c0.1,1.4-1.5,2.9,2.4,4.3c1.3-1.3,6.1-0.1,7.8-1.2L700.8,621.6z"/>
			<path class="st100" d="M650.4,785.2c5,1.6,7.7,1.5,9.4,0.5C655.2,784.4,649.7,782.4,650.4,785.2z"/>
			<path class="st100" d="M939.5,926.5c1.5-0.9,5.2,1.3,7,0.7l-7.5-5.2C938.6,923.3,936.7,924.3,939.5,926.5z"/>
			<polygon class="st100" points="1106.2,1071.9 1104.5,1073.5 1110.7,1080.1 1112.4,1078.6 			"/>
			<path class="st100" d="M1725.7,1090.2c3-1.8,7,1.1,12.1,9.1c4.9,9.3,7.4,15.7,8.7,20.9l0.4-0.2c1,2.4,1.7,4.6,2.4,6.9
				c1,3.2,2.1,6.8,4,11.1l0.6,1.4c0.7,1.3,1.4,2.2,1.7,1.9c0.3-0.3,0-1.6-0.7-2.9c-1.6-3.4-2.5-6.3-3.6-9.6c-0.5-1.6-1-3.3-1.7-5.1
				c3-1.4,2.3-7.3,3-11.4c-9.3-23.4-18.3-36.1-25.4-43c-7.1-6.8-12.4-7.7-15.2-7.6C1717.9,1072.3,1724.5,1084.3,1725.7,1090.2z"/>
			<path class="st100" d="M1001,578.8C978.5,566.5,1002.4,586.6,1001,578.8L1001,578.8z"/>
			<path class="st100" d="M618.6,599.5c2.2,1.4,18.6,7,20.7,5C632.3,601,620.6,599.2,618.6,599.5z"/>
			<path class="st100" d="M771.4,646.8c-6.9-2-13.2-2.9-7.9-0.5c6.7,0.2,8.1,4,19.9,7.5C785.9,652,778.4,648.8,771.4,646.8z"/>
			<path class="st100" d="M793.7,656.6c4.4,3.8,15.1,6.6,20.1,7C802.2,660.2,800.1,657.1,793.7,656.6z"/>
			<path class="st100" d="M832.4,310.3c3.4,1.1,4.5,1.8,6.2,3c0.5,0.3,1.1,0.6,1.9,0.9c0.6,0.2,1.2,0.3,1.7,0.4
				c1.2,0.1,1.4-0.2,0.6-0.8c-1.7-1.2-4.2-3-10.2-4.9c-1.4-0.4-2.6-0.5-2.6-0.1C829.9,309.1,831,309.8,832.4,310.3z"/>
			<path class="st100" d="M1006.8,3159.6c10.4-4.7,21.2-9.6,32.1-15.6l-0.1,0.2c9.8-5.2,16.7-8,20.9-8.3c-3.6,3.9-11.8,8.9-9.3,11.3
				l0.6-0.2c-1.5,1.1-2.9,2-4.2,3c-1.7,1.2-1.9,2.1-0.5,2c1.4-0.1,3.8-1.2,5.4-2.4c1.4-1,2.6-1.9,4-2.9l-0.2,0.5
				c20.2-8.4,45.8-22.7,71.3-37.5c25.5-14.8,50.8-30.3,71.5-40c32.9-26.9,71-51.3,108-77.9c37-26.6,72.9-55.4,100-88.9
				c9.9-4.9,21.8-14.5,33.9-26.2c12.1-11.7,24.5-25.6,35.5-38.8c16-9.7,34.7-33.5,41.4-48l3-3.4l-0.4,0c3.2-3.4,6.3-7,9.4-10.6
				c17.9-17.2,31.4-43.1,54.7-71.1c6.4-7.5,11.8-15.6,17-23.5c2.4-3.7,4.7-7.2,7-10.6l0.1,0.7c7.7-12.2,18.1-27,27.1-41.1
				c8.1-12.5,15.2-24.5,18.7-33.1c1.1-2.2,2.2-4.2,3.7-6.8c1.3-0.2,5-5.9,4.5-7.6l2.7-4.4c11.4-15.9,25.4-43.5,30.6-39l0.2-0.3
				c-2.2,4.8-3.1,8.5-3.9,11.4c-1,3.8-1.5,5.4-3,7.8c-1.7,2.8-2.8,5.8-2.2,6.6c0.5,0.8,2.4-1,4.2-3.8c4.8-7.8,6.2-13.3,7.2-17.3
				c0.8-3,1.3-5,2.4-7.4l0.2,0.7c9.3-21.4,18-39.9,27.1-58.6c9.1-18.7,18.6-37.7,28.9-60.3l0.2-1c0.1-0.2,0.3-0.3,0.4-0.6
				c0.8-1.1,2.6-3.3,4.7-5.5c1.6-1.7,3.5-5.5,4.3-8.6c0.8-3.1,0.1-4.2-1.5-2.5c-1.7,1.8-3.4,3.8-4.8,5.6l0.2-0.6
				c-1.4-0.4-3.8,4.7-5,2.7c3.7-11.3,9.9-25.9,16.7-41.9c2.9-8.9,3.2-14.4,5.2-22.1c7.4-16,16.5-43.1,25-67.2
				c8.6-24.1,17-45.2,25-49c-8.6,23.2-9.2,40.5-21.5,69.1c2.8,5.7,7.7-11.6,10.5-5.9c-2.8,11.7-8,26.8-14.5,43.1
				c0.5,6.4-0.3,14.5,0.9,19.9c11.3-24.2,19.2-44.7,27.1-67.2c7.8-22.4,15.7-46.8,26-79.2c1.5,0.6,3-1.4,4.5-3.5
				c5-18.4,8-30.3,11-42.2c3-11.9,6-23.8,10.2-42.4c-1.2-9.2-2.2-18.8-1.2-33l-0.2,0.2c1-3.7,1.8-7.5,2.6-11.3
				c0.9-4.3,1.7-8.4,2.8-12.1l0.3,0.9c5.2-24,7.5-43.6,9.9-61.5c2.4-17.9,5-34,10.2-51.3c-1.3-26.1,6.2-57.3,8.6-91.4
				c3.6-52,0.8-107.5-4.3-155.9c-3.7-8-7.7-14.2-11.5-22.2c-4.6,16.1-7,15-12.9,14.4c4,36,6.4,77.3-6.9,72.2
				c0.2-20.9-2.4-31.3-4.4-44.7c0.5-18.7,2.7-32.2,4.3-46.1c1.5-13.9,2.4-28.3-0.4-48.6c1-4.5,2.6-7.6,3.1-13.4
				c0.5-0.3,1.1-0.4,1.7-0.5c0.9-0.1,1.9-0.2,2.8-1.1l0,0.5l3.2-0.4c0.3,1.4,0.5,2.9,0.8,4.4c1,5.6,2,11.9,3.7,17.6
				c1,3.4,2.3,3.8,2.9,1c0.6-2.8,0.3-7.7-0.7-11.1c-0.9-3.1-1.6-7.2-2.4-11.9c-0.6-3.2-1.2-6.6-1.9-10c-1.5-11.4,1.5-10.8,1.5-18
				c-2.2-6.1-5.7-2.1-8-8.1c2.4,15.1-1.5,14-1.7,22.6c-0.5,0.3-1.2,0.4-1.8,0.5c-0.9,0.1-1.8,0.2-2.7,1.1l0-0.6
				c-0.7-0.2-1.4-0.5-1.7-4.3c-3.2-23.6-0.3-30.7,5-32.6l-0.1-1c0.8,2.2,1.3,3.2,1.8,4.1l0.3,0.6c0.8,1.5,1.5,0.8,1.5-1.4
				c0.1-2.3-0.5-5.3-1.3-6.7l-0.5-0.8c-0.2-0.4-0.4-0.7-0.6-1c-4.4-27.7-5.4-45.6-6.3-62.1c-0.9-16.8-1.7-32.1-7-54.3
				c-1.9-4.8-3.5,1.7-7.5-12.3c-0.3-10.2,0-19.2-2-32.4c-5.7-16.2-12-40.6-19.6-65.5c-7.5-24.9-16.3-50.2-25.7-68.3
				c-2.9-4.3-5.4-3.5-7.7-2.1c-0.6-1.2-1.4-3.1-2.6-6.2c-1.7-4.4-3.8-9.9-6.4-13.5c-1.1-1.6-1.8-1.2-1.5,0.8
				c0.1,0.9,0.4,2.1,0.8,3.2c0.4,1.2,1,2.4,1.6,3.2c1,1.4,2,3.9,3.5,7.8c1.6,4.2,3.9,10.1,6.4,13.4l-0.1,0.3
				c7.4,21.3,14.5,42.8,21,64.5c-0.1,5.5-1.2,5.8-4.4,1.3c9.7,31.1,16,59.1,9.2,62.9c2,16.8,9.9,30.9,7.3,39.8
				c-8.1-23-5.9,0.8-12.1-1.8c-2.7-11.6-5.5-23.1-8.5-34.6c0.6-1.2,2.2-0.7,1.1-4.9l-0.7-2.1c0.8,1,1.5,1.6,2.3,2.2
				c0.5,0.4,0.7-0.5,0.4-2c-0.3-1.5-0.9-3-1.4-3.4c-0.2-0.2-0.4-0.3-0.6-0.5c0.7-20.6-8.4-52.8-19.5-81.5
				c-4.8-1.5,5.1,20.7,2.4,22.7c-8.6-7.9-9.4,5.8-18-12.1l-0.3-0.9c-0.5-1.8-1-3.5-1.5-5.1c-0.3-15.3-6.8-39.6-9-56.7
				c3,0.5,6.3,3.4,9.5,6c-4-15.4-13.4-35.4-14.1-37.6c-0.7-2.5,5.2,6.7,2.1-0.8c-1-2.5-6.8-9.1-9.8-15.3c-4.9-10.4-7.4-22.1-15.4-37
				l-0.1,0c0-2.9-1.5-7.3-2.7-10.8c-0.8-2.3-1.5-4.5-1.9-6c-0.4-1.8-1.5-4.2-2.5-5.4c-1-1.2-1.6-0.7-1.2,1c0.6,2.8,1.7,6,2.7,8.8
				c1.3,3.8,1.9,5.6,1.8,6.6l-0.6-1.9c-6.9-8.7-17-26.2-26.8-43.8c-9.8-17.6-19.2-35.4-23.6-45.4c1.7,4.2-10.7-10.5-14.3-12.5
				c-12.7-30.9-30.8-63-51.2-94.7c-20.4-31.8-43-63.3-64.4-93.9c-7.7-9.9-7.6-1.2-17-14.9c-7.5-17.1-24.1-41.8-39.1-59.6
				c-21.5-17-45-42.6-70-68.7c-25-26.1-51.5-52.7-77.4-72.2c-5.4,0.2,12.1,18.8,1.1,11.8c-8.9-10.1-9.4-14.5-4.4-14.8
				c-11.7-12.1-27.3-25.9-44-39.7c-16.7-13.8-34.6-27.5-50.6-40c0.4-2.6-5.2-7.8-7.9-11.6c-20-17.5-40.5-30.5-62-42.9
				c-21.6-12.4-44.2-24.3-69.3-39.4l0,0l0,0l0,0c-1.1-2.6-4.1-5.8-5.3-8.4c-21.4-10.2-45.8-30.8-70.3-37.7
				c-21.5-12.6-36.8-24.9-60.7-37.5c-18.9-9.8-39.7-18-60.8-25.6c-21.2-7.7-42.7-14.8-63.4-23c-25.6-10.1-45.5-21-69.6-30.4
				c-11.8-4.6-11.5-1.8-21.7-5.3c-19.6-10.2-46-18-73.2-23.5c-24.4-5-49.6-8.2-71.4-10.4c-0.9-0.2-1.8-0.4-2.8-0.4
				c-4.8-0.3-10.2-1.3-15.9-2.4c-3-0.6-5.9-1.1-8.9-1.5c-2.6-0.4-4.7-0.2-4.6,0.5c0.1,0.7,2.2,1.6,4.8,2c2.6,0.4,5.3,0.9,7.9,1.4
				l5.2,0.9c3.6,0.7,7.3,1.3,11.1,1.7l-0.3,0.2c16.5,5.2,29.4,9.1,44.6,13.1c15.2,4,32.8,8.1,58.6,14.5c0.3,3,20.4,11.8,24.5,11.3
				c-8.1-3.5,13.8-0.5,22.6,1.7c24.5,9.5,46.3,18.7,77.9,32.4c-0.3-3.3,9.7,0.3,17.8,2.8c46.2,18.6,87.5,37.6,127.8,57.8
				c40.2,20.3,79.4,41.8,120.6,66.6l3.7,2.6c0,0,0,0,0,0c12.3,8.7,26.8,17.8,38.6,26.5c13,9.5,22.5,18.4,22.3,25.1
				c-9-3.5-27.2-17-41-25.2c-9.1-12.8-27.9-25.5-50-37.7c-21.8-12.1-46.8-23.7-68.6-35.5c-0.1-0.3-0.1-0.6-0.1-1
				c-0.1-0.8-2.1-2.3-4.4-3.3c-2.4-1.1-4.2-1.3-4.1-0.5c0.1,0.6,0.2,1.3,0.4,2l-0.8-0.5c-4.4,0.7-16.5-4.1-28.5-9.9
				c-12-5.8-23.8-12.5-27.1-16.2c-0.2-3,2.4-3.7,6.4-3.4c-25-12-43.9-19.9-61.1-27.1c-17.3-7.2-33-13.7-52.1-22
				c1.2,3.5,4.2,5.7-6.1,3.9c-17.5-5.3-30.6-10.3-43.3-14.7c-12.7-4.4-25-8.2-40.8-10.9c-4.2-4.3-18.8-9.4-34.1-13
				c-15.3-3.7-31.3-6-38.2-5.8c27.2,6.7,12.9,9.1,6.4,10.9c41.5,14,80.8,21.4,120.7,38l1.2,0c4.5,3.9,14,8.5,26.7,13l-0.2,0.1
				c6,6.1,17.4,5.9,23.3,12.1c-15.5-4.3-8.6,1.9-14.6,1.9c-2.3-0.8-3.7-1-5.1-1.2l-1.7-0.7c-7.4-3.3-15.1-6.6-23.9-9.4
				c-3.4-1.1-6.3-1.2-6.5-0.3c-0.2,0.9,2.8,2.7,5.8,3.7c7,2.3,13.1,4.9,20.3,8.1l2,0.8c0.5,0.2,1,0.4,1.5,0.6
				c1.2,0.4,2.3,0.7,3.4,0.9c4.9,3.2,8.3,6.2,17.8,9.9c17.7,3.3,33.3,9.6,48,16.7c14.7,7,28.6,14.8,43.2,21.3
				c-1.7-5.9-15.7-13.8-19.4-19.9c-20.5-7.8-23.5-10.1-40.3-15.6c16.3,2.1-16.9-6.8-10.4-9c15.4,3.4,33.7,11.8,50.6,19.7
				c16.8,8,32.2,15.5,42.5,16.5c6.5,4.2,10.3,7.9,18.1,12.5c6.5-1,19.9,5.3,31.4,12.8c11.5,7.5,21.1,16,20.4,18.9
				c51.2,27.1,109.2,65.7,173.1,113.7c7.9,4.6,12.3,4.8,22.8,12.8c20,17.2,30.1,25.3,42.1,30.5c-6.1,4.1-17.8,0.9-28.5-1.5
				c-10.7-2.3-20.4-3.8-22.3,3.2c-6.7-4.6-8-2.1-18.2-11c-11.6-12.9-6-15-13.3-23.9c0-0.4,0.1-0.7,0.2-1c0.2-1-1.9-3.5-5-5.5
				c-3-2-5.6-2.8-5.9-1.8c-0.1,0.5-0.2,1.1-0.3,1.7l-0.5-0.4c-6.6,0.9-11.6-8.2-12.6-11.7c-15.9-9.6-21.5-7.2-42-21.4
				c-1.9-4.4,1.8-3.2,0.8-9c14.8,8.4,18.5,10.9,32,21.3c0.4-2.9,3-3.2,6.8-2.3l-0.9-0.9c2.1,1.2,4,2.3,6,3.5
				c2.6,1.6,4.6,1.9,4.4,0.8c-0.2-1.1-2.4-3.3-5.1-4.8c-2.2-1.3-4.3-2.5-6.5-3.7l0.4-0.1c-39.3-27.1-71.8-47.5-98.6-60.5
				c-1.8-1.1-3.5-2.2-5.8-3.8l-0.7-0.9c-0.4-0.7-2-1.8-3.5-2.5c-1.5-0.6-2.4-0.6-2,0.2l1.1,1.9l2.5,1.7c2.7,1.8,5.1,3.5,8,5.2
				c1.2,0.7,2.5,1.4,3.9,2.1l-1.2,0.2c13.3,12.7,26.3,21.7,42.2,37.5c-21-9.2-45.2-20.9-66.7-29c0.1-0.7,0.1-1.4-2.8-2.9
				c-1-1.1-2.4-2.3-4.3-3.7c-1-0.8-2.5-1.4-3.2-1.4c-0.7,0-0.5,0.6,0.5,1.4c1.8,1.3,2.9,2.4,3.5,3.2l-1.1-0.6l-2.8,5
				c-10-4.1-19.4-7.4-28.1-10c-3.9,2.1,5.3,6.8-2.7,5c-18.2-5.2-45.6-20.2-65.1-28.5c-4.9-6.1-12.5-12.5-14.7-18
				c15.1,0.3,42.5,15.1,65.5,28.8c7.2-6.4,13.1-1.7,21.3-4.4c-12.9-9.8-25.3-16.5-38.8-22.5c-13.5-6-28-11.3-45.3-18.3
				c-2.6-3.4-15.2-8.3-9.4-10.4c-15.3-6.9-13.9-0.7-29.2-7.4c-13.7-7.8-35.6-15.3-51.5-20c-13.7-9.4-30.1-14.5-47.1-19.7
				c-17.1-5.2-34.9-10.3-52-19.9c0.3,4.5-11.5,1.6-22.1-0.2c-11.7-6.7-29.2-13.1-43.5-19.3c-4.4,5.5-22.9,3.5-40,2.8
				c0.5,3.1,8.9,6.6,17.9,9.7c9,3.1,18.6,5.9,21.6,7.3c-13.1,6-35.7-4.4-70.7-10.5c-4.6-1.8-9-3.7-13.3-5.4
				c-7.6-3.1-15.4-6.2-24.2-9.1l1,0.1c-1.9-4.5,13.3-1.2,13.7-4.7c-14.6-3-20.5-6.8-26.5-10.6c-6-3.8-11.9-7.5-26.6-10.1
				c-6.6,6.3-26.8-3.8-38.6-2.3c0.9,4.3,10.3,7.3,20.4,10.3c10.1,3,20.8,6,24.4,10c-5.2,2.4-20.1,0.9-27.2,2.7
				c-0.8-0.1-1.6-0.1-2.4-0.1c-3.4,0.1-9.5,0.2-14.1,0.3l-5.5-2.6c-7.7-3.7-15.7-7.5-27.8-10.5c-2.3-2.5-7.4-4.5-12.5-6.5
				c-0.1-0.1-0.3-0.2-0.6-0.4c-1.7-0.6-1.4-0.9,0.6-1.7c1.6-0.7,3.8-1.5,1.4-3.1c-1.5-0.7-3.2-1-4.4-1.3l-1.5-0.3
				c-1.5-0.3-3.3-0.3-4.1,0.1c-0.8,0.3-0.2,0.9,1.3,1.2l1.5,0.3c1,0.2,1.7,0.4,2,0.5c0.7,0.5,0.1,0.8-1.5,1.5
				c-1.6,0.6-3.9,1.6-1.3,3l-0.5,0c-12.9,1.1-5,3.8-4.8,7.7l12.7,0.9l0.4-0.1c0.4,0.1,0.9,0.3,1.4,0.4c11,2.4,18.4,5.8,26.2,9.5
				l7.2,3.3l1.2,0.5l1.8,0.4c2.9,0.6,5.4,0.9,7.1,1.1l1.7,0.2l1.6,0c3.8,0,11.4-0.1,16.5-0.3c9.4,2.8,30.4,3.8,35.2,2.9
				c-5.1-0.4-14-5.3-3.7-4c8.3-1,7.5,1.7,20.9,3.2l-0.1-0.1c7.9,2.6,15,5.4,22.4,8.4c4.9,2,9.9,4,15.1,6.1l-1.4-0.1
				c-3.9,4-16.6,1.8-30.4-1c-13.8-2.9-28.6-6.5-36.5-6.3c5.1,0.8,9.8,1.7,8,3.4c-22.2-4-35.6-3.8-50.2-4
				c-19.3-4.1-34.6-8.6-49.2-13.1c-14.7-4.4-28.8-8.8-46-12.3c-10.3,0.3,1.7,7.4-12.9,6.4c-34.4-0.1-59.6-1.2-63.4-8.6
				c13.4-6.8,30.2-12.8,64.1-13.1c-21.6-2.9-1.7-3.5-4-9.2c-32,2.7-63.7,7-68.7,17.9c-20.5,1-33.1,4.2-50.8,6.4
				c-9.3,0.2-9.7-2.5-15.8-3.4c0-1.7,0.6-2.6,3.4-3c1.9-0.2,3-0.8,2.5-1.3c-0.5-0.5-2.4-0.7-4.3-0.4c-8.1,1.1-8.7,3.3-8.7,5.1
				c-20,3.6-36.6,7.1-27.4,13.5c-10.2,3.9-26.8,6.2-42.1,7c-12.6,0.7-24.3,0.3-30.7-1.4c0-0.2-0.2-0.5-0.7-0.6
				c-2.4-0.9-1.3-2.5-0.1-4.2c0.1-0.2,0.3-0.4,0.4-0.6l0.8,0.1c10.7-3,12.4-4.2,25.1-4.4c-2.3-3.8-11.4-4.9-22.2-5.2l-0.3,0.3
				c-1.4-0.5-2.9-1-5.2-1.4c-1.5-0.3-4.1,0-5.8,0.7c-1.7,0.6-1.9,1.4-0.4,1.6c1.7,0.3,2.8,0.7,4.1,1.1l-0.7,0
				c-17.1-0.4,2.7,3.8-7.5,8l1.9-0.4c-0.2,0.3-0.4,0.6-0.6,0.9c-1.2,1.7-2.4,3.6-0.5,5.1c-9.8,5.3-32.4,7.2-41.3,5.8
				c-0.1-0.4-0.2-0.8-0.2-1.2c-0.1-1.2-0.2-2.4-2.4-3.3l1.2-0.1l-0.4-2.2c-20.5,0.4-41.1,1.5-55.8-0.2c0-0.9,0.8-1.7,1.7-2.6
				c0.6-0.6-0.2-1-2-0.8c-1.7,0.2-3.6,0.8-4.3,1.4c-1.5,1.4-2.9,3-1.7,4.5l-2.8,0.4c4.1,3.7-9.5,9.7-9.4,16.2
				c9.3,0,25.2-3.3,26.3,1.1c-13.5,5.6-29.8,11.2-48,17.1c-24.1,1.3-49.5,4.3-61.5-0.7c1.6-1.1,2.6-2,3.6-2.9
				c0.3-0.3,0.6-0.6,0.9-0.8c6.4-1.9,12.9-3.7,19.3-5.5c-4.4-6.9,9.5-12.2,29.9-20.9c-2-2.2-6.2-3.3-10.1-4.5
				c-22.9,5.3-26.5,12.3-45.2,14.9c-15.7,10.4-31.4,20.9-57.3,32.5c-5.5,7.4-11,14.7-23.5,22.8c-17.1,6.7-24.4,6.7-29.1,4.6
				c-4.6-2.1-6.5-6.1-12.8-7c6-5.1,16-10.7,21.6-15.6l-1.3,0.4c2.4-1.2,4.7-2.3,7.6-3.5c1.8-0.8,2.9-1.7,2.4-2.1
				c-0.5-0.4-2.4-0.1-4.2,0.7c-3.9,1.7-6.9,3.1-9.8,4.6l0.4-0.7c-21.5,8.3-31.4,8.1-56.9,20.3l0.5,0.1c-6.3,2.1-12.4,4.8-18.3,7.4
				l-7.8,3.5c-0.7,0.3-1.4,0.7-2,1l-0.1,0c-14-2.5-19.5,2.4-26.1,10c-6.6,7.6-14.3,17.8-32.6,26.8c-3.7,1.8-16.5,6.4-29.9,7.8
				c4.9-4.5,15.2-10.2,17.1-14c-25.7,11-44.8,21.5-63.9,31.9c-19.1,10.5-38.2,21-63.7,33.4c-1.3-2.8-7.3,2-2.5-3.8
				c-10.9,8-17.1,13.3-24.2,18.7c-7.1,5.4-14.9,10.9-28.9,19.7l0.4,0.1c-3.8,2.4-7.5,5-11.2,7.6c-12.1,6.3-25.6,16.5-38.5,27.6
				c-13,11.1-25.5,23.1-36,32.4c-13.6,4.6-29.2,24.3-42.9,30.4c-2.5-2.5,4-9.4,5.4-13.8c3.1-3,6.7-5.8,10.5-8.7
				c2.7-2.1,5.4-4.2,8.2-6.5l0.1,0c1.7-1.4,2.8-3,2.5-3.4c-0.3-0.5-2,0.3-3.8,1.7c-2.3,1.9-4.7,3.8-7.3,5.8c-4.9,3.8-10.2,8-15,12.9
				l0.1-0.6c-10.9,5.3-15.1,12.6-27.3,21.3c-1.6,1-3.3,2.1-4.9,3.2c-2.6,1.8-4.8,3.3-6.4,3.9c-0.4-1.1-1.7-1.6-3.5-1.3l0.7-0.7
				c25.7-26.1,55.1-52.4,80.8-75.7c-8.5,6.7-3.1-2.4,1.3-5.4c28.3-23.7,54.5-41.1,78.4-56.8c24-15.7,45.8-29.7,66.2-46.3
				c22.1-10,38.4-19.7,53.6-30.4c15.2-10.7,29.3-22.4,47.1-35.7c7.7-1.5,23.6-9.9,29.9-9.9c-3.9,3.8-10.3,8.2-9.4,11
				c18.7-8.7,43.8-21.2,65.5-29.7c21.7-8.5,39.7-13.2,43.5-7.3c30.9-13.9,36.5-10.6,39.6-7.1c21.8-6.3,34.8-13,53.1-20.3
				c-6-1.3-18.9,1.9-30.8,4.7c15.1-9.4,33.9-14.9,51.8-19.9c17.9-5,35-9.7,47-17.9c6.5,0.4,34.4-7.4,22.7-0.4
				c26.5-5.3,37.2-8.1,51.7-10.6c-6.3-3.5,6.7-7.7,24-10.9c17.2-3.3,38.6-5.5,48.8-6.3c11.4-5,28.6-8.2,44.6-10.2
				c16-2,30.9-3,37.8-4.5c11.4-2.5,6.2-4.2,17.1-5.4c17.5-2,37.1-0.8,44.2-0.8c18.7-0.2,48-3.9,70.4-4c18.3-0.2,39.7,0.2,60.6,1.3
				c20.9,1.1,41.4,2.9,58,5.2c11-0.4,17.4-2.3,30.9-1.7c14.9,2.4,32.3,4.3,49.8,6.3c17.5,1.9,35.1,3.9,50.4,6.1
				c17.4,2.6,26.9,4.9,34.7,7.7c7.8,2.8,13.9,6,24.4,10.8c-26.4-5.7-7,2.2-26.5,0.2c-24.1-1.4-35.2-7.9-43.6-1.7
				c24.6,3.9,33.1,10.1,54.6,15c21.9,0.2,35.2,3.3,59.3,11.2c-2.1-4.4,7.1-3.1,18.2-0.7c8.8,1.9,18.8,4.5,25.2,5.4
				c14.7,3.7,29.2,8,44.3,12.8l46.3,15l0.2,0c2.5,0.8,4.8,0.9,5.1,0.3c0.3-0.7-1.6-1.9-4.2-2.7l-45.2-14.7
				c-15.1-4.8-30.8-9.5-46.6-13.4l0.6-0.3c-23.3-5.3-31.4-10.9-58.8-15.2c-6.1-3.7-8.4-7.6-20.1-10.8c20.1-0.7,40.6,11.7,51.6,9.2
				l-0.3-0.4c3.6,1,6.2,1.8,8.4,2.3l0.7,0.1c2.5,0.5,4.6,0.4,4.6-0.3c0-0.7-1.8-1.6-4.5-2.2c-1-0.2-2.7-0.7-4.8-1.3
				c-5.6-3.6,5.6-9.6,15.3-4.5c-9-6-5.7-12.5-32.3-17.6c14.3,9.2-16.4,1-35.6-2.3c-6,1.3-8,4.4-22.7,1.8
				c-12.3-4.1-26.3-7.9-38.3-11.7c-22.3-0.3-55.8-4.6-69.9-10.5c-43.2-4.9-82.1-6.9-120.5-7.9c-38.5-0.9-76.5-0.7-118.5,0
				c-5.9,0.4-3.9,2.3-8.7,2.9c-48.4,0.5-95.5,9.2-136.7,14.9c-17.6,2.5-31.3,3-48.5,6.4c-4.8,0.9-13.6,4.9-16.9,5.8
				c-19.4,4.8-32.9,5.4-39.5,6.5c-12,1.9-27.5,8.3-34.2,9.7c-17.4,3.7-33.4,4.1-56.2,13.5c-1.9-1.9-12,1.3-18,2l-0.1,0
				c0.1-0.1,0.2-0.2,0.2-0.3c1.3-2.1-2.3-2.5-5.7-2.8c0,0,0,0-0.1,0l-1-3.2c18.8-7.8,35.5-11.3,50.9-14.6
				c15.4-3.3,29.5-6.4,43.6-13.4c14-3.7,18.9-2.6,35.1-7.2c3.4-1,4.9-2.1,3.9-3.2l-1.1,0c15.5-5.3,26-7.5,34.5-7.5
				c2.8,0,6.7-0.9,8.7-2c2-1.1,1.4-2-1.4-2c-15.3-0.1-32.7,4.7-45.8,9.2l0.1-0.1c-12.1,1.8-28.1,5.8-41.9,8.9
				c-13.8,3.1-25.5,5.3-29.4,3c-34.7,10.4-59.1,19.1-81.8,27.2l-71.3,26l0.3,0.1c-2.1,0.7-4.1,1.4-6.2,2.2c-3.6,1.3-6.3,3.2-6.2,4.2
				c0.2,1,3.2,0.7,6.7-0.7c1-0.4,2.1-0.8,3.3-1.2c13.3-2.6,41-14.6,39.7-6.7c10.6-5.1,16.9-7,23.8-8.6c6.9-1.6,14.4-3,27.6-6.7
				l0.1-0.2c0.2,0,0.3,0,0.5,0.1c2.6,0.2,4.2,0.4,4.2,1c-23.7,15-47.6,18.4-68.4,20.2c3,3.8-15.9,13.8-35.3,21.4
				c-19.5,7.6-39.7,13-40.4,5.5c-6.8,3-13.6,6-20.4,9c-6.9,5-2.2,7.8-17.9,14.5c-23.6,11-31.5,9.1-51.1,17.4l-0.1,0.1
				c-0.2,0-0.4-0.1-0.6,0l-1,0c-1.7,0-3.9,0-8.5,1.5l0.6-0.5c-0.9-1.7-11.3,5.2-13,4.2c22.8-10.7,15.9-14.4,33.4-23.6l-0.8,0
				c1.6-1,4.1-2.5,6.9-4c1.6-0.9,2.6-1.8,2.2-2.1c-0.4-0.3-2.2,0.2-3.8,1c-2,1.1-4,2.2-5.6,3.2l0.1-0.1c-27.6,9.6-62,26-98.2,46.7
				c-12.2,3.2-10.8,2.5-23,5.8c-32.8,20.8-66.2,38.8-98.8,58.4c-32.5,19.5-64.3,40.6-92.7,66.8c-11.3,9.3-13.2,5.5-24,14.3
				c-16,14.2-29.2,27.6-38.9,39.2c8.7-7.1,18.1-15.2,20-12.1c-11.7,16.6,9,8.3-11,28.5c-8.4,4.7-19.9,14.6-30.8,23.9
				c-10.9,9.3-21.3,18.1-27.8,20.4c-13,13.4-25,25.8-28.6,23.3c2.1-7.1,19.2-23.5,17.2-27.9c-26.1,19.6-54.8,45.9-78.6,78
				c1.3,9.2-9.3,26.6-23.3,46.9c-14,20.2-31.2,43.5-44,63.6c-22.2,22.2-47.1,53.8-74.9,104c2,5.1-4.7,19-12.5,31
				c-7.8,12-16.8,22.1-20.2,19c-7.4,15.1-10.6,14.3-17.2,27.3c-1.9,8.8-6.2,20.4-12.5,34.8c-12.7,21.7-20.5,39.6-28.3,58.7
				c-7.7,19.2-15.5,39.6-27,67c-3.3,11-3.5,17.9-8.1,31.2c-8.4,17.2-15.4,19.7-23.7,40.3c-5.1,3.9-0.3-7.7-1.4-10.2
				c-12.1,26.4-17.1,51.6-24.6,79.2c-9.5,35.2-19.9,67.9-26.6,98c-4.3,19.2-5.3,36.2-8.7,50c-3.1,12.5-8.8,17.2-12.9,35.4
				c-1.3,5.7-2.4,22.3-4.1,37.7c-1.7,15.4-4,29.7-8.6,30.9c0.6-12.2-4.3-9.7-4.6-19.3c-0.4,14-4.3,13.9-6.1,22.8
				c-3,15.2-3,32.5-4.8,51.2c-3,32.2-6.4,61.1-8.3,87.4c-2,26.3-2.4,50,0.7,71.6c8.6,0.2,11.5,40.6,14.4,83.5
				c-0.6,12.3-3.9,16.4-2.9,33.1c4.5,15.6,7.1,38.2,7.9,56.2c0.8,18-0.4,31.4-4.3,28.4c4.2,6.9,8.5,22.9,12,40
				c3.4,17.2,6.1,35.5,6.1,47.3c4.2,7,8.1,26.2,12.5,45.2c-1.7,2.5,1.1,13.5-3.3,10.5c3.4,16.3,13.2,43.3,7.3,41.8
				c8.5,19.2,13.3,37.8,18.2,58.1c5,20.3,10.1,42.3,19.5,68c-0.1,8.4,3.9,20,9.1,31.9c5.1,11.9,11.3,24.2,15.4,34.2
				c11.7,28.5,21.2,53.1,35.4,82c45.3,92.4,94.9,173.1,148.5,245.6c22.7,30.7,47.3,62.3,73.6,93.2c26.3,30.9,54.2,61.1,82.9,88.8
				c20.1,19.4,42.3,36.7,64,55.5c30.2,26.2,61.6,52.2,92.4,75.4c30.7,23.2,60.8,43.5,87.7,58.9c24.3,14,50.4,31.2,76.3,45.2
				c14.8,8.1,36.6,21.5,48.8,27.2c10.5,4.9,15.8,5.3,26.1,10.4c4.8,2.3,7.8,5.6,15.9,9.7c15.3,7.8,32,13.5,47.2,19.9
				c22.7,9.4,43.2,17.9,64.5,26.4c21.3,8.5,43.4,16.9,69.3,25.9c43.3,15,86.2,23.9,124.5,35.1c20.4,5.9,36.2,8.4,58.5,13.1
				c45.4,9.7,95.9,21.6,140.4,25.4c14.7,1.3,26.7,0.2,41.6,1.1c46.7,2.9,84.2,7.8,123.6,8.1c35.7,0.2,70.3-2.3,104.9-5.7
				c34.6-3.4,69.1-7.4,104.9-10.5c10.9-3,26-6.6,41.4-10c15.4-3.4,31.1-6.5,43.4-8.2c21.1-8.4,50.5-16.6,74.5-25.9
				c21.9-8.4,39.2-17.6,42.2-27.1c8.5-2.2,16.8-4.5,25.3-6.8c18.1-5,36.7-10.3,58.1-17.2c35.7-11.5,68.2-26.8,98.8-38.4
				c16.2-6.2,27.8-12.4,44.7-20.2c9.5-4.4,19.3-8.9,29.1-13.5c9.4-2.3,21.3-8.7,26.5-9.8c3.5-0.7,4.6-0.5,4.7-0.1
				c0.9-0.6,2.1-1.4,3.8-2.5c8.5-5.5,0.9,4.1,20.9-7.3l-0.5-0.1c3.6-1.5,7.1-2.9,10.6-4.7c2.3-1.2,3.9-2.6,3.6-3.1
				c-0.4-0.6-2.5-0.1-4.8,1l-0.1,0.1c-1.7,0.8-3.4,1.6-5.2,2.4l9.7-8.3c1.4,4.6,6.1-3,11.8-5.9c-12.9,9.8,5.2,1.7-0.9,8.1
				c24.3-13.9,50.2-22.6,59.8-19.8c-19.6,10.5-35.7,19.5-44.3,26.8c-9,4.9-18.2,9.2-27.9,13.5c-7,3.1-14.2,6.3-21.5,9.6
				c-5.2,2.4-10.6,5-16,7.8c-3.6,1.8-5.5,3.8-4.3,4.4c1.2,0.6,5-0.4,8.6-2.3C984.4,3169.4,995.3,3164.7,1006.8,3159.6z M828.9,368.9
				c1.8-3.9,32.1,10.3,16,7l0.1,0.2C840.5,374.5,833,371.7,828.9,368.9z M-264.3,444.6c3.1-3,2.1-5.3,8.6-8.8l7.6-3.4
				c4.9-2.2,9.6-4.3,14.2-5.9C-224.3,425.9-251.4,441.9-264.3,444.6z M-77.3,382.5c4.7-1.2,6.7-0.7,8.8-0.3l2.1-0.8
				c-0.9,0.7-1.5,1.4-2.1,1.9c-1.1,1.1-2,2-3.9,3.1l0.6-0.8C-78.8,386.5-82.1,385.6-77.3,382.5z M-526.2,578l0.6-0.4
				c0.5-0.3,0.9-0.6,1.4-1c2.9-2.1,5.8-4.1,8.7-6l0.5,0.8l1.3,1.9l-10.6,7.6L-526.2,578z M-401.2,524.9c-14.6,7-31,16.3-42.6,20.8
				l-4.9-7.7c5.7-5.7,19.9-13.9,23.9-18.9c20.4-5.7,37.8-8.1,60.7-15.4c0,5.6-10.3,14.3-20,20.1C-393.8,529.4-403,532.1-401.2,524.9
				z M-368.5,427c0.6-0.1,1.2-0.2,1.8-0.2c-3.9,2.3-9.8,5.9-18.1,11.5C-385.4,436-377.5,431.6-368.5,427z M-578.1,548.9
				c-0.6-2.7,5.1-9.7,20.9-21.6c11.9-8.3,14.4-5.5,24.8-11.9c8-7.6,21.1-17.4,33.5-25c12.4-7.6,24-12.8,28.6-11.7
				c-16.7,10.8-15.1,15.8-26.6,25.1c-23.1,15-39.5,23.1-64,41.5C-570.6,550.1-577.5,551.6-578.1,548.9z M-686.8,666.5
				c0.9,2.8-6.9,10-12.2,13C-699.1,677.4-691.5,671.2-686.8,666.5z M1134.6,3069.6c-4.6-1.3,9.2-8.2,4.5-9.5
				C1152.1,3052.5,1151.8,3061,1134.6,3069.6z M1068.7,2864c-0.8,0.6-1.7,1.1-2.5,1.7c-2.2-1.4,1.7-5.1,8.5-10
				C1073.5,2858.2,1074.6,2859.8,1068.7,2864z M976.3,2738.4c-1.5-0.7,1.1-2.9,0.5-3.9l4.3-3.4l1.7,2.2L976.3,2738.4z M1041,2755.8
				l4.4-3.8l1.2,1.4l-4.5,3.8L1041,2755.8z M1132.8,2718.3c-1.5,2.3-2.7,4.5-3.5,6.6c-0.1,0.1-0.2,0.2-0.3,0.3l0.1-1.8
				c0-0.9,1.1-2.5,2.5-3.9c0.4-0.4,0.7-0.7,1.1-1C1132.7,2718.4,1132.7,2718.3,1132.8,2718.3z M1456.3,2743.2
				c7.2-9.8,8.5-7.4,14.8-15.7c4.7,1.6,2.7,8.1-8.8,20.9C1455.7,2750.5,1458.9,2746.6,1456.3,2743.2z M1313.7,2658.4
				c4.6-5,9.4-10.2,14.1-15.9c4.3,2-2.1,10.8-4.2,16.8c-3.4,2.1-6.3,4.6-8.9,7.4C1314.8,2663.5,1314.3,2660.9,1313.7,2658.4z
				 M1061.2,3094c5.9-3.7,11.6-7.3,17.2-10.8c-1,1.5-2.4,3-4.4,4.8C1067.3,3092.2,1064.1,3093.2,1061.2,3094z M1183.1,3038.6
				c-3,1.7-4.8,2-5,0.5c-4.5,3.3-6.6,6.4-8,3.9c13.9-8.3,12.8-11.4,24.4-19.1l1-0.8c-0.1,0.5-0.1,1-0.2,1.5
				c-0.1,0.6-0.1,1.2-0.2,1.7c-3.9,3-6.7,6.8-10.3,6.9C1180.7,3036.3,1181.9,3037.4,1183.1,3038.6z M1208,3020.2
				c-2.2,1.5-4.4,2.8-4.3,1.6l-0.8,0.7c0.2-1,0.3-1.9,0.4-2.7c0-0.2,0-0.3,0-0.5c1.8-1.3,3.1-2.5,2.1-2.8
				C1214.5,3010.3,1208.7,3018.9,1208,3020.2z M1318.4,2891.8c-18.9,21.4-46.1,42.4-74.9,65.7c-15.9,12.9-32.4,29.2-49.9,42.1
				c-8.1,6-16.6,11.8-25.2,17.6c8.2-7.1,16.3-14.4,24.3-21.7c20-18.3,39.7-37.1,60.5-55.8c1.5-0.2,3.4-0.9,6.6-3.4
				c0.6-5.1,11.2-15,23.2-24.7c12-9.7,25.5-19.3,32.4-23.1L1318.4,2891.8z M1529.1,2770.2l-0.6,0.7c-0.4,0.4-0.7,0.8-1.1,1.2
				c-2.3,2.9-4.8,5.6-7.2,8.3l-1.6-1.3l8.7-10.4L1529.1,2770.2z M1436.6,2819.3c1.5-9.5,21.6-25.3,30.3-38
				C1464.2,2791.4,1451,2804.9,1436.6,2819.3z M1584.7,2698.5c-0.2-4.5,12.7-24.9,17.7-25.5c-1.8,2.6-3.5,5.3-5.2,7.8
				C1593,2687.2,1588.9,2693.2,1584.7,2698.5z M1640.9,2611.9c1.1-3.5,5.2-12.9,9.6-21c4.4-8.1,9.1-15,11.8-13.4l-3.5,5.8
				c-0.6,1-1,1.9-1.3,2.6c-0.9,1.7-1.6,3.1-1.3,3.6c-1.8,3.1-3.1,5.6-4.4,8l-0.3-0.2C1649.6,2597.1,1644.8,2605.9,1640.9,2611.9z
				 M1652.4,2597.8l0.1-0.1L1652.4,2597.8L1652.4,2597.8z M1363.1,2662.8l-5.2,5.9c-2.1-0.4,1-4.1,0-5.2l5.1-5.9
				C1365.2,2657.9,1362.1,2661.7,1363.1,2662.8z M1409.5,2604.1c-14.9,16.8-26.2,40.5-30.5,31c9.2-15.2,14.5-20.9,30.8-40.7
				C1412.4,2595.7,1408.8,2601.5,1409.5,2604.1z M1363.4,2607.3c-5.9-3.5,10.5-22.2,20.6-37.4
				C1388.9,2576.6,1382.8,2594.6,1363.4,2607.3z M1417.2,2527.4c-0.7,1.1-1.5,2.4-2.3,3.7l-1.2,1.9c-0.7,1.1-0.9,2.1-0.5,2.2
				c0.4,0.1,1.3-0.7,2.1-1.9l1.2-1.8c1.3-2,2.7-4.2,3.7-6.1l0.3,0.2l2.8,1.9c-2,6.3-12.2,19-19.1,28.8c-10.2,10.1,7.7-19.6-4.6-3.4
				c0.5-6.3,9.7-19.3,19.3-33.1C1419.5,2521.3,1417.3,2525.2,1417.2,2527.4z M1298,2568.5c-0.1-2.1,1.1-5.1,5.1-9.8
				C1306,2558.8,1301.5,2564,1298,2568.5z M1436.5,2499.5c-3-1.3,2.4-9.6,7.5-17.9C1447.9,2482.1,1442.7,2490.5,1436.5,2499.5z
				 M1470.6,2431.2c0.7,0.2,1.2,0.7,1.7,1.6c-6.1,9.6-4.8,12.3-12.2,23C1456.6,2454,1464.4,2442,1470.6,2431.2z M1487.7,2410
				c-3.2,4.6-8.5,17.9-10.3,16.1l-0.4,0.9c-0.5-1.6-1.3-2.5-2.5-3c1-4.9,4.6-12.3,9-20.7C1488.1,2398.8,1486.9,2406.7,1487.7,2410z
				 M1372.8,2395l-3.6,6c-2.9,0.1,0.7-5.4,3.4-10.2C1373.1,2391.9,1371.8,2394.5,1372.8,2395z M1868.2,2055.9l-1.6,8.9l0.8-0.7
				c-0.8,2.3-1.5,4.5-2.1,6.9l-0.1,0.5c-0.3,1.3-0.2,2.5,0,2.8c0.3,0.3,0.9-0.6,1.2-2c0.2-0.8,0.5-1.7,0.7-2.5
				c3,1.6,5.1-11,7.5-17.2c3.8,6.9,7.7-2.8,8.5,10.8l0.1-0.2c-1,3.7-1.7,7.5-2.5,11.2c-0.9,4.3-1.7,8.4-2.9,12l-0.2-0.9
				c-5.8,17.5-11,21.7-16.3,26.1c-5.3,4.4-10.7,9-17.6,26.8c-3.6-8.3,1.9-38.4,7.9-61.8C1857.9,2053.1,1865.2,2036.3,1868.2,2055.9z
				 M1860.2,1777C1865.6,1783.9,1861.6,1798.9,1860.2,1777L1860.2,1777z M1526.5,1909.6c-1.2-1.7-1.8-4.7-1.2-10.6
				C1527.9,1897.7,1527,1904.2,1526.5,1909.6z M1566.3,1813.6c-3.5-1-6.4-3.8-8.9-7.3c1.2-6.2,3-10.3,3.7-17.7
				C1564.4,1792.4,1567,1798.4,1566.3,1813.6z M1397.4,1836.8l-0.2,0.1c0-1.9,0-3.8-0.1-5.7c0-1.2-0.1-2.4-0.1-3.6
				c1.2,0.4,2.3,1.4,1.6,6.1c1.9-4.3,3.8-2.2,3.1,6.3C1400.4,1839.1,1399.9,1835.7,1397.4,1836.8z M1565.6,1763.6
				C1562,1755.9,1566.5,1740.8,1565.6,1763.6L1565.6,1763.6z M1561.2,1706.8L1561.2,1706.8c0.1-5-0.6-9.8-1.3-13.8
				c-0.8-5.2-1.2-8.3-0.8-11.2c0.1-0.1,0.1-0.1,0.2-0.2c0.5,0.4,0.9,0.8,1.4,1.2C1562.3,1690.2,1564.3,1713.3,1561.2,1706.8z
				 M1562.2,1674.6l0,1.4c-0.9-0.9-1.7-1.6-2.6-2.3c-0.4-2.1-0.8-4-1.2-5.8C1560.2,1667.9,1562.1,1667.3,1562.2,1674.6z
				 M1554.2,1650.4c2.2,8.9-3.6,12.8,0.6,17.8l0.1-0.4c0.4,2.8,1,5.7,1.6,8.8c-0.6,3.3-0.6,6.7-0.3,10c0.2,3.2,0.7,6.2,1.1,8.8
				c0.7,4.3,1.2,8,0.8,11.4c0,0.2,0,0.5,0,0.7l-0.5-0.4c-1.5,1.2-1.9,5.2-4.4,3.8c-0.8-15.4-2.9-21.7-1.9-28.2
				c-1.1-3.1-7.2,3.4-7.2-17c3.7-3.2,4.9,4.8,8.3,2.7c-4.8-2.6-4.9-15.3-3.7-24.5C1550.7,1645.5,1552.3,1648.7,1554.2,1650.4z
				 M1515.4,1616.4c-6.1-6.5-6.5-26.6-9.9-40.3c-3.9-16.1-8.8-29.6-13.1-42.9c-0.2-7.3,0.2-13.7,1-21.4l1.5-0.3
				c0.3,1.7,0.9,5.2,2.4,12.3l6.7,31.6C1507.2,1570.3,1511.1,1590.1,1515.4,1616.4z M1401.4,1651.5
				C1400.5,1646.1,1404.8,1670.8,1401.4,1651.5L1401.4,1651.5z M1389.8,1577.9c-0.5,2.4-0.9,4.9-0.7,7.6l-0.3-1
				C1384.1,1588.8,1386.3,1566.3,1389.8,1577.9z M1390.5,1584.9c0.1-1.8,0.5-3.6,0.9-5.5l0.1,1.4c2.9-0.1,2.3,10.3,2.3,12.2
				C1392.2,1593.2,1391.7,1587,1390.5,1584.9z M1525.9,1490.6c0.3-0.2,0.6-0.5,1-0.7l0.6-0.4c1.9,1.4,3,12.5,4.6,16.9
				C1529.6,1506.5,1527.8,1498.8,1525.9,1490.6z M1492.7,1508.6l-0.6,0.1c-0.1,0-0.2,0.2-0.3,0.5c-0.9-1.1-2.8-2.9-7.5-5.7
				c-2.9-11.3,1.6-10.9,5.3-11.9C1496.7,1507.2,1492.7,1508.6,1492.7,1508.6z M1531.9,1551.4c-3.1-5-5.6-14.1-4.1-22.2
				c-1.2,2.5-5.3-4.8-7.9-13c-2.6-8.1-3.9-17.1,0.9-18c-0.1,3.3,0.7,8,2.1,14c6,10.4,12.1,18.6,17,36.2
				C1538.8,1557.2,1535,1556.4,1531.9,1551.4z M1545.2,1507.2c2.5,13.2,2.9,27.3,0.4,29.1c-3.6-12.2-7.5-31.1-11.9-52.3
				C1538.3,1482,1542.8,1494.1,1545.2,1507.2z M1569.7,1428.9c-4.1,2.7-7.9-3.7-11.8-19.7c4.1,1.4,2.9,1.8,5.5-1.7
				C1565.5,1414.6,1567.7,1421.8,1569.7,1428.9z M1782.3,1312.2l0.2-0.5c0.7,2.7,1.4,5.3,2.2,7.9l0.3,1.1
				C1778.5,1318.4,1770.1,1273.4,1782.3,1312.2z M1524.4,1453.2l-3.3,0.9l0.2,0.6c-0.5-0.3-1-0.7-1.5-1.1c-1.1-0.9-1.7,0.4-1.4,2.8
				c0.1,0.7,0.2,1.4,0.4,2.1c0.5,1.8,1.3,3.4,2.1,4.1c0.7,0.6,1.3,1.1,2,1.6l-0.1,0.7c3.5,9.5,0.8,9.3,3.4,17.5l0,0.1
				c-0.3-0.3-0.5-0.3-0.8-0.2l-0.6,0.4c-0.6,0.4-1.2,0.8-1.8,1.4l-0.1-1c-1.4-0.3-2.6-5.1-3.8-10c-4.1-1.1-1.7,7.3-5.5,1.5
				c-11.7-22.3-14.7-42.9-24.3-69.9c-1.8,9-7.2-5.1-12-10.7c1.4-10.8-0.4-25.5,2.2-34.4c-1.9-4.7-3.4-2.2-5.3-7.3
				c0.2-0.5,0.5-0.9,0.7-1.4c0.5-0.9,1.1-1.9,1.4-3.6l0.5,1.9c3.7,7.8,6.8,5.8,10.2,7.5c4.3,11.3,5.4,18.8,5.2,24.6
				c4.3,9.5,1.2-5.3,5.4-1.9c4.4,9.8,2.2,10.9,3.3,16.4c-0.3,0.5-0.7,0.9-1,1.3c-0.5,0.6-0.9,1.2-1.4,1.9c0,0-0.1,0-0.1-0.1
				c-0.6-1.4-1.2-2.9-1.9-4.5c-0.7-1.9-1.5-3.8-2.4-5.7c-0.8-1.7-1.8-2.5-2.1-1.7c-0.3,0.6-0.1,2.1,0.4,3.5c0.1,0.4,0.3,0.7,0.4,1.1
				c0.7,1.5,1.3,3.1,2,4.7c0.8,2,1.7,4.2,2.7,6.3c0.1,0.3,0.1,0.6,0.2,0.9c1,4,2.2,7.9,3.4,11.8l1.4,4.5l2.3,7.5
				c0.9,2.9,2.3,5.1,3.3,4.9c1-0.2,1.1-2.6,0.2-5.5c-0.8-2.7-1.7-5.4-2.5-8.1c-1.4-4.3-2.7-8.4-3.7-12.3c0.3-0.4,0.6-0.8,1-1.3
				c0.5-0.6,1-1.1,1.4-1.9l0.1,0.3C1511.4,1415.4,1516.4,1430.1,1524.4,1453.2z M1471.2,1441.9l0.4,0.2c0.7,0.3,1.5,0.8,2.4,1.5
				c1.1,3.8,1.3,6.4,1.5,9l-2.2,0.6c-1-2.5-1.9-6.5-3-6.3c-0.5-2.6-0.2-4.1,1.2-3.9L1471.2,1441.9z M1453.3,1391.2l0-0.1
				c0.2,0.1,0.4,0.2,0.6,0.1c1.3-0.3,2.6-1,3.6-2.1l0.2,0.6c1.1-0.4,2.2,2.2,3.3,2.5c5.2,19.7,9.1,27.3,12.8,46.6l0.8,1.8
				c-1.5-1.4-2.8-2-3.7-2.5l-0.1-0.1C1465,1428.9,1455.8,1406.1,1453.3,1391.2z M1439.1,1356.2l0-0.2c0.2,0.2,0.5,0.2,0.7,0.2
				l4.2-1.6c0.9,0.3,1.9,2.1,2.9,2.4c5,11.1,5.7,17.1,6.3,22.8c-0.7,0.6-1.4,1-2.2,1.3C1447.1,1376.9,1440,1366,1439.1,1356.2z
				 M1394,1293.5l-21.3-45.8c3.1-1.3,7.3,4.9,11.3,9.5c1.4-2.2-5.2-12.2-0.6-11.2c2.8,1.4,7.3,15,9.2,10.7l-0.7-1.8
				c1.3,1.8,2.5,3.7,3.7,5.7c0.9,1.5,1.9,3,2.9,4.6c0,0.1-0.1,0.3-0.1,0.4l-0.3-0.1l0.3,0.2c-0.4,1.8-0.8,4,0.1,8l-0.5-0.6
				c-3.8-0.9,7.7,14.2,3.8,13.3l-2.1,1l-0.4,1c-0.8-3.1-1.8-6-3.2-8.9c-0.5-1-1.2-1.7-1.5-1.4c-0.3,0.2-0.2,1.1,0.4,2.3
				c0.7,1.4,1.3,3.1,1.9,5c-0.6,0.6-1.4,1.1-0.3,3.5c8.7,15.8,20.7,34.8,25.3,52.1c-2.9,0-5.9-2-8.9-3.7
				C1406.8,1321.4,1400.5,1307.7,1394,1293.5z M1406.3,1269.1l0.2,0.5c-1.2-1-2.5-2.1-3.8-3.3l-0.7-0.6c0,0,0,0,0,0
				c-0.2-0.3-0.5-0.6-0.7-0.9l0-0.9c-1.6-3.3-4.3-7.6-2.5-2.6l0.5,1.4c-0.9-1.3-1.8-2.7-2.6-4.1c-1.2-2.1-2.5-4.2-4.1-6.2l0.6,0.2
				l-4.7-9.2c3.6,1.9,7.2,4.2,10.8,6.1c2.6,5.1,5.1,10.3,7.6,15.5C1406.4,1266.1,1404.9,1266.1,1406.3,1269.1z M1414.4,1291.2
				c-0.5,0.1-1,0.2-1.6,0.1c-1.1-1.5-2-1.9-2.8-1.1c-2.1-4.6-4.2-9.1-6.4-13.6c-0.1-0.9,0-1.6,0.2-2.4l0.6-0.3
				c1,0.9,2.1,1.9,3.3,2.9C1410.6,1280.2,1413.6,1286.7,1414.4,1291.2z M1421.7,1322.5c-1.3-8.7-5.9-21.7-7.9-26.5l-0.5-1.1
				c1,0.4,1.9,0.4,2.6,0.3c8.9,14.8,19.7,36.6,24.9,52.7l-3.2,1.3C1432.5,1342.3,1427,1329,1421.7,1322.5z M1534.7,1350.6
				c-2.4-13.4-6.2-21.5-10.5-30c-4.3-8.5-9.1-17.3-13.8-32c3.9-1,0.9-10.2,3-13.4c5,6.4,14.9,24.7,10.5,27.9
				c4.5,10.6,10.5,24.6,15.5,37.7c5,13.1,9.2,25.3,10.4,31.9C1544.8,1365.6,1539.9,1362.4,1534.7,1350.6z M1567.2,1285.6
				c1.7,4.4,2.5,12.2,2.2,11.6c7.2,15.7,22.7,36,17.5,46.8c-5.5-7.7-12.3-22.5-19.2-38.8c-6.9-16.4-13.9-34.5-19.2-49.2
				C1551.7,1254.6,1561.6,1271.2,1567.2,1285.6z M1480.4,1336.2c0.8,10.5-12.2-9.6-6.4,8.6c-0.3,0.8-0.6,1.5-1,2.1
				c-0.4,0.8-0.9,1.6-1.2,2.8l-0.6-2.2c-1.1,0.4-2.3-2.2-3.4-2.5c-4.2-12-4.6-16.5-10.5-26.1c1.4-3.3-2.9-16.8,3.6-9.2
				c-4.9-8.1-6.3-20-8.4-19.5c-0.1-6.1,2.5-9.2,6.5-10.7C1467,1302.9,1469.4,1316.8,1480.4,1336.2z M1499.7,1244.8
				c1.5,4.4,1.9,7.5,0,8.2C1493.4,1241.7,1495.9,1240.7,1499.7,1244.8z M1442.3,1259.7l-2.7-5.7c0.3-0.3,0.5-0.6,0.8-0.8l0.2-0.2
				c1.1,0.6,2.3,2.4,3.7,5.8L1442.3,1259.7z M1480.5,1212.8c-4.4-1.4-3.6-4.4-7.7-12.7l3-1.6
				C1481.1,1207.2,1477.2,1206.2,1480.5,1212.8z M1437.2,1246.3l-0.2,0.2c-0.5,0.5-1.1,1-1.5,1.8l-0.3-1c-7.6-7.7,0.1,9.3-6.7,7.2
				c-4.9-8-10.4-18.6-15.8-28.3c-5.4-9.7-10.9-18.4-15.6-22.7c1.9-4.8-9.9-22.1-8.8-27.3c-9.9-16.7-23.7-29-34.1-45
				c-8-12.3-13-27.6-21.6-40.4c-9.7-14.7-22-26.3-30.8-38.4c-9-12.3-13.6-25-26.5-37.2c7.1,1.7,10,0.8-1.3-10.7c0-0.4,0-0.8,0-1.2
				c0-0.7,0.1-1.4,0-2.2l0.6,0.8c9.4,7.2,15.3,9.1,20.6,19.8c2.9,7.5-3.2,2-6.7,0.8c6.6,8.2,16.1,25,22,32
				c9.9,11.7,12.2,6.7,21.1,15.2c14.8,14.3,26.1,38.2,41.7,61.8c6,9.2,11.4,13.9,19.6,25.5c1.9,4.1,2.4,7,0.7,7.9
				C1412.1,1195.2,1429.2,1219.9,1437.2,1246.3z M1371,1217.8l2-1.1c1.2,2.7,1.9,2.6,2.6,2.5l3.3,6c-1.2-0.1-0.3,1.7,0.6,3.6l-2,1.1
				c-1.2-2.7-1.9-2.6-2.6-2.5l-3.2-6C1372.8,1221.5,1371.9,1219.7,1371,1217.8z M1330.1,1174.8c-11.5-12.8-19.8-24.1-29.3-41.3
				c-8.4-14.9-3.4-6.3-11.5-16.6c-17.4-22-20.6-36.7-34.3-50.1c0.7-3.3,1.3-9.5,7.2-5.6l0.1-0.2c1.7,2.5,3.5,4.9,5.3,7.2
				c1.9,2.5,3.9,4.8,5.8,7c1.8,4.5,4.9,10.2,8.7,15.2c1,1.3,2,2.6,3,3.8c0.4,0.8,0.9,1.6,1.5,2.4l0.1,0.2c6,8.1,11.7,14.1,17,17.9
				c1,1.6,1.9,3.2,2.9,4.9c2.5,4.2,5.1,8.8,8.1,13.2c2,3.1,4.2,6,6.5,8.6l2,2.2l0.6-1c0.4-0.6,1.3-0.3,2.7,0.2
				c1.8,0.7,4.1,1.7,4.6-0.9l0-0.2l0.1,0.2c6.6,3.7,25.3,18.9,25.8,28.5c2.2,3.3,3.5,2.3,4.7,1.2c9.4,19,4.3,20.3-2.6,18.9
				c-6.9-1.3-15.9-5.1-14.8,3.3c-7.4-5.2-7.7-16-7.5-19.2C1329.9,1165.5,1334.1,1174.4,1330.1,1174.8z M1161.8,1100.5l-0.1,0.8
				c-0.7-1.5-1.5-2.8-2.5-4.2c-0.7-0.9-1.5-1.5-1.9-1.4c-0.4,0.1-0.3,0.9,0.4,1.8c0.3,0.5,0.6,1,1,1.5c-4.3,2.1-6.2-9.3-11.7-14.3
				c0.7-1.1,10.5,8.6,4.6,0.1c8.5,4.7,7.8,7.2,16.9,18.3C1166.9,1104,1162.7,1097.6,1161.8,1100.5z M1316.8,1114.4
				c6.5,8.6,6.2,12,9.6,18.4l0.6,1.1c-0.4-0.1-0.7,0.1-0.7,0.5l-0.3,1.6c-0.2,1-1,0.7-2.6,0.1c-1.2-0.5-2.5-1-3.5-0.7
				c-3.5-4.4-6.7-10-10.1-15.9c-1.1-1.8-2.1-3.6-3.2-5.4c0-0.2,0-0.4-0.1-0.6l2-1.4C1311.6,1114.4,1315.5,1118.8,1316.8,1114.4z
				 M1302.3,1103.5l-1.9,1.3c-2.8-2-5.7-5-9-9.2c0.4-0.6,0.8-1,1.3-1.5l0.3-0.3c1.8,0.2,4.6,3.4,6.3,3.5
				C1301.3,1100.1,1300.9,1101.2,1302.3,1103.5z M1288.8,1087.8l-0.5,0.5c-0.6,0.6-1.2,1.2-1.6,2.1c-0.4-0.3-0.8-0.5-1.1-0.6
				c-2.7-3.4-5.3-7.9-6.7-11.3l1.6-1.2c3,3.4,5.2,4.2,9,10.2l0.1,0.2C1289.2,1087.6,1288.9,1087.6,1288.8,1087.8z M1273.3,1069.6
				c-2.5-3-4.9-6.2-7.3-9.7c0.2-0.5,0.5-1.1,0.8-1.6c0,0,0-0.1,0-0.1c2.3,1.6,7.5,8.5,7.8,10.4c0,0-0.1,0-0.1,0L1273.3,1069.6z
				 M1261.5,1052.2c-0.3,0.5-0.5,1-0.8,1.6l0-0.1c-2.8-3.4-4.1-2.8-7.3-7.3c3.1,2.1,4-1.7,8.9,5.6
				C1261.9,1051.9,1261.6,1052,1261.5,1052.2z M1260.6,1250.2c-0.9-1.5-1.8-2.9-2.8-4.3c-2.1-3.1-3.1-4.7-3.5-5.6
				c2,0.7,4.2,2.2,6.1,2.7c1.6,2.7,1.1,3.7,2.1,5.9l-2,1.1L1260.6,1250.2z M1261.6,999.1c-7.8-9-16.4-18.3-16.8-22.7
				c-6.3-4.3-12-7.3-16.9-8.4c-7.3-15.6-13.9-12.7-27.4-27.1c9.1,3,20.3,9.8,36.3,28.4c5.3,3.3-1.8-11,8.3-2.8
				c5.1,11.3,18.2,20.1,25.7,32.6c0,0.4,0,0.9,0,1.3c0,0.8-0.1,1.7,0,2.9l-1.2-1.9C1268.9,1005.5,1263.4,997.7,1261.6,999.1z
				 M1105.2,891.2c-5.8-4.3-6.4-6.4-9.7-9.7c1-3.8,9,3.6,11.6,2.2c1.7,2.2,3.5,4.5,7.1,7.6C1113.8,895.7,1104.2,884.7,1105.2,891.2z
				 M1220,868.9c0-1.7-0.1-3.5-0.3-5.3l0.7,0.8c0.3-0.2,6,4.8,10.7,10c4.7,5.2,8.6,10.4,5.5,10.5c-7.2-3.7-7.1-7.8-15.9-15.5
				L1220,868.9z M1211.6,857.6l0.7,0.3c0.1,1.3,0.2,2.6,0.3,3.9c-3,0.4-13.5-12.1-19.6-16.7c3-1-3.4-6.3,1.1-6.7
				C1205.6,845.8,1206,850,1211.6,857.6z M1145.9,859.9l4.5,3.9c0.2,0.8,0.4,1.5,0.5,2.2c0.1,0.7,0.3,1.4,0.5,2.1l-1.6-1.7
				c-4.9-3.6-0.4,1.6-2.3,2.6l-8-7C1140.2,858.9,1146,864.3,1145.9,859.9z M1154.5,869c-0.1-0.2-0.1-0.5-0.1-0.7
				c-0.2-1.1-0.4-2.2-0.9-3.6l1.3,1.4c3.4,3.1,2.7,4.4,7.2,8C1160.8,874.6,1157.7,872,1154.5,869z M1178.7,866.2
				c1.9,2.7,3.8,5.4,5.3,4.9C1194.2,882,1171.4,865.9,1178.7,866.2z M1181.1,890.1c-6-6.1-2.1,5.1-10.2-4.8c0.7-0.9-2.6-3.6-4.5-5.6
				c3-2.6,12.4,4.8,22.2,14.1c9.8,9.2,19.8,20.3,24.8,24.5c0.3,0.2,1.4-1.8,1.6-1.6c10.5,10.5,19.2,21.9,24.8,30.7
				c-7.8-4.1-19.3-14-30.5-25C1198.1,911.3,1187.2,899.2,1181.1,890.1z M1145.6,887c5.9,2.4,18.3,9,23,16.4
				C1166.1,906.9,1150.1,893.6,1145.6,887z M1390.1,1059.7C1382.6,1055,1377.6,1039.5,1390.1,1059.7L1390.1,1059.7z M1440.8,1137.3
				c5.4,7.1,9.5,13.4,11.9,23.1c-3.7-1.8-8.4-7.8-14-17.6C1438.2,1139.8,1439,1138,1440.8,1137.3z M1508.6,1079.1
				c-7-9.9-4.4-11-10.5-21.5l2.4,3.2c0.2,0.3,0.4,0.5,0.6,0.7C1501.9,1064.3,1504,1069.5,1508.6,1079.1z M1485.1,1020.6
				c10.5,15.7,18.6,31.5,16.8,34.6c-10.2-12.8-3.1-2.8-3.1-2.8l0,0l-2.5-3.2c-0.9-1.2-1.8-2-2.5-2.5c-0.5-0.9-1-1.9-1.7-3.1
				c-4.6-8.3-14.2-25.2-36.9-58C1461.7,989.3,1474.6,1004.9,1485.1,1020.6z M1388.4,694.7c-2.4,1.6-11-10-12.8-12.1
				C1378,681,1386.7,692.6,1388.4,694.7z M1376.4,719.7c16,15.4,33,29.2,51,47l0-0.3c2.1,2.4,4.1,4.8,6,6.9l1.8,1.9
				c2.6,2.6,5.1,4,5.5,3.1c0.4-1-1.3-3.9-3.9-6.6c-1-1.1-2.4-2.6-3.8-4.3c2.9-2.2,3.5-8.8,14.6,4.3c-12.3-16.3-24.1-31.7-30.4-43.6
				c2.7-2.9,11.8,3.2,20.8,11.9c9,8.7,18,20.1,21,27.2c19,19,36.1,39.3,53.7,61.8c17.6,22.5,35.8,47,56.9,75
				c-0.5,8-11.1-10.3-13.3-6.7c-19-28.5-40.1-54.4-59-73.3c-19-19-35.6-31-45.6-32.6c6.5,10.4,15.9,19.4,20.9,22.1
				c6.8,9.6,12.5,18.6,19.7,28.8c-9.8-4.8-20.4-19.9-30.5-30.8c-4.9-5.3-11.2-9.5-16-14.7c-3.4-3.7-6.7-10.9-12.8-17.5
				c-3.1-3.3-8.8-6.1-10.5-7.9c-5.4-6-4.9-8.5-10.2-14.1c-20.4-21.4-45.1-42-67.3-67.2C1355.8,693,1367.6,711.1,1376.4,719.7z
				 M1363.1,870.6c-14.5-14.3-31.5-33.3-48.5-53c0.4-4.6,10.7,8.8,9.7,1.7c15.7,15.5,28.4,28.3,40.2,41.1
				c11.8,12.9,22.9,25.8,35.1,42c-11.2-5.8-25.2-25.1-38.5-40.8C1355.2,860.4,1369.2,871.8,1363.1,870.6z M1326.8,906.8
				c-0.4,0.1-0.9,0.1-1.4,0c-1.5-2-4.3-5.1-9.2-9.8C1319.6,894.7,1322,899,1326.8,906.8z M1332.8,913.8c2.9,3.5,7,7.8,6.4,9.1
				c5.5,5.9-1.3-6.2,6-0.1c17.8,20.6,30.2,33.7,40.4,51.4c-5.1,0.5-12.2-8.4-19.9-17.9c-7.7-9.5-15.9-19.6-22.6-21.7
				c-7.3-8.7-15.3-17.5-12.4-19.6l-0.8-1.2C1331.1,914.1,1332,914,1332.8,913.8z M1233.3,806.2c6.9,8.6,17,18.9,25.7,28.8
				c-2.1,1.7-10-4.5-17.7-11.7c-7.8-7.3-15.4-15.7-16.8-18.8C1224.6,800.3,1231.8,807.9,1233.3,806.2z M1289.2,607.7
				c12.6,6.1,22,15.2,32.8,22.6c5.4,8.3,13.5,18.1,5.9,20.1C1304.9,634.7,1287.6,615,1289.2,607.7z M1172.9,685.3
				c22.4,14.7,43.5,30.5,57.4,46.9c9.1,6,21.9,16.5,34.9,28.3c13,11.8,26.2,25.1,36.5,36.1c-7.4-2.3-19.7-13.6-33.4-26.2
				c-13.6-12.7-28.7-26.6-40.9-34.8c-4-3-4.5-0.8-1.5,1.7c-29.3-20.9-51.4-44.5-74-60.8c-3.2-2.3-3.3-0.7-4.6-0.5
				c-5.6-5.6-15.3-11.7-23.7-17.5c-8.4-5.8-15.7-11.2-16.3-15.9C1126.7,656.7,1150.4,670.5,1172.9,685.3z M1093.4,684.4l-6.4-4.3
				l1.3-1.9l6.4,4.3L1093.4,684.4z M1027.5,658.5c6.2,4.2,14.9,15.6,17,9.1c14.2,12,34.2,23.9,45.6,28.5c18.9,18.4,40,28,61.5,46.1
				c-12.8-2.6-25.8-16.2-35.8-22.5c-5.4-3.4-12.9-4.6-26.3-15.8c-13.8-5-32.9-15.3-47.2-25.6c-8-5.8-9.7-13.7-21-16.9
				C1021.6,658.5,1024.1,657.9,1027.5,658.5z M1016,670.2c8.3,2.1,18.4,10.5,22,14.9C1035.1,687.5,1012.2,672.4,1016,670.2z
				 M915.6,532.3c13.5,6.1,26,11.8,41.8,17.4c12.5,5.3,10.7,8,16.4,12.1c21.9,10.9,28.4,17.1,42.9,21.7c19.5,15.3,48.4,28,50.5,40.3
				c-4.3-2-8.3-3.7-11.4-4.3l0.1,0.3c-6.6-4-13.5-7.8-20.2-11.3c-8.8-4.6-18-9.3-26.2-14.4c-2.4-1.5-5.1-2.4-5.9-1.9
				c-0.8,0.5,0.5,2.1,2.9,3.6c3,1.8,5.9,3.6,8.9,5.3c6.8,3.8,13.6,7.4,20.3,10.8c6.6,3.5,12.9,6.8,18.6,10.4l-0.3,0l3.4,2.1
				c-1.9,1.4,2.5,4.5,1,6c-11.6-4.6-30.4-18.6-29.6-13c-1.5-0.7-3.1-1.5-4.8-2.3c-4.3-2.1-8.8-4.2-13.3-5.9
				c-0.2-0.1-0.3-0.1-0.4-0.2c-3.6-2.6-8.1-5.7-12.8-7.4l0.1-0.1c-17.2-13.2-39.9-28.1-56.4-37c11.3,1.4-12-10.3-2.7-12.7
				c2.6,1,6.3,2.9,7.4,2.6c3.5,1.5,7.1,3.3,10.9,5.2c3,1.5,6.2,3.1,9.3,4.6c2.1,1,3.9,1.3,4,0.6c0.1-0.7-1.5-2.1-3.6-3.1
				c-2.8-1.3-5.6-2.8-8.6-4.3c-4.8-2.4-9.8-4.9-14.9-6.9l0.5-0.1c-12.2-7.9-21.3-9.7-31.3-11.6c-10-1.9-20.8-3.8-37-11.7
				c-2.1-4.7-12.9-10.3-7.1-14.1C887.8,519.8,902.2,526.2,915.6,532.3z M999.6,604.6c2.3,1,4.8,2.6,7.8,4.8c0,0.2,0.1,0.4,0.2,0.6
				c0.1,0.1,0.2,0.2,0.3,0.4c-1.9,1-1.3,3.4-0.2,6.1l-0.3-0.2c-13.4-6.6-16.8-8.5-26.9-16.1C986.3,601,995.1,604.9,999.6,604.6z
				 M1031.2,622.3c0.1,1.1-0.9,1.9,2.2,3.8c-1,3.4-12.8-1.2-19.9-6.9c-0.9-2.2-1.5-4.3-0.3-5.1c0.1,0.1,0.3,0.1,0.4,0.2
				c3.5,1.4,7.3,3.2,11.4,5.1C1027,620.3,1029.1,621.3,1031.2,622.3z M992.6,649.9c-6.2-2.2-16.3-6.7-24.2-11.2
				c-7.9-4.5-13.7-9.1-10.9-12C973.6,635.1,980.2,641.8,992.6,649.9z M947.5,595.8c-2.2,1.9-10.4-2.3-14.4-5.9
				C934.8,589,942.2,593.4,947.5,595.8z M922.6,575.9c-6.3-5.5-11.3-10-3.6-10.6c13.4,7.8,28.3,12.9,41.3,22.8
				C953.1,588.9,929.3,574.5,922.6,575.9z M722,552.9c9.7,5,24.1,8.7,37.1,12.9c13,4.1,24.7,8.5,28.9,14.2
				c15.3,0.9,28.6,10.4,45.8,16.6c21.8,7.9,44.9,14.3,67.5,23.7c6.4,2.7,12.1,3.4,14.6,4.5c8.3,3.8,13.9,12.4,20.2,10.1
				c4.2,3,5.1,5.4,4.6,7.5c19,10.9,38.3,16.5,41.7,25.3c13.3,2.6,22.9,5.7,39.1,15.2c7.4,5.9,15.7,19.7,27.4,20
				c6,6.7,12.5,13.6,14.3,19.1c-7.9-1.2-19.9-7-29.3-9.7l0,0l-4.8-3.1c-6.3-4.1-12.9-8.2-19.6-10.7c-1.6-0.6-2.4-0.3-1.8,0.7
				c0.4,0.7,1.3,1.4,2.4,2.1c0.6,0.3,1.2,0.7,1.8,0.9c4.9,1.8,10.3,5.2,15.9,8.8l6.6,4.2c0.4,0.3,0.9,0.5,1.3,0.7l0.1,0.2
				c10.5,9.5,21.1,15.1,30.6,20.4c9.5,5.3,17.9,10.2,23.9,18.2c7.7,4.8,9,1.1,20,10.4c-2-6.1-11.4-15-27.4-25.6
				c15.4,5.2,32,16,48.5,28.8c16.5,12.8,33,27.7,48.6,40.9c3.7,3.1,7.4,3.5,10,5.6c8.3,6.5,18,16.2,27.3,24.9
				c9.3,8.7,18,16.2,24.8,18.3c7.6,13.1,18.8,22,29.4,30.3c10.6,8.3,20.7,16,25.5,26.3c5.7,1.7,12.5,9.2,18.5,16.5
				c5.9,7.3,11.1,14.3,13.9,15.1c7.1,7.2,2.9,7.1,4.6,10.8c7,5.6,10.8,2.9,21.1,16.8c-1.4,4.9,6.7,15,15.4,26.2
				c8.7,11.2,18.1,23.5,20,31.9c9.6,5.1,12.1,10.1,25.2,28.3l-2.8,1.9c4.5,3.6,8.7,11.5,12.5,18.3c3.9,6.8,7.4,12.4,10.9,11.4
				c4.8,7.1,7.2,12.2,6,14c7.5,5.7,16.2,16.1,26,32.8c-4.8,1,2.4,13.3,3.2,19.8c-6.5-2.9-15.6-17-22.7-21.5
				c-4.1-10-9.6-21.8-15.6-31.3c-6-9.5-12.6-16.7-18.5-17.7c-10.7-20.7-27.9-43.3-44.5-65.1c-16.6-21.8-32.7-42.9-40.5-62.1
				c-8.7-9.4-15.3-13.5-19.7-12.6c-35.6-41.2-67.4-73.3-97.4-102.4c-10.3-10-21.2-21.4-32.4-31.4c-11.2-10-22.7-18.5-33.9-22.8
				c-7.2-5.6-14.1-11-16.8-14.7c-0.1,2.7,7.1,8.2,2.3,9.1c6.1,5.9,14.2,12.6,18.8,18c-1.4,2.5-3.1,4.6-7.2,3
				c-10.4-13.1-17-19.7-29.5-21.9c-11.5-8.8-20.4-16.4-30.3-23.8c-9.9-7.4-20.6-14.7-36-22.4c-2.4-3.8-7.2-8.2-9.7-11.9
				c-11.3-4.2-23.1-12-34.3-19.1c-11.2-7.2-22-13.7-30.8-15.4c-12.4-9.2-32.7-19.4-32.1-25.6c9.1,2.9,27.4,15.7,30.7,13.1l1.4,0.6
				c3.3,1.5,6.4,2.9,9.3,3.8c1.7,0.6,2.4,0.2,1.7-0.9c-0.7-1.1-2.7-2.3-4.4-2.9c-2-0.6-4.5-1.8-7.3-3.1c-1-0.4-2-0.9-3-1.4l0.5-0.1
				c-8.9-10.5-33.2-19-51.9-28.9c-10.2-2.9-4.5,1.1-6.4,4.5c-6-1.3-17.5-7.5-21.4-6.6c-11.3-10.8-28.1-14.8-45.6-24.4
				c8.1-3.2,23.9,8.7,32.3,7.4c5.2,2.4,10,4.8,12.9,7.6c0.6,0.5,1.4,1,2.2,1.4c0.8,0.4,1.7,0.7,2.5,0.8c1.5,0.2,1.8-0.4,0.7-1.4
				c-5.2-4.8-13.3-8.6-20.6-11.9l0.8-0.3c-6.7-4.6-18.5-9.6-22.4-13.7c-8.2-3.9-12-1.8-21.9-5.5c-5.7-2.2-20-9-32.8-15.6
				c-12.8-6.5-24.2-12.8-23.5-14.5l10.6,3.8c-15.2-6.8-29.9-10.2-44.1-13.3c-14.3-3-28.2-5.8-42.3-11.2
				C702.8,551.5,713.3,552.7,722,552.9z M907.3,778.7l1.7-3l-1.2-0.8c0,0,0.1,0,0.1,0c0.8-0.3,1.4-0.7,2.1-1c0.5-0.3,1-0.5,1.5-0.8
				c2.9,1.2,4.6,1.1,6.2,1c20.3,11.3,33.9,18.4,45.9,25.1c11.9,6.7,22.2,13.2,35.3,24c0.9-1.8,2.6-2.5,5.4-1.9
				c12.1,10.2,22.6,20.2,22.4,27c-16.3-9.4-29.4-19.4-41.1-27.4c-11.6-8-21.8-13.9-32-14.9C939.3,792.3,921.7,789,907.3,778.7z
				 M863.1,818.3l-5.6-3l1.1-2l5.7,3L863.1,818.3z M903.7,769.7c-0.2,0.1-0.5,0.2-0.7,0.4c-3.7-1.1-8.1-3.1-14.2-6.7
				c3.7-0.3,7.4-0.6,16.5,5l0.5,0.2C905,769,904.3,769.4,903.7,769.7z M1010.7,811.9c7.1,4.3,5,5.9,13.5,10.7l-2.6,3.7
				c-8.9-5.6-5.8-7.6-11.8-12.3c0-0.5,0-1,0-1.4l0.3,0.3L1010.7,811.9z M1000.7,807.9c0,0.5,0,0.9,0,1.4l-0.4-0.3
				c-5-1.2-18-8-23.1-13.5c0-0.2,0-0.4,0-0.6C983.6,794.1,993,805,1000.7,807.9z M970.9,791.2L970.9,791.2c0,0.5,0,1,0.1,1.5
				l-0.7-0.5c-3.2,2.2-13.7-5.9-14.5-9C959.7,781.4,964.4,786.7,970.9,791.2z M1045.9,816.6c-9.9-7.5-16.6-14.6-12.9-18.5
				c-16-5.9-32.6-17.7-51.5-29.9c-0.5-0.8,2.5-0.5,3.6,0.9c-5.8-7.4-22.4-17-40.2-26.3c-17.7-9.4-36.5-18.6-46.3-27.1
				c-4.1-2.1-3.8,0.3-7.3-1.2c-24.3-13.9-43.3-25.1-66.1-32.4c-13.5-13.4-37-19.6-63.9-29.3c-10.8-2.5-2.5,3.2-12.2,2.8
				c-8.8-2.8-7.7-5.2-8.4-7.8c-6.1-1.1-14-0.8-6.6-2.3c-18.9-2.9-28.9-6.8-46.5-16c-1.5-4.1,12,2.2,8.4-3.4
				c-1-0.6-24.9-10.3-30.2-9.9c-2.6-1-3.7-2-2.8-3.1c8.6,1.6,17.1,3.6,24.1,7.1c0.4,0.2,0.9,0.4,1.3,0.5c1,0.3,2,0.4,2.6,0.3
				c0.9-0.2,0.5-0.9-0.8-1.6c-9.5-4.7-20.8-7.1-30.9-9l0.8-0.4l-13.7-3.6c-0.3,1.5,5.8,2.6,6.3,4c2.5,5-13.3-1.6-11.7,2.9
				c-14.4-5.9-35.1-8.1-51.8-10.7c-9.7-4.7-18.9-9.6-40.7-12.3c-0.7-4.9,8.4-4.6,15.4-5.4l7,1.3l0,0c1.9,1.6,5.6,3,8.7,4.2l1.3,0.5
				c0.5,0.2,1,0.3,1.6,0.5c1.2,0.2,2.4,0.3,3.1,0c1-0.3,0.5-1.1-1-1.7l-1.4-0.5c-3.3-1.3-5.5-2.1-6.4-3.1l1.4,0.4
				c-1-3.9,5.8-3.4,8.3-5.3c17.4,3.9,24.8,9.1,37.2,13.9c18.7,1.9,33.8,6.6,46.8,11.4c13,4.9,24.1,10,35,13.1
				c20.8,6,28.6,5.1,45.1,11.3c7.7,3.1,14.1,6.3,15.6,9.3c9.9,2.2,20,4.7,28.3,5.9c19.8,10.4,45.7,21.9,71.4,33.5
				c25.8,11.5,51.4,23.1,71.2,32.3c10,5.3,9,8.4,20.6,14.3c9.4,5.5,13.2,4.9,20.2,7.9c13.7,10.3,30.3,18.5,46,27.3
				c15.7,8.7,30.6,18,40.5,29.9c-9-2.1-25-12.2-41.4-22.5c-16.4-10.3-33.1-20.9-42.5-25.1c-0.7,1.7,7.3,5.5,4.3,6.6l-6-3.7l0.2,0.9
				c-5-4.1-11-7.9-16.9-10.8l-0.6-0.3l-0.5-0.1c-1.5-0.4-2.8-0.7-4.6-1.2l0.5-0.1l-3.1-1.8c2.3-1.7,1.7-4.1-0.2-6.7
				c-11.5-6.3-7.9-0.2-11.5-1.3l0.1,0.7c-13.9-8.2-28.5-15.5-42.6-22.4c-20.3-9.8-39.6-18.5-58.5-28.2l-2.2-1.1l-3.7-0.4
				c-2-0.2-2.3,0.7-0.8,2c1.5,1.3,4.3,2.6,6.2,2.8c8.5,4.3,17.1,8.4,25.7,12.5l32.4,15.4c12.9,6.3,26.1,13,38.7,20.2
				c1,2.4,20.1,13.3,21.4,12l-1.9-1.4c2.5,0.8,4.3,1.3,6,1.7c4.6,2.3,9.2,5.2,13.1,8.5l-1.5-0.7c5.1,4.9,19.1,13.6,33.5,22.1
				c14.4,8.5,29.3,16.7,36.7,19.6c11.3,5.8-0.5,4.4,6.7,8.9c9.8,4.7,13.5,1.2,24.8,8.2l0-0.1c0.7,0.9,1.1,1.6,1.5,2.6
				c0.4,0.8,0.9,1.8,1.7,3l0.7,1l1.3,1.1l3.7,3.1c1.1,0.9,2.2,1.8,3.3,2.8l-0.1,0c2.2,5.4,8.7,10.5,15.1,15.6
				c6.4,5.1,12.7,10.3,14.5,15.3c-3.9,2.6-14.4-5-21.4-7.1c-3.7,2.4,16.7,14.1,16.9,18.1c-10.5-3.8-24.8-13.3-37.7-20
				c6,1.8,0.6-1.3,2.8-3.6C1068.8,831.9,1055.7,824,1045.9,816.6z M844.1,739.6c-11.6,0.7-23.6-6.2-36.5-14
				c-12.9-7.8-26.7-16.5-41-19.6c11.3,0.1,24.8,6.1,42.4,12.6C818,721.9,832.1,731.3,844.1,739.6z M761.1,701.5
				c-5,0.5-14.9-2.9-23.4-5c0.7-2.2-8.2-4.5-4.8-6.6C743.6,690.4,746.3,697.3,761.1,701.5z M540.3,692.9c6,1.2,1.5,4.1,8.9,5.1
				c-7.4-0.1-6.9,4.3-19.8,1.1c-2.4-1.7-3.7-3.7-2.2-6.2C529.4,691.7,539.5,694.9,540.3,692.9z M657.8,611.1l-0.1,0L657.8,611.1
				L657.8,611.1z M811,603.3l13.8,5.5c6.1,6.4-5.4,3.9-13.7-1.4c-0.1-0.3-0.3-0.7-0.4-1c-0.3-0.8-0.6-1.6-1.2-2.4l1,0.4L811,603.3z
				 M799.2,623.2c-4.2,2.4-14-0.2-23.3-4.4c-9.3-4.2-18.2-9.9-20.3-14.1c6.5,0.1,16.5,3.1,25.4,6.9
				C789.8,615.4,797.4,620.1,799.2,623.2z M805.6,603.3c0.3,0.6,0.6,1.2,0.8,1.8c0.2,0.5,0.4,1,0.7,1.6l-1.1-0.4
				c-13.7-2.1-29.2-11.5-41.1-16.5C774.7,587.5,793.7,595.1,805.6,603.3z M740.7,603.2c-24.9-9.5-34.8-10-47.9-17.4
				c2.9-2.3,14.5,0.4,25.4,4.7C729.2,594.7,739.6,600.4,740.7,603.2z M691.4,569.8c-9.3-4.4-16.5-9.2-17.2-12.8
				c11.8,1.9,25.1,5.8,34.7,10.2c9.6,4.4,15.4,9.3,12.4,13C712.1,578.3,700.7,574.2,691.4,569.8z M901.2,670.9
				c12,3.4,25.8,13,32.2,16.7c-2.2,1.9-10.6-1-18.3-4.9C907.4,678.7,900.3,673.7,901.2,670.9z M976,715.4
				c-15.6-8-21.6-13.7-30.3-19.9c20.3,5.5,43.8,16,61.8,31c-5.1-1.3-18.4-4.7-19.2-10.4C982.2,713.7,976.3,711.5,976,715.4z
				 M1123.2,802.6c-1.3,2.6-6.7-0.8-9.3,0c-15.4-12.6-28.7-22.3-42.3-30.8c-13.6-8.4-27.4-15.6-44.1-22.9
				c5.7-2.9-3.5-10.1-10.9-16.6c14.7,6.2,45.3,22.1,77.6,48c1.7,1.3,4.8,6.5,4.5,6.2C1106.5,791.9,1117.9,792.1,1123.2,802.6z
				 M1092.8,818l0,0.5c-1.7-1.5-3.4-3-5.1-4.4l-2-1.7c-0.2-0.4-0.4-0.7-0.5-1.1c-0.8-1.6-1.8-3.8-5.1-7.1l0.7,0.3
				c2.5-0.8,7.9,2.3,9.2-0.2c10.6,8.7,21.3,17.9,19.1,22.1C1100.5,818.9,1099.7,822.8,1092.8,818z M1055.5,857.2
				c1.3,1,2,1.8,3.3,3.2c0,0.2,0.2,0.5,0.4,0.9c-2,2.1-11.7-5.6-14.2-9.4C1046,850.9,1049,852.9,1055.5,857.2z M1066.7,862.8
				l-0.6-0.2c-0.2-0.4-0.6-0.9-1-1.3c-1.3-1.4-3-3.4-5.8-5.7c2.1-11.6,20.3-0.2,32.5,14.2C1082.5,870.3,1080.7,870.8,1066.7,862.8z
				 M706.3,523.5c12.5,3.7,25.4,9.1,32.6,13.2c-21-5.2-47.7-5.7-62.6-16.9C681.8,517.7,693.8,519.7,706.3,523.5z M610.4,518.3
				c6.2,3.9,18.6,8,32.8,11.9c14.2,3.9,30.1,7.5,43.3,10c-1,1.8,3.8,3.5,2.4,5.4c-20.2-5-40.3-7.5-58.9-10.9
				c-18.6-3.4-35.6-7.8-50.3-16.7C588.5,516.3,600.5,520.8,610.4,518.3z M189.4,721.2c-3.8,0.1-7.5,0.8-10.5,1.5
				c-1.1,0.2-2.2,0.5-3.2,0.7l0.1,0c3.2-2.6,14.2-8.9,20.4-7.9c-2.1,1.2-2.8,2.5-3.4,3.6c-0.1,0.3-0.3,0.5-0.4,0.8l-1.2,0
				C191,720.4,190.9,720.9,189.4,721.2z M492.3,581.9c-12.2-1.7-12.9-5.6-24.1-7.3c-8.7-3.4-12.2,1.1-21.4,0.3
				c-4.4-0.4-11.1-3.1-10.4-3.1c-11.4,0-15.7,3.8-28.6,2.8c-15.2-2.6-36.9-2.1-59.3-1.3c-22.5,0.7-45.6,1.7-64.4-1
				c-25.5,2.1-56.2,9-74.2,4.9c-24.5,5.6-36.8,6.1-59.8,7.1c-3.2-5.5-9.4-8.8,4-13.2l7.2-0.1c0.7,0,1.3-0.1,2-0.2
				c1.9-0.3,3.7-0.9,4.5-1.7c1-1-0.4-1.7-3-1.7l-5.8,0.1c12.7-8.6,47.3-13.7,83-16.2c36.4-2.7,73.8-2.6,91.4-6.9
				c4.2,3.5,10.4-0.7,10.8,3.4c13.8-1.6,22.2,0.5,31.5,3.1c9.3,2.6,19.4,5.7,36.5,6.8c0.5,1.4-0.8,3.2,3.4,3.6
				c0.3,2.1-3.7,2.4-10.8,1.7c4.3,2.6,10.1,4.8,17.4,6.7c20.1-1.1,35.7-0.7,51.7,1.1c16,1.8,32.5,5.1,54.1,10.3
				C519.5,582.7,502.2,580.4,492.3,581.9z M210.1,610.4c-14.6-0.9-11.9-5.8-3-9.7c8.8-3.9,23.8-6.4,33.1-2.6
				C236.7,603.5,215.2,605.1,210.1,610.4z M175.3,610.3c-9.9,3.8-21.5,0-41.2,5.6c-0.9-2.7-1.5-5.3,2.2-7.4
				C161.5,602.5,166.3,607.6,175.3,610.3z M58.5,627.6c6.1-0.5,13.6-0.7,7.8,2.8C60.4,631.5,58.2,630.3,58.5,627.6z M40.4,640.5
				c-5.9,1.3-8.1,0.2-7.9-2.6C42.8,634.6,45.2,637.5,40.4,640.5z M-195.5,722.6c8.5-4.2,5.4-4.9,12.5-6.2c-1.2,1.6-2.4,3.3-1.6,4.6
				l-6.2,3.1C-192.9,724-194.9,724-195.5,722.6z M-216.6,734.8l-1.1-2l6.2-3.3l1.1,2L-216.6,734.8z M-73.9,670.2
				c5.9-3.5-1.5-6.5,7.4-10.1c8.5-2,11.2,0.4,18.4-0.5c8.8-5.5,19.9-11.5,30.1-14.8c10.2-3.3,19.3-4,23.8,0.8
				c-22.7,9.6-37.1,15.7-52.1,21.2c-15,5.5-30.6,10.4-55.1,19.1C-102.7,681.2-88.4,675.5-73.9,670.2z M25.6,612.6
				c-23.9,4.6-47,13-69,21.1c-22.1,8.1-43.1,15.7-63.8,18.8c-22.5,12.8-45,21.1-65.6,29.3c-20.5,8.2-39.1,16.3-53,28.2
				c-9.5,5.1-13.3,4.4-20.4,7.2c-23.2,11.8-31,23.7-46.8,25.9c-3.3,5.4-11.1,10.9-19.5,15.6c-8.4,4.7-17.4,8.6-23.2,10.3
				c6.6-14.9,32.7-28.8,66.3-49.2c10.8-6.6-8.1-1.1,0.9-5.8c10.1-6.8,12.8-8.6,28.4-15.7c3.3-0.3,5.6,0.5,5.9,3.3
				c10.4-4.9,18.1-5.5,20.6-6.9c18.4-10,40.6-20.2,62.7-29.6c22.1-9.4,44-18,61.6-25.7c18.3-8,34.5-16.7,48.4-24.5
				c14.9-5.5,26.6-8.2,35-8.7c9.4-4.9,35.9-13.5,58.3-18.7c22.3-5.2,40.4-7.3,32.6-2.6l-0.1,0c-2.5,0.5-4.9,0.9-7.1,1.2
				c-2.7,0.3-5.6,1.4-6.3,2.5c-0.7,1.1,0.9,1.7,3.6,1.4c3.4-0.4,6.7-1,9.5-1.5l1.1-0.2l-0.1,0.1c12.6-0.4,29.8,0,20,8.6
				c-25.3,6.7-51.6,13.5-56.8,5.9C35.3,605.8,35.3,609.5,25.6,612.6z M654.6,445c4.6,0.9,3.8-1.3,4.7-2.4c1.9-2.7-22.2-4-14.9-6.9
				c17.7,5.2,31.9,3.9,50.6,13.4c-0.4,3.6-11,1.2-20.6-0.5c7.9,4.5,23,8.8,29.6,13.5c-3.3,0.2-4.8,1.4-5,3.4
				c-26.3-6.9-47.8-13-56.8-19.8c-10.9,0.4-29.3-3.4-39.2-8.1c2.3-0.5,4.4-1,4.6-2.6C623.7,437.7,635.3,439.3,654.6,445z M440,525.1
				c-8.6,1,6.9,4.1-7.6,2.9c18.2,2.8,36.8,6,46.8,11c-7.4,2.7-26.5,0.6-29.8,5.2c-12.1-2.8-19-6.8-35.9-8.2c-0.3-2.8-0.3-5.5,4-6.6
				c-20-0.1-41.3,0.6-51.3-4.2c-18.7,0.8-29.4,0.9-40.6,0.9c-11.2,0-23,0-43.8,1.7c-6.9,0.5-2.3,3.9-10.8,4
				c-6.9,0.7-8.2-0.8-14.7-0.2c-4.5-5.2,8.7-6.2,10.4-9.8c32.9-0.6,55.5-3.1,73.8-4.7l-0.1-0.2c2.9,0.3,5.7,0.5,8.5,0.5
				c11.9,0,22.6-2.4,31.1-4.3C405.4,515.2,420.2,520.7,440,525.1z M374,509.3l0,1.1c-11.5,2.6-21.1,4.6-30.8,3.4l1-0.3
				c-0.3-3-15.9-1.1-11.2-5.6l-0.1-0.1c0.3,0,0.6-0.1,0.8-0.1c1.6-0.3,4.8-0.6,10.7-0.9C350.1,508.8,368.7,507,374,509.3z
				 M355.7,484c15.4,1.5,17.4,4.4,13.5,6.8c-3.8,2.4-13.4,4.5-21.2,4.5c2.2,3.7-2.6,5.3-3.8,8l0.1,0.1c-5,0.2-9,0.5-12.3,0.9
				c-8.9-2-23.5-2-40.2-1c-1.7,2.1-0.7,8.4-18.4,5.5c-2.7-2.9,7.6-2.6,11-4c-19.4-2.3-31.7-0.6-56.3-0.6c1.1-6.3-13.9-6.3-34.4-3.2
				c-1.3-4.3,12.1-3.2,18.5-4.4c38.2-6.9,81.4-11.4,132-10.3C348.8,485.6,352.9,485,355.7,484z M149.8,512.7
				c-12,1.1-7.6-2.6-11.9-2.7c-9.2,2.1-6,7.5-20.9,11.7l0.4,0.3c-3.2,0.1-6.7,0.6-9.8,1.1c-2.7,0.4-5.3,0.8-7.6,0.9l2-0.6
				c-19.1-1.1-51.2,10.5-88,19.2c2-3.1-5.6-6-4.2-1.2c-10.4-2,8.5-6.5,20.7-10.1c10-7.5,24.9-9.9,40.7-12.1
				c15.9-2.2,32.6-4.2,47-11.4c3.5,1.4,12.7-0.4,23.5-2.4c10.8-2,23.2-3.9,33.1-3c-4.9,2.9-13,5.3-14,8.9
				C156.5,511.5,152.2,510.3,149.8,512.7z M98.9,526.3l-0.6-0.4c3-0.2,6.2-0.7,9.1-1.1c2.3-0.4,4.4-0.7,6.3-0.8l0.1,0.6
				c-5.6,5.8-21.8,6.2-36.2,9.6C80.2,531.1,93.3,529,98.9,526.3z M276.3,415l0-0.2c0.1-0.1,0.1-0.2,0.1-0.3c0-0.2,0.1-0.5,0.3-0.8
				c14.7-3.4,31.1-3.2,48-2.6c16.6,0.5,33.7,1.3,50.5-0.8c8.2,0.6,16.1,0.4,23.8,0.2c9.8-0.2,18.5-0.3,26.2,1.6l-0.7,0
				c8.6,4.8,32.7,1.7,51.8,6.3c-29.1,2.6-59.6,1-92.7-0.9C350.5,415.5,314.8,413.3,276.3,415z M-127.1,572.1
				c1.4,4.5-5.4,9.6-12.7,14.8c-7.3,5.2-15.1,10.6-15.8,15.3c-24.6,8.8-43.3,13.2-62.1,18.1c2.8-5.3,19.2-12.5,17.2-16.9
				C-177.6,594.6-157.2,583.1-127.1,572.1z M426.4,447.6c-6.1,2.9-18,3.8-30.3,3.5c-12.3-0.3-24.9-1.9-32.2-4.7
				c4-3.6,14-4.9,25.4-4.9c11.3,0,24,1.3,33.4,2.4C422.2,445.5,421.8,447.1,426.4,447.6z M299.9,400.3c6.6,0.5,9.6-1.6,16.1-1.6
				c0.6,0,10.9,2.1,12.2,2.1c8-0.1,15.9-2.1,24.2-2.4c23-0.9,49-0.4,74.9,1.2c25.9,1.6,51.8,4.5,74.5,7.6
				c-3.7,3.6-24.8,0.3-24.9,5.4c-9.7-2-23-3.1-23.7-6.6c-8.6,1-9.8,4.7-23.5,4.1c-10.6-2.5-22.1-2.4-32.4-2.1
				c-7.7,0.2-14.9,0.4-21.8-0.2c-1-0.1-2.1-0.1-3,0l0,0c-8.2-1.6-10.1-4.9-20.1-5.9c-19.3,1.5-31.3-1.6-36.3,3.7
				c-17.6-1.7-29.1-2.1-44.4-1.8l-0.5,0.5c-0.9-0.5-1.9-1-2.9-1.4c-1.6-0.7-3.1-1.4-3.8-2.1c2-0.2,3.6-0.5,2.9-1.3
				C283,394.3,293.1,399.8,299.9,400.3z M258.6,401.1c0.8,1.1,2.8,2,4.6,2.8c1.2,0.5,2.3,1,3.1,1.6l-2.6-0.1
				c-4.9,0.5-2.4,1.4,0.1,2.3l-0.2,0.6c-4.6-0.1-9.1,0-13.4,0.2c-4.1,0.2-8,0.4-11.5,0.3c-4.9-2.8,3.4-3.8,4.5-7.7
				C250.5,400.3,252.1,401.6,258.6,401.1z M234.1,412.2c5.2,0.2,10.5-0.1,15.3-0.3c2.3-0.1,4.6-0.2,6.7-0.2c0.4,1.4,7.1,0.5,8.1,1.7
				l0.6-0.1c-0.2,0.4-0.5,0.8-0.6,1.2c-10.3,1.5-25.8,3.8-40.9,5.3c-15.1,1.5-30,2.1-39.2-0.5C194.2,419.3,218.4,414.4,234.1,412.2z
				 M175,410.1l-8,1l-1.3,0.2l0.3-0.4c0.6-0.7,1.2-1.4,2.2-2.2l6.6-0.8L175,410.1z M162.5,408.3l2.2-0.5c-1.9,1.3-2.9,2.5-3.7,3.4
				l0,0c-10.2,3.6-14.7,4.1-26.3,3.4C138.3,411.7,149.8,409.8,162.5,408.3z M78.2,409.7c14.9-3.8,30.9-5.1,35.1-0.8
				c-20.8,3.1-16.2,8.6-39.2,11.9c8.1,0.9,12,3.7,28.9,0.3c4.4-1.8-3-2.8,15.6-5c-9,4.7,0.8,5.7-10.4,11c5,0.1,18.4-2.4,31-3.7
				c12.6-1.4,24.2-1.7,25.6,1.9c-30.8,2.5-67.2,9.8-100.9,16.7c-33.7,6.8-64.6,13-86.1,11.2c14.5-3.5,25.6-9.6,36.5-15.5
				c10.9-5.9,21.8-11.6,35.4-14.1C49.7,419.5,63.3,413.4,78.2,409.7z M11,469.1C6.4,474.7-10.9,474.3,11,469.1L11,469.1z
				 M-271.1,590.9c1.8-4.1,23.1-15.2,31.1-16.8C-240.4,578.8-262.8,587.4-271.1,590.9z M34.1,458c8.3-2.4,16.7-2.5,15.7,2.9
				c-10.1,4.8-18.2,7.2-30.8,7.3C17.6,465,25.7,460.4,34.1,458z M-249,564.6c-1.8-1.2,18.6-10.7,11.2-4.1
				C-236.6,559.4-249.1,564.5-249,564.6z M-207.3,541.4c2.3,2.3-3.5,5.6-13.1,9.6C-217.9,548.1-216.4,545.3-207.3,541.4z
				 M-85.1,494.7c12.4-4,26.3-7.8,38.2-11.8c-5.8,6.8-17.3,11-30,14.6c-12.7,3.6-26.6,6.4-37,10.1C-108.3,503-97.5,498.7-85.1,494.7
				z M-152.2,485.3c14.2-5.6,30.5-12.2,28.2-5.6c-10.9,5.4-12.8,5-23.2,7.4c-31.3,15.1-66.5,29.6-101.1,44.9
				c-34.5,15.3-68.4,31.5-96.5,48.4l-0.5,0.6c-1.5,0.1-3.1,0.3-5.2,0.7c-2.3,0.5-5.6,2.4-7.5,4.2c-1.9,1.8-1.5,2.9,0.7,2.4
				c0.9-0.2,1.7-0.3,2.5-0.4c0.7,6.2-16.6,17.9-33.6,27.3c-15.6,8.6-31.1,15.2-32.9,12.4c-1.4,2.6-9.8,8-19.7,13.2
				c0.7-5.3-1.2-2.6-0.5-7.9c17.4-15.2,43.1-33.1,69.6-48.8c26.4-15.8,53.6-29.4,73.2-37.8c6.2-6.4,16.6-12.3,27.3-16.8
				c10.6-4.5,21.5-7.4,28.5-8.1c14.1-7.9,32.4-19.2,49.5-27.2C-176.3,486-160.5,481.2-152.2,485.3z M61.6,358.1
				c5.2-2.5,15.1-4.5,20.9-4l0.5-0.6c1.6,0.6,1.7,1.5,1.8,2.6c0.1,0.8,0.2,1.6,0.8,2.3l-2.4,0.2c-9.6,2.1-16,2.9-21,2.9L61.6,358.1z
				 M-725.8,728c15.8-14.5,13.7-18.3,29.8-32.5l-3.2-3.3c4.5-4.4,8.4-7.8,11.6-10c1.4-0.2,2.4,0.3,2.6,1.2l0.1,0.3l0.5-0.1
				c2.6-0.7,6.1-3.2,9.3-5.4c1.1-0.8,2.2-1.5,3.2-2.1l1.5,1.7c-10.6,10.1-18.3,21.4-26.6,32c-8.3,10.7-17.1,20.8-30,29.2
				C-730.2,737.5-722.6,729.5-725.8,728z M-863.3,865.8c-3.5-5.8,10.7-25.2,5.5-29.5c12.6-19.8,22.7-27.5,31.7-31.8
				c16.4-19.6,31-34.5,43.6-44.8c3.9,1.9,6.5,4.4-6.8,17.8c5-2.5,10.6-6.1,16.1-9.4c-14.1,24-27.5,43.2-43.1,67.4
				c-6.3,4-13.7,15.1-21.2,25.9c-7.5,10.8-15,21.3-22,23.9c-3.7-4.6,3.8-18.2,14.1-33.5C-846.5,845.4-860.2,867.7-863.3,865.8z
				 M-1039.8,1119.9c5.4-9.7,11.4-17.3,13.6-15.3c13.9-43.8,38.5-89,66.5-126.7c3.8,0.6-0.8,11.7,6.8,4.2c3.1-5,0.4-4.5,2.8-8.8
				c16.5-19.1,13.4-23.7,26.7-41.2c-4.7,0.6-3.6,1.4-4.7-3.2c9-19.7,19.3-32.6,30-39.1c2,0.7-0.4,5.2-5.9,12.2
				c2.4,4.9,15.8-18.3,16.9-9.9c-14.3,21.2-22.5,33.7-30.7,45.5c-8.2,11.8-16.4,23-29.7,42.4c-1.2-1-3.2,0.5-5.3,2
				c-5.6,12-16.5,29.6-16.7,36.7c-14.2,25.2-28.1,47.6-40.8,69.6c-12.7,22-24.3,43.6-33.6,67c-2.1,1.1-4.5,4.3-7.6,11.3l-0.2,0.7
				c0.2-1.8,0.5-3.8,0.8-5.9c0.9-5.3,1.9-11.1,0.1-13.2l0.4-0.7C-1050,1141.5-1045.2,1129.6-1039.8,1119.9z M-1127.9,1264.6
				c3.9-11.8,9-23,12.8-26.7c3.1-11.5,8-25.7,13.5-38.8c5.6-13.1,11.8-25,17.5-31.9c1.4,10.8-8.1,36.5-19,62.7
				c-11,26.1-23.4,52.8-30.7,64.2C-1134.5,1288.7-1131.9,1276.4-1127.9,1264.6z M-1114.7,1305.1c1.1-15.5,9.8-35,17.1-55.8
				c5.8-16.5,12.4-36.2,19.7-53.6c7.2-17.5,15-32.7,22.7-40.5l1,0.5l0.1-0.3c1,1.7,0.4,5.8-0.4,10.6c-0.4,2.8-0.9,5.6-1,8
				c-3.3,11.1-8.1,24.6-13.4,37.5c-5.9,14.4-12.4,28.1-18.6,36.8c-5.9,21.3-9.8,40-19.7,59.3L-1114.7,1305.1z M-602.4,1282.4
				c-0.8,1.4-1.8,2.9-3.1,4.8c-0.7,1-1.3,2-2,3c-0.2,0-0.4-0.1-0.6-0.1C-608.6,1287.9-602.8,1278.3-602.4,1282.4z M-615.8,1304
				l2.8-5.6l0-0.1c0.1,0.3,0.3,0.5,0.5,0.5c0.3,0.1,0.7,0.2,1.1,0.2c-0.3,1-0.6,2.1-1,3.3l-0.1-0.1
				C-613.7,1304.3-614.8,1305-615.8,1304z M-629.9,1325.1l-2.1-1c4.4-4.9,1.6-3.7,5.4-11.4C-622.5,1311.1-626.5,1324.5-629.9,1325.1
				z M-756.7,1502.7l1.7-6.4l2.2,0.6l-1.7,6.4L-756.7,1502.7z M-767.8,1544.5c0.8-2.7,0.2-3.2-0.4-3.5c0.9-6.4,6.1-3.6,2.6,4
				L-767.8,1544.5z M-739.2,1677.1C-742.2,1668.6-732.5,1670.1-739.2,1677.1L-739.2,1677.1z M-727.5,1675.1l-0.6,6.3
				c-0.9-0.7-1.2,1.1-1.4,3C-731.9,1685.4-729.8,1669.9-727.5,1675.1z M-746.9,1870.8c4.3,5.7,1.6,8.6,3.1,22.1l0.5,2.2
				c-1.1-1.4-2.4-3.6-2.9-6.1c-0.1-0.7-0.2-1.5-0.2-2.2C-744.4,1886.3-747.2,1875.3-746.9,1870.8z M-794.9,1898.1
				c3.8,2.9-0.4,9,0.3,13.4C-799.3,1906.8-792.5,1906.3-794.9,1898.1z M-748.1,1883.7l0.4,0c-0.2,2.1-0.1,4.3,0.3,6.4
				c0.6,3.2,1.8,5.5,2.9,7.1c0,4-2.1-2.3-2,2.4C-748.1,1899.1-752.8,1882.1-748.1,1883.7z M-781.7,1923.4c0-4.1,0.6-6.9,2.6-7
				C-779.1,1920.5-779.7,1923.3-781.7,1923.4z M-735.5,1933.6c-0.2-1.8-0.5-3.9-0.8-6.4C-734.3,1927.5-735.3,1929.9-735.5,1933.6
				c0.2,2,0.4,3.6,0.5,4.9c0.1,0.3,0.2,0.5,0.3,0.8c-0.1,0-0.1,0.1-0.2,0.1c0-0.3-0.1-0.6-0.1-1
				C-735.4,1936.8-735.5,1935.1-735.5,1933.6z M-727.6,1954.8c0.3,3.5-0.5,5.1-1.2,6.6l0.5,1.5c-0.7-0.7-1.3-1.2-2-1.6
				c-0.4-0.3-0.8,0.4-0.7,1.4c0,1.1,0.5,2.2,0.9,2.5c0.3,0.2,0.7,0.5,1,0.7c1.6,8.2-3.2,4.3,0.7,11.3c-0.4,0-0.8-0.1-1.3-0.3
				c-1.7-4.2-3.3-8.8-5.9-7.8l-0.3-1.6c0.7-1.6,1.2-3.2,1.5-5.1l0,0c0-0.1,0-0.1,0-0.2c0.1-0.6,0.1-1.2,0.2-1.8
				c0.7-3.8,2.7-5.2,0.7-14.2l0,0c0.4-0.3,0.7-0.6,1.1-1l0,0.8C-730,1944.3-730.9,1960.3-727.6,1954.8z M-741,1950.5
				c4.6-2.3,2.8,8.3,4.9,8.9l0.3,0c-0.2,2-0.7,3.7-1.9,5.9l-0.1-2.3C-738.6,1956.9-740.3,1956.2-741,1950.5z M-776.8,1979.5
				c-0.6-3.2-1.8-2.3-2.8-2.9c-0.7-2.7-0.1-3.2,0.6-3.5l2.2-0.4c2.9,11.2,0.5,12.8,3,23C-776.9,1992.6-778.6,1983.6-776.8,1979.5z
				 M-729.5,1984.1l-0.3-0.9c1,0.4,1.9,0.7,2.8,0.6c1.3,0.6,2.2,3.2,3.2,5.7l-0.3,0.2c-0.6,0.3-1.1,0.7-1.7,1.2
				c0-0.1-0.1-0.1-0.2-0.1l0-0.8C-726.9,1985.8-728.6,1987.4-729.5,1984.1z M-735.2,2008c-1-5.9,2.2,1.4,1.6-3.6
				c1.4,0.3,2.2,4.7,3.1,9.2c1.1-4.9,0.7-12.4,4-13.8c0.1,0.6,0.3,1.1,0.4,1.7c-0.3,0.3-0.6,0.6-0.9,0.9c-0.2,0.2-0.4,0.4-0.7,0.6
				c-0.3,0.3-0.3,1.4,0,2.4c0.3,1,0.8,1.6,1.1,1.2c0.2-0.2,0.4-0.4,0.6-0.6c0.4-0.3,0.8-0.7,1.2-1.2c0.5,0.7,1,1.1,1.5,0.9
				c0.3-0.1,0.4-0.3,0.6-0.7c0.5,0.5,1,0.7,1.4,1c0.6,0.3,0.9-0.5,0.8-1.8c0-0.3-0.1-0.5-0.1-0.8c-0.2-1-0.7-1.9-1.1-2.2
				c-0.3-0.2-0.6-0.4-0.9-0.6l0-0.2c-0.3-1.2-0.6-2.4-0.9-3.5c0.3-0.3,0.7-0.5,1.1-0.7l0.2-0.1c4.2,6.3,4.7-4.4,9.8-2.4
				c1.9,8.6-0.9,9.4-3.7,10.4c5.3,5.1,0.6,6,2.2,15.7c1.3-11.9,6.8,4.5,8,14.3c-1.8-0.2-2.8-7.2-4-12l-4.4,1l-0.4,0.6
				c0-1.6-0.2-3.1-0.3-4.7c0-0.2-0.1-0.4-0.1-0.6c-0.2-0.8-0.6-1.6-0.9-1.8c-0.4-0.3-0.7,0.4-0.6,1.5c0.1,0.7,0.1,1.3,0.2,1.9
				c-4.5-2.5,0.1,9.2-3.7,7.7c2.4,8.4,8.2,12,7.4,21.1l0.1,1.1c-1.4-2-2.7-2.7-3.8-3.3c-1.1-0.6-1.9-1.1-2.7-2.4l0.4-0.5
				c-0.1-13.1-3.5,0.7-5.9-5.1c-1.8-6.7,3.6-2.4,4.8-4.4c-1-4.1-2.6-2.4-3.7-5.7l-0.5-0.3c0.4-1,0.7-2,0.9-3.3l0.1-0.6l-0.6-3.4
				l-0.1-0.5c-0.3-1.3-0.9-2.4-1.4-2.5c-0.6-0.1-0.9,1-0.6,2.5l0.3,1.8c-0.1,0.4-0.3,0.9-0.5,1.4l-0.1-0.9l-3.3,0.8
				c-0.7-3.3-2.3-7.8-1.8-2.9C-734.1,2018.7-732.6,2009.7-735.2,2008z M-756.4,2063.2l0.8,2c-1.6-1.4-3-1.4-4.1-1.3
				c-3.9-12.5-2.9-14.8-5.9-29.2C-760.3,2041.3-760.7,2056.2-756.4,2063.2z M-757.5,2077.2c-1-4,0.1-4.8-1.3-9.3
				c0.6-0.1,1.3-0.1,2,0.2C-756.5,2071.9-754.3,2078.4-757.5,2077.2z M-709.8,2090.9c-2.2-5.8-5.1,1.2-6.8-11.4
				c5.7,4.1,4.3-1.4,2-8.1c-2.3-6.7-5.4-14.5-3.4-14.7c-3.3-8.9,0.2,7.6-3.6,4.3c-0.2-4.8-2.2-12.3,2-10.4l-0.1-1
				c1.5,2.3,2.9,3,4,3.6c0.6,0.3,1.2,0.6,1.6,1c0.5,2.2,1,4.5,0.2,4.8c2.3,5.9,5.1,7.4,8,7.7c1.5,14-5.7,4.3-6.5,15
				c1.9,4.4,3.8,7.3,5.8,11.6l0.2-0.1c0.6,4.3,2.3,7.2,3.4,8.9l0.3,0.5c0.2,1.1,0.4,2.2,0.5,3.1c-1.3,0.6-3.6-2.3-5.7-5.2l-0.4-0.5
				C-712.3,2094.1-708.9,2096.8-709.8,2090.9z M-744.4,2118.4c2.4,2.8,5,1.9,7.4,4.6c1.3,3.9,1.6,6.5,1.9,9c-0.4,0.9-0.7,2-1,3
				c-0.3,1.1-0.6,2.1-1,2.9l-0.2-0.9C-741.4,2133.5-742.7,2126.7-744.4,2118.4z M-724.4,2157.1c0.1-6.2-3.6-8.9-6.4-15.3
				c-0.1,4-1.9,12.5-3.2,1.9c0.4-0.9,0.7-2,1-3c0.3-1.1,0.6-2.1,1-2.9l0.2,0.9c3.5,5.9,7.1,9.7,10.7,17.3L-724.4,2157.1z
				 M-714.7,2150.3l-2.1-6.2c1.8-2.2,3.6,3.7,5.4,8.5C-712.5,2152.3-713.6,2149.9-714.7,2150.3z M-708.9,2179.6
				c5.4-2.9,7.4,18.2,5.7,8.4c-1.1-2.2-2.2-3.1-3.2-2.3c-0.4-0.9-0.8-1.9-1.2-2.9l-0.8-2c-0.1-0.2-0.2-0.4-0.3-0.6L-708.9,2179.6z
				 M-711.9,2187.8c-0.7-2.5-0.5-3.9,0.9-3.9l0.3,0.8c0.7,1.8,1.5,3.6,2.3,5.5l-0.3-0.1C-707,2195.7-710.3,2189.1-711.9,2187.8z
				 M-703.4,2209.3c-2.3-4.8-1.1-5.7-2.6-9.6C-704.5,2197.6-698.9,2213-703.4,2209.3z M-670.6,2216.8c1.4-9.3-7.5-24.1-0.2-24.3
				c-2.4-5.1-4.5-6-6.6-4.3c-3-6.5-1-7.2-3.9-13.7c1.2,0.4,3.1,2.3,5.8,5.6c0.5,0.6,0.9,0.5,0.9-0.2c0-0.4-0.1-0.9-0.3-1.4
				c-0.2-0.4-0.4-0.8-0.6-1.1c-3.9-4.9-6.4-7-7.9-6.5l-0.2,0.1l-0.2,1.3l-0.5-2.1c-1,0.2-10.1,2.7-10.9-13.1
				c7.2,5.9,4.6-7.7-1.1-13.3l0-0.2c0.2,0.1,0.3,0.1,0.5,0.1c1.4-0.2,2.7-0.1,4.6,1.3c0.1,0.1,0.2,0.1,0.3,0.1l0,0.2l3.2,9.1
				c1.2-1.2,0.2-5.1,0.9-6.8c0.6,0.9,1.1,1.8,1.5,2.6l-0.3,0.1c0.1,9.6,3-2.3,5.4,8.2c2.1-1.7-3.6-12.5-5.2-11.7
				c-0.6-1-1.2-2.1-1.9-3.2l0.7,0.3c4.9-1.2-2.6-9.2-4.2-8.7l-0.4,0.1c-0.4-2.2-0.9-4.5-1.9-7.3l-0.2-0.5c-0.4-1.1-1-1.8-1.3-1.6
				c-0.4,0.2-0.5,1.1,0,2.2c0.6,1.8,1,3.2,1.3,4.7c-0.5,0.6-0.4,1.9-0.5,2.8c-1.9-1.1-3.3-1.2-4.5-1.1l0-0.1
				c-2.5-2.1-5-3.4-7.3-11.1c5.1,1.4-4.4-16.4-2.5-19.4l0,0l0.2,0.3c2.6,3.4,5.8,7.6,7.7,5.7l0.2-0.2l0-0.7c-0.1-2-0.4-4.4-1.1-6.8
				l-0.2-0.7l-0.3-0.6c-0.3-0.5-0.6-1-0.9-1.5c-0.8-1.4-1.4-2.4-1.7-3.7c0.6-1.3,0.3-3.8,0-6.2c3.1,7.9,9.5,18.4,9.6,23.7
				c4.7-1.4,2.4-4.9,4.8-11.4c0.7,2,1.4,4,2.3,5.9l-0.4,0.1c0.6,1.7,1.2,3.2,1.8,2.8c0.5,1,1.2,2.1,1.8,3.2l-0.7-0.3
				c6.4,12,6.5,29.4,13.3,28.8c1.4,10.4,4.6,24.3,13.3,38.8c-3.9,1.8-1.7,4.5-6.4,2.5c2,5.7,3.8,6,5.8,11.3
				c-0.9,1.1-0.3,3.9,0.3,6.8c-1.4,0.7-2.9-0.4-4.4-1.6c0.3,2,4.6,11.6,6.8,10.9c0.3,1.1,0.6,2.2,1,3.4c0.5,1.9,1.7,3.7,2.6,4.1
				c0.9,0.4,1.2-0.8,0.7-2.7c-0.9-3.1-1.8-6.1-2.9-9.1l0.7,0l4.2-1.8c0.6,8,6.9,9.7,11.2,22.7l0.4-0.7c3.8,7.9,8.2,16.9,12.6,26
				c-0.8,0.6,0,2.8-0.6,3.7l1.3,2l-0.4-0.2c-3-1.4-3.8-2-4.7-4.6c-0.3-0.9-0.9-1.8-1.4-1.9c-0.5-0.1-0.6,0.5-0.3,1.4
				c1.6,4.7,3.7,6.4,5.8,7.6c0.2,4.7,6.3,9.1,4.6,10.9l0.5,0.7c-0.7-0.1-1.3,0-1.8,0l-0.6,0.1c-0.7,0-0.7,1.4,0,3.1
				c0.7,1.7,1.9,3,2.6,3l0.7-0.1c0.3,0,0.6-0.1,1-0.1c3.6,4.6,8,19.9,12.3,14.1c0.9,4.8,0.4,10.6,5.5,14.9l0,0.3
				c-0.2-0.1-0.3-0.3-0.4-0.3c-0.9-0.3-2.1-1.2-3.1-2.2c-0.4-0.4-0.9-0.8-1.3-1.1l-0.4-0.2c-1.7-0.5-2.7,0.7-3,3.3l-0.8-1.9l-4-7.5
				c0.1-0.4,0.1-0.7,0.3-0.9c0.2-0.3,0-1.1-0.4-2l-0.2-0.3c-0.5-0.9-1.2-1.3-1.5-1c-0.4,0.6-0.5,1.6-0.6,2.7l-0.7-1.7
				c-6.9-19.2-11.6-17.9-19.7-36.4c-1.3,8.1-1.5-4-3.1-9.1l-0.2-0.4c1.8,0.7,3.1-0.2,3.7-1.5l0.2-0.4l-0.2-0.8
				c-0.4-1.4-0.6-3.4-0.8-5c0-0.3-0.1-0.7-0.3-1c-0.6-2.6-1.5-5.1-2.3-7.3l-0.7-1.8c-0.1-0.2-0.1-0.3-0.2-0.5
				c-0.4-1-1.1-1.7-1.5-1.8c-0.5-0.1-0.6,0.8-0.2,2l0.7,2c0.6,1.6,1.1,3.1,1.5,4.5c-2.2-1.1-3.8-0.9-5.4-0.2c-0.6-1.5-0.9-2.7,0-2.6
				c-1.3-2.9-3.5-2.8-2.1,0.9c-1.4,0.1-3.2-4.1-5-8.3c-1.6,0.6,6.3,18-0.8,3.9c-3.7,3,8.7,14.7,2.5,16.5
				c-4.2-10.5-2.9-14.4-9.5-23.9c-2.3,3.5-1.1,2.9-5.2,2.3C-666.4,2220.5-667.7,2217.6-670.6,2216.8z M-686.1,2106.9l0.3-0.1
				c-0.5-1.5-1.1-3-1.7-2.9c-0.4-1-0.7-2-1.1-3c1-0.9,0.2-4.1,2.1-3.8c-0.4,5.8,4.1,8.7,1.8,12.4
				C-685.2,2108.5-685.7,2107.7-686.1,2106.9z M-643.6,2240.7c1.2-0.5,2.4-0.7,4-0.1c0.1,0.9,0.3,1.7,0.4,2.5
				c-0.4,0.6-1.1,0.9-1.8,0.8C-641.9,2242.6-642.7,2242-643.6,2240.7z M-640.2,2274.4l-0.2-0.6c-8.3-3.6-3.2-11.9,3.1-1.5l0,0.1
				c-0.2-0.1-0.4-0.1-0.6,0C-638.8,2272.9-639.5,2273.6-640.2,2274.4z M-667.7,2274.1c-0.3-0.2-0.7-0.4-1-0.5l0-0.3l-0.8-1.6
				c0.4-1.3,1.1-1.9,1.7-2.6c0.3-0.3,0.6-0.6,0.9-0.9l0.2-0.3l-0.1-0.7l-0.9-4.3l1.2,2c1.4,4.5,1.8,8,1.2,10.3l0.1,0.1
				C-665.9,2275-666.8,2274.6-667.7,2274.1z M-695.5,2231.1c4.7,1.3,2.9,5.4,7.7,14.7C-692.5,2244.6-690.9,2240.4-695.5,2231.1z
				 M-682.3,2268.8l1-0.5l-0.3-1c1.3,1.6,2.6,3.1,3.5,5.1c0.2,0.5,0.5,0.9,0.7,1.2l0,0.2l-2.1,1L-682.3,2268.8z M-676.7,2269.8
				L-676.7,2269.8c-1.4-2.4-2.8-4.3-4-5.9c-2.5-6.5,4.2-1,5.7,1.5c2.2-3.4-4-5.9-5.6-12c3.3,0.5,7,5.3,10.7,9.5l0.2-0.6l0.5,2.4
				c-0.2,0.2-0.4,0.4-0.6,0.6c-0.9,0.8-1.9,1.8-2.3,4.2l-0.6-1.6c-1.1-0.3-2.1,0.9-3.5-2c-0.5,1,0,3.1,1.8,6.5
				c0.7-0.1,1.4-0.1,2.5,2.5l0,0l0,0l0,0C-673.3,2274.7-675,2272.2-676.7,2269.8z M-666.4,2283.2l0.2-0.6c0.4,0.2,0.8,0.4,1.2,0.6
				c1.1,0.6,2.2,1.1,3.2,1.5C-655.5,2296.3-664.5,2286.4-666.4,2283.2z M-630.2,2293.9c-2.9-5.1-2.2-6.8-4.6-11.5
				c0.3-0.3,0.6-0.6,0.9-0.8c4,4.3,10.5,7.6,11.8,15.3C-627.4,2295.1-626.5,2294-630.2,2293.9z M-644.6,2327.5
				C-653.1,2320.7-646.9,2316.1-644.6,2327.5L-644.6,2327.5z M-606.9,2308.3c0.3-0.9,0.8-1.6,1.8-1.4l0.9,0.8c1.1,1,2.4,2.1,3.6,2.6
				l0,0.1l0.1-0.1c0.1,0,0.2,0.1,0.3,0.1c0.3,0.1,0.4-0.1,0.4-0.5l0.2-0.1c2.1,3.8,2.9,6.3,3.6,8.8l1.3,1.7
				c-1.5-0.6-2.5-0.6-3.3-0.4l0.1-0.2C-599,2312.7-602.9,2314.7-606.9,2308.3z M-595.9,2323.4c0.5-0.1,1-0.1,1.7,0.1
				c4.7,6.4,3.1,6.3,7.8,11.6c5.4,9.8-8.8-10.3-2.9,1.7l0,0c-0.6-0.4-1.2-0.8-1.7-1.3C-593.9,2328.4-592.7,2330-595.9,2323.4z
				 M-572.8,2363.8l-0.5,0.3l-0.5,0.3c-3.2-3-6.7-7.1-9.6-9c-2.5-4-1.1-11.1-5-8.1c-1.6-2.7-1.2-3.7-2.3-6l-0.3-0.7l0.8,0.6
				c1.4,1,2.9,2.1,4.6,3.1l0.2,1.3c3.6,3.2,6.5,3.1,9.1,1.8c1.3,5.8-0.6,9.6-5.8,3.6C-583.4,2354.3-575.9,2357.1-572.8,2363.8z
				 M-636.6,2353.3c2.4-0.9,7.5,11.9,11.1,16.5l0.5,0.6c-0.5-0.2-0.9-0.4-1.3-0.7c-1-0.5-1.9-0.9-2.6-1.2l-0.2-0.4
				C-630.6,2360.9-635.5,2359.4-636.6,2353.3z M-625.6,2374.5c0.4,0.2,0.8,0.4,1.2,0.6c0.5,0.2,0.9,0.5,1.4,0.7l-0.1,0.3l1.7,2.8
				c0.9-1.1,3-1.2,1.2-4.6c3.6,0.8,4.4,10.8,6.8,15.2C-618.8,2385.5-624.5,2379-625.6,2374.5z M-572.1,2367.1L-572.1,2367.1
				L-572.1,2367.1L-572.1,2367.1l1-0.6l0,0l0,0l0,0C-562.8,2371.9-564.2,2377.4-572.1,2367.1z M-549.4,2401
				c-0.9-0.4-1.8-0.8-2.6-1.1l-0.1-0.5c-2.8-3.7-3.9-0.8-5.6,0C-562,2391.4-549.2,2395-549.4,2401z M-545.8,2418.5
				C-544.2,2420.5-543.9,2422.4-545.8,2418.5c-0.7-0.9-1.7-1.8-2.8-2.2c0.7,0.2,1.8,14-5.6,0c3.8-3.9,1.9-4.6,6.4-8.3
				c0.8,0.3,1.7,0.7,2.5,1l0.4,0.2l0.1,0.5c2.4,3.3,3.7,2.7,6.4,7.1c-2,3.3-7.4-5.2-10.2-4.4
				C-547.4,2415.3-546.5,2417.2-545.8,2418.5z M-540.2,2406.5c-3.2-5.7-2.4-6.5,1-4.5l3.6,5.1
				C-536.6,2408.9-538.9,2405.8-540.2,2406.5z M-664.7,2451.1c1.5-4.9,9.5,10.4,10.7,13.7c-0.5,0.3-1.2,0.5-2,0.4
				C-657,2459.8-657.8,2461.3-664.7,2451.1z M-654.7,2469.9l-1.4-1.7c2,0.9,3.5,0.7,4.5,0.1c3.2,4.7,6.5,9.4,9.8,14
				C-645.1,2481.7-649.7,2476.5-654.7,2469.9z M-527.3,2424.4l3.8,5.1l-1.8,1.4l-0.2-0.3c-0.2-0.3-0.4-0.7-0.7-1.1l-0.2-0.2
				c-1-1.2-2-2.4-3.1-3.6l0.4,0L-527.3,2424.4z M-530.2,2428.8c0.8,0.8,1.5,1.6,2.1,2.4c0.3,0.3,0.6,0.6,0.8,0.9l0,0.1l-0.1,0.1
				c-0.1,0-0.3,0.1-0.4,0.1l-1.5,1.1C-533.8,2432.4-533.7,2426.4-530.2,2428.8z M-622.2,2507.3
				C-633.3,2499.2-630.4,2491.1-622.2,2507.3L-622.2,2507.3z M-491.8,2480.8c-11.3-13.1-23.4-30.1-32.5-39l-0.1-0.1
				c0.2,0,0.4,0,0.6-0.1l1.4-1c5.2,7.1,7.7,5.4,10.2,4c2.1,3,0.7,3.8-0.8,4.6c4.4,5.4,4.6-1.9,7.3-1.7c1.7,1.8,3.9,4.8,4.8,4.2
				c6.8,11.4-4.4-1.1-4.6-0.3c-1.9,5.4,11.1,20.3,17.2,26.6C-483.2,2484.3-492.6,2475.8-491.8,2480.8z M-587.8,2556.5
				c-1.3-3-4.1-6.9-8.1-11.6C-595.1,2542.7-581.8,2558.8-587.8,2556.5z M-471.5,2509.5c-1.4-2.6-2.7-5.2-4.2-4.8
				C-483.4,2494.1-464.7,2510-471.5,2509.5z M-454,2523.6l1.7-1.6l4.3,4.6l-1.7,1.6L-454,2523.6z M-564.9,2583.2
				c0.6-0.1,0.5-0.5,0.2-1.1c-0.5-0.7-1.1-1.5-1.7-2.3c0.7,0.8,1.4,1.6,1.7,2.3c0.6,0.8,1.1,1.5,1.6,2.2c3.8,2.1,2.6,0.9,4.6,5.5
				c0,0.2-0.1,0.4-0.1,0.6c-1.1-1.5-2.5-3.4-4.5-6.1C-563.5,2584-564.2,2583.7-564.9,2583.2z M-552.8,2596.7
				c0.3-0.8,0.5-1.6,0.4-2.7l1,0.9c8.2,10,13.1,11.4,24.1,25.7C-532.6,2619.7-543.6,2606.6-552.8,2596.7z M-508.4,2641.4l-5-5
				c0.6-2.9,5.1,2,9.1,5.8C-505.4,2642.5-507.6,2640.6-508.4,2641.4z M-376.8,2648.3c-6.7-6.2,2.2-2.9,6.5,2.4
				c-1.9-3.4-0.7-3.6,4,0.3C-366.4,2655.7-374.3,2647.5-376.8,2648.3z M-219.2,2741.7l-8.4-5c-0.6-4.6,10,4.1,10.7,1
				C-208.9,2743.3-220.8,2738.3-219.2,2741.7z M23.1,2819.5c3.6,1.6,5.8,3.3,5.1,5.1C24.6,2823,22.4,2821.3,23.1,2819.5z
				 M372.4,2485.7c-3.8,0.1-1.5-2.3-6.2-2c-8.8,1-17.4,0.4-26.1-0.2c-8.7-0.6-17.4-1.2-26.7-0.1c-5.7-2.4-16.2-3.4-27.3-4.6
				c-11.1-1.2-22.8-2.5-30.9-4.8c-5.6,1.1-12.5,0-18.9-1.6c-6.4-1.6-12.5-3.8-16.9-4.7c-16.1-3.3-29.1-4.9-34.7-11
				c-10.9-2.4-14.3-4.6-17.3-5.1c-2.7-0.5-0.7-1.6-1.6-1.9c-3.4-1.3-7.8-1.1-11.8-2.5c-1.4-0.5-3-2.8-5.1-3.8
				c-4.2-2-10.7-3.4-15-5.4c-4.4-2-7.8-4.7-12.5-6.5c-5.9-2.3-9.6-2.1-15.5-4c-4-1.3-9.6-5.1-14.4-7.1
				c-11.2-4.7-25.7-10.7-37.1-14.5c-7.6-5.6-12.9-8.4-21.8-9.9c-6.9-6.9-20.5-12.4-31.2-17.8c-11.1-8.8-24.3-16.8-38.3-25.5
				c-14-8.7-28.7-18.1-42.4-29.3c-28-22.9-55.2-46.4-77.8-71c-3-3.3-4.8-7.3-8.3-11.3c-5.4-6.2-12.6-11.7-16.6-17.2
				c-2-2.7-3.1-6-5.1-8.6c-8.4-10.9-18.7-24.1-28.8-37.9c-10.2-13.8-20.3-28.1-28.9-40.7c-2.6-7.8-6.9-16.4-11.3-24.7
				c-4.5-8.4-9.2-16.6-12.9-23.5l-0.2,0.4l-1.8-3.8l-6.1-12.7c0.7,0,2,2,1.1-0.5c-6.5-12.7-13.1-32-19.5-52.2
				c-6.5-20.2-12.8-41.4-20.6-58.4c-0.7-3.8,2.3-2.2,0.1-8.2c-3.1-15.4-6.7-32.9-9.4-49.6c-2.7-16.6-4.5-32.5-4.9-44.4
				c-0.2-6-1.5-12.8-1.6-17.7c0-4,0.9-6.2,0.8-10c-0.8-18.2-2.9-37.1-2.6-55.3c0.1-6.1,0.2-14.9,0.6-17.8c0.2-1.3,1.6-3.7,1.8-5.9
				c0.5-9.1,0.6-20.3,1.8-31.6c1-9.8,2.5-20.2,4.1-29.8c1.5-9.6,3.1-18.4,3.9-25.1c0.4-3.1-0.5-5.1,0.1-8.1
				c2.8-15.3,8.3-30.2,12.3-46c1.4-5.2,1.3-11.3,3.5-17.6c1-2.8,1.7-3.3,3-7.4c5.7-17.7,11.1-33.2,16.6-48
				c5.5-14.8,11.2-28.8,17.7-43.1c2.3-2.3,9.3-11.2,7.7-14l-0.3,0.3c0.5-1.6,0.9-2.9,1.2-4c0.5-0.8,1-1.6,1.6-2.4
				c1-1.5,2.2-3.2,3.2-5.1c0.2-0.4,0.4-0.8,0.6-1.3l0.1,0.1c3.8-7.1,8.7-17.8,13.5-27c4.8-9.2,9.4-16.9,11.9-18.1
				c-1.8-1.9,1.9-11.5,7.7-21.4c5.7-9.9,13.5-19.9,18.7-23.4l0.4,0.3c0,0.2,0,0.4,0,0.5c-0.3,0.6-0.4,1.2-0.4,1.5
				c0.1,0.8,1.2,0.5,2.3-0.7c0.3-0.3,0.6-0.6,0.8-0.9c1.2-1.6,1.4-3.1,1.4-4.6l0.2-0.1c7.5-14.2,15.3-25,23.5-34.7
				c8.3-9.7,16.9-18.1,26.8-27.3c-0.5-0.8-0.8-1.6,1.7-3.9c-2.5,5.8,5.9-3.3,7.3-1.2c6.4-5.7,0.6-5.8,7.9-11.9
				c3.6-3.1,3.2,1.6,7.8-3.4c1.9-1.6,5.4-6.2,9.8-11.1c4.4-4.8,9.5-9.9,14.4-12.6c3.2-4.6,9.5-10.3,11.5-14.3
				c8.7-6,17.7-13.3,25.9-15.5c12.6-10.5,27.7-20.5,43.7-29.7c15.9-9.3,32.7-17.8,48.4-26c10.6-5.5,20.3-12.3,29.9-16.2
				c0.8-0.3,0.3,1.5,2.4,0.5c0.5-0.2,3.4-3.1,4.9-3.8c0.5-0.2,4.6-0.5,6.1-1.1c4.2-1.8,11.8-8.2,7.4-3.1c6.3-1.7,0.5-2.8,6.9-4.4
				c3.4,1.7,13.2-1.8,23.8-6.2c10.7-4.4,22.3-9.7,29.1-12.1c8.2-3,17.5-5.3,25.8-7.5c8.3-2.2,15.6-4.2,20-6.7
				c2.5,2.9,12.4-4.2,14.2-0.3c8.6-2.2,14-2.8,19-3.5c5-0.6,9.4-1.3,16.2-3.3l-0.3-0.2c1.8-0.2,3.4-0.6,4.9-0.9
				c2.1-0.5,3.5-0.7,4.7-0.6c0.2,0,0.4,0,0.6,0l-0.1,0.2c0.8,2.1,7.4-0.1,9.8-1.4c-3.8,0.4,3-3.3-4.3-2.3l-0.3,0.1
				c0,0,0.1-0.1,0.1-0.1c0.5-1,1-1.6,2.4-2.2l-0.3,0.5c5.2-0.1,10.6-3.6,13.9-1.8c1.2,3-10.7,2.4-5.5,4.3c7.1,1.4,20.4,0,34.9-1.3
				c14.4-1.3,29.8-2.5,40.5-1.7c6.6-3.9,9.9-0.8,19.8,0.8c1-2.8,2.5-3.9,6.1-6.4c1.2,1,7.7,0.3,7.9,1.7l-0.1,2.2l0.5,0
				c-1.3,0.4-2.1,0.7-3.3,0.6c-0.7-0.1-1.3,0.1-1.4,0.4c-0.1,0.2,0.4,0.5,1.1,0.5l0.6,0c2,0.1,3.4-0.3,4.6-0.7l-0.1,0.1l2,0.1
				c5,6.4,13.8,4.3,21.7,2.7c1.7,2.6,9.3,3.5,15.4,5c6.7-2.7,22.4,0.5,31.2,4.6c12.4,1.1,29.4,5.6,42.7,7.7
				c4.5-0.6,6.2-0.2,11.9,1.1c7.1,1.7,10.6,4.8,11,4.9c1.2,0.4,8.2-1,7.6,2c10.2,0.8,21.5,5.2,32.9,10c11.5,4.7,23.1,9.8,34.7,11.6
				c15.1,6.3,23,9.3,37.4,13c8.9,4.2,11.3,7.5,14.9,10.1c3.1,2.3,8.6,3.6,14.1,6.9c2.2,1.3,3.2,3.2,6.3,4.9
				c10.9,5.7,24.6,10.2,34.3,19.1c11.1,3.6,24.7,12.7,29.4,19.5c8.1,2.9,16.7,10.4,25.2,18.7c0.7-0.2,0.9-1.1,2.4,0
				c-0.6,1-0.2,1.5,2.3,3.5c8.3,6.7,21.4,17,31.5,23.4c8,9.6,10.5,13.7,18,23.8c14.6,9.1,27.5,21,39,33.6
				c11.5,12.6,21.8,26.1,31.6,38.7l0.3,0.2c-0.1,0.2-0.2,0.3-0.3,0.5c-0.6,0.9-1.1,1.8-2.3,1.5l0.1-0.4c-7-7.5-8.1-10.4-16-19.5
				c-1.1,2.2-4.2-1-5.1,1.8c6.9,10.6,18.4,23,23,21.2l-0.4-0.4c1.8,0.4,2.4-0.7,3-1.7c0.1-0.1,0.1-0.2,0.2-0.3l0.1,0.1
				c8.8,8.4,18,20.2,26.3,31.9c8.3,11.6,15.7,23,21.6,30.1l0.2,0.2c0,0,0,0.1,0,0.1c-0.3,2.1,0.9,4.7,2.2,7c0.8,1.3,1.6,2.5,2.2,3.4
				c0.4,0.6,0.8,1.2,1.2,1.8l0,0c1.5,4.1,4.6,10.2,7.8,15.5c3.2,5.4,6.5,10.1,8.6,11.4c0.7-2.2-2-7.3-0.5-8.7
				c4.7,7.4,2.5,4.5,4.8,10.9c-1.6,1.9-4.8-5.2-4.1-0.1c5,12.3,9.3,19,13.6,26.3l0.2-0.5l0,0.1c0.1,0.7,0.3,1.3,0.4,2
				c-1.7-1.4-2.3-0.9-1,2.8c1.9,0.1,4.3,9.9,6,8.1c-0.4-2.3-1.2-5.2-3.4-9.3l-0.2,0.4c-0.1-0.8-0.3-1.6-0.4-2.3
				c0.8-0.4,0.9-1.5,1-2.6c1.4,3.2,2.3,6.8,4.9,10.9c2.4,3.8,6.7,6.2,8,9.5c1.6,3.8-2,6.1,2.5,11.9c-2.7-2.7-0.8,1.9-3.4-0.8
				c1.3,4.2,6,9.2,5,10.8l0.2,0.6c-1.1-0.7-2.2-1.3-3.2-1.7c-0.3-0.1-0.4,0.3-0.3,0.9c0,0.1,0.1,0.2,0.1,0.4
				c0.2,0.4,0.4,0.8,0.7,0.9c1.1,0.5,2,0.9,2.7,1.3c4.8,8.3,3.8,6.3,6.7,7.7c-0.2,4,0.3,5.1,2.6,9.6c-0.9,0.7-2.8,0.2-2.1,2.8
				c3,6.6,6.2,6.4,9.1,13.7c-0.4,0.6-0.3,1.8,0.5,4l-0.1,0c-0.5,0.2-1,0.4-1.4,0.8c-0.4,0.4-0.4,1.8,0,3.1c0.1,0.2,0.1,0.3,0.2,0.5
				c0.6,1.6,1.5,2.4,2,2c0.2-0.2,0.7-0.4,1.1-0.6l0,0c3.2,4.9,0,10.7-1.6,12.7c5,9.2,6.2,8.9,8.2,19.6c-0.2-2,3,3.5,3.9,3.7
				c-0.5,1.4,2.8,13.6,1.8,17.8c-0.7-6.2-2.6-3.5-3.1-1.8c-0.2-0.6-0.3-1.1-0.5-1.7c-0.6-1.9-1.1-3.6-1.3-5.1c0.2,0,0.5,0,0.8,0.1
				c0.2,0,0.5,0.1,0.7,0.1c0.6,0,0.8-1.2,0.5-2.8c-0.3-1.5-1-2.7-1.6-2.7c-0.1,0-0.3,0-0.5-0.1c-0.6-0.1-1.5-0.3-2.1,0.7l-0.3,0.4
				l0,0.9c0,1.7,0.3,3.5,0.7,5.1c0.4,1.7,0.9,3.4,1.3,4.9l0.7,2.4c0.1,0.2,0.1,0.5,0.2,0.7c0.7,5.8,2.3,13,4,15.1
				c-0.7,9.4,1.8,24.5,2.3,37.3c-1,0.2-1.7-0.7-2.4-1.6c0.6,10.2,4.3,7.5,5.5,15c0.3,25,3.5,51.8,4.7,80.1
				c-2.1,7.5-3.9,12.9-4.2,21.4l0.3-0.1c-0.1,1.9,0,3.7,0,5.6c0,1.2,0.1,2.5,0,3.7c0,0.2,0,0.4,0,0.6l-0.1,0.1
				c-1.2,21.3-1.8,42.5-7.4,67.9c2,10.8-0.8,26-5.7,40.8c-0.6,3,1.5,1.9,0.1,6.1c-6.7,19.2-11.4,41.1-17.1,62.3
				c-5.6,21.2-12.3,41.8-21.5,57.6c-0.3,4.5-2.7,11.3-5.8,17.8c-3.1,6.5-7,12.7-10.2,16c-7.3,16.8-11.6,34.5-23.3,50.4
				c-4.3,11.5-10.8,25-18.9,32.8l-0.6-0.4l0,0c0-0.3,0-0.6,0-0.8c0-1.2,0-2.5-0.6-3.2c-0.4-0.5-1.5,0.2-2.5,1.5l-0.2,0.2
				c-0.9,1.2-1.3,2.5-0.9,3c0.3,0.4,0.3,1.2,0.3,2.2c0,0.5,0,1,0,1.5l-0.2,0.1c-3.3,7.5-8.3,14.1-13.5,17.2
				c-2.2,5.1,1.8,1.8,0.5,5.4c-4.8,4.7-6.8,9.5-9.4,14.6c-2.6,5.1-5.7,10.5-12.9,16.2c-1.9,3.2-2.1,5.5-3.6,8.5
				c-2.7,2.1-5.2,5.1-7.9,8.7c-0.2,0.3-0.5,0.7-0.7,1c-0.8,0.7-1.8,1.6-3,3.1c-0.5,1.2-1.1,2.4-1.8,3.7c-2.6,3.7-5.3,7.7-8.3,11.4
				c-0.6-2.3-3.6,2.7-4.9,2.5c-13.4,16.8-25,28.9-37.8,42.3c-7.6,7.9-16.8,15.7-26,23.7c-9.2,8-18.4,16.3-26.1,25.5
				c-2.5,1.9-2.1-0.8-5,1.8c-5.2,5-11.2,8.8-17.2,12.7c-6,3.9-12,7.8-17.5,13.1c-4.9,1.2-12.3,5.7-20.1,10.4
				c-7.8,4.7-16.2,9.6-22.6,12.1c-3.1,3.5-8.1,6.1-13.2,8.2c-5,2.1-10.1,3.7-13.4,5.2c-12.2,5.8-21.4,11.1-28.2,9.9
				c-8.3,3.8-11.6,4.1-13.9,5.2c-2,1-1.2-0.7-2-0.5c-2.8,0.8-5.6,3.2-9,4.1c-1.2,0.4-3.3-0.3-5.2,0.1c-3.7,0.7-8.7,3-12.5,3.9
				c-3.9,0.9-7.5,0.8-11.4,1.9c-5,1.4-7.3,3.4-12.1,5c-3.2,1.1-8.8,1.4-12.9,2.4c-9.7,2.4-22.1,5.7-31.5,8.8
				c-7.7,0.1-12.5,0.9-19.2,4.3c-7.9-1.1-19.5,2-29.2,3.7c-11.6-0.3-24.2,1-37.6,2.2c-1.1,0.1-2.1,0.2-3.2,0.3l-0.1,1.6
				C395.3,2481.7,383.6,2483.1,372.4,2485.7z M355,2932.6c-1-1.8,3.2-2,3.3-3.5l6.7-0.1l0.1,3.4L355,2932.6z M317.5,2959.7
				c-13.7-1.6-2.2-4.6,3.6-5.6C330.6,2955.4,321.3,2959.4,317.5,2959.7z M405.5,2999.4l-0.1-2.3l7.1-0.4l0.1,2.3L405.5,2999.4z
				 M349,3123.1c-1.2-3,5.4-3.7,15.6-3.6C361.2,3121.2,361.6,3124,349,3123.1z M1205,3047.2c13-8.5,24.5-15.8,25.4-10.6
				c-7.6,7.4-16.1,10.8-17.8,13.8C1210.2,3049.6,1202.2,3053.7,1205,3047.2z M1097.8,3103.2
				C1104.6,3095.4,1123.2,3090.1,1097.8,3103.2L1097.8,3103.2z"/>
			<path class="st100" d="M663.9,251c1.4,1,4.9,2.1,7.9,2.3c4,0.3,8,1.6,14.2,3.8c4.6,1.6,9.8,3.5,15.8,4.9l0.4,0.1
				c3.2,0.7,6,0.7,6.1-0.1c0.1-0.8-2.3-2.1-5.5-2.8l-0.1,0c-3.4-0.8-7.1-2.1-11.1-3.5c-6.7-2.4-15.1-5.3-24.7-6
				C663.8,249.3,662.5,249.9,663.9,251z"/>
			<path class="st100" d="M104.7,269.4c1.3-0.1,2.6-0.2,3.7-0.2c5.5,3.7-18.6,4.8-17.4,8.1c43.6-4.8,77.8-9.1,113-13.3
				c35.1-4,71.2-8,118.1-9.2c6.5,3.1,18.9,3.8,32.4,4.2c13.5,0.4,28.2,0.5,38.9,2.1c-3-3.2,9.2-1.9,13.5-2.9
				c38.7-0.9,69.1,1.6,97.9,7.1c0.7,0.1,1.5,0.3,2.2,0.3c2.9,0.3,5.7,0.1,6.8-0.5c1.3-0.8-0.5-2-4.2-2.8
				c-31.7-6.2-64.7-8.9-106.5-7.8c-0.2,0-0.3,0-0.5,0l0,0c-11-1.8-19.6-4-26.7-6.5c-50.8-2.3-103.7,3.5-152.4,6.9
				c-6.4,0.4-16.1-0.7-22.5-0.3c-9.7,0.6-24.9,4-35.6,5c-22.3,1.9-37,0.3-53.4,7.3l0.8,0.5c-2.2,0-4.3,0.2-6.6,0.3
				c-1.5,0.1-3.1,0.6-3.5,1C102.3,269.2,103.2,269.5,104.7,269.4z"/>
			<path class="st100" d="M32.8,321.5c-0.4-0.3-2-0.3-3.7,0.2c-5.7,1.6-11.3,2.5-17.2,3.5c-6.3,1.1-12.8,2.3-19.2,4.3
				c-1.6,0.5-2.4,1.2-1.9,1.5c0.5,0.3,2.2,0.2,3.7-0.3c5.2-1.6,10.7-2.6,16.6-3.7c4.3-0.8,8.7-1.5,13.3-2.5c2.1-0.5,4.2-1,6.3-1.6
				C32.3,322.4,33.3,321.8,32.8,321.5z"/>
			<path class="st100" d="M467.6,302.9l0.5,0.1c3.1,0.2,5.8-0.1,6.1-0.9c0.3-0.8-2-1.8-5.3-2.2c-9.5-1-18.7-2.3-28.5-3.6
				c-4.4-0.6-8.9-1.1-13.5-1.7l0.4-0.1c-1.3-2.7-2.5-5.5-17.2-5.4c4.2,2.9-12.2,2.4-24.9,3.1c-55.1-2.5-112.5-1.2-167.8,3.2
				c-18.1,1.4-36,3.2-53.6,5.2c-2.4,0.3-4.5,1.1-4.5,1.7c0,0.7,2,1,4.5,0.7c17.6-2,35.5-3.8,53.6-5.2c55-4.4,112.2-5.7,167-3.2
				l-0.7,0.5c-1.7,1.6-5.3,1.8-0.1,3.4c17.3,0.8,32,1.2,39.2-0.8l-0.4-0.4c5,0.5,9.9,1.1,14.8,1.8
				C446.9,300.3,457.1,301.8,467.6,302.9z"/>
			<path class="st100" d="M985.8,457.6c3.4,1.8,6.8,3.8,10.3,6c4.6,2.8,9.6,5.9,15.3,8.8c1.9,1,3.8,1.9,5.9,2.8
				c0.3,0.1,0.7,0.3,1,0.4c2.7,6.8,19.4,10.2,23.9,9.9c-4.2-4.1-20.1-12.5-26.3-13.8c-5.5-2.4-10.5-5.5-15.8-8.8
				c-3.8-2.3-7.7-4.7-12.1-7c-2.4-1.2-4.7-1.8-5.3-1.3C982,455,983.4,456.4,985.8,457.6z"/>
			<path class="st100" d="M381.8,563.1c-0.1-0.6-1.6-1.2-3.8-1.2l-2.4,0c-3.7,0-7.2,0-9.4-0.6c-1.6-0.4-3.9-0.4-5.2,0.1
				c-1.3,0.5-1,1.2,0.6,1.7c3.1,0.8,6.6,1,10,1.1l4.5,0l2.2,0C380.3,564.3,381.8,563.7,381.8,563.1z"/>
		</g>
	</g>
</g>
</svg>
