<?xml version="1.0" encoding="utf-8"?>
<!-- Generator: Adobe Illustrator 24.0.0, SVG Export Plug-In . SVG Version: 6.00 Build 0)  -->
<svg version="1.1" id="Layer_1" xmlns="http://www.w3.org/2000/svg" xmlns:xlink="http://www.w3.org/1999/xlink" x="0px" y="0px"
	 viewBox="0 0 1280 800" style="enable-background:new 0 0 1280 800;" xml:space="preserve">
<style type="text/css">
	.st0{fill:#FFFFFF;}
	.st1{fill:url(#SVGID_1_);}
	.st2{fill:#5BB2CE;}
	.st3{fill:#67FE8B;}
	.st4{fill:#663A31;}
	.st5{fill:#9EE549;}
	.st6{fill:#6EC22F;}
	.st7{fill:#456929;}
	.st8{fill:#8F5434;}
</style>
<rect class="st2" width="1280" height="725"/>
<rect y="669" class="st4" width="1280" height="131"/>
<g>
	<polygon class="st5" points="1273.5,636.3 1266.9,636.3 1260.4,636.3 1253.9,636.3 1247.3,636.3 1240.8,636.3 1234.3,636.3 
		1227.8,636.3 1221.2,636.3 1214.7,636.3 1208.2,636.3 1201.6,636.3 1195.1,636.3 1188.6,636.3 1182,636.3 1175.5,636.3 1169,636.3 
		1162.4,636.3 1155.9,636.3 1149.4,636.3 1142.9,636.3 1136.3,636.3 1129.8,636.3 1123.3,636.3 1116.7,636.3 1110.2,636.3 
		1103.7,636.3 1097.1,636.3 1090.6,636.3 1084.1,636.3 1077.6,636.3 1071,636.3 1064.5,636.3 1058,636.3 1051.4,636.3 1044.9,636.3 
		1038.4,636.3 1031.8,636.3 1025.3,636.3 1018.8,636.3 1012.2,636.3 1005.7,636.3 999.2,636.3 992.7,636.3 986.1,636.3 979.6,636.3 
		973.1,636.3 966.5,636.3 960,636.3 953.5,636.3 946.9,636.3 940.4,636.3 933.9,636.3 927.3,636.3 920.8,636.3 914.3,636.3 
		907.8,636.3 901.2,636.3 894.7,636.3 888.2,636.3 881.6,636.3 875.1,636.3 868.6,636.3 862,636.3 855.5,636.3 849,636.3 
		842.4,636.3 835.9,636.3 829.4,636.3 822.9,636.3 816.3,636.3 809.8,636.3 803.3,636.3 796.7,636.3 790.2,636.3 783.7,636.3 
		777.1,636.3 770.6,636.3 764.1,636.3 757.6,636.3 751,636.3 744.5,636.3 738,636.3 731.4,636.3 724.9,636.3 718.4,636.3 
		711.8,636.3 705.3,636.3 698.8,636.3 692.2,636.3 685.7,636.3 679.2,636.3 672.7,636.3 666.1,636.3 659.6,636.3 653.1,636.3 
		646.5,636.3 640,636.3 633.5,636.3 626.9,636.3 620.4,636.3 613.9,636.3 607.3,636.3 600.8,636.3 594.3,636.3 587.8,636.3 
		581.2,636.3 574.7,636.3 568.2,636.3 561.6,636.3 555.1,636.3 548.6,636.3 542,636.3 535.5,636.3 529,636.3 522.4,636.3 
		515.9,636.3 509.4,636.3 502.9,636.3 496.3,636.3 489.8,636.3 483.3,636.3 476.7,636.3 470.2,636.3 463.7,636.3 457.1,636.3 
		450.6,636.3 444.1,636.3 437.6,636.3 431,636.3 424.5,636.3 418,636.3 411.4,636.3 404.9,636.3 398.4,636.3 391.8,636.3 
		385.3,636.3 378.8,636.3 372.2,636.3 365.7,636.3 359.2,636.3 352.7,636.3 346.1,636.3 339.6,636.3 333.1,636.3 326.5,636.3 
		320,636.3 313.5,636.3 306.9,636.3 300.4,636.3 293.9,636.3 287.3,636.3 280.8,636.3 274.3,636.3 267.8,636.3 261.2,636.3 
		254.7,636.3 248.2,636.3 241.6,636.3 235.1,636.3 228.6,636.3 222,636.3 215.5,636.3 209,636.3 202.4,636.3 195.9,636.3 
		189.4,636.3 182.9,636.3 176.3,636.3 169.8,636.3 163.3,636.3 156.7,636.3 150.2,636.3 143.7,636.3 137.1,636.3 130.6,636.3 
		124.1,636.3 117.6,636.3 111,636.3 104.5,636.3 98,636.3 91.4,636.3 84.9,636.3 78.4,636.3 71.8,636.3 65.3,636.3 58.8,636.3 
		52.2,636.3 45.7,636.3 39.2,636.3 32.7,636.3 26.1,636.3 19.6,636.3 13.1,636.3 6.5,636.3 0,636.3 0,642.8 0,649.4 6.5,649.4 
		6.5,655.9 13.1,655.9 19.6,655.9 19.6,649.4 13.1,649.4 13.1,642.8 19.6,642.8 26.1,642.8 26.1,649.4 32.7,649.4 39.2,649.4 
		39.2,655.9 45.7,655.9 45.7,649.4 52.2,649.4 52.2,642.8 58.8,642.8 58.8,649.4 65.3,649.4 65.3,655.9 71.8,655.9 78.4,655.9 
		78.4,649.4 71.8,649.4 71.8,642.8 78.4,642.8 84.9,642.8 84.9,649.4 91.4,649.4 98,649.4 98,655.9 104.5,655.9 111,655.9 
		111,649.4 104.5,649.4 104.5,642.8 111,642.8 117.6,642.8 117.6,649.4 117.6,655.9 124.1,655.9 130.6,655.9 130.6,662.4 
		137.1,662.4 137.1,655.9 143.7,655.9 150.2,655.9 150.2,649.4 143.7,649.4 137.1,649.4 137.1,642.8 143.7,642.8 150.2,642.8 
		156.7,642.8 156.7,649.4 156.7,655.9 163.3,655.9 163.3,649.4 163.3,642.8 169.8,642.8 176.3,642.8 176.3,649.4 182.9,649.4 
		189.4,649.4 189.4,655.9 195.9,655.9 202.4,655.9 202.4,649.4 195.9,649.4 195.9,642.8 202.4,642.8 209,642.8 209,649.4 
		215.5,649.4 222,649.4 222,655.9 228.6,655.9 235.1,655.9 235.1,649.4 228.6,649.4 228.6,642.8 235.1,642.8 241.6,642.8 
		241.6,649.4 248.2,649.4 254.7,649.4 254.7,655.9 261.2,655.9 261.2,649.4 267.8,649.4 267.8,642.8 274.3,642.8 274.3,649.4 
		280.8,649.4 280.8,655.9 287.3,655.9 293.9,655.9 293.9,649.4 287.3,649.4 287.3,642.8 293.9,642.8 300.4,642.8 300.4,649.4 
		306.9,649.4 313.5,649.4 313.5,655.9 320,655.9 326.5,655.9 326.5,649.4 320,649.4 320,642.8 326.5,642.8 326.5,649.4 333.1,649.4 
		333.1,655.9 339.6,655.9 339.6,649.4 346.1,649.4 346.1,655.9 346.1,662.4 352.7,662.4 352.7,655.9 359.2,655.9 359.2,649.4 
		352.7,649.4 352.7,642.8 359.2,642.8 365.7,642.8 365.7,649.4 372.2,649.4 372.2,655.9 378.8,655.9 378.8,649.4 378.8,642.8 
		385.3,642.8 385.3,649.4 391.8,649.4 398.4,649.4 398.4,655.9 404.9,655.9 411.4,655.9 411.4,649.4 404.9,649.4 404.9,642.8 
		411.4,642.8 418,642.8 424.5,642.8 424.5,649.4 431,649.4 431,655.9 437.6,655.9 444.1,655.9 444.1,649.4 437.6,649.4 437.6,642.8 
		444.1,642.8 450.6,642.8 457.1,642.8 457.1,649.4 463.7,649.4 463.7,655.9 463.7,662.4 470.2,662.4 470.2,655.9 470.2,649.4 
		476.7,649.4 476.7,642.8 483.3,642.8 489.8,642.8 489.8,649.4 489.8,655.9 496.3,655.9 502.9,655.9 509.4,655.9 509.4,649.4 
		502.9,649.4 502.9,642.8 509.4,642.8 515.9,642.8 515.9,649.4 522.4,649.4 529,649.4 529,655.9 535.5,655.9 542,655.9 542,649.4 
		535.5,649.4 535.5,642.8 542,642.8 542,649.4 548.6,649.4 548.6,655.9 555.1,655.9 555.1,649.4 561.6,649.4 561.6,655.9 
		561.6,662.4 568.2,662.4 568.2,655.9 574.7,655.9 574.7,649.4 568.2,649.4 568.2,642.8 574.7,642.8 581.2,642.8 581.2,649.4 
		587.8,649.4 587.8,655.9 594.3,655.9 594.3,649.4 594.3,642.8 600.8,642.8 600.8,649.4 607.3,649.4 613.9,649.4 613.9,655.9 
		620.4,655.9 626.9,655.9 626.9,649.4 620.4,649.4 620.4,642.8 626.9,642.8 633.5,642.8 633.5,649.4 640,649.4 646.5,649.4 
		646.5,655.9 653.1,655.9 659.6,655.9 659.6,649.4 653.1,649.4 653.1,642.8 659.6,642.8 666.1,642.8 666.1,649.4 672.7,649.4 
		679.2,649.4 679.2,655.9 685.7,655.9 685.7,649.4 692.2,649.4 692.2,642.8 698.8,642.8 698.8,649.4 705.3,649.4 705.3,655.9 
		711.8,655.9 718.4,655.9 718.4,649.4 711.8,649.4 711.8,642.8 718.4,642.8 724.9,642.8 724.9,649.4 731.4,649.4 738,649.4 
		738,655.9 744.5,655.9 751,655.9 751,649.4 744.5,649.4 744.5,642.8 751,642.8 757.6,642.8 757.6,649.4 764.1,649.4 770.6,649.4 
		770.6,655.9 777.1,655.9 783.7,655.9 783.7,649.4 777.1,649.4 777.1,642.8 783.7,642.8 790.2,642.8 796.7,642.8 796.7,649.4 
		796.7,655.9 803.3,655.9 809.8,655.9 809.8,649.4 803.3,649.4 803.3,642.8 809.8,642.8 816.3,642.8 816.3,649.4 822.9,649.4 
		829.4,649.4 829.4,655.9 835.9,655.9 842.4,655.9 842.4,649.4 835.9,649.4 835.9,642.8 842.4,642.8 849,642.8 849,649.4 
		855.5,649.4 862,649.4 862,655.9 868.6,655.9 875.1,655.9 875.1,649.4 868.6,649.4 868.6,642.8 875.1,642.8 881.6,642.8 
		881.6,649.4 888.2,649.4 894.7,649.4 894.7,655.9 901.2,655.9 901.2,649.4 907.8,649.4 907.8,642.8 914.3,642.8 914.3,649.4 
		920.8,649.4 920.8,655.9 927.3,655.9 933.9,655.9 933.9,649.4 927.3,649.4 927.3,642.8 933.9,642.8 940.4,642.8 940.4,649.4 
		946.9,649.4 953.5,649.4 953.5,655.9 960,655.9 966.5,655.9 966.5,649.4 960,649.4 960,642.8 966.5,642.8 966.5,649.4 973.1,649.4 
		973.1,655.9 979.6,655.9 979.6,649.4 986.1,649.4 986.1,655.9 986.1,662.4 992.7,662.4 992.7,655.9 999.2,655.9 999.2,649.4 
		992.7,649.4 992.7,642.8 999.2,642.8 1005.7,642.8 1005.7,649.4 1012.2,649.4 1012.2,655.9 1018.8,655.9 1018.8,649.4 
		1018.8,642.8 1025.3,642.8 1025.3,649.4 1031.8,649.4 1038.4,649.4 1038.4,655.9 1044.9,655.9 1051.4,655.9 1051.4,649.4 
		1044.9,649.4 1044.9,642.8 1051.4,642.8 1058,642.8 1064.5,642.8 1064.5,649.4 1071,649.4 1071,655.9 1077.6,655.9 1084.1,655.9 
		1084.1,649.4 1077.6,649.4 1077.6,642.8 1084.1,642.8 1090.6,642.8 1090.6,649.4 1097.1,649.4 1103.7,649.4 1103.7,655.9 
		1110.2,655.9 1110.2,649.4 1116.7,649.4 1116.7,642.8 1123.3,642.8 1123.3,649.4 1129.8,649.4 1129.8,655.9 1136.3,655.9 
		1142.9,655.9 1149.4,655.9 1149.4,649.4 1142.9,649.4 1136.3,649.4 1136.3,642.8 1142.9,642.8 1149.4,642.8 1149.4,649.4 
		1155.9,649.4 1162.4,649.4 1169,649.4 1169,642.8 1175.5,642.8 1182,642.8 1182,649.4 1188.6,649.4 1188.6,655.9 1195.1,655.9 
		1195.1,649.4 1201.6,649.4 1201.6,655.9 1208.2,655.9 1214.7,655.9 1214.7,649.4 1208.2,649.4 1208.2,642.8 1214.7,642.8 
		1221.2,642.8 1221.2,649.4 1227.8,649.4 1227.8,655.9 1234.3,655.9 1234.3,649.4 1234.3,642.8 1240.8,642.8 1240.8,649.4 
		1247.3,649.4 1253.9,649.4 1253.9,655.9 1260.4,655.9 1266.9,655.9 1266.9,649.4 1260.4,649.4 1260.4,642.8 1266.9,642.8 
		1273.5,642.8 1273.5,649.4 1280,649.4 1280,642.8 1280,636.3 	"/>
	<polygon class="st5" points="1169,649.4 1169,655.9 1175.5,655.9 1182,655.9 1182,649.4 1175.5,649.4 	"/>
	<rect x="32.7" y="655.9" class="st5" width="6.5" height="6.5"/>
	<rect x="248.2" y="655.9" class="st5" width="6.5" height="6.5"/>
	<rect x="672.7" y="655.9" class="st5" width="6.5" height="6.5"/>
	<rect x="888.2" y="655.9" class="st5" width="6.5" height="6.5"/>
</g>
<g>
	<g>
		<rect x="320" y="642.8" class="st6" width="6.5" height="6.5"/>
	</g>
	<g>
		<rect x="535.5" y="642.8" class="st6" width="6.5" height="6.5"/>
	</g>
	<g>
		<rect x="960" y="642.8" class="st6" width="6.5" height="6.5"/>
	</g>
	<g>
		<polygon class="st6" points="1142.9,642.8 1136.3,642.8 1136.3,649.4 1142.9,649.4 1149.4,649.4 1149.4,642.8 		"/>
	</g>
	<g>
		<polygon class="st6" points="1182,649.4 1182,642.8 1175.5,642.8 1169,642.8 1169,649.4 1175.5,649.4 		"/>
	</g>
	<g>
		<g>
			<path class="st6" d="M1273.5,649.4v-6.5h-6.5h-6.5v6.5h6.5v6.5h-6.5h-6.5v-6.5h-6.5h-6.5v-6.5h-6.5v6.5v6.5h-6.5v-6.5h-6.5v-6.5
				h-6.5h-6.5v6.5h6.5v6.5h-6.5h-6.5v-6.5h-6.5v6.5h-6.5v-6.5h-6.5v6.5h-6.5h-6.5v-6.5h-6.5h-6.5h-6.5v6.5h-6.5h-6.5h-6.5v-6.5h-6.5
				v-6.5h-6.5v6.5h-6.5v6.5h-6.5v-6.5h-6.5h-6.5v-6.5h-6.5h-6.5v6.5h6.5v6.5h-6.5h-6.5v-6.5h-6.5v-6.5h-6.5h-6.5h-6.5v6.5h6.5v6.5
				h-6.5h-6.5v-6.5h-6.5h-6.5v-6.5h-6.5v6.5v6.5h-6.5v-6.5h-6.5v-6.5h-6.5h-6.5v6.5h6.5v6.5h-6.5v6.5h-6.5v-6.5v-6.5h-6.5v6.5h-6.5
				v-6.5h-6.5v6.5H960h-6.5v-6.5h-6.5h-6.5v-6.5h-6.5h-6.5v6.5h6.5v6.5h-6.5h-6.5v-6.5h-6.5v-6.5h-6.5v6.5h-6.5v6.5h-6.5v6.5h-6.5
				v-6.5h6.5v-6.5h-6.5h-6.5v-6.5h-6.5h-6.5v6.5h6.5v6.5h-6.5H862v-6.5h-6.5H849v-6.5h-6.5h-6.5v6.5h6.5v6.5h-6.5h-6.5v-6.5h-6.5
				h-6.5v-6.5h-6.5h-6.5v6.5h6.5v6.5h-6.5h-6.5v-6.5v-6.5h-6.5h-6.5h-6.5v6.5h6.5v6.5h-6.5h-6.5v-6.5h-6.5h-6.5v-6.5H751h-6.5v6.5
				h6.5v6.5h-6.5H738v-6.5h-6.5h-6.5v-6.5h-6.5h-6.5v6.5h6.5v6.5h-6.5h-6.5v-6.5h-6.5v-6.5h-6.5v6.5h-6.5v6.5h-6.5v6.5h-6.5v-6.5
				h6.5v-6.5h-6.5h-6.5v-6.5h-6.5h-6.5v6.5h6.5v6.5h-6.5h-6.5v-6.5H640h-6.5v-6.5h-6.5h-6.5v6.5h6.5v6.5h-6.5h-6.5v-6.5h-6.5h-6.5
				v-6.5h-6.5v6.5v6.5h-6.5v-6.5h-6.5v-6.5h-6.5h-6.5v6.5h6.5v6.5h-6.5v6.5h-6.5v-6.5v-6.5h-6.5v6.5h-6.5v-6.5H542v6.5h-6.5H529
				v-6.5h-6.5h-6.5v-6.5h-6.5h-6.5v6.5h6.5v6.5h-6.5h-6.5h-6.5v-6.5v-6.5h-6.5h-6.5v6.5h-6.5v6.5v6.5h-6.5v-6.5v-6.5h-6.5v-6.5h-6.5
				h-6.5h-6.5v6.5h6.5v6.5h-6.5H431v-6.5h-6.5v-6.5H418h-6.5h-6.5v6.5h6.5v6.5h-6.5h-6.5v-6.5h-6.5h-6.5v-6.5h-6.5v6.5v6.5h-6.5
				v-6.5h-6.5v-6.5h-6.5h-6.5v6.5h6.5v6.5h-6.5v6.5h-6.5v-6.5v-6.5h-6.5v6.5h-6.5v-6.5h-6.5v6.5H320h-6.5v-6.5h-6.5h-6.5v-6.5h-6.5
				h-6.5v6.5h6.5v6.5h-6.5h-6.5v-6.5h-6.5v-6.5h-6.5v6.5h-6.5v6.5h-6.5v6.5l0,0h-6.5v-6.5h6.5v-6.5h-6.5h-6.5v-6.5h-6.5h-6.5v6.5
				h6.5v6.5h-6.5H222v-6.5h-6.5H209v-6.5h-6.5h-6.5v6.5h6.5v6.5h-6.5h-6.5v-6.5h-6.5h-6.5v-6.5h-6.5h-6.5v6.5v6.5h-6.5v-6.5v-6.5
				h-6.5h-6.5h-6.5v6.5h6.5h6.5v6.5h-6.5h-6.5v6.5h-6.5l0,0v-6.5h-6.5h-6.5v-6.5v-6.5H111h-6.5v6.5h6.5v6.5h-6.5H98v-6.5h-6.5h-6.5
				v-6.5h-6.5h-6.5v6.5h6.5v6.5h-6.5h-6.5v-6.5h-6.5v-6.5h-6.5v6.5h-6.5v6.5h-6.5v6.5h-6.5v-6.5h6.5v-6.5h-6.5h-6.5v-6.5h-6.5h-6.5
				v6.5h6.5v6.5h-6.5H6.5v-6.5H0v6.5v6.5l0,0v6.5h6.5v-6.5l0,0h6.5v6.5h6.5v6.5h6.5V669h6.5h6.5v6.5h6.5v6.5h6.5v-6.5h6.5V669v-6.5
				h6.5v6.5h6.5h6.5h6.5h6.5v-6.5l0,0H98v6.5h6.5h6.5v-6.5h6.5l0,0v6.5h6.5h6.5v6.5h6.5h6.5V669h6.5v-6.5h6.5v6.5v6.5h6.5V669h6.5
				h6.5h6.5h6.5v-6.5h6.5l0,0v6.5h6.5h6.5v6.5h6.5V669h6.5v-6.5h6.5v6.5h6.5v6.5h6.5V669h6.5h6.5v6.5h6.5v6.5h6.5v-6.5h6.5V669v-6.5
				h6.5l0,0v6.5h6.5h6.5h6.5h6.5v-6.5h6.5v6.5h6.5h6.5v-6.5l0,0h6.5v6.5h6.5h6.5v6.5h6.5h6.5V669h6.5v6.5h6.5h6.5V669h6.5v6.5h6.5
				V669h6.5v-6.5h6.5v6.5h6.5h6.5v6.5h6.5V669h6.5h6.5h6.5v6.5h6.5V669h6.5h6.5h6.5v6.5v6.5h6.5v-6.5h6.5h6.5V669v-6.5h6.5v6.5h6.5
				h6.5h6.5h6.5v-6.5h6.5v6.5h6.5h6.5v-6.5h6.5v6.5h6.5h6.5v6.5h6.5h6.5V669h6.5v-6.5h6.5v6.5h-6.5v6.5h6.5h6.5V669h6.5v6.5h6.5V669
				h6.5v-6.5h6.5v6.5h6.5h6.5v6.5h6.5V669h6.5v-6.5h6.5v6.5h6.5v6.5h6.5V669h6.5h6.5v6.5h6.5v6.5h6.5v-6.5h6.5V669v-6.5h-6.5v-6.5
				h6.5v6.5h6.5v6.5h6.5h6.5h6.5h6.5v-6.5h6.5v6.5h6.5h6.5v-6.5h6.5v6.5h6.5h6.5h6.5v6.5h6.5V669h6.5v6.5h6.5h6.5V669h6.5h6.5h6.5
				h6.5v-6.5h6.5v6.5h6.5v6.5h6.5h6.5V669h6.5v-6.5h6.5v6.5h6.5v6.5h6.5V669h6.5h6.5v6.5h6.5v6.5h6.5v-6.5h6.5V669v-6.5h-6.5v-6.5
				h6.5v6.5h6.5v6.5h6.5h6.5h6.5h6.5v-6.5h6.5v6.5h6.5h6.5v-6.5h6.5v6.5h6.5h6.5v6.5h6.5h6.5V669h6.5v-6.5h6.5v6.5h-6.5v6.5h6.5h6.5
				V669h6.5v6.5h6.5V669h6.5v-6.5h6.5v6.5h6.5h6.5v6.5h6.5V669h6.5v-6.5h6.5v6.5h6.5v6.5h6.5V669h6.5h6.5h6.5v6.5h6.5v6.5h6.5v-6.5
				V669v-6.5h6.5h6.5v6.5h6.5h6.5h6.5h6.5v-6.5h6.5v6.5h6.5h6.5v-6.5h6.5v6.5h6.5h6.5v6.5h6.5h6.5V669h6.5v-6.5h6.5v6.5h-6.5v6.5
				h6.5h6.5V669h6.5v6.5h6.5V669h6.5v-6.5h6.5v6.5h6.5h6.5v6.5h6.5V669v-6.5v-6.5v-6.5H1273.5z M372.2,669h-6.5v-6.5h6.5V669z"/>
		</g>
	</g>
</g>
<g>
	<g>
		<rect x="692.2" y="655.9" class="st7" width="6.5" height="6.5"/>
	</g>
	<g>
		<rect x="907.8" y="655.9" class="st7" width="6.5" height="6.5"/>
	</g>
	<g>
		<rect x="6.5" y="662.4" class="st7" width="6.5" height="6.5"/>
	</g>
	<g>
		<rect x="91.4" y="662.4" class="st7" width="6.5" height="6.5"/>
	</g>
	<g>
		<rect x="111" y="662.4" class="st7" width="6.5" height="6.5"/>
	</g>
	<g>
		<rect x="222" y="662.4" class="st7" width="6.5" height="6.5"/>
	</g>
	<g>
		<rect x="306.9" y="662.4" class="st7" width="6.5" height="6.5"/>
	</g>
	<g>
		<rect x="326.5" y="662.4" class="st7" width="6.5" height="6.5"/>
	</g>
	<g>
		<rect x="365.7" y="662.4" class="st7" width="6.5" height="6.5"/>
	</g>
	<g>
		<rect x="522.4" y="662.4" class="st7" width="6.5" height="6.5"/>
	</g>
	<g>
		<rect x="542" y="662.4" class="st7" width="6.5" height="6.5"/>
	</g>
	<g>
		<rect x="581.2" y="662.4" class="st7" width="6.5" height="6.5"/>
	</g>
	<g>
		<rect x="646.5" y="662.4" class="st7" width="6.5" height="6.5"/>
	</g>
	<g>
		<rect x="731.4" y="662.4" class="st7" width="6.5" height="6.5"/>
	</g>
	<g>
		<polygon class="st7" points="835.9,662.4 829.4,662.4 829.4,669 822.9,669 816.3,669 809.8,669 803.3,669 803.3,675.5 
			796.7,675.5 790.2,675.5 790.2,669 783.7,669 783.7,675.5 777.1,675.5 777.1,669 770.6,669 764.1,669 757.6,669 757.6,662.4 
			751,662.4 751,669 744.5,669 738,669 738,675.5 744.5,675.5 744.5,682 751,682 751,675.5 757.6,675.5 764.1,675.5 770.6,675.5 
			770.6,682 777.1,682 783.7,682 790.2,682 796.7,682 803.3,682 809.8,682 816.3,682 822.9,682 822.9,675.5 829.4,675.5 
			835.9,675.5 835.9,682 842.4,682 842.4,675.5 842.4,669 835.9,669 		"/>
	</g>
	<g>
		<rect x="946.9" y="662.4" class="st7" width="6.5" height="6.5"/>
	</g>
	<g>
		<rect x="966.5" y="662.4" class="st7" width="6.5" height="6.5"/>
	</g>
	<g>
		<rect x="1005.7" y="662.4" class="st7" width="6.5" height="6.5"/>
	</g>
	<g>
		<rect x="1182" y="662.4" class="st7" width="6.5" height="6.5"/>
	</g>
	<g>
		<rect x="1221.2" y="662.4" class="st7" width="6.5" height="6.5"/>
	</g>
	<g>
		<rect x="0" y="669" class="st7" width="6.5" height="6.5"/>
	</g>
	<g>
		<rect x="13.1" y="669" class="st7" width="6.5" height="6.5"/>
	</g>
	<g>
		<polygon class="st7" points="32.7,669 26.1,669 26.1,675.5 32.7,675.5 39.2,675.5 39.2,669 		"/>
	</g>
	<g>
		<polygon class="st7" points="78.4,669 71.8,669 65.3,669 65.3,662.4 58.8,662.4 58.8,669 58.8,675.5 65.3,675.5 71.8,675.5 
			78.4,675.5 84.9,675.5 91.4,675.5 91.4,669 84.9,669 		"/>
	</g>
	<g>
		<polygon class="st7" points="98,669 98,675.5 104.5,675.5 104.5,682 111,682 111,675.5 111,669 104.5,669 		"/>
	</g>
	<g>
		<polygon class="st7" points="124.1,669 117.6,669 117.6,675.5 124.1,675.5 130.6,675.5 130.6,669 		"/>
	</g>
	<g>
		<polygon class="st7" points="202.4,669 195.9,669 195.9,662.4 189.4,662.4 189.4,669 182.9,669 176.3,669 169.8,669 163.3,669 
			163.3,675.5 156.7,675.5 156.7,669 156.7,662.4 150.2,662.4 150.2,669 143.7,669 143.7,675.5 137.1,675.5 130.6,675.5 130.6,682 
			137.1,682 143.7,682 150.2,682 156.7,682 163.3,682 169.8,682 176.3,682 182.9,682 182.9,675.5 189.4,675.5 195.9,675.5 
			195.9,682 202.4,682 202.4,675.5 209,675.5 209,669 		"/>
	</g>
	<g>
		<rect x="215.5" y="669" class="st7" width="6.5" height="6.5"/>
	</g>
	<g>
		<rect x="228.6" y="669" class="st7" width="6.5" height="6.5"/>
	</g>
	<g>
		<polygon class="st7" points="248.2,669 241.6,669 241.6,675.5 248.2,675.5 254.7,675.5 254.7,669 		"/>
	</g>
	<g>
		<polygon class="st7" points="293.9,669 287.3,669 280.8,669 280.8,662.4 274.3,662.4 274.3,669 274.3,675.5 280.8,675.5 
			287.3,675.5 293.9,675.5 300.4,675.5 306.9,675.5 306.9,669 300.4,669 		"/>
	</g>
	<g>
		<polygon class="st7" points="313.5,669 313.5,675.5 320,675.5 320,682 326.5,682 326.5,675.5 326.5,669 320,669 		"/>
	</g>
	<g>
		<polygon class="st7" points="339.6,669 333.1,669 333.1,675.5 339.6,675.5 346.1,675.5 346.1,669 		"/>
	</g>
	<g>
		<rect x="378.8" y="669" class="st7" width="6.5" height="6.5"/>
	</g>
	<g>
		<polygon class="st7" points="418,669 411.4,669 404.9,669 404.9,662.4 398.4,662.4 398.4,669 391.8,669 391.8,675.5 398.4,675.5 
			404.9,675.5 404.9,682 411.4,682 418,682 424.5,682 424.5,675.5 418,675.5 		"/>
	</g>
	<g>
		<polygon class="st7" points="437.6,669 431,669 424.5,669 424.5,675.5 431,675.5 437.6,675.5 444.1,675.5 444.1,669 		"/>
	</g>
	<g>
		<polygon class="st7" points="457.1,669 450.6,669 450.6,675.5 444.1,675.5 444.1,682 450.6,682 457.1,682 457.1,675.5 
			463.7,675.5 463.7,682 470.2,682 470.2,675.5 470.2,669 463.7,669 		"/>
	</g>
	<g>
		<polygon class="st7" points="509.4,669 502.9,669 496.3,669 496.3,662.4 489.8,662.4 489.8,669 489.8,675.5 496.3,675.5 
			502.9,675.5 509.4,675.5 515.9,675.5 522.4,675.5 522.4,669 515.9,669 		"/>
	</g>
	<g>
		<polygon class="st7" points="529,669 529,675.5 535.5,675.5 535.5,682 542,682 542,675.5 542,669 535.5,669 		"/>
	</g>
	<g>
		<polygon class="st7" points="555.1,669 548.6,669 548.6,675.5 555.1,675.5 561.6,675.5 561.6,669 		"/>
	</g>
	<g>
		<rect x="594.3" y="669" class="st7" width="6.5" height="6.5"/>
	</g>
	<g>
		<polygon class="st7" points="626.9,669 620.4,669 620.4,662.4 613.9,662.4 613.9,669 607.3,669 607.3,675.5 613.9,675.5 
			620.4,675.5 620.4,682 626.9,682 626.9,675.5 633.5,675.5 633.5,669 		"/>
	</g>
	<g>
		<rect x="640" y="669" class="st7" width="6.5" height="6.5"/>
	</g>
	<g>
		<rect x="653.1" y="669" class="st7" width="6.5" height="6.5"/>
	</g>
	<g>
		<polygon class="st7" points="672.7,669 666.1,669 666.1,675.5 672.7,675.5 679.2,675.5 679.2,669 		"/>
	</g>
	<g>
		<polygon class="st7" points="718.4,669 711.8,669 705.3,669 705.3,662.4 698.8,662.4 698.8,669 698.8,675.5 705.3,675.5 
			711.8,675.5 718.4,675.5 724.9,675.5 731.4,675.5 731.4,669 724.9,669 		"/>
	</g>
	<g>
		<polygon class="st7" points="868.6,669 868.6,662.4 862,662.4 862,669 855.5,669 855.5,675.5 862,675.5 868.6,675.5 875.1,675.5 
			875.1,669 		"/>
	</g>
	<g>
		<polygon class="st7" points="888.2,669 881.6,669 881.6,675.5 888.2,675.5 894.7,675.5 894.7,669 		"/>
	</g>
	<g>
		<polygon class="st7" points="933.9,669 927.3,669 920.8,669 920.8,662.4 914.3,662.4 914.3,669 914.3,675.5 920.8,675.5 
			927.3,675.5 933.9,675.5 940.4,675.5 946.9,675.5 946.9,669 940.4,669 		"/>
	</g>
	<g>
		<polygon class="st7" points="953.5,669 953.5,675.5 960,675.5 960,682 966.5,682 966.5,675.5 966.5,669 960,669 		"/>
	</g>
	<g>
		<polygon class="st7" points="979.6,669 973.1,669 973.1,675.5 979.6,675.5 986.1,675.5 986.1,669 		"/>
	</g>
	<g>
		<rect x="1018.8" y="669" class="st7" width="6.5" height="6.5"/>
	</g>
	<g>
		<polygon class="st7" points="1058,669 1051.4,669 1044.9,669 1044.9,662.4 1038.4,662.4 1038.4,669 1031.8,669 1031.8,675.5 
			1025.3,675.5 1025.3,682 1031.8,682 1038.4,682 1038.4,675.5 1044.9,675.5 1044.9,682 1051.4,682 1058,682 1064.5,682 
			1064.5,675.5 1058,675.5 		"/>
	</g>
	<g>
		<polygon class="st7" points="1077.6,669 1077.6,662.4 1071,662.4 1071,669 1064.5,669 1064.5,675.5 1071,675.5 1077.6,675.5 
			1084.1,675.5 1084.1,669 		"/>
	</g>
	<g>
		<polygon class="st7" points="1110.2,669 1103.7,669 1097.1,669 1090.6,669 1090.6,675.5 1084.1,675.5 1084.1,682 1090.6,682 
			1097.1,682 1097.1,675.5 1103.7,675.5 1103.7,682 1110.2,682 1116.7,682 1116.7,675.5 1110.2,675.5 		"/>
	</g>
	<g>
		<polygon class="st7" points="1169,669 1169,662.4 1162.4,662.4 1162.4,669 1155.9,669 1149.4,669 1142.9,669 1136.3,669 
			1136.3,662.4 1129.8,662.4 1123.3,662.4 1123.3,669 1123.3,675.5 1123.3,682 1129.8,682 1129.8,675.5 1136.3,675.5 1142.9,675.5 
			1149.4,675.5 1155.9,675.5 1162.4,675.5 1169,675.5 1169,682 1175.5,682 1182,682 1182,675.5 1182,669 1175.5,669 		"/>
	</g>
	<g>
		<polygon class="st7" points="1195.1,669 1188.6,669 1188.6,675.5 1195.1,675.5 1201.6,675.5 1201.6,669 		"/>
	</g>
	<g>
		<rect x="1234.3" y="669" class="st7" width="6.5" height="6.5"/>
	</g>
	<g>
		<polygon class="st7" points="1266.9,669 1260.4,669 1260.4,662.4 1253.9,662.4 1253.9,669 1247.3,669 1247.3,675.5 1253.9,675.5 
			1260.4,675.5 1260.4,682 1266.9,682 1266.9,675.5 1273.5,675.5 1273.5,669 		"/>
	</g>
	<g>
		<rect x="19.6" y="675.5" class="st7" width="6.5" height="6.5"/>
	</g>
	<g>
		<rect x="39.2" y="675.5" class="st7" width="6.5" height="6.5"/>
	</g>
	<g>
		<rect x="52.2" y="675.5" class="st7" width="6.5" height="6.5"/>
	</g>
	<g>
		<rect x="209" y="675.5" class="st7" width="6.5" height="6.5"/>
	</g>
	<g>
		<rect x="235.1" y="675.5" class="st7" width="6.5" height="6.5"/>
	</g>
	<g>
		<rect x="254.7" y="675.5" class="st7" width="6.5" height="6.5"/>
	</g>
	<g>
		<rect x="267.8" y="675.5" class="st7" width="6.5" height="6.5"/>
	</g>
	<g>
		<polygon class="st7" points="365.7,675.5 365.7,669 359.2,669 359.2,675.5 352.7,675.5 346.1,675.5 346.1,682 352.7,682 
			359.2,682 365.7,682 372.2,682 378.8,682 378.8,675.5 372.2,675.5 		"/>
	</g>
	<g>
		<rect x="385.3" y="675.5" class="st7" width="6.5" height="6.5"/>
	</g>
	<g>
		<polygon class="st7" points="476.7,675.5 476.7,682 483.3,682 489.8,682 489.8,675.5 483.3,675.5 		"/>
	</g>
	<g>
		<polygon class="st7" points="581.2,675.5 581.2,669 574.7,669 574.7,675.5 568.2,675.5 561.6,675.5 561.6,682 568.2,682 
			574.7,682 581.2,682 587.8,682 594.3,682 594.3,675.5 587.8,675.5 		"/>
	</g>
	<g>
		<rect x="600.8" y="675.5" class="st7" width="6.5" height="6.5"/>
	</g>
	<g>
		<rect x="633.5" y="675.5" class="st7" width="6.5" height="6.5"/>
	</g>
	<g>
		<rect x="659.6" y="675.5" class="st7" width="6.5" height="6.5"/>
	</g>
	<g>
		<rect x="679.2" y="675.5" class="st7" width="6.5" height="6.5"/>
	</g>
	<g>
		<rect x="692.2" y="675.5" class="st7" width="6.5" height="6.5"/>
	</g>
	<g>
		<rect x="849" y="675.5" class="st7" width="6.5" height="6.5"/>
	</g>
	<g>
		<rect x="875.1" y="675.5" class="st7" width="6.5" height="6.5"/>
	</g>
	<g>
		<rect x="894.7" y="675.5" class="st7" width="6.5" height="6.5"/>
	</g>
	<g>
		<rect x="907.8" y="675.5" class="st7" width="6.5" height="6.5"/>
	</g>
	<g>
		<polygon class="st7" points="1005.7,675.5 1005.7,669 999.2,669 999.2,675.5 992.7,675.5 986.1,675.5 986.1,682 992.7,682 
			999.2,682 1005.7,682 1012.2,682 1018.8,682 1018.8,675.5 1012.2,675.5 		"/>
	</g>
	<g>
		<polygon class="st7" points="1221.2,675.5 1221.2,669 1214.7,669 1214.7,675.5 1208.2,675.5 1201.6,675.5 1201.6,682 1208.2,682 
			1214.7,682 1221.2,682 1227.8,682 1234.3,682 1234.3,675.5 1227.8,675.5 		"/>
	</g>
	<g>
		<rect x="1240.8" y="675.5" class="st7" width="6.5" height="6.5"/>
	</g>
	<g>
		<rect x="1273.5" y="675.5" class="st7" width="6.5" height="6.5"/>
	</g>
</g>
<g>
	<g>
		<polygon class="st8" points="0,682 0,688.6 0,695.1 6.5,695.1 6.5,688.6 13.1,688.6 13.1,682 6.5,682 		"/>
	</g>
	<g>
		<rect x="45.7" y="682" class="st8" width="6.5" height="6.5"/>
	</g>
	<g>
		<rect x="156.7" y="682" class="st8" width="6.5" height="6.5"/>
	</g>
	<g>
		<rect x="261.2" y="682" class="st8" width="6.5" height="6.5"/>
	</g>
	<g>
		<rect x="365.7" y="682" class="st8" width="6.5" height="6.5"/>
	</g>
	<g>
		<rect x="431" y="682" class="st8" width="6.5" height="6.5"/>
	</g>
	<g>
		<rect x="476.7" y="682" class="st8" width="6.5" height="6.5"/>
	</g>
	<g>
		<polygon class="st8" points="522.4,682 515.9,682 509.4,682 502.9,682 496.3,682 496.3,688.6 502.9,688.6 502.9,695.1 
			509.4,695.1 509.4,701.6 515.9,701.6 515.9,695.1 522.4,695.1 522.4,688.6 		"/>
	</g>
	<g>
		<rect x="581.2" y="682" class="st8" width="6.5" height="6.5"/>
	</g>
	<g>
		<rect x="685.7" y="682" class="st8" width="6.5" height="6.5"/>
	</g>
	<g>
		<polygon class="st8" points="738,688.6 738,682 731.4,682 724.9,682 718.4,682 711.8,682 705.3,682 705.3,688.6 711.8,688.6 
			711.8,695.1 718.4,695.1 718.4,701.6 724.9,701.6 724.9,695.1 731.4,695.1 731.4,688.6 		"/>
	</g>
	<g>
		<polygon class="st8" points="803.3,688.6 803.3,682 796.7,682 790.2,682 790.2,688.6 796.7,688.6 		"/>
	</g>
	<g>
		<rect x="901.2" y="682" class="st8" width="6.5" height="6.5"/>
	</g>
	<g>
		<rect x="920.8" y="682" class="st8" width="6.5" height="6.5"/>
	</g>
	<g>
		<polygon class="st8" points="953.5,688.6 953.5,682 946.9,682 940.4,682 940.4,688.6 933.9,688.6 927.3,688.6 927.3,695.1 
			927.3,701.6 933.9,701.6 940.4,701.6 940.4,695.1 946.9,695.1 946.9,688.6 		"/>
	</g>
	<g>
		<rect x="1005.7" y="682" class="st8" width="6.5" height="6.5"/>
	</g>
	<g>
		<polygon class="st8" points="1116.7,682 1110.2,682 1110.2,688.6 1116.7,688.6 1123.3,688.6 1123.3,682 		"/>
	</g>
	<g>
		<rect x="1221.2" y="682" class="st8" width="6.5" height="6.5"/>
	</g>
	<g>
		<rect x="137.1" y="688.6" class="st8" width="6.5" height="6.5"/>
	</g>
	<g>
		<polygon class="st8" points="287.3,695.1 287.3,701.6 293.9,701.6 293.9,695.1 300.4,695.1 300.4,688.6 306.9,688.6 306.9,682 
			300.4,682 293.9,682 287.3,682 280.8,682 280.8,688.6 287.3,688.6 		"/>
	</g>
	<g>
		<polygon class="st8" points="320,688.6 313.5,688.6 313.5,695.1 306.9,695.1 306.9,701.6 313.5,701.6 313.5,708.1 320,708.1 
			326.5,708.1 326.5,701.6 326.5,695.1 320,695.1 		"/>
	</g>
	<g>
		<polygon class="st8" points="391.8,695.1 391.8,688.6 385.3,688.6 378.8,688.6 378.8,695.1 385.3,695.1 		"/>
	</g>
	<g>
		<polygon class="st8" points="450.6,688.6 444.1,688.6 444.1,695.1 444.1,701.6 444.1,708.1 450.6,708.1 457.1,708.1 457.1,701.6 
			463.7,701.6 463.7,695.1 463.7,688.6 457.1,688.6 		"/>
	</g>
	<g>
		<polygon class="st8" points="607.3,695.1 607.3,688.6 600.8,688.6 594.3,688.6 594.3,695.1 600.8,695.1 		"/>
	</g>
	<g>
		<polygon class="st8" points="679.2,688.6 672.7,688.6 666.1,688.6 659.6,688.6 653.1,688.6 653.1,695.1 659.6,695.1 659.6,701.6 
			659.6,708.1 666.1,708.1 672.7,708.1 672.7,701.6 679.2,701.6 679.2,695.1 		"/>
	</g>
	<g>
		<polygon class="st8" points="698.8,695.1 692.2,695.1 685.7,695.1 685.7,701.6 679.2,701.6 679.2,708.1 685.7,708.1 685.7,714.7 
			692.2,714.7 698.8,714.7 698.8,708.1 698.8,701.6 705.3,701.6 705.3,695.1 705.3,688.6 698.8,688.6 		"/>
	</g>
	<g>
		<polygon class="st8" points="770.6,688.6 764.1,688.6 764.1,682 757.6,682 757.6,688.6 757.6,695.1 757.6,701.6 764.1,701.6 
			770.6,701.6 770.6,695.1 		"/>
	</g>
	<g>
		<rect x="809.8" y="688.6" class="st8" width="6.5" height="6.5"/>
	</g>
	<g>
		<polygon class="st8" points="894.7,688.6 888.2,688.6 881.6,688.6 875.1,688.6 868.6,688.6 868.6,695.1 875.1,695.1 875.1,701.6 
			875.1,708.1 881.6,708.1 888.2,708.1 888.2,701.6 894.7,701.6 894.7,695.1 		"/>
	</g>
	<g>
		<polygon class="st8" points="914.3,695.1 914.3,701.6 920.8,701.6 920.8,695.1 920.8,688.6 914.3,688.6 		"/>
	</g>
	<g>
		<polygon class="st8" points="1031.8,695.1 1031.8,688.6 1025.3,688.6 1018.8,688.6 1018.8,695.1 1025.3,695.1 		"/>
	</g>
	<g>
		<polygon class="st8" points="1084.1,695.1 1090.6,695.1 1090.6,701.6 1090.6,708.1 1097.1,708.1 1097.1,701.6 1103.7,701.6 
			1103.7,695.1 1103.7,688.6 1097.1,688.6 1090.6,688.6 1084.1,688.6 1077.6,688.6 1077.6,695.1 		"/>
	</g>
	<g>
		<polygon class="st8" points="1142.9,695.1 1142.9,701.6 1149.4,701.6 1149.4,695.1 1155.9,695.1 1155.9,688.6 1162.4,688.6 
			1169,688.6 1169,682 1162.4,682 1155.9,682 1149.4,682 1142.9,682 1136.3,682 1136.3,688.6 1142.9,688.6 		"/>
	</g>
	<g>
		<polygon class="st8" points="1201.6,688.6 1195.1,688.6 1195.1,682 1188.6,682 1188.6,688.6 1182,688.6 1182,695.1 1188.6,695.1 
			1188.6,701.6 1195.1,701.6 1201.6,701.6 1201.6,695.1 		"/>
	</g>
	<g>
		<polygon class="st8" points="1247.3,695.1 1247.3,688.6 1240.8,688.6 1234.3,688.6 1234.3,695.1 1240.8,695.1 		"/>
	</g>
	<g>
		<polygon class="st8" points="1280,695.1 1280,688.6 1273.5,688.6 1266.9,688.6 1260.4,688.6 1260.4,695.1 1266.9,695.1 
			1266.9,701.6 1273.5,701.6 1273.5,695.1 		"/>
	</g>
	<g>
		<polygon class="st8" points="65.3,695.1 65.3,688.6 58.8,688.6 58.8,695.1 58.8,701.6 65.3,701.6 		"/>
	</g>
	<g>
		<polygon class="st8" points="84.9,701.6 84.9,695.1 91.4,695.1 91.4,688.6 98,688.6 98,682 91.4,682 84.9,682 78.4,682 
			78.4,688.6 71.8,688.6 71.8,695.1 71.8,701.6 78.4,701.6 		"/>
	</g>
	<g>
		<polygon class="st8" points="111,695.1 104.5,695.1 104.5,701.6 98,701.6 98,708.1 104.5,708.1 111,708.1 111,701.6 		"/>
	</g>
	<g>
		<polygon class="st8" points="117.6,701.6 124.1,701.6 130.6,701.6 130.6,695.1 130.6,688.6 130.6,682 124.1,682 124.1,688.6 
			117.6,688.6 111,688.6 111,695.1 117.6,695.1 		"/>
	</g>
	<g>
		<polygon class="st8" points="254.7,695.1 248.2,695.1 241.6,695.1 241.6,688.6 235.1,688.6 228.6,688.6 222,688.6 222,682 
			215.5,682 215.5,688.6 209,688.6 202.4,688.6 195.9,688.6 195.9,695.1 202.4,695.1 202.4,701.6 209,701.6 209,695.1 215.5,695.1 
			222,695.1 222,701.6 228.6,701.6 228.6,695.1 235.1,695.1 235.1,701.6 241.6,701.6 241.6,708.1 248.2,708.1 248.2,701.6 
			254.7,701.6 		"/>
	</g>
	<g>
		<polygon class="st8" points="333.1,701.6 339.6,701.6 346.1,701.6 346.1,695.1 346.1,688.6 339.6,688.6 339.6,682 333.1,682 
			333.1,688.6 326.5,688.6 326.5,695.1 333.1,695.1 		"/>
	</g>
	<g>
		<polygon class="st8" points="372.2,695.1 365.7,695.1 359.2,695.1 359.2,688.6 352.7,688.6 352.7,695.1 352.7,701.6 359.2,701.6 
			359.2,708.1 359.2,714.7 365.7,714.7 365.7,708.1 372.2,708.1 372.2,701.6 378.8,701.6 378.8,695.1 		"/>
	</g>
	<g>
		<polygon class="st8" points="411.4,701.6 418,701.6 418,695.1 424.5,695.1 431,695.1 431,688.6 424.5,688.6 418,688.6 
			411.4,688.6 404.9,688.6 404.9,695.1 411.4,695.1 		"/>
	</g>
	<g>
		<polygon class="st8" points="542,695.1 535.5,695.1 535.5,688.6 529,688.6 529,695.1 522.4,695.1 522.4,701.6 529,701.6 
			529,708.1 535.5,708.1 542,708.1 542,701.6 		"/>
	</g>
	<g>
		<polygon class="st8" points="548.6,701.6 555.1,701.6 561.6,701.6 561.6,695.1 561.6,688.6 555.1,688.6 555.1,682 548.6,682 
			548.6,688.6 542,688.6 542,695.1 548.6,695.1 		"/>
	</g>
	<g>
		<polygon class="st8" points="587.8,695.1 581.2,695.1 574.7,695.1 574.7,688.6 568.2,688.6 568.2,695.1 568.2,701.6 574.7,701.6 
			574.7,708.1 574.7,714.7 581.2,714.7 581.2,708.1 587.8,708.1 587.8,701.6 594.3,701.6 594.3,695.1 		"/>
	</g>
	<g>
		<polygon class="st8" points="626.9,701.6 633.5,701.6 633.5,695.1 640,695.1 646.5,695.1 646.5,688.6 653.1,688.6 653.1,682 
			646.5,682 640,682 640,688.6 633.5,688.6 626.9,688.6 620.4,688.6 620.4,695.1 626.9,695.1 		"/>
	</g>
	<g>
		<polygon class="st8" points="646.5,701.6 646.5,708.1 653.1,708.1 653.1,701.6 653.1,695.1 646.5,695.1 		"/>
	</g>
	<g>
		<polygon class="st8" points="751,695.1 744.5,695.1 744.5,688.6 738,688.6 738,695.1 731.4,695.1 731.4,701.6 738,701.6 
			738,708.1 744.5,708.1 751,708.1 751,701.6 		"/>
	</g>
	<g>
		<polygon class="st8" points="803.3,695.1 796.7,695.1 790.2,695.1 790.2,688.6 783.7,688.6 777.1,688.6 777.1,695.1 777.1,701.6 
			783.7,701.6 783.7,708.1 790.2,708.1 790.2,714.7 796.7,714.7 796.7,708.1 803.3,708.1 803.3,701.6 809.8,701.6 809.8,695.1 		"/>
	</g>
	<g>
		<polygon class="st8" points="862,701.6 862,708.1 868.6,708.1 868.6,701.6 868.6,695.1 862,695.1 		"/>
	</g>
	<g>
		<polygon class="st8" points="907.8,695.1 901.2,695.1 901.2,701.6 894.7,701.6 894.7,708.1 901.2,708.1 901.2,714.7 907.8,714.7 
			914.3,714.7 914.3,708.1 914.3,701.6 907.8,701.6 		"/>
	</g>
	<g>
		<polygon class="st8" points="966.5,695.1 960,695.1 960,688.6 953.5,688.6 953.5,695.1 946.9,695.1 946.9,701.6 953.5,701.6 
			953.5,708.1 960,708.1 966.5,708.1 966.5,701.6 		"/>
	</g>
	<g>
		<polygon class="st8" points="973.1,701.6 979.6,701.6 986.1,701.6 986.1,695.1 986.1,688.6 979.6,688.6 979.6,682 973.1,682 
			973.1,688.6 966.5,688.6 966.5,695.1 973.1,695.1 		"/>
	</g>
	<g>
		<polygon class="st8" points="1012.2,695.1 1005.7,695.1 999.2,695.1 999.2,688.6 992.7,688.6 992.7,695.1 992.7,701.6 
			999.2,701.6 999.2,708.1 999.2,714.7 1005.7,714.7 1005.7,708.1 1012.2,708.1 1012.2,701.6 1018.8,701.6 1018.8,695.1 		"/>
	</g>
	<g>
		<polygon class="st8" points="1051.4,701.6 1058,701.6 1058,695.1 1064.5,695.1 1071,695.1 1071,688.6 1077.6,688.6 1077.6,682 
			1071,682 1064.5,682 1064.5,688.6 1058,688.6 1051.4,688.6 1044.9,688.6 1044.9,695.1 1051.4,695.1 		"/>
	</g>
	<g>
		<polygon class="st8" points="1071,701.6 1071,708.1 1077.6,708.1 1077.6,701.6 1077.6,695.1 1071,695.1 		"/>
	</g>
	<g>
		<polygon class="st8" points="1162.4,695.1 1162.4,701.6 1169,701.6 1169,708.1 1175.5,708.1 1175.5,701.6 1175.5,695.1 
			1175.5,688.6 1169,688.6 1169,695.1 		"/>
	</g>
	<g>
		<polygon class="st8" points="1227.8,695.1 1221.2,695.1 1214.7,695.1 1214.7,688.6 1208.2,688.6 1208.2,695.1 1208.2,701.6 
			1214.7,701.6 1214.7,708.1 1214.7,714.7 1221.2,714.7 1221.2,708.1 1227.8,708.1 1227.8,701.6 1234.3,701.6 1234.3,695.1 		"/>
	</g>
	<g>
		<polygon class="st8" points="6.5,708.1 13.1,708.1 13.1,701.6 13.1,695.1 6.5,695.1 6.5,701.6 		"/>
	</g>
	<g>
		<polygon class="st8" points="26.1,708.1 32.7,708.1 32.7,701.6 39.2,701.6 39.2,695.1 32.7,695.1 32.7,688.6 26.1,688.6 
			19.6,688.6 19.6,695.1 19.6,701.6 26.1,701.6 		"/>
	</g>
	<g>
		<polygon class="st8" points="45.7,708.1 45.7,714.7 52.2,714.7 58.8,714.7 58.8,708.1 58.8,701.6 52.2,701.6 45.7,701.6 
			39.2,701.6 39.2,708.1 		"/>
	</g>
	<g>
		<polygon class="st8" points="143.7,708.1 150.2,708.1 150.2,714.7 156.7,714.7 156.7,708.1 163.3,708.1 163.3,701.6 169.8,701.6 
			169.8,695.1 169.8,688.6 163.3,688.6 163.3,695.1 156.7,695.1 150.2,695.1 143.7,695.1 143.7,701.6 		"/>
	</g>
	<g>
		<polygon class="st8" points="261.2,708.1 261.2,714.7 267.8,714.7 274.3,714.7 274.3,708.1 274.3,701.6 280.8,701.6 280.8,695.1 
			280.8,688.6 274.3,688.6 274.3,695.1 267.8,695.1 261.2,695.1 261.2,701.6 254.7,701.6 254.7,708.1 		"/>
	</g>
	<g>
		<polygon class="st8" points="424.5,701.6 418,701.6 418,708.1 411.4,708.1 411.4,714.7 404.9,714.7 404.9,721.2 411.4,721.2 
			418,721.2 418,714.7 424.5,714.7 431,714.7 431,708.1 424.5,708.1 		"/>
	</g>
	<g>
		<polygon class="st8" points="431,708.1 437.6,708.1 437.6,701.6 437.6,695.1 431,695.1 431,701.6 		"/>
	</g>
	<g>
		<polygon class="st8" points="561.6,708.1 555.1,708.1 548.6,708.1 542,708.1 542,714.7 548.6,714.7 548.6,721.2 555.1,721.2 
			561.6,721.2 568.2,721.2 568.2,714.7 568.2,708.1 568.2,701.6 561.6,701.6 		"/>
	</g>
	<g>
		<polygon class="st8" points="620.4,701.6 620.4,695.1 613.9,695.1 607.3,695.1 607.3,701.6 600.8,701.6 594.3,701.6 594.3,708.1 
			600.8,708.1 607.3,708.1 613.9,708.1 613.9,714.7 620.4,714.7 620.4,708.1 		"/>
	</g>
	<g>
		<polygon class="st8" points="640,701.6 633.5,701.6 633.5,708.1 626.9,708.1 626.9,714.7 620.4,714.7 620.4,721.2 626.9,721.2 
			633.5,721.2 633.5,714.7 640,714.7 646.5,714.7 646.5,708.1 640,708.1 		"/>
	</g>
	<g>
		<polygon class="st8" points="770.6,708.1 764.1,708.1 757.6,708.1 751,708.1 751,714.7 757.6,714.7 757.6,721.2 764.1,721.2 
			770.6,721.2 777.1,721.2 777.1,714.7 777.1,708.1 777.1,701.6 770.6,701.6 		"/>
	</g>
	<g>
		<polygon class="st8" points="835.9,701.6 835.9,695.1 829.4,695.1 822.9,695.1 816.3,695.1 816.3,701.6 809.8,701.6 809.8,708.1 
			816.3,708.1 822.9,708.1 829.4,708.1 829.4,714.7 835.9,714.7 835.9,708.1 		"/>
	</g>
	<g>
		<polygon class="st8" points="855.5,701.6 849,701.6 849,695.1 855.5,695.1 862,695.1 862,688.6 868.6,688.6 868.6,682 862,682 
			855.5,682 855.5,688.6 849,688.6 842.4,688.6 835.9,688.6 835.9,695.1 842.4,695.1 842.4,701.6 842.4,708.1 842.4,714.7 
			835.9,714.7 835.9,721.2 842.4,721.2 849,721.2 849,714.7 855.5,714.7 862,714.7 862,708.1 855.5,708.1 		"/>
	</g>
	<g>
		<polygon class="st8" points="986.1,708.1 979.6,708.1 973.1,708.1 966.5,708.1 966.5,714.7 973.1,714.7 979.6,714.7 979.6,721.2 
			986.1,721.2 986.1,714.7 992.7,714.7 992.7,708.1 992.7,701.6 986.1,701.6 		"/>
	</g>
	<g>
		<polygon class="st8" points="1044.9,701.6 1044.9,695.1 1038.4,695.1 1031.8,695.1 1031.8,701.6 1025.3,701.6 1018.8,701.6 
			1018.8,708.1 1025.3,708.1 1031.8,708.1 1038.4,708.1 1038.4,714.7 1044.9,714.7 1044.9,708.1 		"/>
	</g>
	<g>
		<polygon class="st8" points="1201.6,708.1 1195.1,708.1 1188.6,708.1 1182,708.1 1182,714.7 1188.6,714.7 1188.6,721.2 
			1195.1,721.2 1201.6,721.2 1201.6,714.7 1208.2,714.7 1208.2,708.1 1208.2,701.6 1201.6,701.6 		"/>
	</g>
	<g>
		<polygon class="st8" points="1260.4,701.6 1253.9,701.6 1253.9,695.1 1247.3,695.1 1247.3,701.6 1240.8,701.6 1234.3,701.6 
			1234.3,708.1 1240.8,708.1 1247.3,708.1 1253.9,708.1 1253.9,714.7 1260.4,714.7 1260.4,708.1 		"/>
	</g>
	<g>
		<rect x="0" y="708.1" class="st8" width="6.5" height="6.5"/>
	</g>
	<g>
		<polygon class="st8" points="222,714.7 222,708.1 215.5,708.1 209,708.1 202.4,708.1 202.4,714.7 195.9,714.7 195.9,708.1 
			195.9,701.6 189.4,701.6 189.4,695.1 182.9,695.1 182.9,701.6 176.3,701.6 176.3,708.1 182.9,708.1 189.4,708.1 189.4,714.7 
			189.4,721.2 195.9,721.2 202.4,721.2 209,721.2 209,714.7 215.5,714.7 		"/>
	</g>
	<g>
		<polygon class="st8" points="404.9,714.7 404.9,708.1 404.9,701.6 404.9,695.1 398.4,695.1 391.8,695.1 391.8,701.6 385.3,701.6 
			378.8,701.6 378.8,708.1 385.3,708.1 391.8,708.1 398.4,708.1 398.4,714.7 		"/>
	</g>
	<g>
		<polygon class="st8" points="483.3,714.7 483.3,708.1 483.3,701.6 489.8,701.6 489.8,695.1 489.8,688.6 483.3,688.6 483.3,695.1 
			476.7,695.1 470.2,695.1 470.2,701.6 470.2,708.1 470.2,714.7 476.7,714.7 		"/>
	</g>
	<g>
		<polygon class="st8" points="1071,714.7 1071,708.1 1064.5,708.1 1064.5,701.6 1058,701.6 1058,708.1 1051.4,708.1 1051.4,714.7 
			1044.9,714.7 1044.9,721.2 1051.4,721.2 1058,721.2 1058,714.7 1064.5,714.7 		"/>
	</g>
	<g>
		<polygon class="st8" points="1116.7,714.7 1123.3,714.7 1123.3,708.1 1129.8,708.1 1129.8,701.6 1129.8,695.1 1129.8,688.6 
			1123.3,688.6 1123.3,695.1 1116.7,695.1 1116.7,701.6 1110.2,701.6 1110.2,708.1 1116.7,708.1 		"/>
	</g>
	<g>
		<polygon class="st8" points="1266.9,708.1 1266.9,714.7 1260.4,714.7 1260.4,721.2 1266.9,721.2 1273.5,721.2 1273.5,714.7 
			1280,714.7 1280,708.1 1280,701.6 1273.5,701.6 1273.5,708.1 		"/>
	</g>
	<g>
		<polygon class="st8" points="39.2,714.7 32.7,714.7 26.1,714.7 26.1,721.2 19.6,721.2 19.6,727.7 26.1,727.7 32.7,727.7 
			32.7,721.2 39.2,721.2 		"/>
	</g>
	<g>
		<polygon class="st8" points="98,714.7 98,721.2 91.4,721.2 91.4,727.7 98,727.7 98,734.3 104.5,734.3 111,734.3 117.6,734.3 
			117.6,727.7 111,727.7 111,721.2 111,714.7 104.5,714.7 		"/>
	</g>
	<g>
		<polygon class="st8" points="124.1,721.2 130.6,721.2 137.1,721.2 137.1,714.7 137.1,708.1 130.6,708.1 124.1,708.1 117.6,708.1 
			111,708.1 111,714.7 117.6,714.7 117.6,721.2 		"/>
	</g>
	<g>
		<polygon class="st8" points="182.9,714.7 176.3,714.7 169.8,714.7 169.8,721.2 169.8,727.7 169.8,734.3 169.8,740.8 163.3,740.8 
			163.3,747.3 156.7,747.3 156.7,753.9 156.7,760.4 163.3,760.4 163.3,753.9 169.8,753.9 169.8,747.3 176.3,747.3 176.3,740.8 
			176.3,734.3 182.9,734.3 189.4,734.3 189.4,727.7 189.4,721.2 182.9,721.2 		"/>
	</g>
	<g>
		<polygon class="st8" points="241.6,721.2 235.1,721.2 235.1,727.7 241.6,727.7 248.2,727.7 248.2,721.2 248.2,714.7 241.6,714.7 
					"/>
	</g>
	<g>
		<polygon class="st8" points="320,714.7 313.5,714.7 313.5,721.2 306.9,721.2 306.9,727.7 313.5,727.7 320,727.7 320,721.2 		"/>
	</g>
	<g>
		<polygon class="st8" points="352.7,714.7 352.7,708.1 346.1,708.1 339.6,708.1 333.1,708.1 333.1,714.7 333.1,721.2 339.6,721.2 
			346.1,721.2 352.7,721.2 		"/>
	</g>
	<g>
		<polygon class="st8" points="391.8,714.7 385.3,714.7 385.3,721.2 385.3,727.7 385.3,734.3 391.8,734.3 398.4,734.3 398.4,727.7 
			398.4,721.2 391.8,721.2 		"/>
	</g>
	<g>
		<polygon class="st8" points="450.6,714.7 450.6,721.2 444.1,721.2 444.1,727.7 450.6,727.7 457.1,727.7 457.1,721.2 463.7,721.2 
			463.7,714.7 457.1,714.7 		"/>
	</g>
	<g>
		<polygon class="st8" points="607.3,714.7 600.8,714.7 600.8,721.2 600.8,727.7 607.3,727.7 607.3,734.3 613.9,734.3 613.9,727.7 
			613.9,721.2 607.3,721.2 		"/>
	</g>
	<g>
		<polygon class="st8" points="679.2,714.7 672.7,714.7 666.1,714.7 666.1,721.2 659.6,721.2 659.6,727.7 666.1,727.7 672.7,727.7 
			672.7,721.2 679.2,721.2 		"/>
	</g>
	<g>
		<polygon class="st8" points="738,714.7 738,721.2 731.4,721.2 731.4,727.7 738,727.7 744.5,727.7 744.5,734.3 751,734.3 
			751,727.7 751,721.2 751,714.7 744.5,714.7 		"/>
	</g>
	<g>
		<polygon class="st8" points="822.9,714.7 816.3,714.7 816.3,721.2 816.3,727.7 816.3,734.3 822.9,734.3 829.4,734.3 829.4,727.7 
			829.4,721.2 822.9,721.2 		"/>
	</g>
	<g>
		<polygon class="st8" points="888.2,714.7 881.6,714.7 881.6,721.2 875.1,721.2 875.1,727.7 881.6,727.7 888.2,727.7 888.2,721.2 
			894.7,721.2 894.7,714.7 		"/>
	</g>
	<g>
		<polygon class="st8" points="960,714.7 953.5,714.7 953.5,721.2 946.9,721.2 946.9,727.7 953.5,727.7 960,727.7 960,721.2 		"/>
	</g>
	<g>
		<polygon class="st8" points="1103.7,714.7 1097.1,714.7 1097.1,721.2 1090.6,721.2 1084.1,721.2 1077.6,721.2 1071,721.2 
			1064.5,721.2 1064.5,727.7 1071,727.7 1077.6,727.7 1084.1,727.7 1090.6,727.7 1097.1,727.7 1103.7,727.7 1103.7,721.2 		"/>
	</g>
	<g>
		<polygon class="st8" points="1247.3,714.7 1240.8,714.7 1240.8,721.2 1240.8,727.7 1247.3,727.7 1247.3,734.3 1253.9,734.3 
			1253.9,727.7 1253.9,721.2 1247.3,721.2 		"/>
	</g>
	<g>
		<polygon class="st8" points="0,721.2 0,727.7 6.5,727.7 13.1,727.7 13.1,721.2 6.5,721.2 		"/>
	</g>
	<g>
		<polygon class="st8" points="78.4,727.7 78.4,721.2 84.9,721.2 84.9,714.7 84.9,708.1 78.4,708.1 71.8,708.1 71.8,714.7 
			65.3,714.7 65.3,721.2 71.8,721.2 71.8,727.7 		"/>
	</g>
	<g>
		<polygon class="st8" points="215.5,721.2 215.5,727.7 222,727.7 228.6,727.7 228.6,721.2 222,721.2 		"/>
	</g>
	<g>
		<polygon class="st8" points="293.9,727.7 293.9,721.2 300.4,721.2 300.4,714.7 300.4,708.1 293.9,708.1 287.3,708.1 287.3,714.7 
			280.8,714.7 280.8,721.2 287.3,721.2 287.3,727.7 		"/>
	</g>
	<g>
		<polygon class="st8" points="372.2,721.2 365.7,721.2 359.2,721.2 359.2,727.7 352.7,727.7 352.7,734.3 352.7,740.8 359.2,740.8 
			359.2,734.3 365.7,734.3 365.7,727.7 372.2,727.7 		"/>
	</g>
	<g>
		<polygon class="st8" points="437.6,727.7 437.6,721.2 431,721.2 424.5,721.2 424.5,727.7 431,727.7 		"/>
	</g>
	<g>
		<polygon class="st8" points="502.9,727.7 509.4,727.7 509.4,721.2 515.9,721.2 515.9,714.7 515.9,708.1 509.4,708.1 502.9,708.1 
			502.9,714.7 496.3,714.7 496.3,721.2 502.9,721.2 		"/>
	</g>
	<g>
		<polygon class="st8" points="535.5,721.2 535.5,714.7 529,714.7 529,721.2 522.4,721.2 522.4,727.7 529,727.7 529,734.3 
			535.5,734.3 542,734.3 542,727.7 535.5,727.7 		"/>
	</g>
	<g>
		<polygon class="st8" points="587.8,721.2 581.2,721.2 574.7,721.2 574.7,727.7 568.2,727.7 568.2,734.3 574.7,734.3 581.2,734.3 
			581.2,727.7 587.8,727.7 		"/>
	</g>
	<g>
		<polygon class="st8" points="640,721.2 640,727.7 646.5,727.7 653.1,727.7 653.1,721.2 646.5,721.2 		"/>
	</g>
	<g>
		<polygon class="st8" points="698.8,727.7 698.8,721.2 692.2,721.2 685.7,721.2 685.7,727.7 679.2,727.7 679.2,734.3 685.7,734.3 
			692.2,734.3 692.2,727.7 		"/>
	</g>
	<g>
		<polygon class="st8" points="718.4,727.7 718.4,721.2 724.9,721.2 724.9,714.7 724.9,708.1 718.4,708.1 711.8,708.1 711.8,714.7 
			705.3,714.7 705.3,721.2 711.8,721.2 711.8,727.7 		"/>
	</g>
	<g>
		<polygon class="st8" points="855.5,721.2 855.5,727.7 862,727.7 868.6,727.7 868.6,721.2 862,721.2 		"/>
	</g>
	<g>
		<polygon class="st8" points="933.9,727.7 933.9,721.2 940.4,721.2 940.4,714.7 940.4,708.1 933.9,708.1 927.3,708.1 927.3,714.7 
			920.8,714.7 920.8,721.2 927.3,721.2 927.3,727.7 		"/>
	</g>
	<g>
		<polygon class="st8" points="1012.2,721.2 1005.7,721.2 999.2,721.2 999.2,727.7 992.7,727.7 992.7,734.3 999.2,734.3 
			1005.7,734.3 1005.7,727.7 1012.2,727.7 		"/>
	</g>
	<g>
		<polygon class="st8" points="1025.3,721.2 1025.3,727.7 1031.8,727.7 1031.8,734.3 1038.4,734.3 1038.4,727.7 1038.4,721.2 
			1031.8,721.2 		"/>
	</g>
	<g>
		<polygon class="st8" points="1149.4,721.2 1155.9,721.2 1155.9,714.7 1155.9,708.1 1149.4,708.1 1142.9,708.1 1142.9,714.7 
			1136.3,714.7 1136.3,721.2 1136.3,727.7 1142.9,727.7 1149.4,727.7 		"/>
	</g>
	<g>
		<polygon class="st8" points="1175.5,721.2 1175.5,714.7 1169,714.7 1169,721.2 1162.4,721.2 1162.4,727.7 1169,727.7 1169,734.3 
			1175.5,734.3 1182,734.3 1182,727.7 1175.5,727.7 		"/>
	</g>
	<g>
		<polygon class="st8" points="1227.8,721.2 1221.2,721.2 1214.7,721.2 1214.7,727.7 1208.2,727.7 1201.6,727.7 1201.6,734.3 
			1208.2,734.3 1214.7,734.3 1221.2,734.3 1221.2,727.7 1227.8,727.7 		"/>
	</g>
	<g>
		<polygon class="st8" points="52.2,727.7 58.8,727.7 58.8,721.2 52.2,721.2 45.7,721.2 45.7,727.7 39.2,727.7 39.2,734.3 
			39.2,740.8 45.7,740.8 45.7,734.3 52.2,734.3 		"/>
	</g>
	<g>
		<polygon class="st8" points="156.7,727.7 156.7,721.2 150.2,721.2 143.7,721.2 143.7,727.7 137.1,727.7 137.1,734.3 143.7,734.3 
			150.2,734.3 156.7,734.3 		"/>
	</g>
	<g>
		<polygon class="st8" points="274.3,727.7 267.8,727.7 261.2,727.7 254.7,727.7 254.7,734.3 261.2,734.3 261.2,740.8 261.2,747.3 
			261.2,753.9 267.8,753.9 267.8,747.3 274.3,747.3 274.3,740.8 280.8,740.8 280.8,734.3 274.3,734.3 		"/>
	</g>
	<g>
		<rect x="320" y="727.7" class="st8" width="6.5" height="6.5"/>
	</g>
	<g>
		<polygon class="st8" points="483.3,734.3 483.3,727.7 483.3,721.2 476.7,721.2 470.2,721.2 470.2,727.7 470.2,734.3 470.2,740.8 
			476.7,740.8 476.7,734.3 		"/>
	</g>
	<g>
		<polygon class="st8" points="796.7,727.7 803.3,727.7 803.3,721.2 796.7,721.2 790.2,721.2 783.7,721.2 783.7,727.7 777.1,727.7 
			777.1,734.3 783.7,734.3 790.2,734.3 796.7,734.3 		"/>
	</g>
	<g>
		<polygon class="st8" points="914.3,734.3 914.3,727.7 907.8,727.7 907.8,721.2 901.2,721.2 894.7,721.2 894.7,727.7 894.7,734.3 
			901.2,734.3 907.8,734.3 		"/>
	</g>
	<g>
		<polygon class="st8" points="960,734.3 960,740.8 966.5,740.8 966.5,734.3 966.5,727.7 960,727.7 		"/>
	</g>
	<g>
		<polygon class="st8" points="1123.3,734.3 1123.3,727.7 1129.8,727.7 1129.8,721.2 1123.3,721.2 1116.7,721.2 1110.2,721.2 
			1110.2,727.7 1103.7,727.7 1103.7,734.3 1110.2,734.3 1116.7,734.3 		"/>
	</g>
	<g>
		<polygon class="st8" points="19.6,734.3 19.6,740.8 19.6,747.3 26.1,747.3 26.1,740.8 32.7,740.8 32.7,734.3 26.1,734.3 		"/>
	</g>
	<g>
		<polygon class="st8" points="58.8,740.8 52.2,740.8 52.2,747.3 58.8,747.3 65.3,747.3 65.3,740.8 65.3,734.3 58.8,734.3 		"/>
	</g>
	<g>
		<polygon class="st8" points="195.9,734.3 195.9,740.8 195.9,747.3 195.9,753.9 202.4,753.9 202.4,747.3 209,747.3 209,740.8 
			209,734.3 202.4,734.3 		"/>
	</g>
	<g>
		<polygon class="st8" points="235.1,740.8 235.1,747.3 241.6,747.3 241.6,740.8 241.6,734.3 235.1,734.3 		"/>
	</g>
	<g>
		<polygon class="st8" points="306.9,734.3 300.4,734.3 293.9,734.3 293.9,740.8 293.9,747.3 300.4,747.3 306.9,747.3 306.9,753.9 
			313.5,753.9 313.5,747.3 313.5,740.8 306.9,740.8 		"/>
	</g>
	<g>
		<polygon class="st8" points="378.8,740.8 372.2,740.8 372.2,747.3 372.2,753.9 372.2,760.4 378.8,760.4 378.8,753.9 385.3,753.9 
			385.3,747.3 385.3,740.8 385.3,734.3 378.8,734.3 		"/>
	</g>
	<g>
		<polygon class="st8" points="411.4,734.3 411.4,740.8 404.9,740.8 404.9,747.3 404.9,753.9 411.4,753.9 418,753.9 418,747.3 
			424.5,747.3 424.5,740.8 424.5,734.3 418,734.3 		"/>
	</g>
	<g>
		<polygon class="st8" points="444.1,734.3 444.1,740.8 450.6,740.8 457.1,740.8 457.1,734.3 450.6,734.3 		"/>
	</g>
	<g>
		<polygon class="st8" points="483.3,734.3 483.3,740.8 476.7,740.8 476.7,747.3 483.3,747.3 489.8,747.3 489.8,740.8 496.3,740.8 
			496.3,734.3 489.8,734.3 		"/>
	</g>
	<g>
		<polygon class="st8" points="522.4,734.3 515.9,734.3 509.4,734.3 502.9,734.3 502.9,740.8 509.4,740.8 509.4,747.3 515.9,747.3 
			522.4,747.3 522.4,753.9 529,753.9 529,747.3 529,740.8 522.4,740.8 		"/>
	</g>
	<g>
		<polygon class="st8" points="594.3,740.8 587.8,740.8 587.8,747.3 587.8,753.9 587.8,760.4 594.3,760.4 594.3,753.9 600.8,753.9 
			600.8,747.3 600.8,740.8 600.8,734.3 594.3,734.3 		"/>
	</g>
	<g>
		<polygon class="st8" points="626.9,740.8 620.4,740.8 620.4,747.3 620.4,753.9 626.9,753.9 626.9,747.3 633.5,747.3 633.5,740.8 
			633.5,734.3 626.9,734.3 		"/>
	</g>
	<g>
		<polygon class="st8" points="659.6,740.8 659.6,747.3 666.1,747.3 666.1,740.8 666.1,734.3 659.6,734.3 		"/>
	</g>
	<g>
		<polygon class="st8" points="692.2,734.3 692.2,740.8 692.2,747.3 692.2,753.9 698.8,753.9 698.8,747.3 698.8,740.8 705.3,740.8 
			705.3,734.3 698.8,734.3 		"/>
	</g>
	<g>
		<polygon class="st8" points="731.4,734.3 724.9,734.3 718.4,734.3 718.4,740.8 724.9,740.8 724.9,747.3 731.4,747.3 731.4,753.9 
			738,753.9 738,747.3 738,740.8 731.4,740.8 		"/>
	</g>
	<g>
		<polygon class="st8" points="809.8,740.8 803.3,740.8 803.3,747.3 796.7,747.3 796.7,753.9 796.7,760.4 803.3,760.4 803.3,753.9 
			809.8,753.9 809.8,747.3 816.3,747.3 816.3,740.8 816.3,734.3 809.8,734.3 		"/>
	</g>
	<g>
		<rect x="842.4" y="734.3" class="st8" width="6.5" height="6.5"/>
	</g>
	<g>
		<polygon class="st8" points="875.1,740.8 875.1,747.3 881.6,747.3 881.6,740.8 881.6,734.3 875.1,734.3 		"/>
	</g>
	<g>
		<polygon class="st8" points="946.9,734.3 940.4,734.3 933.9,734.3 933.9,740.8 940.4,740.8 940.4,747.3 946.9,747.3 953.5,747.3 
			953.5,740.8 946.9,740.8 		"/>
	</g>
	<g>
		<polygon class="st8" points="1018.8,740.8 1018.8,747.3 1012.2,747.3 1012.2,753.9 1012.2,760.4 1018.8,760.4 1018.8,753.9 
			1025.3,753.9 1025.3,747.3 1025.3,740.8 1025.3,734.3 1018.8,734.3 		"/>
	</g>
	<g>
		<polygon class="st8" points="1051.4,740.8 1044.9,740.8 1044.9,747.3 1044.9,753.9 1051.4,753.9 1051.4,747.3 1058,747.3 
			1058,740.8 1058,734.3 1051.4,734.3 		"/>
	</g>
	<g>
		<polygon class="st8" points="1084.1,734.3 1084.1,740.8 1090.6,740.8 1090.6,747.3 1097.1,747.3 1097.1,740.8 1097.1,734.3 
			1090.6,734.3 		"/>
	</g>
	<g>
		<polygon class="st8" points="1129.8,740.8 1123.3,740.8 1123.3,747.3 1129.8,747.3 1136.3,747.3 1136.3,740.8 1136.3,734.3 
			1129.8,734.3 		"/>
	</g>
	<g>
		<rect x="1149.4" y="734.3" class="st8" width="6.5" height="6.5"/>
	</g>
	<g>
		<polygon class="st8" points="1234.3,740.8 1227.8,740.8 1227.8,747.3 1227.8,753.9 1234.3,753.9 1234.3,747.3 1240.8,747.3 
			1240.8,740.8 1240.8,734.3 1234.3,734.3 		"/>
	</g>
	<g>
		<rect x="1266.9" y="734.3" class="st8" width="6.5" height="6.5"/>
	</g>
	<g>
		<polygon class="st8" points="6.5,747.3 6.5,753.9 13.1,753.9 13.1,747.3 13.1,740.8 6.5,740.8 		"/>
	</g>
	<g>
		<polygon class="st8" points="91.4,740.8 91.4,734.3 84.9,734.3 78.4,734.3 78.4,740.8 84.9,740.8 84.9,747.3 91.4,747.3 98,747.3 
			104.5,747.3 104.5,740.8 98,740.8 		"/>
	</g>
	<g>
		<polygon class="st8" points="124.1,740.8 124.1,747.3 130.6,747.3 137.1,747.3 137.1,740.8 130.6,740.8 		"/>
	</g>
	<g>
		<rect x="222" y="740.8" class="st8" width="6.5" height="6.5"/>
	</g>
	<g>
		<polygon class="st8" points="339.6,747.3 339.6,753.9 346.1,753.9 346.1,747.3 346.1,740.8 339.6,740.8 		"/>
	</g>
	<g>
		<polygon class="st8" points="431,740.8 431,747.3 431,753.9 437.6,753.9 437.6,747.3 444.1,747.3 444.1,740.8 437.6,740.8 		"/>
	</g>
	<g>
		<polygon class="st8" points="555.1,747.3 555.1,753.9 561.6,753.9 561.6,747.3 561.6,740.8 555.1,740.8 		"/>
	</g>
	<g>
		<polygon class="st8" points="646.5,747.3 646.5,753.9 653.1,753.9 653.1,747.3 653.1,740.8 646.5,740.8 		"/>
	</g>
	<g>
		<polygon class="st8" points="770.6,747.3 770.6,753.9 777.1,753.9 777.1,747.3 777.1,740.8 770.6,740.8 		"/>
	</g>
	<g>
		<polygon class="st8" points="835.9,747.3 835.9,753.9 842.4,753.9 842.4,747.3 842.4,740.8 835.9,740.8 		"/>
	</g>
	<g>
		<polygon class="st8" points="907.8,740.8 907.8,747.3 907.8,753.9 914.3,753.9 914.3,747.3 920.8,747.3 920.8,740.8 914.3,740.8 
					"/>
	</g>
	<g>
		<polygon class="st8" points="979.6,747.3 979.6,753.9 986.1,753.9 986.1,747.3 986.1,740.8 979.6,740.8 		"/>
	</g>
	<g>
		<polygon class="st8" points="1071,747.3 1071,753.9 1077.6,753.9 1077.6,747.3 1077.6,740.8 1071,740.8 		"/>
	</g>
	<g>
		<polygon class="st8" points="1155.9,740.8 1155.9,747.3 1162.4,747.3 1162.4,753.9 1169,753.9 1169,747.3 1169,740.8 
			1162.4,740.8 		"/>
	</g>
	<g>
		<rect x="1195.1" y="740.8" class="st8" width="6.5" height="6.5"/>
	</g>
	<g>
		<rect x="1260.4" y="740.8" class="st8" width="6.5" height="6.5"/>
	</g>
	<g>
		<rect x="1116.7" y="747.3" class="st8" width="6.5" height="6.5"/>
	</g>
	<g>
		<rect x="1188.6" y="747.3" class="st8" width="6.5" height="6.5"/>
	</g>
</g>
</svg>
