<?xml version="1.0" encoding="utf-8"?>
<!-- Generator: Adobe Illustrator 24.0.0, SVG Export Plug-In . SVG Version: 6.00 Build 0)  -->
<svg version="1.1" id="Capa_1" xmlns="http://www.w3.org/2000/svg" xmlns:xlink="http://www.w3.org/1999/xlink" x="0px" y="0px"
	 viewBox="0 0 225 257" style="enable-background:new 0 0 225 257;" xml:space="preserve">
<style type="text/css">
	.st0{fill:#232323;}
	.st1{fill:#FFFFFF;}
	.st2{fill:#EBFF29;}
	.st3{fill:#10FECC;}
	.st4{fill:#FF445A;}
	.st5{fill:#4EFF45;}
	.st6{fill:#FFFFFF;stroke:#232323;stroke-miterlimit:10;}
	.st7{fill-rule:evenodd;clip-rule:evenodd;fill:#202020;}
	.st8{fill-rule:evenodd;clip-rule:evenodd;fill:#FFFFFF;}
	.st9{fill-rule:evenodd;clip-rule:evenodd;fill:#232323;}
	.st10{opacity:0.75;}
	.st11{clip-path:url(#SVGID_10_);fill:url(#SVGID_11_);}
	.st12{clip-path:url(#SVGID_13_);fill:url(#SVGID_14_);}
	.st13{clip-path:url(#SVGID_16_);fill:url(#SVGID_17_);}
	.st14{clip-path:url(#SVGID_19_);fill:url(#SVGID_20_);}
	.st15{clip-path:url(#SVGID_40_);fill:url(#SVGID_41_);}
	.st16{clip-path:url(#SVGID_43_);fill:url(#SVGID_44_);}
	.st17{clip-path:url(#SVGID_46_);fill:url(#SVGID_47_);}
	.st18{clip-path:url(#SVGID_49_);fill:url(#SVGID_50_);}
	.st19{fill:none;stroke:#DDDDDD;stroke-miterlimit:10;}
	.st20{fill:none;stroke:#232323;stroke-width:11;stroke-miterlimit:10;}
	.st21{fill:#62FF5A;}
	.st22{clip-path:url(#SVGID_68_);fill:url(#SVGID_69_);}
	.st23{clip-path:url(#SVGID_71_);fill:url(#SVGID_72_);}
	.st24{clip-path:url(#SVGID_74_);fill:url(#SVGID_75_);}
	.st25{clip-path:url(#SVGID_77_);fill:url(#SVGID_78_);}
	.st26{fill:none;stroke:#232323;stroke-miterlimit:10;}
	.st27{clip-path:url(#SVGID_96_);fill:url(#SVGID_97_);}
	.st28{clip-path:url(#SVGID_99_);fill:url(#SVGID_100_);}
	.st29{clip-path:url(#SVGID_102_);fill:url(#SVGID_103_);}
	.st30{clip-path:url(#SVGID_105_);fill:url(#SVGID_106_);}
	.st31{fill:none;stroke:#232323;stroke-width:5;stroke-miterlimit:10;}
	.st32{fill:none;}
	.st33{fill:#4EFF45;stroke:#4EFF45;stroke-width:0.75;stroke-linecap:round;stroke-linejoin:round;stroke-miterlimit:10;}
	.st34{fill:none;stroke:#000000;stroke-width:4;stroke-miterlimit:10;}
	.st35{fill:#606060;}
	.st36{fill:#28E0CE;}
</style>
<g id="XMLID_615_">
	<path id="XMLID_692_" class="st2" d="M125,131.8c-0.8-0.2-1.6-0.7-2.3-0.6c-5.2,1.1-10.5,2-15.8,2.8c-3.6,0.6-7.1,1.4-10.6,2
		c-0.9,0.2-1.9-0.1-2.9-0.3c-1-0.2-0.6-0.8,0-1c1.9-0.7,1-1.7,0.3-2.6c-0.3-0.4-1.1-0.4-1.4-0.8c-0.5-0.7-1-1.4-1.9-1.4
		c0.6-0.5,1.3-1,1.8-1.6c0.3-0.3,0.3-0.9,0.4-1.3c-0.4-0.1-0.9-0.3-1-0.2c-0.9,0.8-2.1,0.9-2.8,0.2c-1.1-1.2-2.3-2.5-2.3-4.4
		c0-1.8-0.1-3.6,0.3-5.3c0.4-1.5-0.6-3,0.7-4.6c0.7-0.9-0.1-2.9,0-4.3c0.2-3,0.8-6,0.9-9.1c0.1-2.9,0.5-5.8,0.8-8.6
		c0.3-3.5,1-7,0.5-10.6c-0.2-1.7,0.7-3.6,1-5.4c2.5,0.8-0.1-2.5,1.8-2.2c0-0.2-0.1-0.6-0.1-0.6c-1.9,0,0.1-1.9-1.1-2.2
		c0.5-0.8,0.8-1.7,1.5-2.4c0.6-0.6,1.4-0.9,2.2-1.1c0.9-0.3,1.9-0.7,2.7-0.5c1.1,0.3,2.2,1,3.3,1.6c1.9,1.1,3.4,2.6,5,4
		c2.4,2.1,5.3,3.6,7.7,5.8c3.8,3.6,8.2,6.4,12.1,9.9c2.4,2.2,5.2,3.8,7.4,6.2c2.2,2.4,5.3,3.8,7.4,6.1c2.1,2.3,4.9,3.9,6.9,6.2
		c2.3,2.7,5,2.8,7.5,1.9c1.8-0.6,3.5,0.6,5.3-0.8c1.2-0.9,3.3-0.6,5.1-0.7c3.3-0.3,6.4-1.9,9.9-1.6c0.9,0.1,1.5-1.1,1.7-2.2
		c1.2-5.1,2.4-10.1,3.7-15.2c0.6-2.2,0.8-4.4,1.9-6.5c0.9-1.7,0.8-4,1.1-6.1c0.3-1.8,1-3.4,2.6-4.9c0.3-0.1,0.1-0.1-0.1-0.2
		c0,0.2-0.1,0.4-0.1,0.5c0.2,0,0.4,0.1,0.6,0.1c0,0,0.1-0.2-0.4-0.4c-0.5-2-0.1-3.9,0.5-5.8c0.7-1.9,1.7-4,1-6.2
		c1.2-1.5,0.9-3.2,1.3-4.9c0.6-2.6,1.5-5.2,2.2-7.8c0.2-0.9,0-1.9,0.3-2.7c0.2-0.6-0.3-1.5,1.1-1.7c1.5-0.3-0.6-1.3-0.3-2.1
		c0.3-0.6,0.9-0.9,0.8-2.1c-0.2-1.9,0.7-3.9,1.2-5.9c0.3-1,1.4-2.1,1.2-3c-0.3-1.1,0-2,0.2-2.9c0.7-3.2,1.5-6.5,2.4-9.7
		c0.2-0.9,0.7-1.8,1.2-2.5c3-3.9,5-3.6,6.4,0c0.8,2.1,1.9,4.1,1.6,6.7c-0.2,1.3,0.4,2.6-0.4,4.1c-0.7,1.2-0.4,3.1-1.2,4.1
		c-1.4,1.7-1.4,3.4-1.3,5.4c0.1,1.2-0.9,2.5-1.2,3.8c-0.3,1.2-0.3,2.5-0.5,3.7c-0.3,1.4-0.3,3.1-1.1,4.1c-1.2,1.6-0.4,3.4-1.1,5.1
		c-0.7,1.7-1.1,3.6-1.3,5.5c-0.1,0.6,0,1-0.3,1.7c-0.7,1.9-1.3,3.9-1.3,6.1c-0.1,2.2,0,5-2.6,6.4c-0.8,0.4,1.3,1.5-0.4,1.7
		c-2.1,0.2,0.8,1.6-0.5,2.1c-0.3,0.1-1,1.6,0.6,1.7c0,0.4,0,0.8-0.1,1.1c-0.9,7.2-2.9,14.3-4.6,21.4c-0.3,1.2-0.3,2.5-0.6,3.7
		c-0.1,0.5-0.3,0.9-0.6,1.3c-0.2,0.3-0.9,0.8-0.9,0.8c1.3,1.8,0.3,3.2-0.3,4.9c-0.6,1.6-0.5,3.3-0.9,5c-0.4,1.8-0.9,3.6-1.3,5.5
		c-0.2,0.9-0.3,1.4-1.5,1.2c-0.7-0.1-2.7-0.3-2.3,1.8c-1.4,0.5-2.8,1.2-4.3,1.5c-1.4,0.3-3,0.1-4.8,1.5c0.1,0,0.3-0.2,0.6-0.3
		c-0.2-0.2-0.4-0.5-0.6-0.4c-0.8,0-1.6,0.1-2.4,0.3c-0.2,0-0.4,0.4-0.6,0.6c0.3,0.2,0.6,0.5,0.9,0.5c0.7,0,1.3-0.2,2.1-0.6
		c0.8,0,1,0.4,1.2,0.8c-0.3,0.1-0.5,0.4-0.8,0.4c-1.1,0-1.7,0.2-1.1,1.4c0.3,0.5-0.8,2.4,1.3,1.2c0.4-0.2,1.7,0.5,2.1,1.1
		c0.9,1.5,3.7,1.2,3.4,3.8c0,0.1,0.6,0.4,0.7,0.4c1.4-1.4,2.3,0.5,2.8,0.9c1.3,1,2.8,1.8,3.8,2.9c1.2,1.2,2.2,2.3,3.9,2.9
		c0.4,0.1,1.3,1,0.4,2.1c-1,1.1-1.5,2.3,0.7,3.1c1,0.4,1.5,2,2.1,3.2c0.1,0.3-0.3,0.9-0.4,1.3c-0.1,0.3,0,0.7,0.1,0.8
		c2.2,1,2.1,2.7,1.6,4.6c-0.4,1.7,0.4,4.2-2.9,3.5c-0.4-0.1-0.9,0.6-1.3,1c-0.1,0.1,0,0.6,0.1,0.7c0.2,0.2,0.6,0.2,0.9,0.2
		c0-0.1,0-0.4,0.1-0.4c1.1-0.4,2.1-0.7,3.2-1c-0.1,1.4-1.4,1.5-2.3,2c-2.7,1.6-5.7,2.7-8.8,3.5c-1.7,0.5-3,2.2-5,1.8
		c-3.4,2.1-7.7,2.2-11,4.7c-3.2,0.2-5.8,2.1-8.9,2.7c-2.2,0.4-4.3,1.8-6.5,2.6c-0.9,0.3-1.8,0.6-2.7,0.8c-2,0.5-3.9,1.1-5.8,2.1
		c-2,1.1-4.2,2-6.5,2.3c-1.6,0.2-2.8,1.5-4.6,1.7c-2.2,0.3-4.3,1.8-6.5,2.7c-1.1,0.5-2.3,0.7-3.5,1.1c-1.8,0.6-3.6,1.4-5.4,2.1
		c-1.6,0.7-3.3,1.2-4.9,2.1c-0.4,0.2-1.1,0-1.6,0.2c-1.9,0.8-3.9,1.1-5.8,2.1c-2.7,1.4-5.8,2.2-8.8,3.1c-0.5,0.2-1.2,0-1.6,0.3
		c-3.7,2.5-8.3,3.2-12.2,5.3c-2.8-0.4-4.5,2.5-7.3,2.5c-2.4,0-4.4,1.9-6.9,2.2c-1.4,0.2-2.7,1.5-5,2.9c-0.6,0.3-0.1,0.2,0.2-0.1
		c0.2-0.2,0.4-0.5,0.5-0.8c-0.3,0-0.6-0.1-0.8,0c-1.1,0.6-2,1.3-3.5,1.2c-0.6,0-1.3,1.1-2,1.7c0.9-0.1,1.9-0.1,2.8-0.3
		c0.7-0.2,1.2-0.7,2.8-1.6c1.4-0.5,1.9-0.3,2.3-0.4c0.7-0.2,1.2-0.7,1.9-0.9c0.5-0.1,1,0.3,1.5,0.5c-0.3,0.3-0.5,0.7-0.8,0.9
		c-1.8,1.1-3.8,1.3-5.8,1.8c-0.5,0.1-1.2,0.3-1.5,0.7c-0.2,0.3-0.1,1.3,0,1.3c3.1,0.6,5.5,2.8,8.5,3.3c2.7,0.5,4.9,2,7.3,3
		c2.4,0.9,5,1.4,7.4,2.5c3.4,1.6,7,2.6,10.5,3.9c0.8,0.3,1.2,0.9,0.5,1.5c-1.4,1.4-0.1,1.9,0.7,2.5c0.8,0.5,1.6,1,2.5,1.2
		c1,0.2,1,0.7,0.7,1.4c-0.7,1.5,0.4,2.5,1.1,3.5c1.1,1.5,1.3,1.5,0.9,4c0,0.4,0.1,0.8,0.2,1.2c0.3,0.9,2,1.8,0.1,2.7
		c-0.9,0.4-0.8,2.1-2.4,1.5c-0.3-0.1-0.9,0.6-1.5,0.8c-0.4,0.2-1.1,0.2-1.1,0.2c-0.5-2.1-2.6-1.4-3.9-2.1c-1.4-0.8-3.1-1.1-4.1-2.6
		c-0.2-0.3-0.8-0.6-1-0.5c-1.9,0.9-1.8-0.7-2-1.7c-0.1-0.5,0.4-1.3-0.7-0.8c-1.4,0.6-1.7,0.7-2.9,0.3c-1.3-0.4-2.7-0.8-4-1.3
		c-1.6-0.6-1.6-1.5-0.1-2.6c0.3-0.1,0.1-0.1-0.1-0.2c0,0.2-0.1,0.4-0.1,0.5c0.2,0,0.4,0.1,0.6,0.1c0,0,0.1-0.2-0.4-0.4
		c-0.8-0.4-1.1-1-1.5-1.2c-1-0.4-2.8-0.3-3.1-0.9c-0.7-1.7-2.2,0.5-3.1-1.2c0.2-0.1,0.6,0.2,0.7,0.1c0.3-0.3,0.6-0.8,0.9-1.1
		c-0.4-0.2-0.9-0.6-1.2-0.5c-0.3,0-0.5,0.7-0.4,1.6c-1.1,1.3-2.5,2.3-3.9,0.1c-0.2-0.3-0.9-0.2-1.3-0.4c-0.3-0.1-0.8-0.3-0.8-0.3
		c0.5-2-0.6-1.6-1.9-1.4c-1.1,0.2-1.3-0.5-1.5-1.7c-0.2-1.4-1.3-0.4-2-0.1c-0.2-0.2-0.5-0.5-0.6-0.4c-0.8,0.2-2,0.8-2.2,0.6
		c-0.9-1.2-2.7-1-3.2-2.6c-0.1-0.2-0.4-0.4-0.5-0.7c-1.4,1.7-2.8,0.2-3.6-0.4c-2.1-1.7-4.8-1.3-6.9-2.8c-2.6-1.8-5.6-3.1-8.5-4.7
		c-0.2-0.1-0.2-0.8-0.2-1.3c-0.5,0.1-1.1,0.3-1.6,0.2c-1.1-0.3-2.1-0.8-3.1-1.2c-1.1-0.4-2.2-0.7-1.6-2.4c0-0.1-1.3-0.7-2-1.2
		c-1.4-1-3.1-1.7-4.2-3c-0.9-1-1.5-2.6-1.6-4c-0.1-1.1,0.7-2.3,1.2-3.4c0.2-0.4,0.6-0.8,0.9-1.2c-0.6-0.1-1.2-0.5-1.7-0.4
		c-1.1,0.5-1.6,0.6-1.1-0.8c0.3-0.9,0.7-1.8,1.2-2.6c2.1-3.4,4.1-6.9,6.5-10.1c1.6-2.1,3-4.4,4.5-6.6c3-4.7,6-9.5,9.2-14.1
		c2.7-4,5.8-7.7,8.3-11.8c1-1.6,2.4-2.4,3.8-3.1c0.8-0.4,2.3-0.5,3-0.1c0.8,0.6,0.3,1.7-0.5,2.5c-0.2,0.3,0,0.9,0,1.4
		c0.4,0,0.8,0,1.2-0.1c0.3-0.1,0.5-0.3,0.7-0.4c0.5-0.2,1-0.3,1.5-0.4c0.1,0.5,0.4,1.1,0.2,1.6c-0.4,1.1,0,1.5,0.9,2.1
		c0.5,0.3,0.4,1.5,0.6,2.3c0.7,4.2-2,7.4-3.5,10.7c-1.2,2.6-2.7,5.2-4.3,7.8c-1.1,1.8-3,3.2-3.2,5.6c-0.1,1.1-2.1,1-1.9,2.6
		c0.1,0.8,0.2,1.5,1.1,1.3c1.3-0.3,2.7-0.6,3.8-1.3c1.3-0.8,2.8-1.2,4.2-1.5c1.4-0.4,2.3-1.9,4.2-1.7c1.4,0.1,2.4-2.1,4.2-1.4
		c2.9-2.3,6.7-2.6,10-3.8c4.4-1.6,8.7-3.8,13.4-4.4c1.5-0.2,2.8-1.9,4.6-1.7c2.7-2.1,6.4-1.7,9.2-3.5c1.6,0.5,2.6-0.7,3.9-1.3
		c1.1-0.5,2.3-0.7,3.5-1.1c1.9-0.8,3.8-2.3,5.7-2.3c2.3,0.1,3.5-2.2,5.9-1.8c1.2,0.2,2.1-2,3.8-1.4c3-2.2,7-1.4,9.9-3.8
		c2.4-0.1,4.2-1.8,6.6-2.1c0.7-0.1,2.4,0.2,2.8-1.4c1.5,0.7,2.3-1.2,3.5-1c1.4,0.3,2.1-1.1,3.1-1c1.5,0.1,2.3-0.9,3.5-1.1
		c3.9-0.8,7-3.8,11.1-3.9c0.7,0,1.5-0.8,2.2-1.3c1.9-1.2,1.9-1.7,0.2-2.9c-0.6-0.4-1.3-0.5-1.1-1.4c0.3-2.2-1.3-1.6-2.4-1.7
		c-0.5-0.4-1-1.3-1.5-1.2c-2.8,0-4.2-1.6-5.6-3.7c-0.7-1.1-0.8-3.3-3.1-2.3c0-0.3,0-0.7-0.1-1c-0.1-0.7-0.4-1.4-1.4-0.9
		c-0.6-2.1-2.3-0.8-3.4-0.9c-0.7-0.1-1.2,1.4-2.1,0.2c0.4-0.2,0.7-0.4,1.1-0.7c-0.3-0.3-0.6-0.9-0.9-0.8c-2.6,0.3-5.3,0.5-7.9,1.2
		c-1.9,0.5-4.2-0.3-5.8,1.4C129.6,129.8,127.2,130.1,125,131.8z M196.6,47.7c0.2,0.2,0.4,0.3,0.6,0.5c0-0.3,0.1-0.6,0.1-0.9
		c0.1-0.4,0.2-0.8,0.1-1.5c0.1,0.1,0.1,0.2,0.2,0.3c0.2-0.2,0.3-0.4,0.4-0.6c0-0.1-0.3-0.2-0.4-0.4c-0.1,0.2-0.2,0.4,0,0.9
		c-0.1,0.4-0.2,0.8-0.3,1.2c-0.2,0.1-0.5,0.3-1.1,0.7C196.4,47.8,196.5,47.7,196.6,47.7c-0.2-0.2-0.4-0.3-0.6-0.4
		c-0.1,0-0.2,0.3-0.4,0.4C195.9,47.7,196.1,47.8,196.6,47.7z M115.9,130.2c0.7,1.1,1.3,0.1,1.9-0.2c1.2,1.2,1.8-0.4,2.7-0.6
		c0.7,1.1,1.3,0.1,4-0.8c-0.7,0.1-1.1,0.1-1.4,0.2c-0.2,0.1-0.5,0.3-0.7,0.4c0.3,0.1,0.7,0.5,1,0.4c0.3-0.1,0.5-0.5-1-0.4
		c-0.7-1.1-1.3-0.1-1.9,0.2c-1.2-1.2-1.8,0.4-2.7,0.6c-0.7-1.1-1.3-0.1-2.5,0.7c0.1-0.3,0.3-0.6,0.4-0.9c-0.3,0-0.6-0.2-0.7-0.1
		c-0.3,0.2-0.5,0.5-0.7,0.8C114.6,130.6,114.9,130.7,115.9,130.2z M126.5,129c0.1-0.3,0.3-0.6,0.4-0.9c-0.3,0-0.6-0.2-0.7-0.1
		c-0.3,0.2-0.5,0.5-0.7,0.8c0.3,0,0.7,0.1,1.7-0.4c0.7,1.1,1.3,0.1,1.9-0.2c1.2,1.2,1.8-0.4,6.3-1.6c-0.9,0.1-1.7,0.1-2.5,0.3
		c-0.4,0.1-0.7,0.4-1.1,0.7c0,0,0.2,0.3,0.2,0.3c1.1-0.1,2.1-0.2,3.2-0.4c0.1,0,0.1-0.4-3.4,0.1c-1.2-1.2-1.8,0.4-2.7,0.6
		C128.2,127.2,127.7,128.2,126.5,129z M166.1,121c0.1,1.8,0.1,1.9,5.2,0.1c-0.9,0.1-1.7,0.1-2.5,0.3c-0.4,0.1-0.7,0.4-1.1,0.7
		c0,0,0.2,0.3,0.2,0.3c1.1-0.1,2.1-0.2,3.2-0.4c0.1,0,0.1-0.4-3.4,0.1c-0.5-0.5-0.5-1.6-2-0.8C165.9,121.1,166,121,166.1,121
		c-0.2-0.2-0.4-0.3-0.6-0.4c-0.1,0-0.2,0.3-0.4,0.4C165.4,121,165.6,121.1,166.1,121z M111.3,130.9c-1.2-1.2-1.8,0.4-2.7,0.6
		c-0.7-1.1-1.3-0.1-3.1,0.9c0.7-0.4,1-0.6,1.2-0.7c-0.3-0.1-0.8-0.4-1-0.4c-1.1,0.4-2.6-0.4-3.3,1.2c0,0.1,0,0.3,0,0.3
		c1.2-0.2,2.4-0.3,4.3-1.2c0.7,1.1,1.3,0.1,1.9-0.2c1.2,1.2,1.8-0.4,4.7-1.2c-0.7,0.1-1.1,0.1-1.4,0.2
		C111.8,130.6,111.5,130.8,111.3,130.9c0.3,0.1,0.7,0.5,1,0.4C112.6,131.3,112.8,130.8,111.3,130.9z M77.6,201.1
		c0.4-0.2,0.7-0.4,1.1-0.7c0.2-0.2,0.3-0.4,0.4-0.7c-0.2-0.1-0.5-0.2-0.7-0.2c-0.7,0.4-1.4,0.8-2.1,1.3c-0.1,0.1-0.1,0.4-0.2,0.6
		c0.3,0,0.5,0.1,0.8,0c0.3-0.1,0.5-0.3-2.4,0.5c0.2-0.1,0.5-0.2,0.7-0.4c0.2-0.2,0.3-0.5,0.5-0.8c-0.4,0.1-0.8,0-1.1,0.2
		c-0.5,0.2-1,0.5-1.4,0.9c-0.2,0.1-0.3,0.4-0.4,0.7c0.3,0,0.7,0,1-0.1C74,202.4,74.2,202.2,77.6,201.1z M134.8,179.6
		c0.4,0.1,1,0.3,1.3,0.2c1-0.5,1.9-1.1,2.8-1.7c0.5,0.1,1,0.3,1.4,0.1c0.9-0.4,1.7-1.3,2.6-1.3c3.2-0.3,5.9-1.6,8.6-3.3
		c0.4,0.1,1,0.3,1.3,0.2c1-0.5,1.9-1.1,18.6-7c0.1-0.4,0.3-0.8,0.4-1.2c-0.9,0.3-1.8,0.3-2.4-0.6c-0.2,0.3-0.3,0.7-0.6,0.9
		c-0.6,0.3-1.8,0.3-2,0.7c-0.4,1.1-1.1,1.5-2.1,1.7c-2.9,0.8-5.8,1.6-8.4,3.3c-0.2,0.2-0.4,0.5-0.5,0.8c0.4-0.1,0.8-0.1,1.2-0.2
		c2.3-0.9,4.5-2.3,6.9-2.7c1.4-0.3,2.2-1.1,3.4-1.5c1.3-0.4,2.6-0.8-11.7,4c-0.4-0.1-1-0.3-1.3-0.2c-1,0.5-1.9,1.1-2.8,1.7
		c-0.1-0.1-0.2-0.4-0.2-0.3c-0.9,0.3-1.8,0.6-2.6,1.1c-1.2,0.6-0.2-2.4-1.7-1c-1.7-0.6-2.3,0.3-2.5,1.8c0,0.3-0.4,0.7-0.6,0.7
		c-2,0-3.2,1.6-4.8,2.3c-0.4-0.1-1-0.3-1.3-0.2c-1,0.5-1.9,1.1-4.6,2.8c0.4-0.2,0.8-0.4,1.1-0.7c0.2-0.2,0.3-0.5,0.5-0.8
		c-0.4,0.1-0.8,0-1.1,0.2c-0.7,0.4-1.5,0.8-2.1,1.3c-0.2,0.1-0.3,0.4-0.4,0.7c0.3,0,0.7,0,1-0.1
		C132.3,181.1,132.6,180.9,134.8,179.6z M112.2,188.2c0.4-0.2,0.8-0.4,1.1-0.7c0.2-0.2,0.3-0.5,0.5-0.8c-0.4,0.1-0.8,0-1.1,0.2
		c-0.7,0.4-1.5,0.8-2.1,1.3c-0.2,0.1-0.3,0.4-0.4,0.7c0.3,0,0.7,0,1-0.1c0.4-0.1,0.7-0.4,4.6-1.7c0.4-0.2,0.7-0.4,1.1-0.7
		c0.2-0.2,0.3-0.4,0.4-0.7c-0.2-0.1-0.5-0.2-0.7-0.2c-0.7,0.4-1.4,0.8-2.1,1.3c-0.1,0.1-0.1,0.4-0.2,0.6c0.3,0,0.5,0.1,0.8,0
		C115.2,187.4,115.5,187.2,112.2,188.2z M128.2,174.7c0.4-0.6,0.8-0.9,0.8-1.3c0-0.5-2-1.4-2-1.1c-0.2,0.7-0.1,1.5,0,2.2
		c0,0.1,0.8,0.1,3.7-0.4c0.4-0.4,0.7-0.8,1-1.2c-0.3,0-0.8-0.1-1,0.1c-0.5,0.3-0.8,0.8-1.2,1.2C129.8,174.1,130.2,174.1,128.2,174.7
		z M177.4,119.4c-0.2-0.1-0.5-0.4-0.9-0.6c-0.1,1.4-1.3,1.7-2.2,2.3c0.2,0.2,0.5,0.5,0.6,0.4c0.7-0.2,1.3-0.8,1.9-0.7
		c2.3,0.4,0.8-0.7-3.1,0.8c0.1-0.3,0.3-0.6,0.4-0.9c-0.3,0-0.6-0.2-0.7-0.1c-0.3,0.2-0.5,0.5-0.7,0.8
		C172.9,121.5,173.3,121.6,177.4,119.4z M141.6,126.7c0.7-0.4,1-0.6,1.2-0.7c-0.2-0.2-0.4-0.5-0.6-0.4c-1.7,0.3-3.4,0.6-5.1,0.9
		c-0.2,0-0.4,0.4-0.5,0.6c0.2,0.1,0.3,0.4,0.5,0.4c1.7-0.2,3.4-0.5,7.8-2c-0.7,0.1-1.1,0.1-1.4,0.2c-0.2,0.1-0.5,0.3-0.7,0.4
		c0.3,0.1,0.7,0.5,1,0.4C144.1,126.3,144.3,125.9,141.6,126.7z M178.6,164.1c0.7-0.4,1.1-0.6,1.5-0.9c0.3-0.3,0.6-0.7,0.9-1
		c-0.4,0.1-0.8,0.1-1.2,0.2c-2.2,0.8-4.3,1.5-6.5,2.3c-0.2,0.1-0.4,0.4-0.6,0.6c0.3,0.2,0.7,0.8,0.9,0.7c1.8-0.6,3.6-1.4,9.6-4.1
		c-0.7,0.1-1.1,0.1-1.4,0.2c-0.2,0.1-0.5,0.3-0.7,0.4c0.3,0.1,0.7,0.5,1,0.4C182.5,162.8,182.7,162.4,178.6,164.1z M170.8,158.7
		c0.8,0.3,1.5,0.6,2.3,0.9c0.3,0.1,0.9,0,0.9-0.2c1.1-2.1,3.4-2.4,6-3.7c-0.2-0.1-0.4-0.1-0.6-0.2c0,0.2-0.1,0.4-0.1,0.5
		c0.2,0,0.4,0.1,0.6,0.1c0,0,0.1-0.2-0.8-0.4c-1,0-6.9,1-7.2,1.4c-0.4,0.5-0.7,1.1-1.8,2.5c0.3-0.6,0.5-1.1,0.5-1.2
		c-0.3-0.3-0.8-0.6-1.1-0.9c-0.2,0.4-0.6,0.9-0.5,1.2C168.9,159,169.5,159.2,170.8,158.7z M102.7,191.9c1.1-0.7,1.5-0.9,1.9-1.2
		c0.1-0.1,0.1-0.4,0.1-0.4c-0.2-0.1-0.5-0.3-0.6-0.3c-0.8,0.4-1.5,1-2.3,1.2c-1.4,0.4-2.9,0.8-4.3,0.6c-2-0.3-1.9,2.1-3.5,2.2
		c-0.1,0-0.3,0.2-0.4,0.2c-2-0.7-3.1,1.2-4.6,1.8c-0.2,0.1-0.4,0.5-0.5,0.8c0.3,0,0.6,0.1,0.8,0c3.2-2,6.9-2.7,10.3-4.2
		c1.2-0.5,2.6-0.8-12.7,4.7c0.2-0.1,0.5-0.2,0.7-0.4c0.2-0.2,0.3-0.5,0.5-0.8c-0.4,0.1-0.8,0-1.1,0.2c-0.5,0.2-1,0.5-1.4,0.9
		c-0.2,0.1-0.3,0.4-0.4,0.7c0.3,0,0.7,0,1-0.1C86.4,197.8,86.7,197.6,102.7,191.9z M144,169c0.3-0.4,0.6-0.8,0.9-1.2
		c-0.3,0-0.7-0.1-0.9,0.1c-0.5,0.4-0.8,0.9-1.2,1.3c0.4-0.1,0.8-0.1,13.2-4.5c0.4-0.3,0.9-0.5,1.2-0.9c0.1-0.2-0.2-0.7-0.3-1.1
		c-0.3,0.1-0.6,0.2-0.7,0.4c-0.4,0.9-0.9,1.5-1.8,0.4c-0.7-0.9-1.5-0.2-1.7,0.2c-0.9,1.5-1.8,2.4-3.6,1.4c-0.1,0-0.4,0.2-0.4,0.4
		c-0.7,1.7-1.7,1.9-3.1,0.7c-0.1-0.1-0.7,0.3-1,0.6c-0.1,0.1,0,0.7,0.1,0.7c0.7,0.3,1.5,0.9,2,0.7C149.8,167.1,152.8,165.9,144,169z
		 M116.9,101.7c0.1,0.1,0.1,0.2,0.2,0.3c0.2-0.2,0.3-0.4,0.4-0.6c0-0.1-0.3-0.2-0.4-0.4c-0.1,0.2-0.2,0.4,8.9,9.7
		c-0.1-0.3,0-0.9-0.3-1c-2.3-1-3.5-3.3-5.5-4.7c-1.7-1.2-3.2-2.5-4.8-3.9c-1.6-1.4-3.9-2.1-4.7-4.4c-0.1-0.3-0.6-0.6-1-0.6
		c-1.3-0.1-1.9-1-2.6-1.9c-0.8-1-2-1.8-3-2.6c-0.3,1.1-0.6,2.2-0.9,3.3c-0.2,0.9-0.2,1.9-0.2,2.8c-0.2,4.5-0.7,9-1.3,13.5
		c-0.4,2.8-0.4,2.8,2.4,2.6c1.5-0.1,2.9-0.5,4.3-0.6c2.4-0.2,4.7-0.8,7.1-1.2c3.2-0.4,6.4-0.6,9.5-0.9
		C125.5,111.3,125.7,111,116.9,101.7z M105.2,172.7c0.1,0.1,0.1,0.2,0.2,0.3c0.2-0.2,0.3-0.4,0.4-0.6c0-0.1-0.3-0.2-0.4-0.4
		c-0.1,0.2-0.2,0.4,0,0.9c-0.7,0.2-1.3,0.4-2,0.4c-1.2,0-2.2,0.5-3.2,1.1c-2.4,1.4-2.4,1.4-5.6,1.2c-0.4,0-0.8,0.5-1.2,0.8
		c-0.4,0.3-0.8,1.1-1.1,1c-2-0.4-3,1.3-4.6,2c-0.6,0.3-1.2,0.8-1.9,0.9c-0.7,0.1-1.5-0.6-2.1-0.4c-0.6,0.2-1.2,1.4-1.5,1.4
		c-1.7-0.4-2.5,1.5-4.4,1.2c-1.4-0.2-2.5,2-4.5,1.8c-1.3-0.1-2.8,0-3.5,1.6c-1.5-0.5-2.2,1.2-3.4,1.3c-1.3,0.1-2.5,0.4-3.5,1.2
		c-0.8,0.6-1.5,0.4-2.4,0.3c-1-0.1-2.7-0.3-2.9,0.2c-1.6,3.1-5.2,2.3-7.5,4.2c-1.8-0.8-1.6,2-3.1,1.8c-2.5-0.3-4,1.9-6,2.8
		c-0.2,0.1-0.2,0.5-0.3,0.7c0.3,0,0.6,0,0.8,0c3.9-1.1,7.8-2.5,11.5-4.1c3.7-1.6,7.4-3,11.2-4.3c4.4-1.6,8.7-3.7,13.5-4.4
		c3.3-2.4,7.6-2.5,11-4.7c2,0.4,3.2-1.6,5-1.7c1.3-0.1,2.5-0.7,3.7-0.9c1.7-0.4,2.7-1.6,4.1-2.1c0.6-0.2,1.4-0.5,1.9-0.3
		c1.3,0.5,2.2-0.2,3.2-0.7c1.6-0.8,3-2,4.9-2.5c3-0.8,6-1.8,8.8-3c2-0.8,3.9-2.1,6.1-2.5c2.2-0.4,4.3-0.7,5.8-2.6
		c1.6,0.9,2.5-1.2,3.9-1c1.7,0.3,2.5-1.2,3.8-1.6c1.3-0.4,2.6-1,3.9-0.8c0.7,0.1,1.1,1.3,1.4-0.3c0.1-0.9,0.3-1.6,1.5-1.1
		c1,0.5,2,0.5,2.2-1c0-0.3,0.6-0.7,0.9-0.7c3.5,0.3,6.1-3.4,9.8-2.1c0-0.1,0.1-0.3,0.1-0.4c0.2-2.2,2.1-0.6,3.1-1.4
		c1-0.8,2-2,3.8-1.6c1.5,0.3,1.6-2.5,3.5-1.9c0.1,0,0.4-0.4,0.5-0.6c0.2-0.3,0.4-0.7,1.5-1c-0.2-0.1-0.4-0.1-0.6-0.2
		c0,0.2-0.1,0.4-0.1,0.5c0.2,0,0.4,0.1,0.6,0.1c0,0,0.1-0.2-0.8-0.4c-0.2-0.2-0.6-0.5-0.6-0.4c-2.9,2.2-7.1,1.4-9.9,3.8
		c-1.7-1.1-2.7,1-4.3,1c-1.5,0-2.9,1.5-4.5,2.2c-1,0.4-2.1,0.9-3.1,0.7c-1.6-0.2-1.3,0.2-0.8,1.2c0,0.1-0.3,0.3-0.4,0.5
		c-1.7-2.1-2,0-2.8,0.9c-0.3,0.4-1.4,0.7-1.4,0.6c-1.3-1.8-2.2-0.1-3.2,0.3c-0.7,0.2-0.2,2-1.6,1.2c-1.1-0.7-1.5,0.3-2,0.8
		c-1.4-1.8-2.3,0-3.5,0.4c-0.8,0.2-0.9,2.8-2.4,0.7c-0.4,0.3-0.9,0.5-1.2,0.9c-0.8,1.2-1.6,2.1-3.8,1.1c0.6,0.1,0.8,0.2,0.9,0.1
		c0.3-0.2,0.6-0.5,0.9-0.8c-0.1-0.1-0.4-0.4-0.4-0.4c-0.4,0.2-0.8,0.5-0.8,1.4c-0.8,0.1-2.1,0.1-2.2,0.4c-0.4,1.6-1.1,1.7-2.5,1.3
		c-0.3-0.1-1-0.1-1.1-0.1c-0.4,2.2-1.8,1.1-2.9,1c-0.4,0-1.1,0.1-1.1,0.3c-0.1,1.6-1.9,1.4-2.3,1.3c-1.5-0.4-2,0.2-2.4,1.5
		c-0.1,0.2-0.7,0.2-1.1,0.3c0.3-2.6-1-0.8-1.7-0.6c-1,0.4-1.9,1.1-2.2,2.3C106.8,173.2,105.9,173.1,105.2,172.7z M132.6,115.5
		c-1.4,0.5-1.6-1.5-3.2-0.8c-1.7,0.8-3.9,0.5-5.9,0.7c-2,0.3-3.9,1-6,0.6c-1.8,1.8-4,0.4-5.9,0.8c-0.5,0.1-1.1,0.3-1.5,0.7
		c-1.1,1-2.6,1-3.9,1.1c-1.3,0.1-2.7-0.3-4.1-0.2c-0.4,0-0.8,1-1,1.6c0,0.1,0.6,0.8,1,0.7c1.7-0.1,3.5-0.2,5.1-0.6
		c2.2-0.6,4.5-0.7,6.7-0.9c4.2-0.4,8.4-1.7,12.6-1.9c1.7-0.1,3.4-0.5,5.1-0.8C132,116.4,132.2,115.9,132.6,115.5z M174.4,110
		c0.3-0.5,0.6-0.8,0.5-0.9c-0.1-0.3-0.4-0.8-0.7-0.9c-0.6-0.1-1.4-0.2-2,0c-2,0.4-3.9,0.9-5.9,1.2c-3,0.4-6.1,0.6-9.2,1
		c-0.3,0-0.6,0.2-0.7,0.3c-0.4,0.4-0.7,0.8-0.9,1.2c0,0.1,0.5,0.6,0.9,0.7c2.8,0.9,5.4-0.1,8-0.8c1.5-0.4,2.8-1,4.4-0.6
		C170.9,111.8,172.5,109.6,174.4,110z M119.7,184.6c-0.2,0.3-0.7,0.8-1.1,1.4c0.6-0.3,1.3-0.5,1.9-0.8c0.4-0.1,0.8-0.2,1.2-0.4
		c2.6-0.8,5.3-1.5,7.6-3c0.2-0.1,0.3-0.5,0.4-0.7c-0.3-0.1-0.5-0.2-0.8-0.2c-0.4-0.1-1-0.3-1.2-0.1
		C125.5,182.9,122.4,183,119.7,184.6z M167.8,159.3c0-0.2,0-0.4,0-0.4c-0.3,0-0.5,0.1-0.8,0c-2.3-0.2-3.9,1.4-5.7,2.5
		c-1,0.6-1.8,1.3-2.7,2c1.3,0.5,1.9-1.1,2.8-1c2.1,0.1,3.5-1.8,5.4-1.8C168.1,160.6,167.4,159.6,167.8,159.3z M175.5,114.7
		c-0.3-0.1-0.6-0.1-0.8-0.2c-2.4-0.7-4.6,0-6.6,1.2c-0.2,0.1-0.3,0.4-0.5,0.6c0.3,0,0.7,0.1,1,0.1c2.1-0.2,4.2-0.5,6.3-0.8
		c0.2,0,0.4-0.3,0.6-0.5C175.5,115,175.5,114.9,175.5,114.7z M122.3,177c0.2-0.1,0.5-0.3,0.7-0.4c0.4-0.3,0.7-0.7,1.1-1.1
		c-0.5-0.1-1-0.3-1.6-0.4c-1.9-0.4-2.3-0.2-2.5,1.5c-0.1,0.9,0.5,1.4,1.2,1.1C121.6,177.5,121.9,177.2,122.3,177z M82.2,199.3
		c-0.2-1,2,0,1.6-1.6c-0.7,0.3-1.5,0.7-2.2,1c-0.4,0.2-0.8,0.4-1.1,0.7c-0.1,0.1,0,0.4,0,0.6c0,0.1,0.3,0.1,0.4,0.1
		C81.2,199.9,81.6,199.7,82.2,199.3z M191.5,66c-0.2-0.4-0.4-0.7-0.7-1.1c-0.1-0.1-0.4-0.1-0.6,0c-0.1,0-0.1,0.3-0.1,0.4
		c0,0.6-0.1,1.4,0.2,1.9c0.2,0.3,1,0.3,1.5,0.5c0-0.3,0.1-0.6,0.1-0.9C191.9,66.5,191.7,66.2,191.5,66z M107.2,190.2
		c0.5-0.3,1-0.6,1.4-0.9c0.1-0.1,0-0.4,0-0.6c-0.9,0.5-1.8,1.1-2.7,1.6c0.2,0.1,0.4,0.4,0.6,0.3C106.8,190.6,107,190.3,107.2,190.2z
		 M125.9,123.2c0.2-0.3,0.4-0.4,0.4-0.5c-0.1-0.2-0.2-0.5-0.3-0.5c-0.5-0.1-1.1-0.2-1.6-0.2c-0.2,0-0.4,0.3-0.6,0.5
		c0.2,0.2,0.4,0.5,0.7,0.6C125,123.2,125.5,123.2,125.9,123.2z M69.5,204c0.4-0.2,0.8-0.4,1.1-0.7c0.1-0.1,0-0.4,0-0.6
		c-0.9,0.6-1.8,1.1-2.7,1.7c0.2,0.1,0.4,0.4,0.6,0.3C68.8,204.5,69.1,204.2,69.5,204z M98.2,71.1c0.3-0.5,0.4-0.8,0.5-1
		c-0.6-0.1-1.2-0.2-1.8-0.2c0,0.3,0,0.6,0.2,0.7C97.4,70.9,97.8,71,98.2,71.1z M119.7,123.9c0-0.3,0.1-0.7,0-0.8
		c-0.4-0.2-0.8-0.4-1.3-0.5c-0.1,0-0.2,0.5-0.3,0.8C118.6,123.6,119.1,123.7,119.7,123.9z M193.7,56c-0.6-0.1-1.3-0.1-1.9-0.2
		c0,0.3,0,0.7,0.1,0.7c0.4,0.2,0.9,0.2,1.3,0.2C193.4,56.8,193.5,56.4,193.7,56z M121.7,123.7c0.4-0.5,0.5-0.7,0.7-0.9
		c-0.6-0.2-1.2-0.4-1.7-0.6c0,0.3-0.1,0.6,0,0.8C121,123.3,121.4,123.5,121.7,123.7z M69.2,231.1c0.5-1.1,0.6-1.4,0.7-1.7
		c0.1-0.3,0-0.7,0-1c-0.4,0.1-1,0.2-1,0.4C68.8,229.2,69,229.7,69.2,231.1z M57.3,208.5c0.4-0.5,0.7-0.8,0.9-1.1
		c-0.4,0-0.9,0-1.3,0.1c-0.3,0.1-0.6,0.5-0.8,0.8C56.5,208.5,57,208.5,57.3,208.5z M60.9,206c-0.2,0.4-0.3,0.8-0.5,1.2
		c0.4-0.1,0.8-0.1,1.1-0.4c0.3-0.3,0.5-0.7,0.7-1.1C61.9,205.8,61.5,205.9,60.9,206z M65.6,205.5c0.4-0.5,0.7-0.8,0.9-1.1
		c-0.4,0-0.9,0-1.3,0.1c-0.3,0.1-0.6,0.5-0.8,0.8C64.8,205.4,65.3,205.5,65.6,205.5z M80.9,192.2c0.3-0.4,0.6-0.8,0.9-1.3
		c-0.4,0.1-0.8,0-1.1,0.2c-0.4,0.3-0.7,0.7-1.1,1.1C80,192.2,80.4,192.2,80.9,192.2z M101.1,68.7c-0.1,0-0.5,0.1-0.8,0.1
		c0,0.3,0,0.6,0.1,0.7c0.2,0.2,0.6,0.2,0.9,0.4C101.2,69.7,101.2,69.4,101.1,68.7z M102.9,71.9c0.2-0.2,0.5-0.4,0.5-0.4
		c-0.2-0.3-0.4-0.7-0.6-1c0,0-0.5,0.2-0.5,0.3C102.5,71.2,102.7,71.5,102.9,71.9z M193.6,49.3c0.4-0.2,0.8-0.3,1.1-0.5
		c0.1-0.1,0-0.4,0-0.6c-0.4,0.1-0.8,0.2-1.1,0.4C193.5,48.6,193.6,48.9,193.6,49.3z M161.6,136.1c0-0.1-0.1-0.5-0.1-0.8
		c-0.3,0-0.6,0-0.7,0.1c-0.2,0.2-0.2,0.6-0.4,0.9C160.6,136.3,160.9,136.2,161.6,136.1z M164.1,116c-0.3-0.2-0.6-0.3-0.8-0.4
		c0.1,0.4,0.1,0.8,0.2,1.1c0.1,0.2,0.4,0.2,0.7,0.3C164.2,116.7,164.2,116.3,164.1,116z M75.8,228.7c0-0.4,0.1-0.8,0-0.9
		c-0.2-0.3-0.6-0.5-0.9-0.7c0,0.3-0.1,0.6,0,0.8C75.1,228.2,75.4,228.4,75.8,228.7z M118.6,178c-0.3-0.2-0.6-0.4-0.7-0.3
		c-0.3,0.2-0.6,0.5-0.8,0.8c0.2,0.1,0.5,0.3,0.6,0.3C117.9,178.6,118.2,178.3,118.6,178z M174.3,130.9c0.2,0,0.3,0.1,0.4,0.1
		c0-0.2,0-0.4-0.1-0.6c0-0.1-0.2-0.1-0.4-0.1C174.3,130.4,174.3,130.7,174.3,130.9z M194.7,61.4c-0.2,0-0.3-0.1-0.4-0.1
		c0,0.2,0,0.4,0.1,0.6c0,0.1,0.2,0.1,0.4,0.1C194.7,61.8,194.7,61.6,194.7,61.4z M188.4,67c0,0.2-0.1,0.3-0.1,0.4
		c0.2,0,0.4,0,0.6-0.1c0.1,0,0.1-0.2,0.1-0.4C188.9,67,188.6,67,188.4,67z M169.8,118.4c0.2,0,0.3,0.1,0.4,0.1c0-0.2,0-0.4-0.1-0.6
		c0-0.1-0.2-0.1-0.4-0.1C169.7,118,169.7,118.2,169.8,118.4z M176.8,133.4c0.2,0,0.3,0.1,0.4,0.1c0-0.2,0-0.4-0.1-0.6
		c0-0.1-0.2-0.1-0.4-0.1C176.8,132.9,176.8,133.2,176.8,133.4z M162.4,116.6c-0.1,0-0.3-0.1-0.4-0.1c-0.2,0.1-0.2,0.4-0.4,0.5
		c0.1,0,0.3,0.1,0.4,0.1C162.2,117,162.3,116.8,162.4,116.6z M172.2,163.8c0.1-0.2,0.2-0.4,0.3-0.6c-0.1,0-0.3-0.1-0.4-0.1
		c-0.2,0.1-0.2,0.4-0.4,0.5C171.9,163.7,172,163.7,172.2,163.8z M170.7,164.7c0.1-0.2,0.2-0.4,0.3-0.6c-0.1,0-0.3-0.1-0.4-0.1
		c-0.2,0.1-0.2,0.4-0.4,0.5C170.4,164.6,170.5,164.6,170.7,164.7z M133.9,114.7c-0.1,0-0.3-0.1-0.4-0.1c-0.2,0.1-0.2,0.4-0.4,0.5
		c0.1,0,0.3,0.1,0.4,0.1C133.7,115.1,133.8,114.9,133.9,114.7z M130.4,121.4c0-0.1,0.1-0.3,0.1-0.4c-0.1-0.2-0.4-0.2-0.5-0.4
		c0,0.1-0.1,0.3-0.1,0.4C130,121.2,130.2,121.3,130.4,121.4z M93.6,70.3c-0.2-0.1-0.4-0.2-0.6-0.3c0,0.1-0.1,0.3-0.1,0.4
		c0.1,0.2,0.4,0.2,0.5,0.4C93.5,70.6,93.6,70.5,93.6,70.3z M153.1,171.1c0.2,0,0.3,0.1,0.4,0.1c0-0.2,0-0.4-0.1-0.6
		c0-0.1-0.2-0.1-0.4-0.1C153.1,170.7,153.1,170.9,153.1,171.1z M96.5,81c0.1-0.2,0.2-0.4,0.3-0.6c-0.1,0-0.3-0.1-0.4-0.1
		c-0.2,0.1-0.2,0.4-0.4,0.5C96.2,80.9,96.4,80.9,96.5,81z M150.3,168.7c-0.2-0.1-0.4-0.2-0.6-0.3c0,0.1-0.1,0.3-0.1,0.4
		c0.1,0.2,0.4,0.2,0.5,0.4C150.3,169,150.3,168.9,150.3,168.7z M98,85.1c0.1-0.2,0.2-0.4,0.3-0.6c-0.1,0-0.3-0.1-0.4-0.1
		c-0.2,0.1-0.2,0.4-0.4,0.5C97.7,85,97.9,85.1,98,85.1z M91.8,83.6c0.2,0,0.3,0.1,0.4,0.1c0-0.2,0-0.4-0.1-0.6
		c0-0.1-0.2-0.1-0.4-0.1C91.8,83.2,91.8,83.4,91.8,83.6z M114.4,123.8c0.1-0.2,0.2-0.4,0.3-0.6c-0.1,0-0.3-0.1-0.4-0.1
		c-0.2,0.1-0.2,0.4-0.4,0.5C114.2,123.7,114.3,123.8,114.4,123.8z M139.8,170.4c0-0.1,0.1-0.3,0.1-0.4c-0.1-0.2-0.4-0.2-0.5-0.4
		c0,0.1-0.1,0.3-0.1,0.4C139.5,170.2,139.7,170.3,139.8,170.4z M110.6,124.8c-0.1,0-0.3-0.1-0.4-0.1c-0.2,0.1-0.2,0.4-0.4,0.5
		c0.1,0,0.3,0.1,0.4,0.1C110.4,125.2,110.5,125,110.6,124.8z M108.5,125.5c0-0.1,0.1-0.3,0.1-0.4c-0.1-0.2-0.4-0.2-0.5-0.4
		c0,0.1-0.1,0.3-0.1,0.4C108.1,125.3,108.3,125.4,108.5,125.5z M135.7,171.7c0-0.2,0.1-0.3,0.1-0.4c-0.2,0-0.4,0-0.6,0.1
		c-0.1,0-0.1,0.2-0.1,0.4C135.3,171.7,135.5,171.7,135.7,171.7z M106.1,125.1c0,0.2-0.1,0.3-0.1,0.4c0.2,0,0.4,0,0.6-0.1
		c0.1,0,0.1-0.2,0.1-0.4C106.5,125.1,106.3,125.1,106.1,125.1z M101.1,132.7c-0.2-0.1-0.4-0.2-0.6-0.3c0,0.1-0.1,0.3-0.1,0.4
		c0.1,0.2,0.4,0.2,0.5,0.4C101,133,101.1,132.9,101.1,132.7z M114.8,185.1c-0.1,0-0.3-0.1-0.4-0.1c-0.2,0.1-0.2,0.4-0.4,0.5
		c0.1,0,0.3,0.1,0.4,0.1C114.6,185.5,114.7,185.3,114.8,185.1z M76.9,192.9c-0.1,0-0.3-0.1-0.4-0.1c-0.2,0.1-0.2,0.4-0.4,0.5
		c0.1,0,0.3,0.1,0.4,0.1C76.7,193.3,76.8,193.1,76.9,192.9z M92.5,233.3c0.2,0,0.3,0.1,0.4,0.1c0-0.2,0-0.4-0.1-0.6
		c0-0.1-0.2-0.1-0.4-0.1C92.5,232.9,92.5,233.1,92.5,233.3z M62.5,197.7c-0.2-0.1-0.4-0.2-0.6-0.3c0,0.1-0.1,0.3-0.1,0.4
		c0.1,0.2,0.4,0.2,0.5,0.4C62.4,198,62.5,197.9,62.5,197.7z M56.1,200.9c0-0.2,0.1-0.3,0.1-0.4c-0.2,0-0.4,0-0.6,0.1
		c-0.1,0-0.1,0.2-0.1,0.4C55.6,200.9,55.9,200.9,56.1,200.9z M72.6,232.2c0.2,0,0.3,0.1,0.4,0.1c0-0.2,0-0.4-0.1-0.6
		c0-0.1-0.2-0.1-0.4-0.1C72.5,231.8,72.6,232,72.6,232.2z M64.5,226.4c-0.1,0.2-0.2,0.4-0.3,0.6c0.1,0,0.3,0.1,0.4,0.1
		c0.2-0.1,0.2-0.4,0.4-0.5C64.8,226.5,64.7,226.5,64.5,226.4z M64.8,229.8c-0.2-0.1-0.4-0.2-0.6-0.3c0,0.1-0.1,0.3-0.1,0.4
		c0.1,0.2,0.4,0.2,0.5,0.4C64.7,230.1,64.7,230,64.8,229.8z"/>
	<path id="XMLID_691_" class="st2" d="M120.9,190.2c-0.1-0.3-0.3-0.5-0.2-0.8c0.1-0.2,0.3-0.5,0.5-0.6c3.1-0.6,5.9-2.2,8.8-3.2
		c3-1,5.9-2.9,9.2-2.8c1.9-1.5,4.2-2,6.4-2.8c1.6-0.7,3.3-1.3,5-1.9c0.2-0.1,0.6,0.5,0.9,0.7c-0.2,0.2-0.4,0.5-0.6,0.6
		c-1.9,0.7-3.9,1.2-5.7,1.9c-1.9,0.7-3.8,2.3-5.7,2.2c-2.3,0-3.6,1.7-5.8,1.9c-2.3,0.2-4.5,1.9-6.8,2.9c-1.8,0.8-3.5,1.5-5.3,2.2
		C121.5,190.6,121.2,190.3,120.9,190.2z"/>
	<path id="XMLID_690_" class="st2" d="M89.5,202.2c-1.5,0.5-2.9,0.9-4.3,1.4c-1.4,0.5-2.3,2-4.2,1.8c-0.9-0.1-1.9,1.1-3,1.5
		c-1,0.4-2.1,0.6-3.1,0.9c-1.4,0.5-2.8,1-4.2,1.5c-0.3,0.1-0.6-0.1-0.9-0.1c0.2-0.5,0.3-1,0.5-1.5c1.7,0.6,2.5-1,3.8-1.4
		c4.6-1.3,9.1-2.8,13.4-5.1c0.4-0.2,1.1,0.1,1.6,0c0.5-0.1,1-0.3,1.5-0.5C90.3,201.2,89.9,201.6,89.5,202.2z"/>
	<path id="XMLID_689_" class="st2" d="M106.9,195.6c-1.5,0.5-3,1-4.6,1.6c-1.4,0.5-2.4,2.2-4.2,1.5c-1.6,1.6-3.8,1.4-5.7,2.3
		c-0.1,0.1-0.6-0.5-0.9-0.7c0.2-0.2,0.4-0.4,0.7-0.5c2.4-1,4.8-2.1,7.2-2.8c2.3-0.7,4.4-2.2,6.9-2.2c0.6,0,1.2-0.3,1.7-0.4
		C107.8,194.7,107.4,195.1,106.9,195.6z"/>
	<path id="XMLID_688_" class="st2" d="M153.7,176.9c1-0.2,2.1-0.1,3-0.6c3.3-1.7,6.8-2.8,10.2-4.1c1.4-0.5,2.8-1,4.2-1.5
		c0.2-0.1,0.5,0.1,0.7,0.1c-0.1,0.2-0.2,0.6-0.4,0.7c-2.4,1-4.7,2.3-7.2,3c-2.2,0.7-4.3,1.5-6.5,2.3c-1.3,0.5-2.4,1.3-3.8,1.3
		c-0.5,0-1,0.3-1.5,0.5C152.9,178,153.2,177.6,153.7,176.9z"/>
	<path id="XMLID_641_" class="st2" d="M111.8,192.5c1-0.4,2.7-1.1,4.4-1.6c1.1-0.4,2.3-0.6,3.5-0.8c0,0,0.2,0.2,0.2,0.2
		c-0.8,0.9-1.7,1.8-3.2,1.6c-0.5-0.1-1.1,0.3-1.5,0.6c-1.4,1.1-3,1.4-4.6,1.8c-0.4,0.1-0.8,0.2-1.2,0.2c0.2-0.3,0.4-0.7,0.7-0.9
		C110.4,193.3,110.8,193.1,111.8,192.5z"/>
	<path id="XMLID_640_" class="st2" d="M188.6,165.1c-2,0.8-4,1.7-6,2.4c-0.1,0.1-0.5-0.2-0.6-0.4c-0.1-0.3,0-0.9,0.1-0.9
		c2.4-0.4,4.5-1.5,6.8-2.3c0.4-0.1,0.8-0.1,1.1-0.2c-0.2,0.3-0.5,0.6-0.7,0.9C189.1,164.9,188.8,165,188.6,165.1z"/>
	<path id="XMLID_639_" class="st2" d="M133.3,131.8c-1.3,0.2-2.6,0.5-3.9,0.7c-0.3,0-0.7-0.3-1-0.4c0.3-0.3,0.8-0.8,0.8-0.8
		c1.4,1.2,2.4-1.4,3.7-0.4c0.2,0.2,0.5,0.2,0.8,0.2C133.5,131.3,133.4,131.5,133.3,131.8z"/>
	<path id="XMLID_638_" class="st2" d="M99.7,136.9c1.4-1,2.9-1.7,4.6-0.8C102.9,137.1,101.5,137.8,99.7,136.9z"/>
	<path id="XMLID_637_" class="st2" d="M178.9,167.9c0.7-0.4,1.1-0.7,1.5-0.9c0.1,0,0.4,0,0.4,0.1c0,0.2,0.1,0.5,0,0.6
		c-0.3,0.3-0.7,0.5-1.1,0.7c-0.5,0.2-1,0.4-1.5,0.6C178.5,168.6,178.8,168.1,178.9,167.9z"/>
	<path id="XMLID_636_" class="st2" d="M116.2,134c-0.9,0.2-1.5,1.8-2.7,0.6C114.5,134.5,115,132.8,116.2,134z"/>
	<path id="XMLID_635_" class="st2" d="M109,135.4c0.9-0.2,1.5-1.8,2.7-0.6C110.7,135,110.2,136.6,109,135.4z"/>
	<path id="XMLID_634_" class="st2" d="M141.2,130c0.9-0.2,1.5-1.8,2.7-0.6C143,129.6,142.4,131.2,141.2,130z"/>
	<path id="XMLID_633_" class="st2" d="M176.2,169.8c-0.6,0.1-1,0.2-1.4,0.3c0.2-0.4,0.4-0.8,0.7-1.1c0.3-0.2,0.7-0.3,1.1-0.4
		C176.5,169.1,176.3,169.5,176.2,169.8z"/>
	<path id="XMLID_632_" class="st2" d="M125,131.8c0.2,0.2,0.3,0.5,0.5,0.7c-0.2,0.1-0.5,0.4-0.7,0.4c-0.3,0.1-0.6-0.1-0.9-0.1
		c0.2-0.2,0.3-0.4,0.5-0.6C124.5,132,124.7,131.9,125,131.8z"/>
	<path id="XMLID_631_" class="st2" d="M122.9,132.6c-0.6,0.5-0.8,0.9-1.1,1c-0.3,0.1-0.6-0.2-1-0.4c0.2-0.1,0.4-0.3,0.7-0.4
		C121.8,132.8,122.2,132.7,122.9,132.6z"/>
	<path id="XMLID_630_" class="st2" d="M145.8,129.3c-0.6,0.2-1.2,1.2-1.9,0.2C144.5,129.2,145,128.2,145.8,129.3z"/>
	<path id="XMLID_629_" class="st2" d="M120.3,133.8c-0.5-0.1-0.8-0.1-1.1-0.1c0.2-0.3,0.4-0.6,0.7-0.8c0.2-0.1,0.5,0,0.7,0.1
		C120.5,133.2,120.4,133.5,120.3,133.8z"/>
	<path id="XMLID_628_" class="st2" d="M118.3,133.4c-0.6,0.5-0.8,0.9-1.1,1c-0.3,0.1-0.6-0.2-1-0.4c0.2-0.1,0.4-0.3,0.7-0.4
		C117.2,133.5,117.6,133.5,118.3,133.4z"/>
	<path id="XMLID_627_" class="st2" d="M111.6,134.8c0.6-0.2,1.2-1.2,1.9-0.2C112.9,134.9,112.4,135.9,111.6,134.8z"/>
	<path id="XMLID_626_" class="st2" d="M106.4,135.5c-0.6,0.5-0.8,0.9-1.1,1c-0.3,0.1-0.6-0.2-1-0.4c0.2-0.1,0.4-0.3,0.7-0.4
		C105.3,135.7,105.7,135.7,106.4,135.5z"/>
	<path id="XMLID_625_" class="st2" d="M99.2,137.5c-0.5-0.1-0.8-0.1-1.1-0.1c0.2-0.3,0.4-0.6,0.7-0.8c0.2-0.1,0.5,0,0.7,0.1
		C99.4,136.9,99.3,137.2,99.2,137.5z"/>
	<path id="XMLID_624_" class="st2" d="M180.9,123.8c0,0.2-0.1,0.3-0.1,0.4c-0.2-0.1-0.4-0.2-0.5-0.4c-0.1-0.1,0.1-0.3,0.1-0.4
		C180.5,123.6,180.7,123.7,180.9,123.8z"/>
	<path id="XMLID_623_" class="st2" d="M176.7,124.5c-0.2,0-0.3-0.1-0.4-0.1c0.1-0.2,0.2-0.4,0.4-0.5c0.1-0.1,0.3,0.1,0.4,0.1
		C176.9,124.1,176.8,124.3,176.7,124.5z"/>
	<path id="XMLID_622_" class="st2" d="M162.9,140.1c-0.1,0-0.4-0.1-0.4-0.1c0-0.2,0-0.4,0.1-0.6c0.2,0,0.4,0.1,0.5,0.1
		C163.1,139.7,163,139.9,162.9,140.1z"/>
	<path id="XMLID_621_" class="st2" d="M151.3,130.9c-0.1,0-0.4-0.1-0.4-0.1c0-0.2,0-0.4,0.1-0.6c0.2,0,0.4,0.1,0.5,0.1
		C151.4,130.5,151.3,130.7,151.3,130.9z"/>
	<path id="XMLID_620_" class="st2" d="M140.9,130.2c-0.2-0.1-0.4-0.2-0.6-0.2c0.1-0.1,0.3-0.4,0.4-0.4c0.2,0.1,0.4,0.3,0.6,0.4
		C141.1,130.1,141,130.2,140.9,130.2z"/>
	<path id="XMLID_619_" class="st2" d="M136.4,130.4c-0.1,0.2-0.2,0.4-0.4,0.5c-0.1,0.1-0.3-0.1-0.4-0.1c0.1-0.2,0.2-0.4,0.4-0.5
		C136,130.3,136.2,130.4,136.4,130.4z"/>
	<path id="XMLID_618_" class="st2" d="M126.4,132.5c0,0.1-0.1,0.4-0.1,0.4c-0.2,0-0.4,0-0.6-0.1c0-0.2,0.1-0.4,0.1-0.5
		C126,132.4,126.2,132.4,126.4,132.5z"/>
	<path id="XMLID_617_" class="st2" d="M108.6,135.6c-0.2-0.1-0.4-0.2-0.6-0.2c0.1-0.1,0.3-0.4,0.4-0.4c0.2,0.1,0.4,0.3,0.6,0.4
		C108.8,135.5,108.7,135.5,108.6,135.6z"/>
	<path id="XMLID_616_" class="st2" d="M58.3,230c-0.1,0-0.4-0.1-0.4-0.1c0-0.2,0-0.4,0.1-0.6c0.2,0,0.4,0.1,0.5,0.1
		C58.5,229.6,58.4,229.8,58.3,230z"/>
</g>
</svg>
