<svg id="Capa_1" data-name="Capa 1" xmlns="http://www.w3.org/2000/svg" viewBox="0 0 120 120"><defs><style>.cls-1{fill:#fd4848;}.cls-1,.cls-2,.cls-3{fill-rule:evenodd;}.cls-2{fill:#ff8244;}.cls-3{fill:#ffba4a;}.cls-4{fill:#232323;}</style></defs><path class="cls-1" d="M50.72,48.07s16.45,6.29,13.22,21a15.23,15.23,0,0,0,7.82-6.29c6.3,9.63,9.11,28.73-10.17,36.23-.51.25-1,.48-1.54.68,17.31-.58,34.61-12.51,33.79-33.72-2.11,3.71-11.73,3.65-11.73,3.65,8.66-19-4-28.28-4-28.28,1.36,12-28.67,13.74-13.84-21-31.9,6-27,47.06-27,47.06-3.59-.62-10.56-8-10.56-8-3.92,28.13,14.42,40.73,32.92,40.34h0C45,99.58,34.41,84.45,41.9,70.39,45.31,64,52.42,54.43,50.72,48.07Z"/><path class="cls-2" d="M63.94,69c3.23-14.68-13.22-21-13.22-21,1.7,6.36-5.41,15.93-8.82,22.32-7.49,14,3.14,29.19,17.64,29.28C48,99.12,37,78.19,56.25,67.36,51.35,79,62.08,85.19,68.32,77.8,75.44,85,69.11,95.19,61.59,99c19.28-7.5,16.47-26.6,10.17-36.23A15.23,15.23,0,0,1,63.94,69Z"/><path class="cls-3" d="M68.32,77.8c-6.24,7.39-17,1.16-12.07-10.44C37,78.19,48,99.12,59.54,99.67h.11c.67-.22,1.32-.45,1.94-.69C69.11,95.19,75.44,85,68.32,77.8Z"/><path class="cls-4" d="M95.45,65.88a1.61,1.61,0,0,0-3-.74c-.9,1.58-4.58,2.45-7.86,2.73,3.49-9.15,2.13-16,.25-20.19A20.23,20.23,0,0,0,79.05,40a1.61,1.61,0,0,0-1.76-.09,1.59,1.59,0,0,0-.79,1.58,5.13,5.13,0,0,1-3.07,5.18,7.82,7.82,0,0,1-8.71-1.17c-4.29-4-3.91-13,1-24.55a1.64,1.64,0,0,0-.23-1.65A1.62,1.62,0,0,0,64,18.74a33.65,33.65,0,0,0-10.54,3.77,1.61,1.61,0,0,0,1.69,2.75,27.17,27.17,0,0,1,6.49-2.65c-5.89,15.57-2,22.46.91,25.24a11,11,0,0,0,12.36,1.72,8.65,8.65,0,0,0,4.43-4.78A18.31,18.31,0,0,1,81.88,49c2.57,5.79,2.16,12.5-1.24,19.93a1.65,1.65,0,0,0,.11,1.54,1.61,1.61,0,0,0,1.35.74,33.76,33.76,0,0,0,5.35-.45,17.78,17.78,0,0,0,4.75-1.4c-.77,14-9.86,21.08-15.48,24.18a36.21,36.21,0,0,1-7.41,3c.58-.44,1.13-.9,1.65-1.37a21.39,21.39,0,0,0,5.69-8.37,1.62,1.62,0,0,0-3-1.13,16,16,0,0,1-.87,2,11.59,11.59,0,0,0-3.29-11,1.6,1.6,0,0,0-2.38.1c-2.22,2.63-5.23,3.37-7.67,1.87-2.26-1.39-4.06-5-1.68-10.65a1.61,1.61,0,0,0-2.27-2c-4.79,2.7-8.12,6.16-9.89,10.27a17.48,17.48,0,0,0-.79,11.48,19.85,19.85,0,0,0,2.53,5.73A18.54,18.54,0,0,1,43.58,89a17.74,17.74,0,0,1-.26-17.84c.7-1.3,1.56-2.75,2.47-4.29,3.1-5.23,6.53-11,6.79-16.09a26,26,0,0,1,4.94,3.53c4.41,4.1,6,8.94,4.85,14.39a1.61,1.61,0,0,0,.48,1.54,1.63,1.63,0,0,0,1.58.35,17.3,17.3,0,0,0,7.2-4.87,28.64,28.64,0,0,1,3,9.19,1.61,1.61,0,1,0,3.19-.46,31.53,31.53,0,0,0-4.68-12.57,1.59,1.59,0,0,0-1.39-.73,1.6,1.6,0,0,0-1.35.8,12.61,12.61,0,0,1-4.43,4.36c.3-5.39-1.85-10.34-6.31-14.44a28.71,28.71,0,0,0-8.34-5.29,1.61,1.61,0,0,0-2.13,1.92c1.17,4.38-2.89,11.23-6.15,16.73-.93,1.57-1.81,3-2.53,4.41a20.91,20.91,0,0,0,.33,21,21.26,21.26,0,0,0,3.4,4.3A28.05,28.05,0,0,1,40,92.56C31.12,86.45,26.88,76,27.9,62.86,30.42,65.27,34.25,68.51,37,69a1.61,1.61,0,0,0,1.87-1.78c0-.21-2.38-21.31,8-34.78a1.62,1.62,0,0,0-.29-2.26,1.6,1.6,0,0,0-2.26.29c-5.89,7.61-7.94,17.31-8.62,24.11a70.89,70.89,0,0,0-.27,10.29,47.13,47.13,0,0,1-7.59-6.61,1.61,1.61,0,0,0-2.77.88C22.84,75.05,27.5,87.87,38.17,95.22a35.94,35.94,0,0,0,19.76,6.06H60a1.63,1.63,0,0,0,.31,0,41,41,0,0,0,18-4.91A33.56,33.56,0,0,0,90.91,84.42,32.74,32.74,0,0,0,95.45,65.88ZM53.52,71.13a12.41,12.41,0,0,0,.17,4.49,9.09,9.09,0,0,0,4,5.76,8.35,8.35,0,0,0,6,1.07,9.69,9.69,0,0,0,4.53-2.27,8.25,8.25,0,0,1,1.36,6.88c-.9,4.06-4.48,8.31-8.66,10.44-.48.19-1,.37-1.48.53h-.11c-4.93-.4-9.87-5.15-11.44-11.16C47.11,83.91,46.33,77,53.52,71.13Z"/><path class="cls-4" d="M74.85,79.27v0A1.61,1.61,0,0,0,76.41,81h0a1.61,1.61,0,0,0,1.61-1.56v0a1.61,1.61,0,0,0-3.22-.1Z"/><path class="cls-4" d="M50.48,27.9a1.62,1.62,0,1,1-1.61-1.61A1.61,1.61,0,0,1,50.48,27.9Z"/></svg>