<svg id="Capa_1" data-name="Capa 1" xmlns="http://www.w3.org/2000/svg" viewBox="0 0 120 120"><defs><style>.cls-1{fill:#eefaff;}.cls-2{fill:#80b6ff;}.cls-3{fill:#232323;}</style></defs><path class="cls-1" d="M90.68,34.47c-.3,0-.75-.14-1.32-.24l-12.7,4.91L43.47,72.33l-11,.49L26.91,78.4l10.16,4.08a13.76,13.76,0,0,0,14.87-3l40.3-40.3a2.75,2.75,0,0,0-1.56-4.67Z"/><path class="cls-1" d="M77.35,75.52v-.24a5.51,5.51,0,1,1,11,.24,4.05,4.05,0,0,1,1.38-.24,4.13,4.13,0,1,1,0,8.26H76a4.13,4.13,0,1,1,1.38-8Z"/><path class="cls-2" d="M68.86,54.73S63,80,63,80l-5.77,6V66.41Z"/><path class="cls-2" d="M65,50.82l-9.73,9.74H43.56l5.84-5.84Z"/><path class="cls-1" d="M31.64,39.72v-.23a5.51,5.51,0,1,1,11,.23A4,4,0,0,1,44,39.49a4.13,4.13,0,0,1,0,8.26H30.26a4.13,4.13,0,1,1,1.38-8Z"/><path class="cls-2" d="M89.36,34.23h0l-4.91,4.91a5.51,5.51,0,0,1-7.79,0l2-1.94C82.39,33.42,86.93,33.82,89.36,34.23Z"/><circle class="cls-3" cx="77.64" cy="45.96" r="1.38"/><path class="cls-3" d="M71.79,49.85a1.39,1.39,0,0,0,0,1.95,1.38,1.38,0,1,0,0-1.95Z"/><path class="cls-3" d="M50.38,71.27a1.38,1.38,0,1,0,1.94,0A1.38,1.38,0,0,0,50.38,71.27Z"/><path class="cls-3" d="M25.56,78.68a1.39,1.39,0,0,0,.84,1l10.16,4.08a15.19,15.19,0,0,0,16.35-3.34l3-3V86a1.38,1.38,0,0,0,2.37,1L64,81a1.3,1.3,0,0,0,.35-.65l3.42-14.8L77.91,55.42a1.38,1.38,0,1,0-2-2l-7,7L70.2,55a1.37,1.37,0,0,0-2.31-1.28L56.27,65.44a1.37,1.37,0,0,0-.4,1v7.16L51,78.47A12.49,12.49,0,0,1,43.52,82l4.91-4.91a1.38,1.38,0,0,0,0-2,1.39,1.39,0,0,0-2,0l-6.69,6.7a12.66,12.66,0,0,1-2.2-.65L29.35,77.9,33,74.17l7-.31-1.3,1.3a1.39,1.39,0,0,0,0,2,1.38,1.38,0,0,0,2,0L76.76,41a6.89,6.89,0,0,0,8.66-.87l4.4-4.4h0c.25,0,.47.09.66.11a1.38,1.38,0,0,1,1.11.94,1.33,1.33,0,0,1-.33,1.4l-6.55,6.54a1.38,1.38,0,1,0,2,1.95l6.54-6.54a4.13,4.13,0,0,0-2.33-7l-1.29-.24c-4.63-.77-8.7.1-12,3.35L64.28,49.58l-15.21,3.8a1.39,1.39,0,0,0-.64.37l-5.84,5.84a1.38,1.38,0,0,0,1,2.35h8.36l-9,9-10.5.47a1.36,1.36,0,0,0-.92.4l-5.53,5.59a1.38,1.38,0,0,0-.37,1.24ZM58.62,67l7.82-7.86L61.77,79.36l-3.15,3.25ZM86.29,35.35l-2.81,2.82a4.12,4.12,0,0,1-4.7.8l.8-.8A9.41,9.41,0,0,1,86.29,35.35ZM46.89,59.18,50.11,56l10.38-2.59-5.81,5.81Z"/><path class="cls-3" d="M30.26,49.12H44a5.51,5.51,0,1,0,0-11h-.14a6.88,6.88,0,0,0-13.49,0h-.14a5.51,5.51,0,1,0,0,11Zm0-8.26a2.78,2.78,0,0,1,2.6,1.84,1.37,1.37,0,1,0,2.59-.92,5.42,5.42,0,0,0-2.39-2.91,4.13,4.13,0,0,1,8.21.79,1.37,1.37,0,0,0,.56,1.17,1.39,1.39,0,0,0,1.28.19,2.82,2.82,0,0,1,.92-.16,2.76,2.76,0,0,1,0,5.51H30.26a2.76,2.76,0,0,1,0-5.51Z"/><path class="cls-3" d="M26.13,60.14h8.26a1.38,1.38,0,1,0,0-2.76H26.13a1.38,1.38,0,1,0,0,2.76Z"/><path class="cls-3" d="M37.15,65.64a1.38,1.38,0,0,0,0-2.75H31.64a1.38,1.38,0,1,0,0,2.75Z"/><path class="cls-3" d="M80.1,62.89h11a1.38,1.38,0,0,0,0-2.75h-11a1.38,1.38,0,1,0,0,2.75Z"/><path class="cls-3" d="M93.87,54.63H85.61a1.38,1.38,0,1,0,0,2.75h8.26a1.38,1.38,0,1,0,0-2.75Z"/><path class="cls-3" d="M95.25,79.41a5.51,5.51,0,0,0-5.51-5.5H89.6a6.88,6.88,0,0,0-13.49,0H76a5.51,5.51,0,1,0,0,11H89.74A5.51,5.51,0,0,0,95.25,79.41Zm-22,0a2.75,2.75,0,0,1,5.35-.91,1.37,1.37,0,0,0,2.59-.92,5.42,5.42,0,0,0-2.39-2.91,4.13,4.13,0,0,1,8.21.79,1.38,1.38,0,0,0,1.84,1.36,2.58,2.58,0,0,1,.92-.16,2.76,2.76,0,0,1,0,5.51H76a2.76,2.76,0,0,1-2.75-2.76Z"/><circle class="cls-3" cx="81.34" cy="50.09" r="1.38"/></svg>