<svg id="Capa_1" data-name="Capa 1" xmlns="http://www.w3.org/2000/svg" viewBox="0 0 120 120"><defs><style>.cls-1{fill:#2f3f4a;}.cls-2{fill:#91523d;}.cls-3{fill:#3f5666;}.cls-4{fill:#b8674d;}.cls-5{fill:#232323;}</style></defs><path class="cls-1" d="M89.08,25.54H83.24a8.63,8.63,0,0,0-7.83,5l-11,23.71h8l9.2-21.61H88Z"/><path class="cls-2" d="M73.59,93.05l-.46,2.4a.57.57,0,0,1-.55.49H67.19a.67.67,0,0,1-.63-.75l.3-3.78,1.9-23.82,7.12-3.42L70.94,90.43a.6.6,0,0,0,0,.23.66.66,0,0,0,.28.44l2.1,1.29A.63.63,0,0,1,73.59,93.05Z"/><path class="cls-3" d="M73.59,93.05l-.46,2.4a.57.57,0,0,1-.55.49H67.19a.67.67,0,0,1-.63-.75l.3-3.78,4.07-.75a.66.66,0,0,0,.28.44l2.1,1.29A.63.63,0,0,1,73.59,93.05Z"/><path class="cls-2" d="M51.92,70.54,45.18,81.65,41.44,82v8.36a.6.6,0,0,0,.3.52l2.5,1.55a.64.64,0,0,1,.29.41L45,95.51a.62.62,0,0,1-.61.73H38.33a.62.62,0,0,1-.62-.62v-17l1.92-10.42Z"/><path class="cls-3" d="M44.41,96.24H38.33a.62.62,0,0,1-.62-.62V91.37l3.87-.67a.44.44,0,0,0,.16.14l2.5,1.55a.61.61,0,0,1,.29.41L45,95.51A.62.62,0,0,1,44.41,96.24Z"/><path class="cls-3" d="M36,57.66H33.13a10,10,0,0,0-9.42,6.7L19,76.9a.31.31,0,0,0,.2.39h0a7.8,7.8,0,0,0,7.3-5.06l3-8.06,4.14-.06Z"/><path class="cls-4" d="M101,34v3.73c0,2.23-1.86,4.47-4.06,4.11-4.75-.78-9.38,2.26-9.38,2.26S88.72,60.9,85,67.67C83,71.51,81.73,89.78,81.73,89.78a.74.74,0,0,0,.07.21.68.68,0,0,0,.17.21l3.21,2.44a.63.63,0,0,1,.23.63l-.53,2.2a.62.62,0,0,1-.6.47H78.52a.68.68,0,0,1-.67-.52L77,91.23l-.25-16.77c-.07-.29-12.3,1.09-16.52-3.24C52.65,70.06,44.88,73,44.82,73l-9,8.37a.67.67,0,0,1-.46.18h-3a.69.69,0,0,0-.69.69v8.37a.65.65,0,0,0,.08.31.63.63,0,0,0,.2.23l1.58,1.19a.64.64,0,0,1,.25.38l.59,2.33a.68.68,0,0,1-.66.85H28.07a.68.68,0,0,1-.68-.68V77.76a.67.67,0,0,1,.39-.62l1.95-2.2a.68.68,0,0,0,.4-.61V65a11,11,0,0,1,9.66-10.95L71,51.26,81.21,29.17H87a4.47,4.47,0,0,1,3.15,1.3l1,1a4.48,4.48,0,0,0,3.15,1.3h5.51A1.24,1.24,0,0,1,101,34Z"/><path class="cls-2" d="M75.77,48.55l9-19.38H81.21L71.1,51l1.44-.13A3.94,3.94,0,0,0,75.77,48.55Z"/><path class="cls-2" d="M81.35,95.42l-.87-4.19-.22-14.56A1.67,1.67,0,0,0,78.57,75l-1.82,0L77,91.23l.86,4.19a.69.69,0,0,0,.67.52H82A.67.67,0,0,1,81.35,95.42Z"/><path class="cls-2" d="M30.88,95.26V77.76a.68.68,0,0,1,.4-.62l1.95-2.2a.67.67,0,0,0,.39-.61V65a12.2,12.2,0,0,1,8-11.12l-1.81.17A11,11,0,0,0,30.13,65v9.31a.68.68,0,0,1-.4.61l-1.95,2.2a.67.67,0,0,0-.39.62v17.5a.68.68,0,0,0,.68.68h3.5A.68.68,0,0,1,30.88,95.26Z"/><path class="cls-3" d="M33.69,95.94H28.07a.67.67,0,0,1-.68-.68V91.61L31.74,91a.63.63,0,0,0,.2.23l1.58,1.19a.64.64,0,0,1,.25.38l.59,2.34A.68.68,0,0,1,33.69,95.94Z"/><path class="cls-3" d="M85.41,93.27l-.53,2.2a.61.61,0,0,1-.6.47H78.52a.69.69,0,0,1-.67-.52L77,91.23,81.8,90a.68.68,0,0,0,.17.21l3.21,2.44A.63.63,0,0,1,85.41,93.27Z"/><path class="cls-2" d="M81.21,29.17l1-3.41a2.78,2.78,0,0,1,2.67-2h0a.52.52,0,0,1,.52.55l-.17,4.9a2.36,2.36,0,0,1-2.36,2.27Z"/><path class="cls-5" d="M99.74,31.46H94.23A3.17,3.17,0,0,1,92,30.53l-1-1a6,6,0,0,0-1.13-.88l.45-2.95a1.28,1.28,0,0,0-.3-1,1.31,1.31,0,0,0-1-.45H86.7A1.92,1.92,0,0,0,86.19,23a1.84,1.84,0,0,0-1.31-.55,4.08,4.08,0,0,0-3.47,2A10,10,0,0,0,74.23,30a1.29,1.29,0,0,0,.63,1.72,1.33,1.33,0,0,0,.55.12,1.3,1.3,0,0,0,1.17-.75,7.35,7.35,0,0,1,3.79-3.66L80,28.7,70.1,50l-2.38.21,6-13.06a1.29,1.29,0,0,0-2.35-1.08L64.74,50.52l-8,.72a1.29,1.29,0,0,0,.12,2.58H57L65.72,53h.07l5.29-.47a1.28,1.28,0,0,0,1-.75l9.32-20.08.37.52a1.33,1.33,0,0,0,1.05.53,3.63,3.63,0,0,0,3.4-2.31H87a3,3,0,0,1,1.07.19,3.15,3.15,0,0,1,1.16.74l1,1a5.79,5.79,0,0,0,4.06,1.69h5.46v3.67a3.25,3.25,0,0,1-1.08,2.36,1.84,1.84,0,0,1-1.48.47C91.94,39.71,87,42.87,86.83,43a1.29,1.29,0,0,0-.58,1.17c0,.16,1.11,16.51-2.34,22.88-.71,1.29-1.35,3.91-2,8a1.29,1.29,0,0,0,1.09,1.47h.19a1.3,1.3,0,0,0,1.28-1.1c.73-4.9,1.35-6.59,1.66-7.16,3.38-6.23,2.89-20,2.7-23.48,1.34-.73,4.6-2.23,7.83-1.7a4.38,4.38,0,0,0,3.57-1.06,5.83,5.83,0,0,0,2-4.33V34A2.54,2.54,0,0,0,99.74,31.46ZM83.43,30l-.8-1.11.82-2.8a1.49,1.49,0,0,1,.62-.83l-.13,3.87A1.09,1.09,0,0,1,83.43,30Zm3.14-2.16,0-1h1l-.16,1.06-.44,0Z"/><path class="cls-5" d="M86.72,93.05v-.17a.44.44,0,0,0,0-.1v0a.36.36,0,0,1,0-.1v0c0-.07-.05-.14-.07-.21s0,0,0,0v0l-.12-.22,0,0a1.79,1.79,0,0,0-.44-.47l-2.9-2.21c.11-1.23.38-4.55.62-7a1.3,1.3,0,1,0-2.58-.24c-.22,2.37-.49,5.5-.6,6.86l-2.24.58L78,74.45a1.27,1.27,0,0,0,0-.28,1.52,1.52,0,0,0-1.64-1l-1.07,0c-3.06.06-11.18.21-14.14-2.82a1.26,1.26,0,0,0-.73-.38,30.79,30.79,0,0,0-9.16.14h-.07c-.62.1-1.21.2-1.75.31-1.56.32-2.84.68-3.64.93-1.57.49-1.7.6-1.86.76L35.09,80.3H32.35a2,2,0,0,0-2,2v7.58l-1.69.25v-12l.07-.07,1.82-2a2,2,0,0,0,.85-1.62V65a9.78,9.78,0,0,1,8.51-9.67l9-.8a1.31,1.31,0,0,0,1.17-1.41A1.29,1.29,0,0,0,48.67,52l-9,.81h0a12.29,12.29,0,0,0-7.26,3.61,11.33,11.33,0,0,0-9.88,7.53L17.82,76.45a1.63,1.63,0,0,0,.07,1.28,1.66,1.66,0,0,0,1,.81,1.41,1.41,0,0,0,.35,0,9.11,9.11,0,0,0,8.51-5.91l1.09-2.92V74l-.06.06-1.83,2a2,2,0,0,0-.84,1.63v17.5h0a2,2,0,0,0,2,2h5.62a2,2,0,0,0,1.92-2.46L35,92.45a2,2,0,0,0-.73-1.11l-1.34-1V82.89h2.36a2,2,0,0,0,1.1-.33V95.62a1.92,1.92,0,0,0,1.91,1.91h6.08a1.81,1.81,0,0,0,.4,0h0l.14,0,.06,0,.11,0,.08,0,.07,0a.41.41,0,0,0,.11-.07.05.05,0,0,0,0,0l.14-.09h0a3.83,3.83,0,0,0,.29-.28h0a1.83,1.83,0,0,0,.13-.16l0-.06s.05-.08.07-.13a1.93,1.93,0,0,0,.19-1.16s0,0,0,0l0-.22-.45-2.49a1.91,1.91,0,0,0-.88-1.28l-2.18-1.35V83.15l2.54-.21a1.25,1.25,0,0,0,1-.62l5.93-9.77a27.69,27.69,0,0,1,7.42-.11c1.78,1.61,4.47,2.45,7.21,2.87L65.27,95.08a2,2,0,0,0,0,.6v0l0,.1,0,.11v0a2,2,0,0,0,.41.68,1.89,1.89,0,0,0,1.4.63h5.39a1.9,1.9,0,0,0,.78-.18,1.86,1.86,0,0,0,.93-1,1.45,1.45,0,0,0,.11-.37l.46-2.4h0a1.94,1.94,0,0,0-.6-1.8l0,0,0,0L74,91.29l-1.7-1.05L75,75.73h.44l.23,15.51h0a.06.06,0,0,0,0,0v.08a.5.5,0,0,0,0,.12l.86,4.19v0a2,2,0,0,0,1.93,1.53h5.76a1.91,1.91,0,0,0,1.86-1.47l.52-2.2s0,0,0-.07,0,0,0-.06a.25.25,0,0,0,0-.08s0,0,0-.06v-.25ZM28.32,63.72l-3,8.06a6.49,6.49,0,0,1-4.49,4l4.09-11v0a8.7,8.7,0,0,1,5.22-5.3A12.37,12.37,0,0,0,29,63,1.27,1.27,0,0,0,28.32,63.72Zm.36,30.93V92.73l2.62-.39,1.27,1,.34,1.36ZM39,94.94V92.46l2.25-.39,2.05,1.26.29,1.61Zm5.4-14.53-3.07.26A1.29,1.29,0,0,0,40.15,82v7.67l-1.14.2V80.19l6.51-6a31,31,0,0,1,3.27-1Zm26,11.67.16.12,1.71,1L72,94.65H67.9l.18-2.15Zm-.59-2.52-1.49.27,1.13-14.22c1,.08,2,.12,3,.13Zm14,5.09H79l-.52-2.47,2.94-.76,2.6,2Z"/><circle class="cls-5" cx="89.08" cy="33.83" r="1.29"/></svg>